<svg xmlns="http://www.w3.org/2000/svg">
<defs>
<font id="TTCommonsVidMob-MediumItalic" horiz-adv-x="568" >
  <font-face 
    font-family="TT Commons VidMob Light"
    font-weight="500"
    font-style="italic"
    font-stretch="normal"
    units-per-em="1000"
    panose-1="2 0 8 3 3 0 0 9 0 4"
    ascent="800"
    descent="-200"
    x-height="511"
    cap-height="716"
    bbox="-369 -325 1438 904"
    underline-thickness="73"
    underline-position="-142"
    slope="-10"
    unicode-range="U+000D-FB06"
  />
<missing-glyph horiz-adv-x="900" 
d="M100 284h45v-139h33v139h50v31h-128v126l19 -61h23l34 106l33 -106h23l54 170h-32l-34 -110l-35 110h-19l-35 -110l-31 103v157h700v-150h-110v-170h110v-91q-13 27 -50 27q-29 0 -44.5 -14.5t-15.5 -34.5q0 -22 13.5 -32t30 -15t30.5 -9.5t14 -16.5q0 -14 -9.5 -17.5
t-18.5 -3.5q-15 0 -21.5 7.5t-6.5 17.5h-33q0 -24 16.5 -39.5t44.5 -15.5q20 0 32.5 7.5t17.5 12.5v-163h-700v284zM328 143q38 0 60 25t22 61q0 37 -22.5 62t-59.5 25t-59.5 -25t-22.5 -62q0 -36 22 -61t60 -25zM328 174q-23 0 -37 16t-14 39q0 24 13.5 40t37.5 16
t37.5 -16t13.5 -40q0 -23 -14 -39t-37 -16zM344 380v62h24l35 -62h37l-40 67q36 16 36 50q0 21 -15.5 37t-41.5 16h-68v-170h33zM344 519h35q10 0 17 -6t7 -17q0 -13 -8 -18t-16 -5h-35v46zM585 143q29 0 48 18.5t19 47.5v106h-32v-106q0 -15 -9 -25t-26 -10q-18 0 -27 11
t-9 24v106h-32v-106q0 -29 19.5 -47.5t48.5 -18.5zM502 380v170h-33v-170h33zM612 380v139h50v31h-132v-31h50v-139h32zM800 224q-11 10 -24 14.5t-24.5 8.5t-19.5 8t-8 12q0 9 7.5 14.5t18.5 5.5q10 0 18 -6.5t8 -18.5h24v-38zM722 452h78v-41h-78v41zM722 519h78v-36h-78
v36z" />
    <glyph glyph-name="ff" unicode="ff" horiz-adv-x="613" 
d="M158 415h-63l17 96h63l4 25q7 38 23.5 68t39 51t51 32.5t59.5 11.5q17 0 29.5 -2.5t21.5 -5.5q11 -4 18 -8l-15 -89q-6 2 -13 4q-6 2 -13 3t-15 1q-31 0 -54.5 -21.5t-29.5 -52.5l-4 -17h188l9 47q7 38 23 68t38.5 51t50.5 32.5t59 11.5q16 0 29.5 -2.5t22.5 -4.5
q11 -4 19 -7l-16 -91q-6 2 -13 4q-6 2 -13 3.5t-14 1.5q-31 0 -55 -20.5t-30 -52.5l-8 -41h113l-17 -96h-113l-73 -415h-102l73 415h-188l-73 -415h-102z" />
    <glyph glyph-name="uniFB01" unicode="fi" horiz-adv-x="545" 
d="M158 415h-63l17 96h63l9 46q15 76 62 120t110 44q16 0 29 -2.5t22 -5.5q11 -4 19 -8l-16 -90q-7 2 -13 4t-12.5 3.5t-14.5 1.5q-31 0 -55 -20.5t-30 -52.5l-7 -40h289l-90 -511h-102l73 415h-188l-73 -415h-102zM535 591q-24 0 -40.5 17.5t-16.5 40.5q0 28 21.5 47.5
t48.5 19.5q23 0 39.5 -18t16.5 -40q0 -14 -6 -26.5t-15.5 -21.5t-22 -14t-25.5 -5z" />
    <glyph glyph-name="uniFB02" unicode="fl" horiz-adv-x="557" 
d="M158 415h-63l17 96h63l2 12q9 45 28.5 82.5t49.5 64.5t70 42t89 15q20 0 37 -3t29 -6q14 -4 26 -8h102l-125 -710h-102l106 608q-11 8 -23 14q-11 5 -26 9.5t-32 4.5q-58 0 -87 -31t-40 -82l-2 -12h114l-17 -96h-114l-73 -415h-102z" />
    <glyph glyph-name="ffi" unicode="ffi" horiz-adv-x="835" 
d="M158 415h-63l17 96h63l4 25q7 38 23.5 68t39 51t51 32.5t59.5 11.5q17 0 29.5 -2.5t21.5 -5.5q11 -4 18 -8l-15 -89q-6 2 -13 4q-6 2 -13 3t-15 1q-31 0 -54.5 -21.5t-29.5 -52.5l-4 -17h189l8 46q6 38 22 68.5t38.5 51.5t51 32.5t59.5 11.5q16 0 29.5 -2.5t22.5 -5.5
q11 -4 19 -8l-16 -89q-6 2 -13 4q-6 2 -13 3.5t-14 1.5q-31 0 -55 -21t-30 -53l-7 -40h289l-90 -511h-102l72 415h-187l-73 -415h-102l73 415h-188l-73 -415h-102zM825 591q-24 0 -40.5 17.5t-16.5 40.5q0 14 6 26t15.5 21t22 14.5t25.5 5.5q24 0 40.5 -18t16.5 -40
q0 -14 -6 -26.5t-15.5 -21.5t-22 -14t-25.5 -5z" />
    <glyph glyph-name="ffl" unicode="ffl" horiz-adv-x="846" 
d="M158 415h-63l17 96h63l4 25q7 38 23.5 68t39 51t51 32.5t59.5 11.5q17 0 29.5 -2.5t21.5 -5.5q11 -4 18 -8l-15 -89q-6 2 -13 4q-6 2 -13 3t-15 1q-31 0 -54.5 -21.5t-29.5 -52.5l-4 -17h188l2 12q9 45 28.5 82.5t49.5 64.5t70 42t88 15q20 0 37.5 -3t29.5 -6
q14 -4 25 -8h102l-125 -710h-102l107 608q-11 8 -23 14q-11 5 -26 9.5t-33 4.5q-57 0 -86 -31t-40 -82l-2 -12h113l-17 -96h-113l-73 -415h-102l73 415h-188l-73 -415h-102z" />
    <glyph glyph-name="f_f_j" unicode="ffj" horiz-adv-x="835" 
d="M588 -187q-16 0 -28.5 2.5t-21.5 5.5q-11 4 -19 9l16 89q6 -3 13 -5q13 -5 27 -5q32 0 56.5 22t30.5 57l75 427h-187l-73 -415h-102l73 415h-188l-73 -415h-102l73 415h-63l17 96h63l4 25q7 38 23.5 68t39 51t51 32.5t59.5 11.5q17 0 29.5 -2.5t21.5 -5.5q11 -4 18 -8
l-15 -89q-6 2 -13 4q-6 2 -13 3t-15 1q-31 0 -54.5 -21.5t-29.5 -52.5l-4 -17h189l8 46q6 38 22 68.5t38.5 51.5t51 32.5t59.5 11.5q16 0 29.5 -2.5t22.5 -5.5q11 -4 19 -8l-16 -89q-6 2 -13 4q-6 2 -13 3.5t-14 1.5q-31 0 -55 -21t-30 -53l-7 -40h289l-95 -536
q-14 -77 -62.5 -119.5t-111.5 -42.5zM825 591q-24 0 -40.5 17.5t-16.5 40.5q0 14 6 26t15.5 21t22 14.5t25.5 5.5q24 0 40.5 -18t16.5 -40q0 -14 -6 -26.5t-15.5 -21.5t-22 -14t-25.5 -5z" />
    <glyph glyph-name="f_j" unicode="fj" horiz-adv-x="545" 
d="M299 -187q-16 0 -29 2.5t-22 5.5q-11 4 -19 9l16 89q6 -3 13 -5q13 -5 27 -5q32 0 57 22t31 57l75 427h-188l-74 -421l-101 6l73 415h-63l17 96h64l8 46q6 38 22 68.5t39 51.5t51.5 32.5t59.5 11.5q16 0 29 -2.5t22 -5.5q11 -4 19 -8l-16 -89q-7 2 -13 4t-12.5 3.5
t-14.5 1.5q-31 0 -55 -21t-30 -53l-7 -40h289l-94 -536q-7 -38 -23.5 -68t-39.5 -51t-51.5 -32t-59.5 -11zM535 591q-24 0 -40.5 17.5t-16.5 40.5q0 28 21.5 47.5t48.5 19.5q23 0 39.5 -18t16.5 -40q0 -14 -6 -26.5t-15.5 -21.5t-22 -14t-25.5 -5z" />
    <glyph glyph-name=".notdef" horiz-adv-x="900" 
d="M100 284h45v-139h33v139h50v31h-128v126l19 -61h23l34 106l33 -106h23l54 170h-32l-34 -110l-35 110h-19l-35 -110l-31 103v157h700v-150h-110v-170h110v-91q-13 27 -50 27q-29 0 -44.5 -14.5t-15.5 -34.5q0 -22 13.5 -32t30 -15t30.5 -9.5t14 -16.5q0 -14 -9.5 -17.5
t-18.5 -3.5q-15 0 -21.5 7.5t-6.5 17.5h-33q0 -24 16.5 -39.5t44.5 -15.5q20 0 32.5 7.5t17.5 12.5v-163h-700v284zM328 143q38 0 60 25t22 61q0 37 -22.5 62t-59.5 25t-59.5 -25t-22.5 -62q0 -36 22 -61t60 -25zM328 174q-23 0 -37 16t-14 39q0 24 13.5 40t37.5 16
t37.5 -16t13.5 -40q0 -23 -14 -39t-37 -16zM344 380v62h24l35 -62h37l-40 67q36 16 36 50q0 21 -15.5 37t-41.5 16h-68v-170h33zM344 519h35q10 0 17 -6t7 -17q0 -13 -8 -18t-16 -5h-35v46zM585 143q29 0 48 18.5t19 47.5v106h-32v-106q0 -15 -9 -25t-26 -10q-18 0 -27 11
t-9 24v106h-32v-106q0 -29 19.5 -47.5t48.5 -18.5zM502 380v170h-33v-170h33zM612 380v139h50v31h-132v-31h50v-139h32zM800 224q-11 10 -24 14.5t-24.5 8.5t-19.5 8t-8 12q0 9 7.5 14.5t18.5 5.5q10 0 18 -6.5t8 -18.5h24v-38zM722 452h78v-41h-78v41zM722 519h78v-36h-78
v36z" />
    <glyph glyph-name=".null" horiz-adv-x="0" 
 />
    <glyph glyph-name=".null" horiz-adv-x="0" 
 />
    <glyph glyph-name="nonmarkingreturn" unicode="&#xd;" horiz-adv-x="0" 
 />
    <glyph glyph-name="space" unicode=" " horiz-adv-x="250" 
 />
    <glyph glyph-name="exclam" unicode="!" horiz-adv-x="284" 
d="M141 -6q-23 0 -37.5 15.5t-14.5 38.5q0 14 6 27t16.5 22.5t24 15.5t28.5 6q26 0 40.5 -18t10.5 -44q-5 -26 -26.5 -44.5t-47.5 -18.5zM206 716h125l-112 -534h-91z" />
    <glyph glyph-name="quotedbl" unicode="&#x22;" horiz-adv-x="358" 
d="M177 716h91l-37 -210h-91zM342 716h91l-38 -210h-91z" />
    <glyph glyph-name="numbersign" unicode="#" horiz-adv-x="687" 
d="M190 204h-142l30 80h137l54 148h-136l32 79h136l75 205h80l-75 -205h164l75 205h80l-75 -205h142l-32 -79h-136l-55 -148h136l-30 -80h-137l-76 -204h-79l76 204h-165l-76 -204h-79zM465 284l54 148h-170l-55 -148h171z" />
    <glyph glyph-name="dollar" unicode="$" 
d="M239 2q-78 18 -119.5 73.5t-41.5 140.5h108q1 -36 16 -63q13 -23 41.5 -42.5t82.5 -19.5q65 0 100.5 30.5t35.5 75.5q0 33 -24 55t-60 39.5t-77.5 34.5t-77.5 40.5t-60 56.5t-24 83q0 52 21.5 90.5t54.5 65t73 41t78 17.5l17 98h96l-19 -107q69 -20 108.5 -75t39.5 -136
h-107q-3 35 -16 62q-11 23 -36 42.5t-70 19.5q-29 0 -53 -8.5t-41.5 -23t-27 -33.5t-9.5 -39q0 -31 24 -51.5t60 -37.5t77.5 -33.5t77.5 -40.5t60 -58.5t24 -86.5q0 -39 -16 -77t-47 -68t-75 -49.5t-99 -22.5l-17 -97h-97z" />
    <glyph glyph-name="percent" unicode="%" horiz-adv-x="699" 
d="M654 716h80l-564 -716h-79zM527 0q-28 0 -52.5 11t-42.5 30t-28.5 43.5t-10.5 51.5q0 33 14 61.5t36.5 50.5t51.5 34.5t59 12.5q28 0 52.5 -11t42.5 -29.5t28.5 -43.5t10.5 -52q0 -32 -14 -61t-36.5 -51t-51.5 -34.5t-59 -12.5zM529 62q16 0 32.5 7.5t29.5 20.5t21 29.5
t8 34.5q0 16 -5.5 30.5t-15 25t-22.5 17t-27 6.5q-16 0 -32.5 -7.5t-29.5 -20t-21 -29.5t-8 -35q0 -32 20.5 -55.5t49.5 -23.5zM270 420q-28 0 -52.5 11t-42.5 30t-28.5 44t-10.5 52q0 32 14 61t36.5 50.5t52 34.5t59.5 13q28 0 52.5 -11t42.5 -30t28.5 -44t10.5 -52
q0 -32 -14 -61t-36.5 -51t-52 -34.5t-59.5 -12.5zM275 483q16 0 32.5 7.5t29.5 20t21 29.5t8 35q0 16 -5.5 30t-15.5 24.5t-22.5 17t-27.5 6.5q-16 0 -32.5 -7.5t-29.5 -20t-21 -29.5t-8 -35q0 -16 5.5 -30t15.5 -24.5t22.5 -17t27.5 -6.5z" />
    <glyph glyph-name="ampersand" unicode="&#x26;" horiz-adv-x="613" 
d="M265 -6q-43 0 -78 13t-59.5 35t-38 52t-13.5 64q0 53 24.5 92t53.5 66q34 31 78 54l-25 37q-17 27 -33 56t-16 69q0 36 16 69.5t42.5 59t61 40.5t72.5 15q35 0 64.5 -13t51 -35t33.5 -50.5t12 -59.5q0 -34 -10 -60t-25.5 -46t-34.5 -35t-37 -27l-45 -31l107 -130l91 112
h111l-145 -176l136 -165h-131l-69 85q-27 -26 -58 -46q-26 -17 -61.5 -31t-74.5 -14zM273 85q26 0 50.5 9.5t43.5 21.5q22 14 40 32l-123 148l-16 -9t-36 -25.5t-36.5 -40.5t-16.5 -55q0 -30 22 -53t60 -27q3 0 6 -0.5t6 -0.5zM353 458q6 4 16 12.5t20.5 21t18 27.5t7.5 32
q0 28 -21 48t-54 20q-37 0 -60.5 -25.5t-23.5 -58.5q0 -28 11 -47.5t15 -24.5l27 -36z" />
    <glyph glyph-name="quotesingle" unicode="'" horiz-adv-x="193" 
d="M177 716h91l-37 -210h-91z" />
    <glyph glyph-name="parenleft" unicode="(" horiz-adv-x="312" 
d="M179 -223q-25 43 -43 98q-16 47 -29 111.5t-13 145.5q0 67 11 128.5t28.5 116.5t40.5 102.5t47 87.5q55 92 127 166l64 -51q-63 -71 -111 -156q-21 -36 -40.5 -79.5t-35 -93t-25 -104.5t-9.5 -113q0 -69 10.5 -125.5t24.5 -96.5q16 -48 36 -84l-83 -53v0z" />
    <glyph glyph-name="parenright" unicode=")" horiz-adv-x="312" 
d="M-6 -172q62 71 111 156q21 36 40.5 79.5t35.5 93t25.5 104t9.5 113.5q0 69 -11 125t-25 97q-16 47 -36 84l83 53q24 -43 42 -98q16 -47 29.5 -112t13.5 -145q0 -67 -11 -128.5t-29 -116.5t-40.5 -103t-46.5 -87q-55 -93 -126 -166z" />
    <glyph glyph-name="asterisk" unicode="*" horiz-adv-x="375" 
d="M148 443l74 91l-114 28l23 74l108 -40l-6 120h79l-5 -120l108 40l22 -74l-113 -28l74 -91l-69 -45l-56 96l-57 -96z" />
    <glyph glyph-name="plus" unicode="+" horiz-adv-x="517" 
d="M261 244h-176v91h176v182h97v-182h176v-91h-176v-182h-97v182z" />
    <glyph glyph-name="comma" unicode="," horiz-adv-x="193" 
d="M39 -81q12 8 24 19q10 9 21 23t19 33q-27 3 -42.5 19t-15.5 38q0 27 20 47.5t49 20.5q25 0 40.5 -16.5t15.5 -43.5q0 -24 -10.5 -49t-27.5 -46.5t-38 -39.5t-43 -29z" />
    <glyph glyph-name="hyphen" unicode="-" horiz-adv-x="398" 
d="M93 335h330l-16 -91h-330z" />
    <glyph glyph-name="period" unicode="." horiz-adv-x="193" 
d="M102 -6q-25 0 -41 16.5t-16 40.5q0 29 20.5 48.5t48.5 19.5q25 0 40.5 -16.5t15.5 -40.5q0 -28 -20 -48t-48 -20z" />
    <glyph glyph-name="slash" unicode="/" horiz-adv-x="331" 
d="M361 722h97l-363 -728h-96z" />
    <glyph glyph-name="zero" unicode="0" horiz-adv-x="648" 
d="M348 -6q-53 0 -98.5 20t-79.5 57.5t-53 92t-19 123.5q0 105 29.5 186t77 136t106 83.5t116.5 28.5q53 0 98.5 -20t79.5 -57.5t53 -92t19 -123.5q0 -105 -29.5 -185.5t-77 -136t-106 -84t-116.5 -28.5zM352 91q32 0 70 20.5t70.5 61t54 102t21.5 143.5q0 51 -12 89.5
t-32.5 64.5t-46.5 39.5t-54 13.5q-33 0 -71 -20.5t-70.5 -61.5t-54 -103t-21.5 -144q0 -51 12.5 -89t32.5 -64t46.5 -39t54.5 -13z" />
    <glyph glyph-name="one" unicode="1" horiz-adv-x="364" 
d="M270 568l-106 -62l-37 85l204 125h73l-126 -716h-108z" />
    <glyph glyph-name="two" unicode="2" horiz-adv-x="551" 
d="M59 80l341 302q25 22 45 46q17 20 31.5 45.5t14.5 51.5q0 42 -30.5 71t-90.5 29q-25 0 -47 -10t-40 -27t-30.5 -39.5t-16.5 -48.5h-108q8 50 30 90.5t54 69.5t73.5 45t89.5 16q53 0 94.5 -15t70.5 -41t44 -61t15 -75q0 -39 -21.5 -78t-47.5 -70q-31 -36 -69 -69
l-243 -210h306l-18 -102h-461z" />
    <glyph glyph-name="three" unicode="3" horiz-adv-x="562" 
d="M306 -6q-58 0 -102.5 16.5t-74.5 44t-45.5 63.5t-15.5 75h110q0 -20 8.5 -38.5t25.5 -32.5t42 -22.5t58 -8.5q30 0 55.5 9.5t44 26t28.5 38.5t10 47q0 21 -7.5 40t-22.5 33.5t-37 23.5t-50 9h-50l17 97h59q28 0 51 9t40 24t26.5 35.5t9.5 44.5q0 42 -30.5 69.5
t-86.5 27.5q-25 0 -46.5 -8.5t-38.5 -22.5t-28.5 -32.5t-16.5 -38.5h-109q8 39 30 75t54.5 63t73 43.5t86.5 16.5q49 0 89.5 -15.5t69.5 -41.5t44.5 -60.5t15.5 -71.5q0 -47 -18.5 -79t-41.5 -52q-26 -24 -60 -37q24 -15 42 -36q16 -18 29.5 -46.5t13.5 -66.5
q0 -44 -18.5 -83.5t-51.5 -70.5t-79.5 -49t-102.5 -18z" />
    <glyph glyph-name="four" unicode="4" horiz-adv-x="557" 
d="M366 142h-318l16 91l386 483h125l-83 -472h79l-18 -102h-79l-25 -142h-108zM384 244l54 313l-247 -313h193z" />
    <glyph glyph-name="five" unicode="5" horiz-adv-x="574" 
d="M310 -5q-54 0 -96 16.5t-71.5 44t-44.5 63.5t-15 74h109q0 -19 8.5 -37.5t24.5 -32.5t39 -23t52 -9q30 0 57.5 12.5t49.5 34t35 52t13 66.5q0 28 -9.5 52t-26.5 41t-41 27t-52 10q-31 0 -56.5 -13.5t-43.5 -29.5q-21 -18 -38 -42h-88l118 415h381l-19 -103h-288l-46 -161
q13 8 30 15q14 6 34 11t43 5q46 0 84.5 -18.5t66.5 -49.5t43.5 -71t15.5 -83q0 -56 -22 -104.5t-58.5 -84.5t-85.5 -56.5t-103 -20.5z" />
    <glyph glyph-name="six" unicode="6" 
d="M309 -6q-56 0 -99 18.5t-72.5 49.5t-45 71.5t-15.5 83.5q0 35 11 67.5t27 60.5t34 50.5t33 39.5l246 281h120l-203 -239h5q2 0 6.5 0.5t11.5 0.5q43 0 81.5 -16.5t67 -45.5t45 -68.5t16.5 -86.5q0 -56 -22 -104.5t-58.5 -84.5t-85.5 -57t-103 -21zM315 91q30 0 58 12
t50 34t35 52t13 65q0 28 -9.5 52t-27 42t-41.5 28t-52 10q-30 0 -58.5 -12.5t-50.5 -34t-35 -51.5t-13 -65q0 -28 10 -52t27 -42t41 -28t53 -10z" />
    <glyph glyph-name="seven" unicode="7" horiz-adv-x="517" 
d="M466 613h-318l18 103h449l-13 -74l-403 -642h-119z" />
    <glyph glyph-name="eight" unicode="8" horiz-adv-x="557" 
d="M310 -6q-58 0 -102 16.5t-74 44.5t-45.5 63t-15.5 73q0 57 22.5 96t49.5 62q32 27 73 43q-17 14 -30 32q-11 16 -20.5 39.5t-9.5 55.5q0 40 18 77t49 64.5t72.5 44t87.5 16.5t84 -15t65 -39.5t41.5 -57.5t14.5 -69q0 -44 -18 -74t-39 -49q-26 -22 -57 -36q24 -15 43 -37
q16 -19 29.5 -49t13.5 -72q0 -47 -18.5 -88.5t-51.5 -72.5t-79.5 -49.5t-102.5 -18.5zM314 91q62 0 102 35.5t40 92.5q0 47 -34.5 78.5t-98.5 31.5q-63 0 -102.5 -35.5t-39.5 -92.5q0 -46 34 -78t99 -32zM367 426q25 0 46 8.5t36 23.5t23.5 34t8.5 40q0 38 -28 65.5
t-75 27.5q-25 0 -45.5 -8.5t-35.5 -23.5t-23.5 -34t-8.5 -40q0 -38 27 -65.5t75 -27.5z" />
    <glyph glyph-name="nine" unicode="9" 
d="M351 239q-2 -1 -5 -1q-4 -1 -18 -1q-44 0 -82 16.5t-66.5 45.5t-45 68.5t-16.5 86.5q0 56 22 104.5t58.5 84.5t85.5 57t103 21q55 0 98.5 -18.5t73 -49.5t45 -71t15.5 -83q0 -36 -11 -68t-27 -60t-34 -51t-32 -39l-247 -281h-119zM356 329q30 0 58 12.5t50 34.5t35 52
t13 65q0 28 -9.5 52t-27 42t-41.5 28t-52 10q-30 0 -58.5 -12.5t-50.5 -34t-35 -51.5t-13 -66q0 -28 9.5 -52t27 -42t41.5 -28t53 -10z" />
    <glyph glyph-name="colon" unicode=":" horiz-adv-x="193" 
d="M102 -6q-25 0 -41 16.5t-16 40.5q0 29 20.5 48.5t48.5 19.5q25 0 40.5 -16.5t15.5 -40.5q0 -28 -20 -48t-48 -20zM170 386q-25 0 -40.5 16.5t-15.5 40.5q0 29 20 48.5t48 19.5q25 0 41 -16.5t16 -40.5q0 -28 -20.5 -48t-48.5 -20z" />
    <glyph glyph-name="semicolon" unicode=";" horiz-adv-x="193" 
d="M39 -81q12 8 24 19q10 9 21 23t19 33q-27 3 -42.5 19t-15.5 38q0 27 20 47.5t49 20.5q25 0 40.5 -16.5t15.5 -43.5q0 -24 -10.5 -49t-27.5 -46.5t-38 -39.5t-43 -29zM170 386q-25 0 -40.5 16.5t-15.5 40.5q0 29 20 48.5t48 19.5q25 0 41 -16.5t16 -40.5q0 -28 -20.5 -48
t-48.5 -20z" />
    <glyph glyph-name="less" unicode="&#x3c;" horiz-adv-x="506" 
d="M74 216v68l414 216v-102l-289 -148l289 -148v-102z" />
    <glyph glyph-name="equal" unicode="=" horiz-adv-x="511" 
d="M97 233h443v-97h-443v97zM97 443h443v-97h-443v97z" />
    <glyph glyph-name="greater" unicode="&#x3e;" horiz-adv-x="506" 
d="M108 102l290 148l-290 148v102l415 -216v-68l-415 -216v102z" />
    <glyph glyph-name="question" unicode="?" horiz-adv-x="488" 
d="M245 -6q-25 0 -40.5 16.5t-15.5 40.5q0 29 20 48.5t48 19.5q25 0 41 -16.5t16 -40.5q0 -28 -20.5 -48t-48.5 -20zM225 199q11 55 31 91t44.5 61t50 42t46.5 35t34.5 40t13.5 57q0 39 -28 66t-74 27q-44 0 -79.5 -31.5t-44.5 -93.5l-2 -16h-101l3 23q8 53 30 94t53.5 69.5
t70.5 43t80 14.5q43 0 79 -15t61.5 -40.5t40 -59.5t14.5 -73q0 -48 -14 -80t-36 -55.5t-48.5 -42.5t-51 -40t-44 -48.5t-27.5 -67.5l-3 -17h-102z" />
    <glyph glyph-name="at" unicode="@" horiz-adv-x="852" 
d="M437 -125q-77 0 -142 28t-111.5 75.5t-72.5 110.5t-26 134q0 86 34.5 161.5t92.5 131.5t134.5 88t159.5 32h16.5t17.5 -1q72 -6 131.5 -35t102 -74t66 -103.5t23.5 -123.5q0 -61 -16 -105.5t-42.5 -74t-59.5 -43.5t-67 -14q-33 0 -54.5 9.5t-34.5 21.5q-15 14 -23 32
q-16 -18 -35 -32q-17 -12 -40.5 -21.5t-53.5 -9.5q-36 0 -66 13t-51.5 35.5t-33.5 54t-12 68.5q0 48 16.5 87.5t44 68t62.5 44.5t72 16q33 0 56 -9t37 -20q17 -12 28 -28l27 51h63l-39 -216q-1 -7 -2 -13.5t-1 -13.5q0 -26 11 -45t37 -19q14 0 30 7t29.5 24.5t22.5 48.5
t9 79q0 55 -21 103.5t-58 85t-87.5 57.5t-110.5 21q-63 0 -122.5 -26t-105 -71t-73 -106.5t-27.5 -131.5q0 -57 20 -107.5t56 -88.5t85.5 -60t108.5 -22q32 0 58.5 5.5t46.5 12.5q23 8 43 19l31 -68q-24 -12 -53 -22q-25 -8 -59 -14.5t-72 -6.5zM452 136q24 0 45.5 10t38 28
t26 43.5t9.5 57.5q0 45 -25.5 72.5t-70.5 27.5q-24 0 -45.5 -10t-38 -28t-26 -43.5t-9.5 -57.5q0 -45 25.5 -72.5t70.5 -27.5z" />
    <glyph glyph-name="A" unicode="A" horiz-adv-x="636" 
d="M404 716h91l147 -716h-111l-33 165h-284l-92 -165h-116zM475 267l-51 284l-154 -284h205z" />
    <glyph glyph-name="B" unicode="B" horiz-adv-x="642" 
d="M211 716h285q37 0 69 -15.5t54.5 -41t35.5 -58.5t13 -68q0 -44 -16 -74.5t-35 -50.5q-22 -23 -50 -38q20 -16 37 -37q14 -19 25.5 -46t11.5 -64q0 -44 -18.5 -84.5t-51 -71t-76.5 -49t-95 -18.5h-315zM407 102q25 0 48.5 9.5t41 26t28 38.5t10.5 48q0 18 -7 37t-20.5 34
t-32 24.5t-40.5 9.5h-184l-40 -227h196zM453 420q22 0 42.5 8.5t36 22.5t24.5 33t9 40q0 17 -6.5 33t-18 28.5t-27 20t-34.5 7.5h-178l-34 -193h186z" />
    <glyph glyph-name="C" unicode="C" horiz-adv-x="727" 
d="M406 -6q-65 0 -121 25t-97 69t-64.5 103t-23.5 128q0 85 32.5 158.5t85.5 127.5t121 85t139 31q62 0 113.5 -22t90 -58t62 -80.5t28.5 -89.5h-112q-6 28 -22 55.5t-40 49.5t-55.5 35.5t-69.5 13.5q-43 0 -90 -21t-86 -60t-64 -94.5t-25 -124.5q0 -50 16 -92.5t44 -74
t65 -49.5t79 -18q36 0 70.5 13t64 34.5t52.5 49t36 56.5h114q-21 -47 -53.5 -92t-76 -80t-97 -56.5t-116.5 -21.5z" />
    <glyph glyph-name="D" unicode="D" horiz-adv-x="682" 
d="M211 716h217q60 0 111.5 -26.5t89 -71.5t59 -103.5t21.5 -122.5q0 -82 -32.5 -153.5t-85.5 -124.5t-121 -83.5t-138 -30.5h-247zM339 102q46 0 93 21t84.5 59t61 90t23.5 115q0 46 -15 87t-41 72t-60.5 49t-73.5 18h-110l-90 -511h128z" />
    <glyph glyph-name="E" unicode="E" horiz-adv-x="625" 
d="M211 716h472l-18 -103h-364l-34 -193h335l-18 -102h-335l-38 -216h375l-18 -102h-483z" />
    <glyph glyph-name="F" unicode="F" horiz-adv-x="574" 
d="M211 716h455l-18 -103h-347l-36 -204h284l-17 -102h-284l-55 -307h-108z" />
    <glyph glyph-name="G" unicode="G" horiz-adv-x="761" 
d="M406 -6q-65 0 -121 25t-97 69t-64.5 103t-23.5 128q0 85 32.5 158.5t85.5 127.5t121 85t139 31q55 0 104 -16t88 -46.5t66.5 -74.5t39.5 -101h-113q-20 68 -70 104.5t-119 36.5q-44 0 -91 -21t-86 -59.5t-64 -94t-25 -124.5q0 -50 16 -92.5t44 -74t65 -49.5t79 -18
q46 0 83.5 15.5t67 40.5t49.5 56.5t30 63.5h-221l19 102h318l-65 -369h-80l-17 68q-23 -21 -53 -37q-26 -14 -60.5 -25.5t-76.5 -11.5z" />
    <glyph glyph-name="H" unicode="H" horiz-adv-x="716" 
d="M211 716h108l-53 -301h329l54 301h108l-127 -716h-107l54 312h-329l-55 -312h-108z" />
    <glyph glyph-name="I" unicode="I" horiz-adv-x="278" 
d="M211 716h108l-126 -716h-108z" />
    <glyph glyph-name="J" unicode="J" horiz-adv-x="528" 
d="M256 -6q-45 0 -84.5 14.5t-68.5 42t-46 66.5t-17 87h108q4 -51 30.5 -82t82.5 -31q48 0 79.5 28t40.5 76l92 521h107l-93 -530q-7 -42 -27.5 -77.5t-51 -61t-69.5 -39.5t-83 -14z" />
    <glyph glyph-name="K" unicode="K" horiz-adv-x="596" 
d="M211 716h108l-57 -324l313 324h136l-357 -359l254 -357h-125l-231 335l-59 -335h-108z" />
    <glyph glyph-name="L" unicode="L" horiz-adv-x="545" 
d="M211 716h108l-108 -614h341l-18 -102h-449z" />
    <glyph glyph-name="M" unicode="M" horiz-adv-x="863" 
d="M211 716h85l160 -551l352 551h96l-126 -716h-108l79 443l-283 -443h-68l-126 443l-79 -443h-108z" />
    <glyph glyph-name="N" unicode="N" horiz-adv-x="716" 
d="M211 716h91l256 -517l91 517h108l-127 -716h-90l-256 518l-91 -518h-108z" />
    <glyph glyph-name="O" unicode="O" horiz-adv-x="761" 
d="M406 -6q-65 0 -120.5 25t-97 69t-65 103t-23.5 128q0 85 32.5 158.5t85.5 127.5t121 85t139 31q64 0 120 -25t97.5 -69t65 -103t23.5 -128q0 -85 -32.5 -158.5t-85.5 -127.5t-121 -85t-139 -31zM412 91q47 0 94 22t85 62t61.5 95t23.5 120q0 50 -16 93t-44 74.5
t-64.5 49.5t-78.5 18q-47 0 -94 -22.5t-85 -62.5t-62 -95t-24 -120q0 -50 16.5 -93t44 -74.5t64.5 -49t79 -17.5z" />
    <glyph glyph-name="P" unicode="P" horiz-adv-x="613" 
d="M211 716h263q41 0 75.5 -17t59.5 -46t39 -66.5t14 -77.5q0 -51 -20.5 -96t-55 -79t-78.5 -53.5t-92 -19.5h-176l-47 -261h-108zM420 364q25 0 49 10.5t43 29t30.5 43.5t11.5 53q0 22 -7.5 42.5t-21 36t-31.5 25t-38 9.5h-155l-44 -249h163z" />
    <glyph glyph-name="Q" unicode="Q" horiz-adv-x="761" 
d="M598 53q-45 -28 -93 -43.5t-99 -15.5q-65 0 -120.5 25t-97 69t-65 103t-23.5 128q0 85 32.5 158.5t85.5 127.5t121 85t139 31q64 0 120 -25t97.5 -69t65 -103t23.5 -128q0 -82 -29.5 -153t-80.5 -125l56 -67l-75 -68zM412 91q31 0 62.5 10t60.5 29l-66 80l74 68l67 -81
q30 38 48 87t18 106q0 50 -16 93t-44 74.5t-64.5 49.5t-78.5 18q-47 0 -94 -22.5t-85 -62.5t-62 -95t-24 -120q0 -50 16.5 -93t44 -74.5t64.5 -49t79 -17.5z" />
    <glyph glyph-name="R" unicode="R" horiz-adv-x="636" 
d="M211 716h285q40 0 73 -16t57 -43.5t37 -63t13 -74.5q0 -37 -8.5 -66t-22 -52t-31.5 -40.5t-36 -29.5q-43 -29 -97 -42l121 -289h-119l-115 284h-125l-50 -284h-108zM448 386q22 0 43.5 9.5t38.5 26.5t27 39.5t10 48.5q0 21 -6.5 39.5t-18.5 32.5t-28 22.5t-35 8.5h-178
l-40 -227h187z" />
    <glyph glyph-name="S" unicode="S" 
d="M316 -6q-115 0 -176.5 59t-61.5 163h108q1 -36 16 -63q13 -23 41.5 -42.5t82.5 -19.5q65 0 100.5 30.5t35.5 75.5q0 33 -24 55t-60 39.5t-77.5 34.5t-77.5 40.5t-60 56.5t-24 83q0 55 24 95.5t61 67t80 39.5t81 13q51 0 92 -15.5t70 -44.5t45 -69.5t16 -91.5h-107
q-3 35 -16 62q-11 23 -36 42.5t-70 19.5q-29 0 -53 -8.5t-41.5 -23t-27 -33.5t-9.5 -39q0 -31 24 -51.5t60 -37.5t77.5 -33.5t77.5 -40.5t60 -58.5t24 -86.5q0 -41 -17.5 -80.5t-50.5 -70t-80 -49t-107 -18.5z" />
    <glyph glyph-name="T" unicode="T" horiz-adv-x="574" 
d="M341 613h-216l18 103h540l-18 -103h-216l-108 -613h-108z" />
    <glyph glyph-name="U" unicode="U" horiz-adv-x="682" 
d="M368 -6q-56 0 -102 18.5t-78.5 50.5t-50 75t-17.5 93q0 13 1.5 25.5t3.5 26.5l76 433h108l-77 -440q-4 -15 -4 -34q0 -28 8.5 -55t26.5 -48.5t45.5 -34.5t65.5 -13q65 0 111.5 43.5t59.5 116.5l82 465h108l-84 -477q-9 -54 -35 -99.5t-63.5 -77.5t-85 -50t-99.5 -18z" />
    <glyph glyph-name="V" unicode="V" horiz-adv-x="648" 
d="M132 716h110l101 -551l297 551h117l-388 -716h-102z" />
    <glyph glyph-name="W" unicode="W" horiz-adv-x="909" 
d="M132 716h104l66 -494l235 494h68l61 -494l241 494h111l-348 -716h-74l-63 477l-232 -477h-74z" />
    <glyph glyph-name="X" unicode="X" horiz-adv-x="602" 
d="M302 364l-153 352h115l112 -262l206 262h123l-278 -352l164 -364h-114l-124 273l-217 -273h-125z" />
    <glyph glyph-name="Y" unicode="Y" horiz-adv-x="585" 
d="M282 278l-150 438h107l107 -324h6l222 324h120l-304 -438l-49 -278h-108z" />
    <glyph glyph-name="Z" unicode="Z" 
d="M47 74l436 539h-330l19 103h471l-13 -74l-436 -540h358l-18 -102h-500z" />
    <glyph glyph-name="bracketleft" unicode="[" horiz-adv-x="335" 
d="M211 716h227l-15 -91h-131l-131 -739h131l-16 -90h-227z" />
    <glyph glyph-name="backslash" unicode="\" horiz-adv-x="331" 
d="M127 722h97l105 -728h-97z" />
    <glyph glyph-name="bracketright" unicode="]" horiz-adv-x="335" 
d="M2 -114h131l131 739h-131l16 91h227l-162 -920h-228z" />
    <glyph glyph-name="asciicircum" unicode="^" horiz-adv-x="432" 
d="M256 716h45l159 -330h-91l-91 199l-91 -199h-90z" />
    <glyph glyph-name="underscore" unicode="_" horiz-adv-x="312" 
d="M-42 -108h358l-16 -91h-358z" />
    <glyph glyph-name="grave" unicode="`" horiz-adv-x="233" 
d="M142 716h97l68 -137h-68z" />
    <glyph glyph-name="a" unicode="a" horiz-adv-x="528" 
d="M242 -6q-43 0 -75.5 10.5t-54.5 29t-33 43.5t-11 55q0 56 28 92t76 57t112 29t135 8q1 6 2 11l2 10t1 10q0 31 -24 51t-69 20q-40 0 -63 -19.5t-35 -42.5h-106q10 31 28.5 60t45 51t60 35t74.5 13q43 0 78 -12t59.5 -34t38 -52.5t13.5 -67.5q0 -8 -1 -17.5t-3 -18.5
l-54 -315h-74l-14 51q-16 -17 -37 -29q-18 -11 -43 -19.5t-56 -8.5zM242 85q32 0 59 9t47.5 24.5t33.5 36.5t17 45l4 27q-68 0 -112.5 -6t-71 -18t-37 -29t-10.5 -38q0 -20 17.5 -35.5t52.5 -15.5z" />
    <glyph glyph-name="b" unicode="b" horiz-adv-x="602" 
d="M342 -6q-43 0 -72 10.5t-48 24.5q-22 15 -35 35l-39 -64h-74l126 716h102l-44 -249q15 14 34 25q17 9 40.5 17t53.5 8q53 0 94.5 -19t70.5 -50.5t44 -72.5t15 -86q0 -66 -22.5 -120t-60 -93t-86 -60.5t-99.5 -21.5zM342 91q31 0 60.5 13.5t53 38t38 58.5t14.5 75
q0 31 -10 57t-28 45.5t-42 30.5t-52 11q-31 0 -60.5 -13.5t-53 -38t-38 -58.5t-14.5 -75q0 -31 10 -57t28 -45.5t42 -30.5t52 -11z" />
    <glyph glyph-name="c" unicode="c" horiz-adv-x="545" 
d="M307 -6q-49 0 -89.5 17t-70 48t-46 72.5t-16.5 91.5q0 65 23 119t61 93t86.5 60.5t100.5 21.5q45 0 83 -15t66.5 -41t46 -61.5t22.5 -75.5h-105q-13 45 -44 70.5t-73 25.5q-29 0 -58.5 -13.5t-53.5 -37.5t-39 -58t-15 -76q0 -32 10.5 -58.5t28 -45.5t40.5 -29.5t49 -10.5
q23 0 44 8t39.5 21t33 30.5t23.5 36.5h103q-35 -95 -101.5 -144t-148.5 -49z" />
    <glyph glyph-name="d" unicode="d" horiz-adv-x="602" 
d="M304 -6q-53 0 -94 19t-70 50.5t-44 73t-15 86.5q0 66 22.5 120t60 92.5t85.5 60t100 21.5q42 0 71 -11t48 -25q22 -16 36 -35l48 270h102l-126 -716h-74l-13 51q-16 -17 -37 -29q-18 -11 -43.5 -19.5t-56.5 -8.5zM315 91q30 0 60 13.5t53.5 38t38 58.5t14.5 75
q0 31 -10 57t-28 45.5t-42 30.5t-52 11q-31 0 -60.5 -13.5t-53 -38t-38 -58.5t-14.5 -75q0 -31 10 -57t28 -45.5t42 -30.5t52 -11z" />
    <glyph glyph-name="e" unicode="e" horiz-adv-x="557" 
d="M311 -6q-50 0 -91.5 16.5t-71.5 46.5t-46.5 72t-16.5 93q0 65 22.5 119.5t60 93.5t85.5 60.5t98 21.5q51 0 92.5 -17t70 -47.5t44 -72t15.5 -90.5q0 -15 -2.5 -29.5t-5.5 -25.5q-4 -13 -7 -25h-369q0 -24 9.5 -45.5t26 -38t40 -26t52.5 -9.5q20 0 37.5 6t32.5 14.5
t26 18.5t19 18h111q-15 -29 -38.5 -57t-53.5 -49.5t-65.5 -34.5t-74.5 -13zM471 295v6q0 53 -30.5 86t-86.5 33q-51 0 -92.5 -34.5t-60.5 -90.5h270z" />
    <glyph glyph-name="f" unicode="f" horiz-adv-x="324" 
d="M158 415h-63l17 96h64l9 49q6 38 22.5 68t39.5 50.5t51 31.5t59 11q16 0 29 -2.5t22 -4.5q11 -3 19 -6l-16 -91q-6 2 -13 4q-6 2 -13 3t-15 1q-32 0 -55.5 -21t-29.5 -53l-7 -40h113l-17 -96h-114l-73 -415h-102z" />
    <glyph glyph-name="g" unicode="g" horiz-adv-x="585" 
d="M277 -193q-84 0 -143 41t-77 118h102q6 -15 14.5 -27.5t23 -21.5t35 -14t49.5 -5q52 0 90 30.5t47 82.5l9 51q-15 -13 -35 -23q-17 -8 -41.5 -15t-55.5 -7q-45 0 -83.5 17t-67 46.5t-44.5 70.5t-16 89q0 59 22.5 110t59 88t83 58t94.5 21q41 0 69.5 -11t46.5 -24
q21 -15 35 -34l40 63h74l-90 -509q-8 -44 -28.5 -79.5t-52 -61.5t-72.5 -40t-88 -14zM314 114q29 0 57.5 13t51 35.5t36.5 53t14 65.5q0 29 -10 54.5t-27 44t-40.5 29.5t-50.5 11q-29 0 -57.5 -13t-51 -35.5t-36.5 -53t-14 -65.5q0 -29 10 -54.5t27 -44.5t40.5 -29.5
t50.5 -10.5z" />
    <glyph glyph-name="h" unicode="h" horiz-adv-x="585" 
d="M199 716h102l-45 -258q16 16 37 29q18 11 43 20.5t56 9.5q48 0 82.5 -17t57 -44.5t33 -63t10.5 -71.5q0 -11 -1 -22t-3 -22l-48 -277h-103l50 285q1 5 2 11t1 11q0 23 -8 43.5t-22 36t-34 24.5t-44 9t-46.5 -9t-41 -24t-31.5 -36t-17 -45l-53 -306h-102z" />
    <glyph glyph-name="i" unicode="i" horiz-adv-x="239" 
d="M158 511h102l-90 -511h-102zM228 591q-23 0 -39.5 17.5t-16.5 40.5q0 14 6 26t15.5 21t22 14.5t25.5 5.5q24 0 40.5 -18t16.5 -40q0 -29 -21.5 -48t-48.5 -19z" />
    <glyph glyph-name="j" unicode="j" horiz-adv-x="239" 
d="M-7 -189q-32 0 -50.5 8t-18.5 9l16 91q0 -1 12.5 -5.5t27.5 -4.5q32 0 56.5 21t30.5 56l92 525h102l-94 -537q-14 -77 -62.5 -120t-111.5 -43zM229 591q-23 0 -39.5 17.5t-16.5 40.5q0 14 6 26t15.5 21t22 14.5t25.5 5.5q24 0 40.5 -18t16.5 -40q0 -29 -21.5 -48
t-48.5 -19z" />
    <glyph glyph-name="k" unicode="k" horiz-adv-x="488" 
d="M200 716h102l-75 -426l208 221h126l-243 -249l182 -262h-114l-167 244l-43 -244h-102z" />
    <glyph glyph-name="l" unicode="l" horiz-adv-x="250" 
d="M200 716h102l-126 -716h-102z" />
    <glyph glyph-name="m" unicode="m" horiz-adv-x="824" 
d="M158 511h74l13 -51q16 16 35 28q17 11 39 20t50 9q34 0 57.5 -11.5t38.5 -25.5q18 -16 28 -36q19 20 44 36q21 14 50.5 25.5t66.5 11.5q45 0 76.5 -16.5t50.5 -42t27.5 -58t8.5 -63.5q0 -23 -4 -42l-52 -295h-102l53 301q1 5 1 10v10q0 42 -21.5 70.5t-63.5 28.5
q-37 0 -67.5 -27t-39.5 -75l-55 -318h-102l53 301q1 5 1 10v10q0 42 -21.5 70.5t-63.5 28.5q-37 0 -68 -27t-39 -75l-56 -318h-102z" />
    <glyph glyph-name="n" unicode="n" horiz-adv-x="579" 
d="M158 511h74l13 -51q16 16 37 28q18 11 43 20t56 9q49 0 85 -17t58.5 -44.5t33.5 -62.5t11 -72q0 -22 -3 -44l-49 -277h-102l50 285q1 5 1.5 11t0.5 11q0 23 -7.5 43.5t-22 36t-34.5 24.5t-44 9t-46.5 -9t-41 -24t-31 -36t-16.5 -45l-54 -306h-102z" />
    <glyph glyph-name="o" unicode="o" 
d="M307 -6q-49 0 -89.5 17t-70 48t-46 72.5t-16.5 91.5q0 65 23 119t60.5 93t86.5 60.5t101 21.5q48 0 89 -17t70 -47.5t45.5 -72.5t16.5 -91q0 -65 -23 -119.5t-60.5 -93.5t-86 -60.5t-100.5 -21.5zM314 91q29 0 58 13.5t52 38t37.5 59t14.5 75.5q0 32 -10 58.5t-27.5 45
t-40.5 29t-49 10.5q-29 0 -58 -13.5t-52.5 -38t-38 -58.5t-14.5 -75q0 -32 10 -58.5t27.5 -45.5t41 -29.5t49.5 -10.5z" />
    <glyph glyph-name="p" unicode="p" horiz-adv-x="596" 
d="M158 511h74l13 -51q16 16 37 28q18 11 43 20t57 9q53 0 94.5 -19t70 -50.5t43.5 -72.5t15 -86q0 -66 -22.5 -120t-60 -93t-85.5 -60.5t-100 -21.5q-42 0 -71.5 10.5t-48.5 24.5q-22 16 -35 36l-45 -247h-102zM337 91q31 0 60.5 13.5t53 38t38 58.5t14.5 75q0 31 -10 57
t-28 45.5t-42 30.5t-52 11q-30 0 -60 -13.5t-53 -38t-37.5 -58.5t-14.5 -75q0 -31 10 -57t28 -45.5t42 -30.5t51 -11z" />
    <glyph glyph-name="q" unicode="q" horiz-adv-x="596" 
d="M434 44q-15 -14 -34 -25q-17 -10 -41 -17.5t-53 -7.5q-53 0 -94.5 19t-70.5 50.5t-44 73t-15 86.5q0 66 22.5 120t60 92.5t85.5 60t100 21.5q42 0 71 -11t48 -24q21 -15 35 -34l40 63h74l-123 -693h-102zM316 91q31 0 60.5 13.5t53 38t38 58.5t14.5 75q0 31 -10 57
t-28 45.5t-42 30.5t-52 11q-31 0 -60.5 -13.5t-53 -38t-38 -58.5t-14.5 -75q0 -31 10 -57t28 -45.5t42 -30.5t52 -11z" />
    <glyph glyph-name="r" unicode="r" horiz-adv-x="352" 
d="M158 511h74l13 -51q13 16 31 28q16 11 40 20t58 9q11 0 19 -1t14 -3q7 -2 12 -4l-17 -102l-10 4t-12 3t-16 1q-49 0 -90 -30.5t-52 -94.5l-52 -290h-102z" />
    <glyph glyph-name="s" unicode="s" horiz-adv-x="460" 
d="M260 -6q-48 0 -83.5 13t-58.5 35.5t-34.5 54t-11.5 68.5h103q0 -36 21.5 -55.5t70.5 -19.5q41 0 63 18t22 44q0 19 -17.5 31.5t-43.5 22.5t-56.5 20t-56.5 26t-43.5 39.5t-17.5 59.5q0 34 13.5 64.5t37.5 53t57 35.5t73 13q92 0 136.5 -42.5t44.5 -116.5h-102
q0 24 -20 43t-64 19q-37 0 -57.5 -17.5t-20.5 -40.5q0 -19 17.5 -31t43.5 -22t57 -20t57 -25.5t43.5 -39.5t17.5 -60q0 -37 -14 -68t-39 -53.5t-60.5 -35.5t-77.5 -13z" />
    <glyph glyph-name="t" unicode="t" horiz-adv-x="381" 
d="M287 -6q-34 0 -61 11.5t-45.5 31.5t-28.5 47.5t-10 60.5q0 18 3 39l41 231h-91l17 96h40q32 0 54 18.5t27 49.5l12 69h84l-23 -137h113l-17 -96h-113l-42 -240q-2 -5 -2 -14q0 -29 20.5 -49.5t52.5 -20.5h10.5t9.5 1q4 0 8 1l-15 -92q-5 -2 -12 -4q-12 -3 -32 -3z" />
    <glyph glyph-name="u" unicode="u" horiz-adv-x="585" 
d="M294 -6q-50 0 -85.5 17t-58.5 44.5t-33.5 62.5t-10.5 72q0 21 3 44l49 277h102l-50 -285q-1 -5 -1.5 -11t-0.5 -11q0 -23 7.5 -43.5t22 -36t34.5 -24.5t44 -9t46.5 9t40.5 24.5t31 36.5t17 45l53 305h103l-90 -511h-74l-14 51q-17 -17 -37 -29q-18 -11 -42.5 -19.5
t-55.5 -8.5z" />
    <glyph glyph-name="v" unicode="v" horiz-adv-x="523" 
d="M95 511h104l77 -369l207 369h112l-294 -511h-91z" />
    <glyph glyph-name="w" unicode="w" horiz-adv-x="750" 
d="M95 511h98l51 -352l176 352h72l51 -352l176 352h103l-260 -511h-85l-49 335l-167 -335h-85z" />
    <glyph glyph-name="x" unicode="x" horiz-adv-x="477" 
d="M223 261l-122 250h108l84 -174l143 174h120l-208 -250l129 -261h-108l-92 185l-158 -185h-119z" />
    <glyph glyph-name="y" unicode="y" horiz-adv-x="523" 
d="M110 -187q-17 0 -34 5q-9 2 -18 5l15 85q3 -1 6 -1h10q36 0 57.5 16t32.5 38l29 56l-111 494h107l77 -369l207 369h117l-324 -559q-44 -75 -83 -107t-88 -32z" />
    <glyph glyph-name="z" unicode="z" horiz-adv-x="449" 
d="M50 91l295 324h-238l17 96h369l-16 -91l-295 -323h250l-17 -97h-381z" />
    <glyph glyph-name="braceleft" unicode="{" horiz-adv-x="352" 
d="M236 -204q-66 0 -102.5 34t-36.5 88q0 18 3 39l35 197v6q0 2 0.5 5t0.5 5q0 18 -13.5 32t-33.5 14l14 79q58 0 66 51l41 234q24 136 156 136h90l-16 -91h-75q-23 0 -39 -14.5t-20 -37.5l-42 -231q-5 -30 -18 -48t-27 -28q-16 -11 -34 -15q13 -6 24 -17q9 -9 16.5 -24
t7.5 -38q0 -5 -0.5 -11t-1.5 -12l-34 -200q-2 -5 -2 -14q0 -20 17 -34.5t38 -14.5h59l-16 -90h-57v0z" />
    <glyph glyph-name="bar" unicode="|" horiz-adv-x="369" 
d="M199 716h96v-898h-96v898z" />
    <glyph glyph-name="braceright" unicode="}" horiz-adv-x="352" 
d="M2 -114h75q23 0 39 14.5t20 38.5l42 230q5 30 18 47.5t27 27.5q16 11 34 16q-13 6 -24 17q-9 9 -16.5 24.5t-7.5 38.5q0 5 0.5 10.5t1.5 11.5l34 200q2 5 2 14q0 20 -17 34.5t-38 14.5h-59l16 91h57q66 0 102.5 -34t36.5 -89q0 -18 -3 -39l-35 -197q-1 -2 -1 -5v-11
q0 -18 13.5 -32t33.5 -14l-14 -79q-59 0 -66 -51l-41 -234q-24 -135 -156 -135h-90z" />
    <glyph glyph-name="asciitilde" unicode="~" horiz-adv-x="557" 
d="M443 222q-28 0 -59.5 10.5t-62.5 23.5t-58.5 23.5t-46.5 10.5q-26 0 -41.5 -16.5t-15.5 -46.5h-85q0 77 39 118t103 41q28 0 59.5 -10.5t62.5 -23.5t58.5 -23.5t46.5 -10.5q26 0 41.5 16.5t15.5 46.5h85q0 -78 -39 -118.5t-103 -40.5z" />
    <glyph glyph-name="nonbreakingspace" unicode="&#xa0;" horiz-adv-x="250" 
 />
    <glyph glyph-name="exclamdown" unicode="&#xa1;" horiz-adv-x="284" 
d="M154 329h91l-72 -511h-125zM216 392q-25 0 -41 16.5t-16 40.5q0 28 20.5 48t47.5 20q25 0 41 -16.5t16 -40.5q0 -28 -20.5 -48t-47.5 -20z" />
    <glyph glyph-name="cent" unicode="&#xa2;" horiz-adv-x="545" 
d="M233 5q-34 10 -62 30.5t-47.5 48.5t-30 63.5t-10.5 75.5q0 60 20 111t53 89.5t76.5 62t91.5 29.5l18 98h96l-19 -106q64 -19 104.5 -68.5t47.5 -114.5h-104q-13 45 -44 70.5t-73 25.5q-29 0 -58.5 -13.5t-53.5 -37.5t-39 -58t-15 -76q0 -32 10.5 -58.5t27.5 -45.5
t40 -29.5t49 -10.5q23 0 44.5 8t40 21t33 30.5t23.5 36.5h102q-32 -88 -91.5 -136t-134.5 -56l-16 -97h-96z" />
    <glyph glyph-name="sterling" unicode="&#xa3;" horiz-adv-x="596" 
d="M58 102q30 0 51.5 19.5t26.5 48.5l18 103h-62l18 102h63l28 149q7 42 28.5 78.5t53.5 62.5t72.5 41t85.5 15q47 0 86 -17t67 -45t43.5 -65t15.5 -77h-108q0 45 -28.5 76t-83.5 31q-23 0 -44 -8t-37.5 -22.5t-28 -34.5t-15.5 -44l-27 -140h193l-18 -102h-194l-18 -103
q-3 -15 -9.5 -27.5t-13.5 -21.5q-8 -11 -17 -19h365l-19 -102h-510z" />
    <glyph glyph-name="currency" unicode="&#xa4;" horiz-adv-x="636" 
d="M134 114h-85l17 96h85l13 74h-86l17 97h86l59 335h255q43 0 78.5 -17t60.5 -45t38.5 -64t13.5 -73q0 -49 -20.5 -91.5t-54.5 -74t-78 -49.5t-91 -18h-170l-13 -74h216l-17 -96h-216l-20 -114h-108zM448 381q26 0 49.5 10.5t41 28t28 40.5t10.5 49q0 21 -7 41t-19.5 35
t-31 24.5t-41.5 9.5h-147l-42 -238h159z" />
    <glyph glyph-name="yen" unicode="&#xa5;" horiz-adv-x="596" 
d="M264 114h-153l16 90h152l12 63h-152l15 91h112l-123 358h107l108 -324h6l221 324h120l-249 -358h113l-16 -91h-153l-11 -63h152l-16 -90h-154l-19 -114h-108z" />
    <glyph glyph-name="brokenbar" unicode="&#xa6;" horiz-adv-x="369" 
d="M199 170h96v-352h-96v352zM199 716h96v-352h-96v352z" />
    <glyph glyph-name="section" unicode="&#xa7;" horiz-adv-x="540" 
d="M270 -136q-42 0 -76 13.5t-58 37t-37 54t-13 65.5h97q0 -35 24.5 -57t73.5 -22q42 0 63.5 18.5t21.5 44.5q0 22 -20 38.5t-50 32.5t-64.5 33t-64.5 39.5t-50 53.5t-20 74q0 47 21 80t47 54q30 25 69 40q-12 9 -22 22q-8 11 -15 29t-7 42q0 32 14 62t39 53t59 36.5
t73 13.5q41 0 73 -12t54.5 -33.5t34 -50.5t11.5 -63h-99q0 32 -21 50t-62 18q-37 0 -58.5 -19.5t-21.5 -45.5q0 -23 19 -40.5t47.5 -33.5t62 -33t62 -40t47.5 -53.5t19 -72.5q0 -48 -20 -80t-44 -51q-28 -23 -64 -35q12 -11 23 -26q9 -13 16.5 -32t7.5 -43q0 -31 -14 -60
t-39.5 -51.5t-60.5 -36t-78 -13.5zM320 182q34 5 60 18q23 11 42 31.5t19 53.5q0 32 -27.5 58t-94.5 55q-34 -6 -60 -19q-23 -11 -41.5 -31.5t-18.5 -53.5q0 -32 27.5 -58t93.5 -54z" />
    <glyph glyph-name="dieresis" unicode="&#xa8;" horiz-adv-x="386" 
d="M204 591q-24 0 -40 16.5t-16 40.5q0 28 20 48t48 20q25 0 41 -16.5t16 -40.5q0 -29 -20.5 -48.5t-48.5 -19.5zM401 591q-25 0 -41 16.5t-16 40.5q0 28 20.5 48t47.5 20q25 0 41 -16.5t16 -40.5q0 -29 -20.5 -48.5t-47.5 -19.5z" />
    <glyph glyph-name="copyright" unicode="&#xa9;" horiz-adv-x="795" 
d="M460 -6q-72 0 -136 28t-112 77t-76 115.5t-28 143.5q0 76 28 142.5t76 115.5t112 77t136 28t136 -28t112 -77t76 -115.5t28 -142.5q0 -77 -28 -143.5t-76 -115.5t-112 -77t-136 -28zM460 68q55 0 105 22t87 61t59 92t22 115t-22 115t-59 92t-87 61t-105 22
q-56 0 -105.5 -22t-86.5 -61t-59 -92t-22 -115t22 -115t59 -92t86.5 -61t105.5 -22zM466 165q-36 0 -69 15t-58 41t-40 61t-15 76q0 40 15 75.5t40 61.5t58 41t69 15q34 0 62.5 -11t49.5 -29.5t34.5 -43.5t17.5 -52h-79q-8 29 -30.5 48.5t-60.5 19.5q-19 0 -37.5 -9
t-32.5 -25.5t-23 -39.5t-9 -51t9 -51t23 -39.5t32.5 -25.5t37.5 -9q38 0 60.5 19t30.5 49h79q-4 -28 -17.5 -52.5t-34.5 -43t-49.5 -29.5t-62.5 -11z" />
    <glyph glyph-name="ordfeminine" unicode="&#xaa;" horiz-adv-x="318" 
d="M210 415q-43 0 -65.5 22t-22.5 51q0 23 7.5 44t29.5 36.5t61.5 24.5t102.5 9l1 6q4 21 -9 36t-39 15q-21 0 -36 -10.5t-22 -23.5h-62q3 19 14.5 36.5t29 30.5t41 21t51.5 8q25 0 45.5 -9t34 -24.5t19 -36t1.5 -43.5l-33 -188h-51l-7 29q-10 -10 -24 -17q-12 -7 -29 -12
t-38 -5zM235 471q28 0 49 19.5t27 49.5l3 11q-40 0 -65 -4.5t-39 -11.5t-19 -15.5t-5 -17.5q0 -12 11.5 -21.5t37.5 -9.5z" />
    <glyph glyph-name="guillemotleft" unicode="&#xab;" horiz-adv-x="506" 
d="M80 256l156 181h107l-162 -188l89 -175h-97zM290 256l156 181h107l-162 -188l90 -175h-98z" />
    <glyph glyph-name="logicalnot" unicode="&#xac;" horiz-adv-x="528" 
d="M460 346h-386v91h483v-238h-97v147z" />
    <glyph glyph-name="uni00AD" unicode="&#xad;" horiz-adv-x="398" 
d="M93 335h330l-16 -91h-330z" />
    <glyph glyph-name="registered" unicode="&#xae;" horiz-adv-x="795" 
d="M460 -6q-72 0 -136 28t-112 77t-76 115.5t-28 143.5q0 76 28 142.5t76 115.5t112 77t136 28t136 -28t112 -77t76 -115.5t28 -142.5q0 -77 -28 -143.5t-76 -115.5t-112 -77t-136 -28zM460 68q55 0 105 22t87 61t59 92t22 115t-22 115t-59 92t-87 61t-105 22
q-56 0 -105.5 -22t-86.5 -61t-59 -92t-22 -115t22 -115t59 -92t86.5 -61t105.5 -22zM335 545h142q25 0 48 -10t40 -26.5t27 -38t10 -44.5q0 -32 -13.5 -53t-29.5 -33q-18 -14 -42 -22l102 -148h-85l-91 137h-34v-137h-74v375zM477 375q22 0 36.5 15t14.5 36t-14.5 36
t-36.5 15h-68v-102h68z" />
    <glyph glyph-name="macron" unicode="&#xaf;" horiz-adv-x="352" 
d="M153 682h284l-12 -74h-284z" />
    <glyph glyph-name="degree" unicode="&#xb0;" horiz-adv-x="352" 
d="M278 437q-30 0 -55.5 11t-45 30.5t-30.5 45t-11 55.5t11 56t30.5 45t45 30t55.5 11t56 -11t45 -30t30 -45t11 -56t-11 -55.5t-30 -45t-45 -30.5t-56 -11zM278 506q13 0 25 6t21.5 16t15.5 23t6 28t-6 28.5t-15.5 23.5t-21.5 16t-25 6t-25 -6t-21.5 -16t-15.5 -23.5
t-6 -28.5t6 -28t15.5 -23t21.5 -16t25 -6z" />
    <glyph glyph-name="plusminus" unicode="&#xb1;" horiz-adv-x="517" 
d="M74 119h176v176h-176v91h176v182h96v-182h177v-91h-177v-176h177v-96h-449v96z" />
    <glyph glyph-name="twosuperior" unicode="&#xb2;" horiz-adv-x="295" 
d="M128 534l151 128q22 19 31.5 31t9.5 32q0 13 -11 24.5t-34 11.5q-20 0 -35.5 -15.5t-19.5 -35.5h-66q5 24 17 45t28.5 36t36.5 24t43 9q54 0 81 -28.5t27 -67.5q0 -19 -6.5 -34.5t-15.5 -27t-18.5 -20t-14.5 -12.5l-105 -89h131l-12 -62h-227z" />
    <glyph glyph-name="threesuperior" unicode="&#xb3;" horiz-adv-x="307" 
d="M252 477q-53 0 -84 29t-31 85h69q0 -23 10.5 -37t39.5 -14q26 0 39.5 15.5t13.5 32.5q0 15 -9.5 28.5t-37.5 13.5h-31l10 57h34q22 0 33 12t11 26q0 15 -11 25.5t-29 10.5q-43 0 -51 -45h-66q9 53 44 80.5t79 27.5q24 0 43.5 -8t33 -21t21 -30t7.5 -35q0 -23 -7.5 -38.5
t-16.5 -24.5q-11 -11 -24 -17q9 -6 16 -15q6 -8 11.5 -20t5.5 -29q0 -23 -9 -43t-25.5 -34.5t-39 -23t-49.5 -8.5z" />
    <glyph glyph-name="acute" unicode="&#xb4;" horiz-adv-x="233" 
d="M228 716h97l-121 -137h-68z" />
    <glyph glyph-name="mu" unicode="&#xb5;" horiz-adv-x="585" 
d="M157 511h102l-50 -285q-1 -5 -1.5 -11t-0.5 -11q0 -23 7.5 -43.5t22 -36t34.5 -24.5t44 -9t46 9t40.5 24.5t31 36.5t17.5 45l53 305h102l-89 -511h-74l-14 51q-18 -17 -38 -29q-17 -11 -39.5 -19.5t-48.5 -8.5q-32 0 -55 9.5t-38 21.5q-18 14 -30 32l-42 -239h-102z" />
    <glyph glyph-name="paragraph" unicode="&#xb6;" horiz-adv-x="579" 
d="M278 375q-34 0 -65 14t-54 37t-37 54t-14 65t14 65t37 54.5t54 37.5t65 14h284v-818h-91v727h-102v-727h-91v477z" />
    <glyph glyph-name="periodcentered" unicode="&#xb7;" horiz-adv-x="250" 
d="M183 295q-25 0 -41 16.5t-16 40.5q0 29 20.5 48.5t48.5 19.5q25 0 40.5 -16.5t15.5 -40.5q0 -28 -20 -48t-48 -20z" />
    <glyph glyph-name="cedilla" unicode="&#xb8;" horiz-adv-x="227" 
d="M69 -197q-25 0 -47 5q-11 3 -21 6l9 51q7 -3 16 -5q17 -5 36 -5q23 0 36 10.5t13 23.5q0 12 -12.5 23.5t-38.5 11.5q-9 0 -17 -2q-4 -1 -7 -2l50 80h63l-32 -47q26 -6 41 -23.5t15 -41.5q0 -37 -27 -61t-77 -24z" />
    <glyph glyph-name="onesuperior" unicode="&#xb9;" horiz-adv-x="239" 
d="M226 733l-44 -23l-25 51l101 57h51l-59 -335h-68z" />
    <glyph glyph-name="ordmasculine" unicode="&#xba;" horiz-adv-x="364" 
d="M254 415q-30 0 -54.5 12t-41 32.5t-23.5 48.5t-1 60t22.5 60t40.5 48.5t53 32.5t59 12t54.5 -12t41 -32.5t23.5 -48.5t1 -60q-5 -32 -22 -60t-41 -48.5t-53 -32.5t-59 -12zM267 483q15 0 30.5 7t28.5 18.5t22.5 27t12.5 32.5t-1 32.5t-13.5 27t-22.5 18.5t-28 7t-30 -7
t-28.5 -18.5t-23 -27t-12.5 -32.5t1 -32.5t13.5 -27t22.5 -18.5t28 -7z" />
    <glyph glyph-name="guillemotright" unicode="&#xbb;" horiz-adv-x="506" 
d="M204 262l-89 175h97l94 -181l-157 -182h-107zM415 262l-90 175h98l93 -181l-157 -182h-107z" />
    <glyph glyph-name="onequarter" unicode="&#xbc;" horiz-adv-x="630" 
d="M620 716h79l-563 -716h-79zM208 631l-44 -23l-25 51l101 57h51l-59 -335h-68zM505 62h-142l9 51l175 222h74l-36 -210h40l-12 -63h-40l-11 -62h-68zM517 125l18 108l-87 -108h69z" />
    <glyph glyph-name="onehalf" unicode="&#xbd;" horiz-adv-x="659" 
d="M620 716h79l-563 -716h-79zM208 631l-44 -23l-25 51l101 57h51l-59 -335h-68zM406 51l151 128q22 19 31.5 31t9.5 32q0 13 -11 24.5t-34 11.5q-20 0 -35.5 -15.5t-19.5 -35.5h-66q5 24 17 45t28.5 36t36.5 24t43 9q54 0 81 -28.5t27 -67.5q0 -19 -6.5 -34.5t-15.5 -27
t-18.5 -20t-14.5 -12.5l-105 -89h131l-12 -62h-227z" />
    <glyph glyph-name="threequarters" unicode="&#xbe;" horiz-adv-x="687" 
d="M677 716h79l-563 -716h-79zM234 375q-53 0 -84 29t-31 85h69q0 -23 10.5 -37t39.5 -14q26 0 39.5 15.5t13.5 32.5q0 15 -9.5 28.5t-37.5 13.5h-31l10 57h34q22 0 33 12t11 26q0 15 -11 25.5t-29 10.5q-43 0 -51 -45h-66q9 53 44 80.5t79 27.5q24 0 43.5 -8t33 -21t21 -30
t7.5 -35q0 -23 -7.5 -38.5t-16.5 -24.5q-11 -11 -24 -17q9 -6 16 -15q6 -8 11.5 -20t5.5 -29q0 -23 -9 -43t-25.5 -34.5t-39 -23t-49.5 -8.5zM562 62h-142l9 51l175 222h74l-36 -210h40l-12 -63h-40l-11 -62h-68zM574 125l18 108l-87 -108h69z" />
    <glyph glyph-name="questiondown" unicode="&#xbf;" horiz-adv-x="466" 
d="M216 -187q-43 0 -79 13.5t-61.5 38t-39.5 57.5t-14 72q0 43 14 72.5t36 51.5t48 40t50.5 39t44 48t27.5 67l3 17h103l-4 -17q-11 -55 -31 -91t-44.5 -60.5t-50 -41t-46.5 -32.5t-34.5 -35.5t-13.5 -49.5q0 -39 28 -62.5t74 -23.5q22 0 42.5 8t37 23.5t28.5 39t16 54.5
l2 16h101l-3 -23q-8 -53 -30.5 -94t-54 -69.5t-70 -43t-79.5 -14.5zM312 392q-25 0 -40.5 16.5t-15.5 40.5q0 28 20 48t48 20q25 0 41 -16.5t16 -40.5q0 -28 -20.5 -48t-48.5 -20z" />
    <glyph glyph-name="Agrave" unicode="&#xc0;" horiz-adv-x="636" 
d="M404 716h91l147 -716h-111l-33 165h-284l-92 -165h-116zM475 267l-51 284l-154 -284h205zM311 904h97l68 -137h-68z" />
    <glyph glyph-name="Aacute" unicode="&#xc1;" horiz-adv-x="636" 
d="M404 716h91l147 -716h-111l-33 165h-284l-92 -165h-116zM475 267l-51 284l-154 -284h205zM517 904h97l-121 -137h-68z" />
    <glyph glyph-name="Acircumflex" unicode="&#xc2;" horiz-adv-x="636" 
d="M404 716h91l147 -716h-111l-33 165h-284l-92 -165h-116zM475 267l-51 284l-154 -284h205zM433 904h91l79 -136h-86l-43 79l-70 -79h-97z" />
    <glyph glyph-name="Atilde" unicode="&#xc3;" horiz-adv-x="636" 
d="M404 716h91l147 -716h-111l-33 165h-284l-92 -165h-116zM475 267l-51 284l-154 -284h205zM520 762q-24 0 -40 10.5t-28.5 23t-23.5 23t-26 10.5q-17 0 -31.5 -16t-19.5 -46h-59q12 69 44 103t74 34q24 0 39.5 -10.5t28 -23t24 -23t26.5 -10.5q17 0 31.5 15.5t19.5 45.5
h59q-12 -69 -44 -102.5t-74 -33.5z" />
    <glyph glyph-name="Adieresis" unicode="&#xc4;" horiz-adv-x="636" 
d="M404 716h91l147 -716h-111l-33 165h-284l-92 -165h-116zM475 267l-51 284l-154 -284h205zM358 779q-24 0 -40 16.5t-16 40.5q0 28 20 48t48 20q25 0 41 -16.5t16 -40.5q0 -29 -20.5 -48.5t-48.5 -19.5zM555 779q-25 0 -41 16.5t-16 40.5q0 28 20.5 48t47.5 20
q25 0 41 -16.5t16 -40.5q0 -29 -20.5 -48.5t-47.5 -19.5z" />
    <glyph glyph-name="Aring" unicode="&#xc5;" horiz-adv-x="636" 
d="M404 716h91l147 -716h-111l-33 165h-284l-92 -165h-116zM475 267l-51 284l-154 -284h205zM454 711q-42 0 -65.5 26.5t-23.5 61.5q0 21 8.5 40t23 33.5t33.5 23t41 8.5q41 0 64.5 -26.5t23.5 -60.5q0 -21 -8.5 -40t-22.5 -34t-33.5 -23.5t-40.5 -8.5zM458 762
q17 0 31.5 15.5t14.5 33.5q0 17 -10.5 29.5t-27.5 12.5t-31 -15.5t-14 -33.5q0 -16 10 -29t27 -13z" />
    <glyph glyph-name="AE" unicode="&#xc6;" horiz-adv-x="937" 
d="M495 716h500l-18 -103h-328l-34 -193h299l-18 -102h-300l-37 -216h340l-19 -102h-448l29 170h-255l-126 -170h-125zM479 273l61 340h-6l-253 -340h198z" />
    <glyph glyph-name="Ccedilla" unicode="&#xc7;" horiz-adv-x="727" 
d="M368 -197q-25 0 -47 5q-11 3 -21 6l9 51q7 -3 16 -5q17 -5 36 -5q23 0 36 10.5t13 23.5q0 12 -12.5 23.5t-38.5 11.5q-9 0 -17 -2q-4 -1 -7 -2l47 75q-61 4 -112.5 31t-89 70t-59 100t-21.5 123q0 85 32.5 158.5t85.5 127.5t121 85t139 31q62 0 113.5 -22t90 -58
t62 -80.5t28.5 -89.5h-112q-6 28 -22 55.5t-40 49.5t-55.5 35.5t-69.5 13.5q-43 0 -90 -21t-86 -60t-64 -94.5t-25 -124.5q0 -50 16 -92.5t44 -74t65 -49.5t79 -18q36 0 70.5 13t64 34.5t52.5 49t36 56.5h114q-19 -43 -48 -84.5t-67.5 -75.5t-86 -57.5t-102.5 -29.5l-29 -44
q26 -6 40.5 -23.5t14.5 -41.5q0 -37 -26.5 -61t-76.5 -24z" />
    <glyph glyph-name="Egrave" unicode="&#xc8;" horiz-adv-x="625" 
d="M211 716h472l-18 -103h-364l-34 -193h335l-18 -102h-335l-38 -216h375l-18 -102h-483zM323 904h97l68 -137h-68z" />
    <glyph glyph-name="Eacute" unicode="&#xc9;" horiz-adv-x="625" 
d="M211 716h472l-18 -103h-364l-34 -193h335l-18 -102h-335l-38 -216h375l-18 -102h-483zM504 904h97l-121 -137h-68z" />
    <glyph glyph-name="Ecircumflex" unicode="&#xca;" horiz-adv-x="625" 
d="M211 716h472l-18 -103h-364l-34 -193h335l-18 -102h-335l-38 -216h375l-18 -102h-483zM430 904h91l79 -136h-86l-43 79l-70 -79h-97z" />
    <glyph glyph-name="Edieresis" unicode="&#xcb;" horiz-adv-x="625" 
d="M211 716h472l-18 -103h-364l-34 -193h335l-18 -102h-335l-38 -216h375l-18 -102h-483zM360 779q-24 0 -40 16.5t-16 40.5q0 28 20 48t48 20q25 0 41 -16.5t16 -40.5q0 -29 -20.5 -48.5t-48.5 -19.5zM557 779q-25 0 -41 16.5t-16 40.5q0 28 20.5 48t47.5 20q25 0 41 -16.5
t16 -40.5q0 -29 -20.5 -48.5t-47.5 -19.5z" />
    <glyph glyph-name="Igrave" unicode="&#xcc;" horiz-adv-x="278" 
d="M211 716h108l-126 -716h-108zM130 904h97l68 -137h-68z" />
    <glyph glyph-name="Iacute" unicode="&#xcd;" horiz-adv-x="278" 
d="M211 716h108l-126 -716h-108zM334 904h97l-121 -137h-68z" />
    <glyph glyph-name="Icircumflex" unicode="&#xce;" horiz-adv-x="278" 
d="M211 716h108l-126 -716h-108zM243 904h91l79 -136h-86l-43 79l-70 -79h-97z" />
    <glyph glyph-name="Idieresis" unicode="&#xcf;" horiz-adv-x="278" 
d="M211 716h108l-126 -716h-108zM178 779q-24 0 -40 16.5t-16 40.5q0 28 20 48t48 20q25 0 41 -16.5t16 -40.5q0 -29 -20.5 -48.5t-48.5 -19.5zM375 779q-25 0 -41 16.5t-16 40.5q0 28 20.5 48t47.5 20q25 0 41 -16.5t16 -40.5q0 -29 -20.5 -48.5t-47.5 -19.5z" />
    <glyph glyph-name="Eth" unicode="&#xd0;" horiz-adv-x="721" 
d="M172 301h-96l18 102h96l55 313h217q60 0 111.5 -26.5t89 -71.5t59 -103.5t21.5 -122.5q0 -82 -32.5 -153.5t-85.5 -124.5t-121 -83.5t-138 -30.5h-247zM373 102q46 0 93 21t84.5 59t61 90t23.5 115q0 46 -15 87t-41 72t-60.5 49t-73.5 18h-110l-37 -210h137l-18 -102
h-138l-34 -199h128z" />
    <glyph glyph-name="Ntilde" unicode="&#xd1;" horiz-adv-x="716" 
d="M211 716h91l256 -517l91 517h108l-127 -716h-90l-256 518l-91 -518h-108zM558 762q-24 0 -40 10.5t-28.5 23t-23.5 23t-26 10.5q-17 0 -31.5 -16t-19.5 -46h-59q12 69 44 103t74 34q24 0 39.5 -10.5t28 -23t24 -23t26.5 -10.5q17 0 31.5 15.5t19.5 45.5h59
q-12 -69 -44 -102.5t-74 -33.5z" />
    <glyph glyph-name="Ograve" unicode="&#xd2;" horiz-adv-x="761" 
d="M406 -6q-65 0 -120.5 25t-97 69t-65 103t-23.5 128q0 85 32.5 158.5t85.5 127.5t121 85t139 31q64 0 120 -25t97.5 -69t65 -103t23.5 -128q0 -85 -32.5 -158.5t-85.5 -127.5t-121 -85t-139 -31zM412 91q47 0 94 22t85 62t61.5 95t23.5 120q0 50 -16 93t-44 74.5
t-64.5 49.5t-78.5 18q-47 0 -94 -22.5t-85 -62.5t-62 -95t-24 -120q0 -50 16.5 -93t44 -74.5t64.5 -49t79 -17.5zM362 904h97l68 -137h-68z" />
    <glyph glyph-name="Oacute" unicode="&#xd3;" horiz-adv-x="761" 
d="M406 -6q-65 0 -120.5 25t-97 69t-65 103t-23.5 128q0 85 32.5 158.5t85.5 127.5t121 85t139 31q64 0 120 -25t97.5 -69t65 -103t23.5 -128q0 -85 -32.5 -158.5t-85.5 -127.5t-121 -85t-139 -31zM412 91q47 0 94 22t85 62t61.5 95t23.5 120q0 50 -16 93t-44 74.5
t-64.5 49.5t-78.5 18q-47 0 -94 -22.5t-85 -62.5t-62 -95t-24 -120q0 -50 16.5 -93t44 -74.5t64.5 -49t79 -17.5zM555 904h97l-121 -137h-68z" />
    <glyph glyph-name="Ocircumflex" unicode="&#xd4;" horiz-adv-x="761" 
d="M406 -6q-65 0 -120.5 25t-97 69t-65 103t-23.5 128q0 85 32.5 158.5t85.5 127.5t121 85t139 31q64 0 120 -25t97.5 -69t65 -103t23.5 -128q0 -85 -32.5 -158.5t-85.5 -127.5t-121 -85t-139 -31zM412 91q47 0 94 22t85 62t61.5 95t23.5 120q0 50 -16 93t-44 74.5
t-64.5 49.5t-78.5 18q-47 0 -94 -22.5t-85 -62.5t-62 -95t-24 -120q0 -50 16.5 -93t44 -74.5t64.5 -49t79 -17.5zM476 904h91l79 -136h-86l-43 79l-70 -79h-97z" />
    <glyph glyph-name="Otilde" unicode="&#xd5;" horiz-adv-x="761" 
d="M406 -6q-65 0 -120.5 25t-97 69t-65 103t-23.5 128q0 85 32.5 158.5t85.5 127.5t121 85t139 31q64 0 120 -25t97.5 -69t65 -103t23.5 -128q0 -85 -32.5 -158.5t-85.5 -127.5t-121 -85t-139 -31zM412 91q47 0 94 22t85 62t61.5 95t23.5 120q0 50 -16 93t-44 74.5
t-64.5 49.5t-78.5 18q-47 0 -94 -22.5t-85 -62.5t-62 -95t-24 -120q0 -50 16.5 -93t44 -74.5t64.5 -49t79 -17.5zM569 762q-24 0 -40 10.5t-28.5 23t-23.5 23t-26 10.5q-17 0 -31.5 -16t-19.5 -46h-59q12 69 44 103t74 34q24 0 39.5 -10.5t28 -23t24 -23t26.5 -10.5
q17 0 31.5 15.5t19.5 45.5h59q-12 -69 -44 -102.5t-74 -33.5z" />
    <glyph glyph-name="Odieresis" unicode="&#xd6;" horiz-adv-x="761" 
d="M406 -6q-65 0 -120.5 25t-97 69t-65 103t-23.5 128q0 85 32.5 158.5t85.5 127.5t121 85t139 31q64 0 120 -25t97.5 -69t65 -103t23.5 -128q0 -85 -32.5 -158.5t-85.5 -127.5t-121 -85t-139 -31zM412 91q47 0 94 22t85 62t61.5 95t23.5 120q0 50 -16 93t-44 74.5
t-64.5 49.5t-78.5 18q-47 0 -94 -22.5t-85 -62.5t-62 -95t-24 -120q0 -50 16.5 -93t44 -74.5t64.5 -49t79 -17.5zM394 779q-24 0 -40 16.5t-16 40.5q0 28 20 48t48 20q25 0 41 -16.5t16 -40.5q0 -29 -20.5 -48.5t-48.5 -19.5zM591 779q-25 0 -41 16.5t-16 40.5q0 28 20.5 48
t47.5 20q25 0 41 -16.5t16 -40.5q0 -29 -20.5 -48.5t-47.5 -19.5z" />
    <glyph glyph-name="multiply" unicode="&#xd7;" horiz-adv-x="511" 
d="M114 153l130 137l-130 136l62 57l131 -137l130 137l63 -57l-131 -136l131 -137l-63 -56l-130 136l-131 -136z" />
    <glyph glyph-name="Oslash" unicode="&#xd8;" horiz-adv-x="772" 
d="M414 -6q-67 0 -123.5 26.5t-98.5 71.5l-93 -75l-56 68l99 81q-34 70 -34 153q0 85 32.5 158.5t85.5 127.5t121 85t139 31q66 0 123 -25.5t99 -71.5l93 75l56 -69l-99 -80q34 -71 34 -154q0 -85 -32.5 -158.5t-85.5 -127.5t-121 -85t-139 -31zM420 91q47 0 94 22.5t85 62
t61.5 94.5t23.5 120q0 47 -14 89l-395 -320q28 -32 65.5 -50t79.5 -18zM625 557q-28 32 -65 50t-79 18q-47 0 -94 -22.5t-85 -62.5t-62 -95t-24 -120q0 -49 13 -89z" />
    <glyph glyph-name="Ugrave" unicode="&#xd9;" horiz-adv-x="682" 
d="M368 -6q-56 0 -102 18.5t-78.5 50.5t-50 75t-17.5 93q0 13 1.5 25.5t3.5 26.5l76 433h108l-77 -440q-4 -15 -4 -34q0 -28 8.5 -55t26.5 -48.5t45.5 -34.5t65.5 -13q65 0 111.5 43.5t59.5 116.5l82 465h108l-84 -477q-9 -54 -35 -99.5t-63.5 -77.5t-85 -50t-99.5 -18z
M351 904h97l68 -137h-68z" />
    <glyph glyph-name="Uacute" unicode="&#xda;" horiz-adv-x="682" 
d="M368 -6q-56 0 -102 18.5t-78.5 50.5t-50 75t-17.5 93q0 13 1.5 25.5t3.5 26.5l76 433h108l-77 -440q-4 -15 -4 -34q0 -28 8.5 -55t26.5 -48.5t45.5 -34.5t65.5 -13q65 0 111.5 43.5t59.5 116.5l82 465h108l-84 -477q-9 -54 -35 -99.5t-63.5 -77.5t-85 -50t-99.5 -18z
M532 904h97l-121 -137h-68z" />
    <glyph glyph-name="Ucircumflex" unicode="&#xdb;" horiz-adv-x="682" 
d="M368 -6q-56 0 -102 18.5t-78.5 50.5t-50 75t-17.5 93q0 13 1.5 25.5t3.5 26.5l76 433h108l-77 -440q-4 -15 -4 -34q0 -28 8.5 -55t26.5 -48.5t45.5 -34.5t65.5 -13q65 0 111.5 43.5t59.5 116.5l82 465h108l-84 -477q-9 -54 -35 -99.5t-63.5 -77.5t-85 -50t-99.5 -18z
M447 904h91l79 -136h-86l-43 79l-70 -79h-97z" />
    <glyph glyph-name="Udieresis" unicode="&#xdc;" horiz-adv-x="682" 
d="M368 -6q-56 0 -102 18.5t-78.5 50.5t-50 75t-17.5 93q0 13 1.5 25.5t3.5 26.5l76 433h108l-77 -440q-4 -15 -4 -34q0 -28 8.5 -55t26.5 -48.5t45.5 -34.5t65.5 -13q65 0 111.5 43.5t59.5 116.5l82 465h108l-84 -477q-9 -54 -35 -99.5t-63.5 -77.5t-85 -50t-99.5 -18z
M371 779q-24 0 -40 16.5t-16 40.5q0 28 20 48t48 20q25 0 41 -16.5t16 -40.5q0 -29 -20.5 -48.5t-48.5 -19.5zM568 779q-25 0 -41 16.5t-16 40.5q0 28 20.5 48t47.5 20q25 0 41 -16.5t16 -40.5q0 -29 -20.5 -48.5t-47.5 -19.5z" />
    <glyph glyph-name="Yacute" unicode="&#xdd;" horiz-adv-x="585" 
d="M282 278l-150 438h107l107 -324h6l222 324h120l-304 -438l-49 -278h-108zM470 904h97l-121 -137h-68z" />
    <glyph glyph-name="Thorn" unicode="&#xde;" horiz-adv-x="676" 
d="M211 716h108l-20 -120h211q41 0 76 -17t60 -45t39 -65t14 -76q0 -48 -20.5 -91.5t-54.5 -76.5t-78.5 -52.5t-92.5 -19.5h-233l-27 -153h-108zM459 256q25 0 48.5 10.5t42 28.5t30 41t11.5 49q0 21 -7.5 40.5t-21 34.5t-31.5 24.5t-39 9.5h-211l-42 -238h220z" />
    <glyph glyph-name="germandbls" unicode="&#xdf;" horiz-adv-x="585" 
d="M168 540q7 38 28 71t51.5 57.5t68.5 38.5t79 14q43 0 78 -14t60.5 -38.5t39.5 -57t14 -69.5q0 -40 -14 -71t-31 -52.5t-31 -32.5t-15 -11q24 -14 43 -35q17 -18 30.5 -47t13.5 -70q0 -47 -18.5 -87.5t-49.5 -70.5t-72 -47.5t-85 -17.5h-74l17 97h68q21 0 41 9t35.5 24.5
t24.5 37.5t9 48q0 39 -23 67.5t-61 28.5h-56l18 103h11q25 0 46 9.5t36.5 25.5t24.5 37.5t9 45.5q0 39 -26.5 65.5t-71.5 26.5q-20 0 -39.5 -7.5t-35.5 -20.5t-27.5 -30.5t-14.5 -38.5l-93 -528h-102z" />
    <glyph glyph-name="agrave" unicode="&#xe0;" horiz-adv-x="528" 
d="M242 -6q-43 0 -75.5 10.5t-54.5 29t-33 43.5t-11 55q0 56 28 92t76 57t112 29t135 8q1 6 2 11l2 10t1 10q0 31 -24 51t-69 20q-40 0 -63 -19.5t-35 -42.5h-106q10 31 28.5 60t45 51t60 35t74.5 13q43 0 78 -12t59.5 -34t38 -52.5t13.5 -67.5q0 -8 -1 -17.5t-3 -18.5
l-54 -315h-74l-14 51q-16 -17 -37 -29q-18 -11 -43 -19.5t-56 -8.5zM242 85q32 0 59 9t47.5 24.5t33.5 36.5t17 45l4 27q-68 0 -112.5 -6t-71 -18t-37 -29t-10.5 -38q0 -20 17.5 -35.5t52.5 -15.5zM235 727h97l68 -137h-68z" />
    <glyph glyph-name="aacute" unicode="&#xe1;" horiz-adv-x="528" 
d="M242 -6q-43 0 -75.5 10.5t-54.5 29t-33 43.5t-11 55q0 56 28 92t76 57t112 29t135 8q1 6 2 11l2 10t1 10q0 31 -24 51t-69 20q-40 0 -63 -19.5t-35 -42.5h-106q10 31 28.5 60t45 51t60 35t74.5 13q43 0 78 -12t59.5 -34t38 -52.5t13.5 -67.5q0 -8 -1 -17.5t-3 -18.5
l-54 -315h-74l-14 51q-16 -17 -37 -29q-18 -11 -43 -19.5t-56 -8.5zM242 85q32 0 59 9t47.5 24.5t33.5 36.5t17 45l4 27q-68 0 -112.5 -6t-71 -18t-37 -29t-10.5 -38q0 -20 17.5 -35.5t52.5 -15.5zM418 727h97l-121 -137h-68z" />
    <glyph glyph-name="acircumflex" unicode="&#xe2;" horiz-adv-x="528" 
d="M242 -6q-43 0 -75.5 10.5t-54.5 29t-33 43.5t-11 55q0 56 28 92t76 57t112 29t135 8q1 6 2 11l2 10t1 10q0 31 -24 51t-69 20q-40 0 -63 -19.5t-35 -42.5h-106q10 31 28.5 60t45 51t60 35t74.5 13q43 0 78 -12t59.5 -34t38 -52.5t13.5 -67.5q0 -8 -1 -17.5t-3 -18.5
l-54 -315h-74l-14 51q-16 -17 -37 -29q-18 -11 -43 -19.5t-56 -8.5zM242 85q32 0 59 9t47.5 24.5t33.5 36.5t17 45l4 27q-68 0 -112.5 -6t-71 -18t-37 -29t-10.5 -38q0 -20 17.5 -35.5t52.5 -15.5zM350 727h91l79 -136h-86l-43 79l-70 -79h-97z" />
    <glyph glyph-name="atilde" unicode="&#xe3;" horiz-adv-x="528" 
d="M242 -6q-43 0 -75.5 10.5t-54.5 29t-33 43.5t-11 55q0 56 28 92t76 57t112 29t135 8q1 6 2 11l2 10t1 10q0 31 -24 51t-69 20q-40 0 -63 -19.5t-35 -42.5h-106q10 31 28.5 60t45 51t60 35t74.5 13q43 0 78 -12t59.5 -34t38 -52.5t13.5 -67.5q0 -8 -1 -17.5t-3 -18.5
l-54 -315h-74l-14 51q-16 -17 -37 -29q-18 -11 -43 -19.5t-56 -8.5zM242 85q32 0 59 9t47.5 24.5t33.5 36.5t17 45l4 27q-68 0 -112.5 -6t-71 -18t-37 -29t-10.5 -38q0 -20 17.5 -35.5t52.5 -15.5zM425 574q-24 0 -40 10.5t-28.5 23t-23.5 23t-26 10.5q-17 0 -31.5 -16
t-19.5 -46h-59q12 69 44 103t74 34q24 0 39.5 -10.5t28 -23t24 -23t26.5 -10.5q17 0 31.5 15.5t19.5 45.5h59q-12 -69 -44 -102.5t-74 -33.5z" />
    <glyph glyph-name="adieresis" unicode="&#xe4;" horiz-adv-x="528" 
d="M242 -6q-43 0 -75.5 10.5t-54.5 29t-33 43.5t-11 55q0 56 28 92t76 57t112 29t135 8q1 6 2 11l2 10t1 10q0 31 -24 51t-69 20q-40 0 -63 -19.5t-35 -42.5h-106q10 31 28.5 60t45 51t60 35t74.5 13q43 0 78 -12t59.5 -34t38 -52.5t13.5 -67.5q0 -8 -1 -17.5t-3 -18.5
l-54 -315h-74l-14 51q-16 -17 -37 -29q-18 -11 -43 -19.5t-56 -8.5zM242 85q32 0 59 9t47.5 24.5t33.5 36.5t17 45l4 27q-68 0 -112.5 -6t-71 -18t-37 -29t-10.5 -38q0 -20 17.5 -35.5t52.5 -15.5zM266 591q-24 0 -40 16.5t-16 40.5q0 28 20 48t48 20q25 0 41 -16.5
t16 -40.5q0 -29 -20.5 -48.5t-48.5 -19.5zM463 591q-25 0 -41 16.5t-16 40.5q0 28 20.5 48t47.5 20q25 0 41 -16.5t16 -40.5q0 -29 -20.5 -48.5t-47.5 -19.5z" />
    <glyph glyph-name="aring" unicode="&#xe5;" horiz-adv-x="528" 
d="M242 -6q-43 0 -75.5 10.5t-54.5 29t-33 43.5t-11 55q0 56 28 92t76 57t112 29t135 8q1 6 2 11l2 10t1 10q0 31 -24 51t-69 20q-40 0 -63 -19.5t-35 -42.5h-106q10 31 28.5 60t45 51t60 35t74.5 13q43 0 78 -12t59.5 -34t38 -52.5t13.5 -67.5q0 -8 -1 -17.5t-3 -18.5
l-54 -315h-74l-14 51q-16 -17 -37 -29q-18 -11 -43 -19.5t-56 -8.5zM242 85q32 0 59 9t47.5 24.5t33.5 36.5t17 45l4 27q-68 0 -112.5 -6t-71 -18t-37 -29t-10.5 -38q0 -20 17.5 -35.5t52.5 -15.5zM371 568q-42 0 -65.5 26.5t-23.5 61.5q0 21 8.5 40t23 33.5t33.5 23t41 8.5
q41 0 64.5 -26.5t23.5 -60.5q0 -21 -8.5 -40t-22.5 -34t-33.5 -23.5t-40.5 -8.5zM375 619q17 0 31.5 15.5t14.5 33.5q0 17 -10.5 29.5t-27.5 12.5t-31 -15.5t-14 -33.5q0 -16 10 -29t27 -13z" />
    <glyph glyph-name="ae" unicode="&#xe6;" horiz-adv-x="852" 
d="M237 -6q-83 0 -126 39.5t-43 98.5q0 56 27.5 91t74.5 55t109 27t131 7v33q0 31 -21.5 53t-65.5 22q-38 0 -61 -19.5t-34 -42.5h-103q10 31 28 60t43.5 51t58.5 35t72 13q54 0 94 -20t63 -55q36 36 76.5 55.5t88.5 19.5q50 0 89.5 -16t67.5 -45.5t42.5 -70.5t14.5 -90
q0 -15 -2.5 -29t-4.5 -25q-4 -13 -7 -25h-358q0 -24 9 -46.5t25.5 -40t39.5 -28t51 -10.5q19 0 36 6t31.5 14.5t25.5 18.5t18 18h108q-15 -29 -38 -57t-52 -49.5t-63 -34.5t-72 -13q-57 0 -99 22.5t-71 61.5q-9 -9 -26 -23.5t-42.5 -28t-59 -23t-75.5 -9.5zM237 85
q31 0 57 9t46 24.5t33 36.5t17 45l3 27q-66 0 -109.5 -6t-69 -18t-36 -29t-10.5 -38q0 -20 17.5 -35.5t51.5 -15.5zM765 307q2 56 -28 87.5t-86 31.5q-51 0 -91 -31.5t-58 -87.5h263z" />
    <glyph glyph-name="ccedilla" unicode="&#xe7;" horiz-adv-x="545" 
d="M264 -197q-26 0 -48 5q-11 3 -21 6l9 51q8 -3 17 -5q17 -5 36 -5q23 0 36 10.5t13 23.5q0 12 -12.5 23.5t-39.5 11.5q-8 0 -16 -2q-4 -1 -7 -2l47 77q-43 4 -78.5 23t-61 48.5t-39.5 69t-14 85.5q0 65 23 119t61 93t86.5 60.5t100.5 21.5q45 0 83 -15t66.5 -41t46 -61.5
t22.5 -75.5h-105q-13 45 -44 70.5t-73 25.5q-29 0 -58.5 -13.5t-53.5 -37.5t-39 -58t-15 -76q0 -32 10.5 -58.5t28 -45.5t40.5 -29.5t49 -10.5q23 0 44 8t39.5 21t33 30.5t23.5 36.5h103q-31 -85 -88 -133t-128 -57l-30 -44q26 -6 41 -23.5t15 -41.5q0 -37 -27 -61t-76 -24z
" />
    <glyph glyph-name="egrave" unicode="&#xe8;" horiz-adv-x="557" 
d="M311 -6q-50 0 -91.5 16.5t-71.5 46.5t-46.5 72t-16.5 93q0 65 22.5 119.5t60 93.5t85.5 60.5t98 21.5q51 0 92.5 -17t70 -47.5t44 -72t15.5 -90.5q0 -15 -2.5 -29.5t-5.5 -25.5q-4 -13 -7 -25h-369q0 -24 9.5 -45.5t26 -38t40 -26t52.5 -9.5q20 0 37.5 6t32.5 14.5
t26 18.5t19 18h111q-15 -29 -38.5 -57t-53.5 -49.5t-65.5 -34.5t-74.5 -13zM471 295v6q0 53 -30.5 86t-86.5 33q-51 0 -92.5 -34.5t-60.5 -90.5h270zM247 727h97l68 -137h-68z" />
    <glyph glyph-name="eacute" unicode="&#xe9;" horiz-adv-x="557" 
d="M311 -6q-50 0 -91.5 16.5t-71.5 46.5t-46.5 72t-16.5 93q0 65 22.5 119.5t60 93.5t85.5 60.5t98 21.5q51 0 92.5 -17t70 -47.5t44 -72t15.5 -90.5q0 -15 -2.5 -29.5t-5.5 -25.5q-4 -13 -7 -25h-369q0 -24 9.5 -45.5t26 -38t40 -26t52.5 -9.5q20 0 37.5 6t32.5 14.5
t26 18.5t19 18h111q-15 -29 -38.5 -57t-53.5 -49.5t-65.5 -34.5t-74.5 -13zM471 295v6q0 53 -30.5 86t-86.5 33q-51 0 -92.5 -34.5t-60.5 -90.5h270zM423 727h97l-121 -137h-68z" />
    <glyph glyph-name="ecircumflex" unicode="&#xea;" horiz-adv-x="557" 
d="M311 -6q-50 0 -91.5 16.5t-71.5 46.5t-46.5 72t-16.5 93q0 65 22.5 119.5t60 93.5t85.5 60.5t98 21.5q51 0 92.5 -17t70 -47.5t44 -72t15.5 -90.5q0 -15 -2.5 -29.5t-5.5 -25.5q-4 -13 -7 -25h-369q0 -24 9.5 -45.5t26 -38t40 -26t52.5 -9.5q20 0 37.5 6t32.5 14.5
t26 18.5t19 18h111q-15 -29 -38.5 -57t-53.5 -49.5t-65.5 -34.5t-74.5 -13zM471 295v6q0 53 -30.5 86t-86.5 33q-51 0 -92.5 -34.5t-60.5 -90.5h270zM350 727h91l79 -136h-86l-43 79l-70 -79h-97z" />
    <glyph glyph-name="edieresis" unicode="&#xeb;" horiz-adv-x="557" 
d="M311 -6q-50 0 -91.5 16.5t-71.5 46.5t-46.5 72t-16.5 93q0 65 22.5 119.5t60 93.5t85.5 60.5t98 21.5q51 0 92.5 -17t70 -47.5t44 -72t15.5 -90.5q0 -15 -2.5 -29.5t-5.5 -25.5q-4 -13 -7 -25h-369q0 -24 9.5 -45.5t26 -38t40 -26t52.5 -9.5q20 0 37.5 6t32.5 14.5
t26 18.5t19 18h111q-15 -29 -38.5 -57t-53.5 -49.5t-65.5 -34.5t-74.5 -13zM471 295v6q0 53 -30.5 86t-86.5 33q-51 0 -92.5 -34.5t-60.5 -90.5h270zM278 591q-24 0 -40 16.5t-16 40.5q0 28 20 48t48 20q25 0 41 -16.5t16 -40.5q0 -29 -20.5 -48.5t-48.5 -19.5zM475 591
q-25 0 -41 16.5t-16 40.5q0 28 20.5 48t47.5 20q25 0 41 -16.5t16 -40.5q0 -29 -20.5 -48.5t-47.5 -19.5z" />
    <glyph glyph-name="igrave" unicode="&#xec;" horiz-adv-x="239" 
d="M158 511h102l-90 -511h-102zM82 727h97l68 -137h-68z" />
    <glyph glyph-name="iacute" unicode="&#xed;" horiz-adv-x="239" 
d="M158 511h102l-90 -511h-102zM276 727h97l-121 -137h-68z" />
    <glyph glyph-name="icircumflex" unicode="&#xee;" horiz-adv-x="239" 
d="M158 511h102l-90 -511h-102zM196 727h91l79 -136h-86l-43 79l-70 -79h-97z" />
    <glyph glyph-name="idieresis" unicode="&#xef;" horiz-adv-x="239" 
d="M158 511h102l-90 -511h-102zM124 591q-24 0 -40 16.5t-16 40.5q0 28 20 48t48 20q25 0 41 -16.5t16 -40.5q0 -29 -20.5 -48.5t-48.5 -19.5zM321 591q-25 0 -41 16.5t-16 40.5q0 28 20.5 48t47.5 20q25 0 41 -16.5t16 -40.5q0 -29 -20.5 -48.5t-47.5 -19.5z" />
    <glyph glyph-name="eth" unicode="&#xf0;" horiz-adv-x="591" 
d="M318 -6q-52 0 -95 17t-73.5 47t-47.5 71t-17 89q0 59 22.5 109.5t59.5 87.5t84.5 58t97.5 21q46 0 77.5 -13.5t50 -30t26.5 -30l8 -13.5q2 45 -9 82t-24 63q-16 31 -35 56l-114 -68l-34 68l89 51q-17 13 -35.5 21.5t-34.5 13.5q-18 6 -36 10l42 80q27 -9 53 -20
q23 -10 48 -23.5t46 -30.5l109 68l33 -68l-89 -51q24 -32 42 -76q16 -38 29.5 -92.5t13.5 -124.5q0 -88 -22 -157t-60.5 -117t-91 -73t-113.5 -25zM319 91q31 0 60.5 13t52.5 35.5t37 53t14 65.5q0 27 -10 52.5t-27.5 45t-42 31t-52.5 11.5q-31 0 -60.5 -13t-52.5 -35.5
t-37 -53t-14 -65.5q0 -27 10 -52.5t27.5 -45t41.5 -31t53 -11.5z" />
    <glyph glyph-name="ntilde" unicode="&#xf1;" horiz-adv-x="579" 
d="M158 511h74l13 -51q16 16 37 28q18 11 43 20t56 9q49 0 85 -17t58.5 -44.5t33.5 -62.5t11 -72q0 -22 -3 -44l-49 -277h-102l50 285q1 5 1.5 11t0.5 11q0 23 -7.5 43.5t-22 36t-34.5 24.5t-44 9t-46.5 -9t-41 -24t-31 -36t-16.5 -45l-54 -306h-102zM459 574
q-24 0 -40 10.5t-28.5 23t-23.5 23t-26 10.5q-17 0 -31.5 -16t-19.5 -46h-59q12 69 44 103t74 34q24 0 39.5 -10.5t28 -23t24 -23t26.5 -10.5q17 0 31.5 15.5t19.5 45.5h59q-12 -69 -44 -102.5t-74 -33.5z" />
    <glyph glyph-name="ograve" unicode="&#xf2;" 
d="M307 -6q-49 0 -89.5 17t-70 48t-46 72.5t-16.5 91.5q0 65 23 119t60.5 93t86.5 60.5t101 21.5q48 0 89 -17t70 -47.5t45.5 -72.5t16.5 -91q0 -65 -23 -119.5t-60.5 -93.5t-86 -60.5t-100.5 -21.5zM314 91q29 0 58 13.5t52 38t37.5 59t14.5 75.5q0 32 -10 58.5t-27.5 45
t-40.5 29t-49 10.5q-29 0 -58 -13.5t-52.5 -38t-38 -58.5t-14.5 -75q0 -32 10 -58.5t27.5 -45.5t41 -29.5t49.5 -10.5zM235 727h97l68 -137h-68z" />
    <glyph glyph-name="oacute" unicode="&#xf3;" 
d="M307 -6q-49 0 -89.5 17t-70 48t-46 72.5t-16.5 91.5q0 65 23 119t60.5 93t86.5 60.5t101 21.5q48 0 89 -17t70 -47.5t45.5 -72.5t16.5 -91q0 -65 -23 -119.5t-60.5 -93.5t-86 -60.5t-100.5 -21.5zM314 91q29 0 58 13.5t52 38t37.5 59t14.5 75.5q0 32 -10 58.5t-27.5 45
t-40.5 29t-49 10.5q-29 0 -58 -13.5t-52.5 -38t-38 -58.5t-14.5 -75q0 -32 10 -58.5t27.5 -45.5t41 -29.5t49.5 -10.5zM429 727h97l-121 -137h-68z" />
    <glyph glyph-name="ocircumflex" unicode="&#xf4;" 
d="M307 -6q-49 0 -89.5 17t-70 48t-46 72.5t-16.5 91.5q0 65 23 119t60.5 93t86.5 60.5t101 21.5q48 0 89 -17t70 -47.5t45.5 -72.5t16.5 -91q0 -65 -23 -119.5t-60.5 -93.5t-86 -60.5t-100.5 -21.5zM314 91q29 0 58 13.5t52 38t37.5 59t14.5 75.5q0 32 -10 58.5t-27.5 45
t-40.5 29t-49 10.5q-29 0 -58 -13.5t-52.5 -38t-38 -58.5t-14.5 -75q0 -32 10 -58.5t27.5 -45.5t41 -29.5t49.5 -10.5zM355 727h91l79 -136h-86l-43 79l-70 -79h-97z" />
    <glyph glyph-name="otilde" unicode="&#xf5;" 
d="M307 -6q-49 0 -89.5 17t-70 48t-46 72.5t-16.5 91.5q0 65 23 119t60.5 93t86.5 60.5t101 21.5q48 0 89 -17t70 -47.5t45.5 -72.5t16.5 -91q0 -65 -23 -119.5t-60.5 -93.5t-86 -60.5t-100.5 -21.5zM314 91q29 0 58 13.5t52 38t37.5 59t14.5 75.5q0 32 -10 58.5t-27.5 45
t-40.5 29t-49 10.5q-29 0 -58 -13.5t-52.5 -38t-38 -58.5t-14.5 -75q0 -32 10 -58.5t27.5 -45.5t41 -29.5t49.5 -10.5zM430 574q-24 0 -40 10.5t-28.5 23t-23.5 23t-26 10.5q-17 0 -31.5 -16t-19.5 -46h-59q12 69 44 103t74 34q24 0 39.5 -10.5t28 -23t24 -23t26.5 -10.5
q17 0 31.5 15.5t19.5 45.5h59q-12 -69 -44 -102.5t-74 -33.5z" />
    <glyph glyph-name="odieresis" unicode="&#xf6;" 
d="M307 -6q-49 0 -89.5 17t-70 48t-46 72.5t-16.5 91.5q0 65 23 119t60.5 93t86.5 60.5t101 21.5q48 0 89 -17t70 -47.5t45.5 -72.5t16.5 -91q0 -65 -23 -119.5t-60.5 -93.5t-86 -60.5t-100.5 -21.5zM314 91q29 0 58 13.5t52 38t37.5 59t14.5 75.5q0 32 -10 58.5t-27.5 45
t-40.5 29t-49 10.5q-29 0 -58 -13.5t-52.5 -38t-38 -58.5t-14.5 -75q0 -32 10 -58.5t27.5 -45.5t41 -29.5t49.5 -10.5zM284 591q-24 0 -40 16.5t-16 40.5q0 28 20 48t48 20q25 0 41 -16.5t16 -40.5q0 -29 -20.5 -48.5t-48.5 -19.5zM481 591q-25 0 -41 16.5t-16 40.5
q0 28 20.5 48t47.5 20q25 0 41 -16.5t16 -40.5q0 -29 -20.5 -48.5t-47.5 -19.5z" />
    <glyph glyph-name="divide" unicode="&#xf7;" horiz-adv-x="511" 
d="M301 40q-26 0 -44 18t-18 44t18 44.5t44 18.5t44.5 -18.5t18.5 -44.5t-18.5 -44t-44.5 -18zM85 335h432v-91h-432v91zM301 415q-26 0 -44 18t-18 44t18 44.5t44 18.5t44.5 -18.5t18.5 -44.5t-18.5 -44t-44.5 -18z" />
    <glyph glyph-name="oslash" unicode="&#xf8;" 
d="M314 -6q-50 0 -90.5 17.5t-70.5 48.5l-71 -55l-46 62l75 59q-8 23 -13.5 46.5t-5.5 50.5q0 65 23 119t60.5 93t86 60.5t100.5 21.5q49 0 90.5 -17.5t70.5 -48.5l71 56l46 -63l-75 -59q19 -44 19 -96q0 -65 -23 -119.5t-60.5 -93.5t-86 -60.5t-100.5 -21.5zM320 91
q29 0 58 13.5t52.5 38t38 59t14.5 75.5q0 11 -1.5 20.5t-3.5 19.5l-243 -191q35 -35 85 -35zM441 385q-17 17 -39.5 26t-45.5 9q-29 0 -58.5 -13.5t-52.5 -38t-37.5 -58.5t-14.5 -75q0 -11 1 -21t4 -20z" />
    <glyph glyph-name="ugrave" unicode="&#xf9;" horiz-adv-x="585" 
d="M294 -6q-50 0 -85.5 17t-58.5 44.5t-33.5 62.5t-10.5 72q0 21 3 44l49 277h102l-50 -285q-1 -5 -1.5 -11t-0.5 -11q0 -23 7.5 -43.5t22 -36t34.5 -24.5t44 -9t46.5 9t40.5 24.5t31 36.5t17 45l53 305h103l-90 -511h-74l-14 51q-17 -17 -37 -29q-18 -11 -42.5 -19.5
t-55.5 -8.5zM256 727h97l68 -137h-68z" />
    <glyph glyph-name="uacute" unicode="&#xfa;" horiz-adv-x="585" 
d="M294 -6q-50 0 -85.5 17t-58.5 44.5t-33.5 62.5t-10.5 72q0 21 3 44l49 277h102l-50 -285q-1 -5 -1.5 -11t-0.5 -11q0 -23 7.5 -43.5t22 -36t34.5 -24.5t44 -9t46.5 9t40.5 24.5t31 36.5t17 45l53 305h103l-90 -511h-74l-14 51q-17 -17 -37 -29q-18 -11 -42.5 -19.5
t-55.5 -8.5zM444 727h97l-121 -137h-68z" />
    <glyph glyph-name="ucircumflex" unicode="&#xfb;" horiz-adv-x="585" 
d="M294 -6q-50 0 -85.5 17t-58.5 44.5t-33.5 62.5t-10.5 72q0 21 3 44l49 277h102l-50 -285q-1 -5 -1.5 -11t-0.5 -11q0 -23 7.5 -43.5t22 -36t34.5 -24.5t44 -9t46.5 9t40.5 24.5t31 36.5t17 45l53 305h103l-90 -511h-74l-14 51q-17 -17 -37 -29q-18 -11 -42.5 -19.5
t-55.5 -8.5zM361 727h91l79 -136h-86l-43 79l-70 -79h-97z" />
    <glyph glyph-name="udieresis" unicode="&#xfc;" horiz-adv-x="585" 
d="M294 -6q-50 0 -85.5 17t-58.5 44.5t-33.5 62.5t-10.5 72q0 21 3 44l49 277h102l-50 -285q-1 -5 -1.5 -11t-0.5 -11q0 -23 7.5 -43.5t22 -36t34.5 -24.5t44 -9t46.5 9t40.5 24.5t31 36.5t17 45l53 305h103l-90 -511h-74l-14 51q-17 -17 -37 -29q-18 -11 -42.5 -19.5
t-55.5 -8.5zM295 591q-24 0 -40 16.5t-16 40.5q0 28 20 48t48 20q25 0 41 -16.5t16 -40.5q0 -29 -20.5 -48.5t-48.5 -19.5zM492 591q-25 0 -41 16.5t-16 40.5q0 28 20.5 48t47.5 20q25 0 41 -16.5t16 -40.5q0 -29 -20.5 -48.5t-47.5 -19.5z" />
    <glyph glyph-name="yacute" unicode="&#xfd;" horiz-adv-x="523" 
d="M110 -187q-17 0 -34 5q-9 2 -18 5l15 85q3 -1 6 -1h10q36 0 57.5 16t32.5 38l29 56l-111 494h107l77 -369l207 369h117l-324 -559q-44 -75 -83 -107t-88 -32zM401 727h97l-121 -137h-68z" />
    <glyph glyph-name="thorn" unicode="&#xfe;" horiz-adv-x="602" 
d="M200 716h102l-44 -249q14 14 33 25q17 9 40.5 17t55.5 8q53 0 94.5 -19t70.5 -50.5t44 -72.5t15 -86q0 -66 -22.5 -120t-60 -93t-85.5 -60.5t-100 -21.5q-42 0 -71.5 10.5t-48.5 24.5q-22 16 -36 36l-43 -247h-102zM343 91q31 0 60.5 13.5t53 38t38 58.5t14.5 75
q0 31 -10 57t-28 45.5t-42 30.5t-52 11q-31 0 -60.5 -13.5t-53 -38t-38 -58.5t-14.5 -75q0 -31 10 -57t28 -45.5t42 -30.5t52 -11z" />
    <glyph glyph-name="ydieresis" unicode="&#xff;" horiz-adv-x="523" 
d="M110 -187q-17 0 -34 5q-9 2 -18 5l15 85q3 -1 6 -1h10q36 0 57.5 16t32.5 38l29 56l-111 494h107l77 -369l207 369h117l-324 -559q-44 -75 -83 -107t-88 -32zM249 591q-24 0 -40 16.5t-16 40.5q0 28 20 48t48 20q25 0 41 -16.5t16 -40.5q0 -29 -20.5 -48.5t-48.5 -19.5z
M446 591q-25 0 -41 16.5t-16 40.5q0 28 20.5 48t47.5 20q25 0 41 -16.5t16 -40.5q0 -29 -20.5 -48.5t-47.5 -19.5z" />
    <glyph glyph-name="Amacron" unicode="&#x100;" horiz-adv-x="636" 
d="M404 716h91l147 -716h-111l-33 165h-284l-92 -165h-116zM475 267l-51 284l-154 -284h205zM319 881h284l-12 -74h-284z" />
    <glyph glyph-name="amacron" unicode="&#x101;" horiz-adv-x="528" 
d="M242 -6q-43 0 -75.5 10.5t-54.5 29t-33 43.5t-11 55q0 56 28 92t76 57t112 29t135 8q1 6 2 11l2 10t1 10q0 31 -24 51t-69 20q-40 0 -63 -19.5t-35 -42.5h-106q10 31 28.5 60t45 51t60 35t74.5 13q43 0 78 -12t59.5 -34t38 -52.5t13.5 -67.5q0 -8 -1 -17.5t-3 -18.5
l-54 -315h-74l-14 51q-16 -17 -37 -29q-18 -11 -43 -19.5t-56 -8.5zM242 85q32 0 59 9t47.5 24.5t33.5 36.5t17 45l4 27q-68 0 -112.5 -6t-71 -18t-37 -29t-10.5 -38q0 -20 17.5 -35.5t52.5 -15.5zM237 676h284l-12 -74h-284z" />
    <glyph glyph-name="Abreve" unicode="&#x102;" horiz-adv-x="636" 
d="M404 716h91l147 -716h-111l-33 165h-284l-92 -165h-116zM475 267l-51 284l-154 -284h205zM456 773q-34 0 -59.5 11.5t-42.5 30.5t-25.5 42.5t-8.5 46.5h80q2 -17 9 -29q6 -11 18 -19.5t35 -8.5q26 0 45 18.5t28 38.5h85q-9 -26 -24.5 -50t-36.5 -42t-47 -28.5t-56 -10.5z
" />
    <glyph glyph-name="abreve" unicode="&#x103;" horiz-adv-x="528" 
d="M242 -6q-43 0 -75.5 10.5t-54.5 29t-33 43.5t-11 55q0 56 28 92t76 57t112 29t135 8q1 6 2 11l2 10t1 10q0 31 -24 51t-69 20q-40 0 -63 -19.5t-35 -42.5h-106q10 31 28.5 60t45 51t60 35t74.5 13q43 0 78 -12t59.5 -34t38 -52.5t13.5 -67.5q0 -8 -1 -17.5t-3 -18.5
l-54 -315h-74l-14 51q-16 -17 -37 -29q-18 -11 -43 -19.5t-56 -8.5zM242 85q32 0 59 9t47.5 24.5t33.5 36.5t17 45l4 27q-68 0 -112.5 -6t-71 -18t-37 -29t-10.5 -38q0 -20 17.5 -35.5t52.5 -15.5zM371 585q-34 0 -59.5 11.5t-42.5 30.5t-25.5 42.5t-8.5 46.5h80
q2 -17 9 -29q6 -11 18 -19.5t35 -8.5q26 0 45 18.5t28 38.5h85q-9 -26 -24.5 -50t-36.5 -42t-47 -28.5t-56 -10.5z" />
    <glyph glyph-name="Aogonek" unicode="&#x104;" horiz-adv-x="636" 
d="M578 -202q-54 0 -82.5 24.5t-28.5 63.5q0 25 10 46t22 36q14 18 32 32l-33 165h-284l-92 -165h-116l398 716h91l147 -716h-49q-16 -14 -28 -31q-11 -14 -19.5 -32t-8.5 -36q0 -22 14 -34t37 -12h14.5t11.5 1q6 0 12 1l-10 -57q-5 -1 -11 -1q-5 -1 -12 -1h-15zM475 267
l-51 284l-154 -284h205z" />
    <glyph glyph-name="aogonek" unicode="&#x105;" horiz-adv-x="528" 
d="M440 -202q-55 0 -83.5 24.5t-28.5 63.5q0 25 10 46t22 36q14 18 32 32l-14 51q-16 -17 -37 -29q-18 -11 -43 -19.5t-56 -8.5q-43 0 -75.5 10.5t-54.5 29t-33 43.5t-11 55q0 56 28.5 92t76.5 57t112 29t135 8h-1q1 6 2 11l2 10t1 10q0 31 -24 51t-69 20q-40 0 -63 -19.5
t-35 -42.5h-106q10 31 28.5 60t45 51t60 35t74.5 13q43 0 78 -12t59.5 -34t38 -52.5t13.5 -67.5q0 -8 -1 -17.5t-3 -18.5l-54 -315h-12q-16 -14 -28 -31q-11 -14 -19 -32t-8 -36q0 -22 14 -34t37 -12h14t12 1q6 0 11 1l-10 -57q-5 -1 -11 -1q-5 -1 -11.5 -1h-14.5zM242 85
q32 0 59 9t47.5 24.5t33.5 36.5t17 45l4 27q-68 0 -112.5 -6t-71 -18t-37 -29t-10.5 -38q0 -20 17.5 -35.5t52.5 -15.5z" />
    <glyph glyph-name="Cacute" unicode="&#x106;" horiz-adv-x="727" 
d="M406 -6q-65 0 -121 25t-97 69t-64.5 103t-23.5 128q0 85 32.5 158.5t85.5 127.5t121 85t139 31q62 0 113.5 -22t90 -58t62 -80.5t28.5 -89.5h-112q-6 28 -22 55.5t-40 49.5t-55.5 35.5t-69.5 13.5q-43 0 -90 -21t-86 -60t-64 -94.5t-25 -124.5q0 -50 16 -92.5t44 -74
t65 -49.5t79 -18q36 0 70.5 13t64 34.5t52.5 49t36 56.5h114q-21 -47 -53.5 -92t-76 -80t-97 -56.5t-116.5 -21.5zM555 904h97l-121 -137h-68z" />
    <glyph glyph-name="cacute" unicode="&#x107;" horiz-adv-x="545" 
d="M307 -6q-49 0 -89.5 17t-70 48t-46 72.5t-16.5 91.5q0 65 23 119t61 93t86.5 60.5t100.5 21.5q45 0 83 -15t66.5 -41t46 -61.5t22.5 -75.5h-105q-13 45 -44 70.5t-73 25.5q-29 0 -58.5 -13.5t-53.5 -37.5t-39 -58t-15 -76q0 -32 10.5 -58.5t28 -45.5t40.5 -29.5t49 -10.5
q23 0 44 8t39.5 21t33 30.5t23.5 36.5h103q-35 -95 -101.5 -144t-148.5 -49zM435 727h97l-121 -137h-68z" />
    <glyph glyph-name="Ccircumflex" unicode="&#x108;" horiz-adv-x="727" 
d="M406 -6q-65 0 -121 25t-97 69t-64.5 103t-23.5 128q0 85 32.5 158.5t85.5 127.5t121 85t139 31q62 0 113.5 -22t90 -58t62 -80.5t28.5 -89.5h-112q-6 28 -22 55.5t-40 49.5t-55.5 35.5t-69.5 13.5q-43 0 -90 -21t-86 -60t-64 -94.5t-25 -124.5q0 -50 16 -92.5t44 -74
t65 -49.5t79 -18q36 0 70.5 13t64 34.5t52.5 49t36 56.5h114q-21 -47 -53.5 -92t-76 -80t-97 -56.5t-116.5 -21.5zM476 904h91l79 -136h-86l-43 79l-70 -79h-97z" />
    <glyph glyph-name="ccircumflex" unicode="&#x109;" horiz-adv-x="545" 
d="M307 -6q-49 0 -89.5 17t-70 48t-46 72.5t-16.5 91.5q0 65 23 119t61 93t86.5 60.5t100.5 21.5q45 0 83 -15t66.5 -41t46 -61.5t22.5 -75.5h-105q-13 45 -44 70.5t-73 25.5q-29 0 -58.5 -13.5t-53.5 -37.5t-39 -58t-15 -76q0 -32 10.5 -58.5t28 -45.5t40.5 -29.5t49 -10.5
q23 0 44 8t39.5 21t33 30.5t23.5 36.5h103q-35 -95 -101.5 -144t-148.5 -49zM355 727h91l79 -136h-86l-43 79l-70 -79h-97z" />
    <glyph glyph-name="Cdotaccent" unicode="&#x10a;" horiz-adv-x="727" 
d="M406 -6q-65 0 -121 25t-97 69t-64.5 103t-23.5 128q0 85 32.5 158.5t85.5 127.5t121 85t139 31q62 0 113.5 -22t90 -58t62 -80.5t28.5 -89.5h-112q-6 28 -22 55.5t-40 49.5t-55.5 35.5t-69.5 13.5q-43 0 -90 -21t-86 -60t-64 -94.5t-25 -124.5q0 -50 16 -92.5t44 -74
t65 -49.5t79 -18q36 0 70.5 13t64 34.5t52.5 49t36 56.5h114q-21 -47 -53.5 -92t-76 -80t-97 -56.5t-116.5 -21.5zM497 779q-25 0 -41 16.5t-16 40.5q0 28 20.5 48t47.5 20q25 0 41 -16.5t16 -40.5q0 -29 -20.5 -48.5t-47.5 -19.5z" />
    <glyph glyph-name="cdotaccent" unicode="&#x10b;" horiz-adv-x="545" 
d="M307 -6q-49 0 -89.5 17t-70 48t-46 72.5t-16.5 91.5q0 65 23 119t61 93t86.5 60.5t100.5 21.5q45 0 83 -15t66.5 -41t46 -61.5t22.5 -75.5h-105q-13 45 -44 70.5t-73 25.5q-29 0 -58.5 -13.5t-53.5 -37.5t-39 -58t-15 -76q0 -32 10.5 -58.5t28 -45.5t40.5 -29.5t49 -10.5
q23 0 44 8t39.5 21t33 30.5t23.5 36.5h103q-35 -95 -101.5 -144t-148.5 -49zM371 591q-25 0 -41 16.5t-16 40.5q0 28 20.5 48t47.5 20q25 0 41 -16.5t16 -40.5q0 -29 -20.5 -48.5t-47.5 -19.5z" />
    <glyph glyph-name="Ccaron" unicode="&#x10c;" horiz-adv-x="727" 
d="M406 -6q-65 0 -121 25t-97 69t-64.5 103t-23.5 128q0 85 32.5 158.5t85.5 127.5t121 85t139 31q62 0 113.5 -22t90 -58t62 -80.5t28.5 -89.5h-112q-6 28 -22 55.5t-40 49.5t-55.5 35.5t-69.5 13.5q-43 0 -90 -21t-86 -60t-64 -94.5t-25 -124.5q0 -50 16 -92.5t44 -74
t65 -49.5t79 -18q36 0 70.5 13t64 34.5t52.5 49t36 56.5h114q-21 -47 -53.5 -92t-76 -80t-97 -56.5t-116.5 -21.5zM369 904h85l43 -80l71 80h96l-126 -136h-91z" />
    <glyph glyph-name="ccaron" unicode="&#x10d;" horiz-adv-x="545" 
d="M307 -6q-49 0 -89.5 17t-70 48t-46 72.5t-16.5 91.5q0 65 23 119t61 93t86.5 60.5t100.5 21.5q45 0 83 -15t66.5 -41t46 -61.5t22.5 -75.5h-105q-13 45 -44 70.5t-73 25.5q-29 0 -58.5 -13.5t-53.5 -37.5t-39 -58t-15 -76q0 -32 10.5 -58.5t28 -45.5t40.5 -29.5t49 -10.5
q23 0 44 8t39.5 21t33 30.5t23.5 36.5h103q-35 -95 -101.5 -144t-148.5 -49zM253 727h85l43 -80l71 80h96l-126 -136h-91z" />
    <glyph glyph-name="Dcaron" unicode="&#x10e;" horiz-adv-x="687" 
d="M211 716h217q60 0 111.5 -26.5t89 -71.5t59 -103.5t21.5 -122.5q0 -82 -32.5 -153.5t-85.5 -124.5t-121 -83.5t-138 -30.5h-247zM339 102q46 0 93 21t84.5 59t61 90t23.5 115q0 46 -15 87t-41 72t-60.5 49t-73.5 18h-110l-90 -511h128zM335 904h85l43 -80l71 80h96
l-126 -136h-91z" />
    <glyph glyph-name="dcaron" unicode="&#x10f;" horiz-adv-x="665" 
d="M757 716h90l-92 -137h-62zM304 -6q-53 0 -94 19t-70 50.5t-44 73t-15 86.5q0 66 22.5 120t60 92.5t85.5 60t100 21.5q42 0 71 -11t48 -25q22 -16 36 -35l48 270h102l-126 -716h-74l-13 51q-16 -17 -37 -29q-18 -11 -43.5 -19.5t-56.5 -8.5zM315 91q30 0 60 13.5t53.5 38
t38 58.5t14.5 75q0 31 -10 57t-28 45.5t-42 30.5t-52 11q-31 0 -60.5 -13.5t-53 -38t-38 -58.5t-14.5 -75q0 -31 10 -57t28 -45.5t42 -30.5t52 -11z" />
    <glyph glyph-name="Dcroat" unicode="&#x110;" horiz-adv-x="721" 
d="M172 301h-96l18 102h96l55 313h217q60 0 111.5 -26.5t89 -71.5t59 -103.5t21.5 -122.5q0 -82 -32.5 -153.5t-85.5 -124.5t-121 -83.5t-138 -30.5h-247zM373 102q46 0 93 21t84.5 59t61 90t23.5 115q0 46 -15 87t-41 72t-60.5 49t-73.5 18h-110l-37 -210h137l-18 -102
h-138l-34 -199h128z" />
    <glyph glyph-name="dcroat" unicode="&#x111;" horiz-adv-x="596" 
d="M287 -6q-45 0 -83.5 16t-66 44.5t-43.5 67.5t-16 86q0 57 21 105.5t56 84t80 55.5t93 20q40 0 69 -11t47 -25q21 -16 35 -35l25 138h-142l16 90h142l15 86h102l-14 -86h85l-16 -90h-85l-96 -540h-74l-13 51q-16 -17 -37 -29q-18 -11 -43.5 -19.5t-56.5 -8.5zM306 90
q28 0 55 12t48 33t34 49t13 61q0 27 -9.5 51t-26 41.5t-39.5 27.5t-49 10q-29 0 -56 -12t-48 -33t-33.5 -49.5t-12.5 -61.5q0 -27 9.5 -50.5t26 -41t39 -27.5t49.5 -10z" />
    <glyph glyph-name="Emacron" unicode="&#x112;" horiz-adv-x="625" 
d="M211 716h472l-18 -103h-364l-34 -193h335l-18 -102h-335l-38 -216h375l-18 -102h-483zM325 881h284l-12 -74h-284z" />
    <glyph glyph-name="emacron" unicode="&#x113;" horiz-adv-x="557" 
d="M311 -6q-50 0 -91.5 16.5t-71.5 46.5t-46.5 72t-16.5 93q0 65 22.5 119.5t60 93.5t85.5 60.5t98 21.5q51 0 92.5 -17t70 -47.5t44 -72t15.5 -90.5q0 -15 -2.5 -29.5t-5.5 -25.5q-4 -13 -7 -25h-369q0 -24 9.5 -45.5t26 -38t40 -26t52.5 -9.5q20 0 37.5 6t32.5 14.5
t26 18.5t19 18h111q-15 -29 -38.5 -57t-53.5 -49.5t-65.5 -34.5t-74.5 -13zM471 295v6q0 53 -30.5 86t-86.5 33q-51 0 -92.5 -34.5t-60.5 -90.5h270zM243 676h284l-12 -74h-284z" />
    <glyph glyph-name="Ebreve" unicode="&#x114;" horiz-adv-x="625" 
d="M211 716h472l-18 -103h-364l-34 -193h335l-18 -102h-335l-38 -216h375l-18 -102h-483zM462 773q-34 0 -59.5 11.5t-42.5 30.5t-25.5 42.5t-8.5 46.5h80q2 -17 9 -29q6 -11 18 -19.5t35 -8.5q26 0 45 18.5t28 38.5h85q-9 -26 -24.5 -50t-36.5 -42t-47 -28.5t-56 -10.5z
" />
    <glyph glyph-name="ebreve" unicode="&#x115;" horiz-adv-x="557" 
d="M311 -6q-50 0 -91.5 16.5t-71.5 46.5t-46.5 72t-16.5 93q0 65 22.5 119.5t60 93.5t85.5 60.5t98 21.5q51 0 92.5 -17t70 -47.5t44 -72t15.5 -90.5q0 -15 -2.5 -29.5t-5.5 -25.5q-4 -13 -7 -25h-369q0 -24 9.5 -45.5t26 -38t40 -26t52.5 -9.5q20 0 37.5 6t32.5 14.5
t26 18.5t19 18h111q-15 -29 -38.5 -57t-53.5 -49.5t-65.5 -34.5t-74.5 -13zM471 295v6q0 53 -30.5 86t-86.5 33q-51 0 -92.5 -34.5t-60.5 -90.5h270zM376 585q-34 0 -59.5 11.5t-42.5 30.5t-25.5 42.5t-8.5 46.5h80q2 -17 9 -29q6 -11 18 -19.5t35 -8.5q26 0 45 18.5
t28 38.5h85q-9 -26 -24.5 -50t-36.5 -42t-47 -28.5t-56 -10.5z" />
    <glyph glyph-name="Edotaccent" unicode="&#x116;" horiz-adv-x="625" 
d="M211 716h472l-18 -103h-364l-34 -193h335l-18 -102h-335l-38 -216h375l-18 -102h-483zM463 779q-25 0 -41 16.5t-16 40.5q0 28 20.5 48t47.5 20q25 0 41 -16.5t16 -40.5q0 -29 -20.5 -48.5t-47.5 -19.5z" />
    <glyph glyph-name="edotaccent" unicode="&#x117;" horiz-adv-x="557" 
d="M311 -6q-50 0 -91.5 16.5t-71.5 46.5t-46.5 72t-16.5 93q0 65 22.5 119.5t60 93.5t85.5 60.5t98 21.5q51 0 92.5 -17t70 -47.5t44 -72t15.5 -90.5q0 -15 -2.5 -29.5t-5.5 -25.5q-4 -13 -7 -25h-369q0 -24 9.5 -45.5t26 -38t40 -26t52.5 -9.5q20 0 37.5 6t32.5 14.5
t26 18.5t19 18h111q-15 -29 -38.5 -57t-53.5 -49.5t-65.5 -34.5t-74.5 -13zM471 295v6q0 53 -30.5 86t-86.5 33q-51 0 -92.5 -34.5t-60.5 -90.5h270zM376 591q-25 0 -41 16.5t-16 40.5q0 28 20.5 48t47.5 20q25 0 41 -16.5t16 -40.5q0 -29 -20.5 -48.5t-47.5 -19.5z" />
    <glyph glyph-name="Eogonek" unicode="&#x118;" horiz-adv-x="625" 
d="M553 -202q-54 0 -82.5 24.5t-28.5 63.5q0 25 10 46t22 36q14 18 32 32h-421l126 716h472l-18 -103h-364l-34 -193h335l-18 -102h-335l-38 -216h375l-18 -102q-16 -14 -28 -31q-11 -14 -19.5 -32t-8.5 -36q0 -22 14 -34t37 -12h14.5t11.5 1q6 0 12 1l-10 -57q-5 -1 -11 -1
q-5 -1 -12 -1h-15z" />
    <glyph glyph-name="eogonek" unicode="&#x119;" horiz-adv-x="557" 
d="M319 -202q-54 0 -82.5 24.5t-28.5 63.5q0 22 8 40.5t18 33.5t20 24.5t14 13.5q-41 6 -74.5 25t-57.5 48.5t-37.5 67.5t-13.5 83q0 65 22.5 119.5t60 93.5t85.5 60.5t98 21.5q51 0 92.5 -17t70 -47.5t44 -72t15.5 -90.5q0 -15 -2.5 -29.5t-5.5 -25.5q-4 -13 -7 -25h-369
q0 -24 9.5 -45.5t26 -38t40 -26t52.5 -9.5q20 0 37.5 6t32.5 14.5t26 18.5t19 18h111q-15 -28 -36.5 -54.5t-49 -47.5t-60.5 -34.5t-69 -16.5q-5 -5 -13 -14t-16.5 -22t-14.5 -28t-6 -30q0 -22 14 -34t37 -12h14.5t11.5 1q6 0 12 1l-10 -57q-5 -1 -11 -1q-5 -1 -12 -1h-15z
M471 295v6q0 53 -30.5 86t-86.5 33q-51 0 -92.5 -34.5t-60.5 -90.5h270z" />
    <glyph glyph-name="Ecaron" unicode="&#x11a;" horiz-adv-x="625" 
d="M211 716h472l-18 -103h-364l-34 -193h335l-18 -102h-335l-38 -216h375l-18 -102h-483zM335 904h85l43 -80l71 80h96l-126 -136h-91z" />
    <glyph glyph-name="ecaron" unicode="&#x11b;" horiz-adv-x="557" 
d="M311 -6q-50 0 -91.5 16.5t-71.5 46.5t-46.5 72t-16.5 93q0 65 22.5 119.5t60 93.5t85.5 60.5t98 21.5q51 0 92.5 -17t70 -47.5t44 -72t15.5 -90.5q0 -15 -2.5 -29.5t-5.5 -25.5q-4 -13 -7 -25h-369q0 -24 9.5 -45.5t26 -38t40 -26t52.5 -9.5q20 0 37.5 6t32.5 14.5
t26 18.5t19 18h111q-15 -29 -38.5 -57t-53.5 -49.5t-65.5 -34.5t-74.5 -13zM471 295v6q0 53 -30.5 86t-86.5 33q-51 0 -92.5 -34.5t-60.5 -90.5h270zM248 727h85l43 -80l71 80h96l-126 -136h-91z" />
    <glyph glyph-name="Gcircumflex" unicode="&#x11c;" horiz-adv-x="761" 
d="M406 -6q-65 0 -121 25t-97 69t-64.5 103t-23.5 128q0 85 32.5 158.5t85.5 127.5t121 85t139 31q55 0 104 -16t88 -46.5t66.5 -74.5t39.5 -101h-113q-20 68 -70 104.5t-119 36.5q-44 0 -91 -21t-86 -59.5t-64 -94t-25 -124.5q0 -50 16 -92.5t44 -74t65 -49.5t79 -18
q46 0 83.5 15.5t67 40.5t49.5 56.5t30 63.5h-221l19 102h318l-65 -369h-80l-17 68q-23 -21 -53 -37q-26 -14 -60.5 -25.5t-76.5 -11.5zM476 904h91l79 -136h-86l-43 79l-70 -79h-97z" />
    <glyph glyph-name="gcircumflex" unicode="&#x11d;" horiz-adv-x="585" 
d="M277 -193q-84 0 -143 41t-77 118h102q6 -15 14.5 -27.5t23 -21.5t35 -14t49.5 -5q52 0 90 30.5t47 82.5l9 51q-15 -13 -35 -23q-17 -8 -41.5 -15t-55.5 -7q-45 0 -83.5 17t-67 46.5t-44.5 70.5t-16 89q0 59 22.5 110t59 88t83 58t94.5 21q41 0 69.5 -11t46.5 -24
q21 -15 35 -34l40 63h74l-90 -509q-8 -44 -28.5 -79.5t-52 -61.5t-72.5 -40t-88 -14zM314 114q29 0 57.5 13t51 35.5t36.5 53t14 65.5q0 29 -10 54.5t-27 44t-40.5 29.5t-50.5 11q-29 0 -57.5 -13t-51 -35.5t-36.5 -53t-14 -65.5q0 -29 10 -54.5t27 -44.5t40.5 -29.5
t50.5 -10.5zM350 727h91l79 -136h-86l-43 79l-70 -79h-97z" />
    <glyph glyph-name="Gbreve" unicode="&#x11e;" horiz-adv-x="761" 
d="M406 -6q-65 0 -121 25t-97 69t-64.5 103t-23.5 128q0 85 32.5 158.5t85.5 127.5t121 85t139 31q55 0 104 -16t88 -46.5t66.5 -74.5t39.5 -101h-113q-20 68 -70 104.5t-119 36.5q-44 0 -91 -21t-86 -59.5t-64 -94t-25 -124.5q0 -50 16 -92.5t44 -74t65 -49.5t79 -18
q46 0 83.5 15.5t67 40.5t49.5 56.5t30 63.5h-221l19 102h318l-65 -369h-80l-17 68q-23 -21 -53 -37q-26 -14 -60.5 -25.5t-76.5 -11.5zM507 773q-34 0 -59.5 11.5t-42.5 30.5t-25.5 42.5t-8.5 46.5h80q2 -17 9 -29q6 -11 18 -19.5t35 -8.5q26 0 45 18.5t28 38.5h85
q-9 -26 -24.5 -50t-36.5 -42t-47 -28.5t-56 -10.5z" />
    <glyph glyph-name="gbreve" unicode="&#x11f;" horiz-adv-x="585" 
d="M277 -193q-84 0 -143 41t-77 118h102q6 -15 14.5 -27.5t23 -21.5t35 -14t49.5 -5q52 0 90 30.5t47 82.5l9 51q-15 -13 -35 -23q-17 -8 -41.5 -15t-55.5 -7q-45 0 -83.5 17t-67 46.5t-44.5 70.5t-16 89q0 59 22.5 110t59 88t83 58t94.5 21q41 0 69.5 -11t46.5 -24
q21 -15 35 -34l40 63h74l-90 -509q-8 -44 -28.5 -79.5t-52 -61.5t-72.5 -40t-88 -14zM314 114q29 0 57.5 13t51 35.5t36.5 53t14 65.5q0 29 -10 54.5t-27 44t-40.5 29.5t-50.5 11q-29 0 -57.5 -13t-51 -35.5t-36.5 -53t-14 -65.5q0 -29 10 -54.5t27 -44.5t40.5 -29.5
t50.5 -10.5zM376 585q-34 0 -59.5 11.5t-42.5 30.5t-25.5 42.5t-8.5 46.5h80q2 -17 9 -29q6 -11 18 -19.5t35 -8.5q26 0 45 18.5t28 38.5h85q-9 -26 -24.5 -50t-36.5 -42t-47 -28.5t-56 -10.5z" />
    <glyph glyph-name="Gdotaccent" unicode="&#x120;" horiz-adv-x="761" 
d="M406 -6q-65 0 -121 25t-97 69t-64.5 103t-23.5 128q0 85 32.5 158.5t85.5 127.5t121 85t139 31q55 0 104 -16t88 -46.5t66.5 -74.5t39.5 -101h-113q-20 68 -70 104.5t-119 36.5q-44 0 -91 -21t-86 -59.5t-64 -94t-25 -124.5q0 -50 16 -92.5t44 -74t65 -49.5t79 -18
q46 0 83.5 15.5t67 40.5t49.5 56.5t30 63.5h-221l19 102h318l-65 -369h-80l-17 68q-23 -21 -53 -37q-26 -14 -60.5 -25.5t-76.5 -11.5zM502 779q-25 0 -41 16.5t-16 40.5q0 28 20.5 48t47.5 20q25 0 41 -16.5t16 -40.5q0 -29 -20.5 -48.5t-47.5 -19.5z" />
    <glyph glyph-name="gdotaccent" unicode="&#x121;" horiz-adv-x="585" 
d="M277 -193q-84 0 -143 41t-77 118h102q6 -15 14.5 -27.5t23 -21.5t35 -14t49.5 -5q52 0 90 30.5t47 82.5l9 51q-15 -13 -35 -23q-17 -8 -41.5 -15t-55.5 -7q-45 0 -83.5 17t-67 46.5t-44.5 70.5t-16 89q0 59 22.5 110t59 88t83 58t94.5 21q41 0 69.5 -11t46.5 -24
q21 -15 35 -34l40 63h74l-90 -509q-8 -44 -28.5 -79.5t-52 -61.5t-72.5 -40t-88 -14zM314 114q29 0 57.5 13t51 35.5t36.5 53t14 65.5q0 29 -10 54.5t-27 44t-40.5 29.5t-50.5 11q-29 0 -57.5 -13t-51 -35.5t-36.5 -53t-14 -65.5q0 -29 10 -54.5t27 -44.5t40.5 -29.5
t50.5 -10.5zM376 591q-25 0 -41 16.5t-16 40.5q0 28 20.5 48t47.5 20q25 0 41 -16.5t16 -40.5q0 -29 -20.5 -48.5t-47.5 -19.5z" />
    <glyph glyph-name="Gcommaaccent" unicode="&#x122;" horiz-adv-x="761" 
d="M406 -6q-65 0 -121 25t-97 69t-64.5 103t-23.5 128q0 85 32.5 158.5t85.5 127.5t121 85t139 31q55 0 104 -16t88 -46.5t66.5 -74.5t39.5 -101h-113q-20 68 -70 104.5t-119 36.5q-44 0 -91 -21t-86 -59.5t-64 -94t-25 -124.5q0 -50 16 -92.5t44 -74t65 -49.5t79 -18
q46 0 83.5 15.5t67 40.5t49.5 56.5t30 63.5h-221l19 102h318l-65 -369h-80l-17 68q-23 -21 -53 -37q-26 -14 -60.5 -25.5t-76.5 -11.5zM321 -268q13 7 25 18q11 9 21 21.5t18 29.5q-26 3 -41.5 18.5t-15.5 38.5q0 28 20.5 48t47.5 20q26 0 41.5 -17t15.5 -40
q0 -33 -15.5 -61.5t-35.5 -49.5t-39.5 -34t-27.5 -16z" />
    <glyph glyph-name="gcommaaccent" unicode="&#x123;" horiz-adv-x="585" 
d="M381 585q-26 0 -41.5 17t-15.5 40q0 34 15.5 62t35.5 49t39.5 34t27.5 16l14 -24q-13 -7 -25 -18q-11 -9 -21.5 -21.5t-17.5 -29.5q26 -2 41.5 -18t15.5 -39q0 -28 -20.5 -48t-47.5 -20zM277 -193q-84 0 -143 41t-77 118h102q6 -15 14.5 -27.5t23 -21.5t35 -14t49.5 -5
q52 0 90 30.5t47 82.5l9 51q-15 -13 -35 -23q-17 -8 -41.5 -15t-55.5 -7q-45 0 -83.5 17t-67 46.5t-44.5 70.5t-16 89q0 59 22.5 110t59 88t83 58t94.5 21q41 0 69.5 -11t46.5 -24q21 -15 35 -34l40 63h74l-90 -509q-8 -44 -28.5 -79.5t-52 -61.5t-72.5 -40t-88 -14z
M314 114q29 0 57.5 13t51 35.5t36.5 53t14 65.5q0 29 -10 54.5t-27 44t-40.5 29.5t-50.5 11q-29 0 -57.5 -13t-51 -35.5t-36.5 -53t-14 -65.5q0 -29 10 -54.5t27 -44.5t40.5 -29.5t50.5 -10.5z" />
    <glyph glyph-name="Hcircumflex" unicode="&#x124;" horiz-adv-x="716" 
d="M211 716h108l-53 -301h329l54 301h108l-127 -716h-107l54 312h-329l-55 -312h-108zM464 904h91l79 -136h-86l-43 79l-70 -79h-97z" />
    <glyph glyph-name="hcircumflex" unicode="&#x125;" horiz-adv-x="585" 
d="M199 716h102l-45 -258q16 16 37 29q18 11 43 20.5t56 9.5q48 0 82.5 -17t57 -44.5t33 -63t10.5 -71.5q0 -11 -1 -22t-3 -22l-48 -277h-103l50 285q1 5 2 11t1 11q0 23 -8 43.5t-22 36t-34 24.5t-44 9t-46.5 -9t-41 -24t-31.5 -36t-17 -45l-53 -306h-102zM396 904h91
l79 -136h-86l-43 79l-70 -79h-97z" />
    <glyph glyph-name="Hbar" unicode="&#x126;" horiz-adv-x="772" 
d="M203 511h-91l16 91h91l21 114h108l-21 -114h330l20 114h108l-20 -114h90l-15 -91h-91l-90 -511h-108l54 312h-329l-54 -312h-108zM624 415l17 96h-330l-17 -96h330z" />
    <glyph glyph-name="hbar" unicode="&#x127;" horiz-adv-x="596" 
d="M181 540h-86l16 90h86l14 86h103l-16 -86h143l-16 -90h-143l-22 -128q17 16 38 29q18 11 42.5 20.5t55.5 9.5q48 0 83 -17t57 -44.5t32.5 -62.5t10.5 -71q0 -22 -3 -44l-41 -232h-102l42 240q1 6 1.5 11t0.5 11q0 23 -7.5 43.5t-22 36t-34.5 24.5t-44 9t-46.5 -9
t-40.5 -24.5t-31 -36.5t-17 -45l-45 -260h-103z" />
    <glyph glyph-name="uni0128" unicode="&#x128;" horiz-adv-x="278" 
d="M211 716h108l-126 -716h-108zM336 762q-24 0 -40 10.5t-28.5 23t-23.5 23t-26 10.5q-17 0 -31.5 -16t-19.5 -46h-59q12 69 44 103t74 34q24 0 39.5 -10.5t28 -23t24 -23t26.5 -10.5q17 0 31.5 15.5t19.5 45.5h59q-12 -69 -44 -102.5t-74 -33.5z" />
    <glyph glyph-name="uni0129" unicode="&#x129;" horiz-adv-x="239" 
d="M158 511h102l-90 -511h-102zM277 574q-24 0 -40 10.5t-28.5 23t-23.5 23t-26 10.5q-17 0 -31.5 -16t-19.5 -46h-59q12 69 44 103t74 34q24 0 39.5 -10.5t28 -23t24 -23t26.5 -10.5q17 0 31.5 15.5t19.5 45.5h59q-12 -69 -44 -102.5t-74 -33.5z" />
    <glyph glyph-name="Imacron" unicode="&#x12a;" horiz-adv-x="278" 
d="M211 716h108l-126 -716h-108zM147 881h284l-12 -74h-284z" />
    <glyph glyph-name="imacron" unicode="&#x12b;" horiz-adv-x="239" 
d="M158 511h102l-90 -511h-102zM89 676h284l-12 -74h-284z" />
    <glyph glyph-name="Ibreve" unicode="&#x12c;" horiz-adv-x="278" 
d="M211 716h108l-126 -716h-108zM280 773q-34 0 -59.5 11.5t-42.5 30.5t-25.5 42.5t-8.5 46.5h80q2 -17 9 -29q6 -11 18 -19.5t35 -8.5q26 0 45 18.5t28 38.5h85q-9 -26 -24.5 -50t-36.5 -42t-47 -28.5t-56 -10.5z" />
    <glyph glyph-name="ibreve" unicode="&#x12d;" horiz-adv-x="239" 
d="M158 511h102l-90 -511h-102zM228 585q-34 0 -59.5 11.5t-42.5 30.5t-25.5 42.5t-8.5 46.5h80q2 -17 9 -29q6 -11 18 -19.5t35 -8.5q26 0 45 18.5t28 38.5h85q-9 -26 -24.5 -50t-36.5 -42t-47 -28.5t-56 -10.5z" />
    <glyph glyph-name="Iogonek" unicode="&#x12e;" horiz-adv-x="278" 
d="M133 -202q-55 0 -83 24.5t-28 63.5q0 25 9.5 46t21.5 36q14 18 32 32l127 716h108l-127 -716h-45q-16 -14 -28 -31q-11 -14 -19.5 -32t-8.5 -36q0 -22 14 -34t37 -12h14t12 1q6 0 12 1l-11 -57q-5 -1 -11 -1q-5 -1 -11.5 -1h-14.5z" />
    <glyph glyph-name="iogonek" unicode="&#x12f;" horiz-adv-x="239" 
d="M117 -202q-55 0 -83 24.5t-28 63.5q0 25 9.5 46t21.5 36q14 18 32 32l90 511h102l-89 -511h-40q-16 -14 -28 -31q-11 -14 -19.5 -32t-8.5 -36q0 -22 14 -34t37 -12h14.5t11.5 1q6 0 12 1l-11 -57q-5 -1 -11 -1q-5 -1 -11.5 -1h-14.5zM229 591q-23 0 -39.5 17.5
t-16.5 40.5q0 14 6 26t15.5 21t22 14.5t25.5 5.5q24 0 40.5 -18t16.5 -40q0 -29 -21.5 -48t-48.5 -19z" />
    <glyph glyph-name="Idotaccent" unicode="&#x130;" horiz-adv-x="278" 
d="M211 716h108l-126 -716h-108zM281 779q-25 0 -41 16.5t-16 40.5q0 28 20.5 48t47.5 20q25 0 41 -16.5t16 -40.5q0 -29 -20.5 -48.5t-47.5 -19.5z" />
    <glyph glyph-name="dotlessi" unicode="&#x131;" horiz-adv-x="239" 
d="M158 511h102l-90 -511h-102z" />
    <glyph glyph-name="uni0132" unicode="&#x132;" horiz-adv-x="767" 
d="M211 716h108l-126 -716h-108zM495 -6q-45 0 -84.5 14.5t-68.5 42t-46 66.5t-17 87h108q4 -51 30.5 -82t82.5 -31q48 0 79.5 28t40.5 76l92 521h107l-93 -530q-7 -42 -27.5 -77.5t-51 -61t-69.5 -39.5t-83 -14z" />
    <glyph glyph-name="uni0133" unicode="&#x133;" horiz-adv-x="477" 
d="M158 511h102l-90 -511h-102zM231 -189q-32 0 -51 8t-19 9l16 91q0 -1 13 -5.5t27 -4.5q32 0 56.5 21t30.5 56l92 525h103l-95 -537q-14 -77 -62 -120t-111 -43zM228 591q-23 0 -39.5 17.5t-16.5 40.5q0 14 6 26t15.5 21t22 14.5t25.5 5.5q24 0 40.5 -18t16.5 -40
q0 -29 -21.5 -48t-48.5 -19zM467 591q-24 0 -40.5 17.5t-16.5 40.5q0 14 6 26t15.5 21t22 14.5t25.5 5.5q24 0 40.5 -18t16.5 -40q0 -14 -6 -26.5t-15.5 -21.5t-22 -14t-25.5 -5z" />
    <glyph glyph-name="Jcircumflex" unicode="&#x134;" horiz-adv-x="528" 
d="M256 -6q-45 0 -84.5 14.5t-68.5 42t-46 66.5t-17 87h108q4 -51 30.5 -82t82.5 -31q48 0 79.5 28t40.5 76l92 521h107l-93 -530q-7 -42 -27.5 -77.5t-51 -61t-69.5 -39.5t-83 -14zM504 904h91l79 -136h-86l-43 79l-70 -79h-97z" />
    <glyph glyph-name="jcircumflex" unicode="&#x135;" horiz-adv-x="239" 
d="M-7 -189q-32 0 -50.5 8t-18.5 9l16 91q0 -1 12.5 -5.5t27.5 -4.5q32 0 56.5 21t30.5 56l92 525h102l-94 -537q-14 -77 -62.5 -120t-111.5 -43zM196 727h91l79 -136h-86l-43 79l-70 -79h-97z" />
    <glyph glyph-name="Kcommaaccent" unicode="&#x136;" horiz-adv-x="596" 
d="M211 716h108l-57 -324l313 324h136l-357 -359l254 -357h-125l-231 335l-59 -335h-108zM242 -268q13 7 25 18q11 9 21 21.5t18 29.5q-26 3 -41.5 18.5t-15.5 38.5q0 28 20.5 48t47.5 20q26 0 41.5 -17t15.5 -40q0 -33 -15.5 -61.5t-35.5 -49.5t-39.5 -34t-27.5 -16z" />
    <glyph glyph-name="kcommaaccent" unicode="&#x137;" horiz-adv-x="488" 
d="M200 716h102l-75 -426l208 221h126l-243 -249l182 -262h-114l-167 244l-43 -244h-102zM196 -268q13 7 25 18q11 9 21 21.5t18 29.5q-26 3 -41.5 18.5t-15.5 38.5q0 28 20.5 48t47.5 20q26 0 41.5 -17t15.5 -40q0 -33 -15.5 -61.5t-35.5 -49.5t-39.5 -34t-27.5 -16z" />
    <glyph glyph-name="Lacute" unicode="&#x139;" horiz-adv-x="545" 
d="M211 716h108l-108 -614h341l-18 -102h-449zM334 904h97l-121 -137h-68z" />
    <glyph glyph-name="lacute" unicode="&#x13a;" horiz-adv-x="256" 
d="M200 716h102l-126 -716h-102zM322 904h97l-121 -137h-68z" />
    <glyph glyph-name="Lcommaaccent" unicode="&#x13b;" horiz-adv-x="545" 
d="M211 716h108l-108 -614h341l-18 -102h-449zM242 -268q13 7 25 18q11 9 21 21.5t18 29.5q-26 3 -41.5 18.5t-15.5 38.5q0 28 20.5 48t47.5 20q26 0 41.5 -17t15.5 -40q0 -33 -15.5 -61.5t-35.5 -49.5t-39.5 -34t-27.5 -16z" />
    <glyph glyph-name="lcommaaccent" unicode="&#x13c;" horiz-adv-x="250" 
d="M200 716h102l-126 -716h-102zM37 -268q13 7 25 18q11 9 21 21.5t18 29.5q-26 3 -41.5 18.5t-15.5 38.5q0 28 20.5 48t47.5 20q26 0 41.5 -17t15.5 -40q0 -33 -15.5 -61.5t-35.5 -49.5t-39.5 -34t-27.5 -16z" />
    <glyph glyph-name="Lcaron" unicode="&#x13d;" horiz-adv-x="545" 
d="M432 716h91l-92 -137h-63zM211 716h108l-108 -614h341l-18 -102h-449z" />
    <glyph glyph-name="lcaron" unicode="&#x13e;" horiz-adv-x="312" 
d="M404 716h91l-92 -137h-62zM200 716h102l-126 -716h-102z" />
    <glyph glyph-name="Ldot" unicode="&#x13f;" horiz-adv-x="545" 
d="M211 716h108l-108 -614h341l-18 -102h-449zM470 318q-25 0 -41 16.5t-16 40.5q0 28 20.5 48t47.5 20q25 0 41 -16.5t16 -40.5q0 -29 -20.5 -48.5t-47.5 -19.5z" />
    <glyph glyph-name="ldot" unicode="&#x140;" horiz-adv-x="398" 
d="M200 716h102l-126 -716h-102zM381 296q-25 0 -41 16.5t-16 40.5q0 28 20.5 48t47.5 20q25 0 41 -16.5t16 -40.5q0 -29 -20.5 -48.5t-47.5 -19.5z" />
    <glyph glyph-name="Lslash" unicode="&#x141;" horiz-adv-x="562" 
d="M141 216l-89 -51l18 102l89 51l70 398h108l-59 -330l191 114l-18 -102l-190 -114l-33 -182h341l-18 -102h-449z" />
    <glyph glyph-name="lslash" unicode="&#x142;" horiz-adv-x="295" 
d="M141 284l-89 -51l17 96l89 52l59 335h102l-46 -267l100 57l-17 -97l-100 -57l-63 -352h-102z" />
    <glyph glyph-name="Nacute" unicode="&#x143;" horiz-adv-x="716" 
d="M211 716h91l256 -517l91 517h108l-127 -716h-90l-256 518l-91 -518h-108zM544 904h97l-121 -137h-68z" />
    <glyph glyph-name="nacute" unicode="&#x144;" horiz-adv-x="579" 
d="M158 511h74l13 -51q16 16 37 28q18 11 43 20t56 9q49 0 85 -17t58.5 -44.5t33.5 -62.5t11 -72q0 -22 -3 -44l-49 -277h-102l50 285q1 5 1.5 11t0.5 11q0 23 -7.5 43.5t-22 36t-34.5 24.5t-44 9t-46.5 -9t-41 -24t-31 -36t-16.5 -45l-54 -306h-102zM446 727h97l-121 -137
h-68z" />
    <glyph glyph-name="Ncommaaccent" unicode="&#x145;" horiz-adv-x="716" 
d="M211 716h91l256 -517l91 517h108l-127 -716h-90l-256 518l-91 -518h-108zM287 -268q13 7 25 18q11 9 21 21.5t18 29.5q-26 3 -41.5 18.5t-15.5 38.5q0 28 20.5 48t47.5 20q26 0 41.5 -17t15.5 -40q0 -33 -15.5 -61.5t-35.5 -49.5t-39.5 -34t-27.5 -16z" />
    <glyph glyph-name="ncommaaccent" unicode="&#x146;" horiz-adv-x="579" 
d="M158 511h74l13 -51q16 16 37 28q18 11 43 20t56 9q49 0 85 -17t58.5 -44.5t33.5 -62.5t11 -72q0 -22 -3 -44l-49 -277h-102l50 285q1 5 1.5 11t0.5 11q0 23 -7.5 43.5t-22 36t-34.5 24.5t-44 9t-46.5 -9t-41 -24t-31 -36t-16.5 -45l-54 -306h-102zM213 -268q13 7 25 18
q11 9 21 21.5t18 29.5q-26 3 -41.5 18.5t-15.5 38.5q0 28 20.5 48t47.5 20q26 0 41.5 -17t15.5 -40q0 -33 -15.5 -61.5t-35.5 -49.5t-39.5 -34t-27.5 -16z" />
    <glyph glyph-name="Ncaron" unicode="&#x147;" horiz-adv-x="716" 
d="M211 716h91l256 -517l91 517h108l-127 -716h-90l-256 518l-91 -518h-108zM363 904h85l43 -80l71 80h96l-126 -136h-91z" />
    <glyph glyph-name="ncaron" unicode="&#x148;" horiz-adv-x="579" 
d="M158 511h74l13 -51q16 16 37 28q18 11 43 20t56 9q49 0 85 -17t58.5 -44.5t33.5 -62.5t11 -72q0 -22 -3 -44l-49 -277h-102l50 285q1 5 1.5 11t0.5 11q0 23 -7.5 43.5t-22 36t-34.5 24.5t-44 9t-46.5 -9t-41 -24t-31 -36t-16.5 -45l-54 -306h-102zM259 727h85l43 -80
l71 80h96l-126 -136h-91z" />
    <glyph glyph-name="napostrophe" unicode="&#x149;" horiz-adv-x="625" 
d="M203 511h74l13 -51q16 16 37 28q18 11 43 20t56 9q49 0 85 -17t58.5 -44.5t33.5 -62.5t11 -72q0 -22 -3 -44l-49 -277h-102l50 285q1 5 1.5 11t0.5 11q0 23 -7.5 43.5t-22 36t-34.5 24.5t-44 9t-46.5 -9t-41 -24t-31 -36t-16.5 -45l-54 -306h-102zM83 504q13 7 25 18
q11 9 21 21.5t18 29.5q-26 3 -41.5 18.5t-15.5 38.5q0 28 20.5 48t47.5 20q26 0 41.5 -17t15.5 -40q0 -33 -15.5 -61.5t-35.5 -49.5t-39.5 -34t-27.5 -16z" />
    <glyph glyph-name="Eng" unicode="&#x14a;" horiz-adv-x="716" 
d="M401 -262q-39 0 -73.5 13.5t-61 38.5t-42.5 61t-16 81h108q0 -39 22 -68t68 -29q39 0 67.5 24t35.5 64l18 103l-243 492l-91 -518h-108l126 716h91l256 -517l91 517h108l-141 -802q-6 -38 -25.5 -70t-48 -55.5t-65 -37t-76.5 -13.5z" />
    <glyph glyph-name="eng" unicode="&#x14b;" horiz-adv-x="579" 
d="M339 -189q-32 0 -51 8t-19 9l16 91q0 -1 13 -5.5t27 -4.5q32 0 56.5 21t30.5 56l53 299q1 5 1.5 11t0.5 11q0 23 -7.5 43.5t-22 36t-34.5 24.5t-44 9t-46.5 -9t-41 -24t-31 -36t-16.5 -45l-54 -306h-102l90 511h74l13 -51q16 16 37 28q18 11 43 20t56 9q49 0 85 -17
t58.5 -44.5t33.5 -62.5t11 -72q0 -22 -3 -44l-54 -303q-14 -77 -62.5 -120t-110.5 -43z" />
    <glyph glyph-name="Omacron" unicode="&#x14c;" horiz-adv-x="761" 
d="M406 -6q-65 0 -120.5 25t-97 69t-65 103t-23.5 128q0 85 32.5 158.5t85.5 127.5t121 85t139 31q64 0 120 -25t97.5 -69t65 -103t23.5 -128q0 -85 -32.5 -158.5t-85.5 -127.5t-121 -85t-139 -31zM412 91q47 0 94 22t85 62t61.5 95t23.5 120q0 50 -16 93t-44 74.5
t-64.5 49.5t-78.5 18q-47 0 -94 -22.5t-85 -62.5t-62 -95t-24 -120q0 -50 16.5 -93t44 -74.5t64.5 -49t79 -17.5zM370 881h284l-12 -74h-284z" />
    <glyph glyph-name="omacron" unicode="&#x14d;" 
d="M307 -6q-49 0 -89.5 17t-70 48t-46 72.5t-16.5 91.5q0 65 23 119t60.5 93t86.5 60.5t101 21.5q48 0 89 -17t70 -47.5t45.5 -72.5t16.5 -91q0 -65 -23 -119.5t-60.5 -93.5t-86 -60.5t-100.5 -21.5zM314 91q29 0 58 13.5t52 38t37.5 59t14.5 75.5q0 32 -10 58.5t-27.5 45
t-40.5 29t-49 10.5q-29 0 -58 -13.5t-52.5 -38t-38 -58.5t-14.5 -75q0 -32 10 -58.5t27.5 -45.5t41 -29.5t49.5 -10.5zM237 676h284l-12 -74h-284z" />
    <glyph glyph-name="Obreve" unicode="&#x14e;" horiz-adv-x="761" 
d="M406 -6q-65 0 -120.5 25t-97 69t-65 103t-23.5 128q0 85 32.5 158.5t85.5 127.5t121 85t139 31q64 0 120 -25t97.5 -69t65 -103t23.5 -128q0 -85 -32.5 -158.5t-85.5 -127.5t-121 -85t-139 -31zM412 91q47 0 94 22t85 62t61.5 95t23.5 120q0 50 -16 93t-44 74.5
t-64.5 49.5t-78.5 18q-47 0 -94 -22.5t-85 -62.5t-62 -95t-24 -120q0 -50 16.5 -93t44 -74.5t64.5 -49t79 -17.5zM507 773q-34 0 -59.5 11.5t-42.5 30.5t-25.5 42.5t-8.5 46.5h80q2 -17 9 -29q6 -11 18 -19.5t35 -8.5q26 0 45 18.5t28 38.5h85q-9 -26 -24.5 -50t-36.5 -42
t-47 -28.5t-56 -10.5z" />
    <glyph glyph-name="obreve" unicode="&#x14f;" 
d="M307 -6q-49 0 -89.5 17t-70 48t-46 72.5t-16.5 91.5q0 65 23 119t60.5 93t86.5 60.5t101 21.5q48 0 89 -17t70 -47.5t45.5 -72.5t16.5 -91q0 -65 -23 -119.5t-60.5 -93.5t-86 -60.5t-100.5 -21.5zM314 91q29 0 58 13.5t52 38t37.5 59t14.5 75.5q0 32 -10 58.5t-27.5 45
t-40.5 29t-49 10.5q-29 0 -58 -13.5t-52.5 -38t-38 -58.5t-14.5 -75q0 -32 10 -58.5t27.5 -45.5t41 -29.5t49.5 -10.5zM376 585q-34 0 -59.5 11.5t-42.5 30.5t-25.5 42.5t-8.5 46.5h80q2 -17 9 -29q6 -11 18 -19.5t35 -8.5q26 0 45 18.5t28 38.5h85q-9 -26 -24.5 -50
t-36.5 -42t-47 -28.5t-56 -10.5z" />
    <glyph glyph-name="Ohungarumlaut" unicode="&#x150;" horiz-adv-x="761" 
d="M406 -6q-65 0 -120.5 25t-97 69t-65 103t-23.5 128q0 85 32.5 158.5t85.5 127.5t121 85t139 31q64 0 120 -25t97.5 -69t65 -103t23.5 -128q0 -85 -32.5 -158.5t-85.5 -127.5t-121 -85t-139 -31zM412 91q47 0 94 22t85 62t61.5 95t23.5 120q0 50 -16 93t-44 74.5
t-64.5 49.5t-78.5 18q-47 0 -94 -22.5t-85 -62.5t-62 -95t-24 -120q0 -50 16.5 -93t44 -74.5t64.5 -49t79 -17.5zM493 904h97l-127 -137h-68zM652 904h97l-126 -137h-69z" />
    <glyph glyph-name="ohungarumlaut" unicode="&#x151;" 
d="M307 -6q-49 0 -89.5 17t-70 48t-46 72.5t-16.5 91.5q0 65 23 119t60.5 93t86.5 60.5t101 21.5q48 0 89 -17t70 -47.5t45.5 -72.5t16.5 -91q0 -65 -23 -119.5t-60.5 -93.5t-86 -60.5t-100.5 -21.5zM314 91q29 0 58 13.5t52 38t37.5 59t14.5 75.5q0 32 -10 58.5t-27.5 45
t-40.5 29t-49 10.5q-29 0 -58 -13.5t-52.5 -38t-38 -58.5t-14.5 -75q0 -32 10 -58.5t27.5 -45.5t41 -29.5t49.5 -10.5zM356 727h97l-127 -137h-68zM515 727h97l-126 -137h-69z" />
    <glyph glyph-name="OE" unicode="&#x152;" horiz-adv-x="960" 
d="M382 0q-61 0 -112.5 26.5t-89 71t-58.5 103t-21 122.5q0 82 32.5 153.5t85.5 125t121 84t139 30.5h540l-18 -103h-324l-34 -193h295l-18 -102h-295l-39 -216h335l-18 -102h-521zM478 102l91 511h-96q-47 0 -94 -21t-84.5 -58.5t-61 -90t-23.5 -114.5q0 -46 15 -87
t40.5 -72t60 -49.5t74.5 -18.5h78z" />
    <glyph glyph-name="oe" unicode="&#x153;" horiz-adv-x="909" 
d="M292 -6q-47 0 -85.5 17t-67 48t-44 72.5t-15.5 91.5q0 65 22 119t58 93t82.5 60.5t96.5 21.5q58 0 104.5 -27t73.5 -73q37 47 87 73.5t104 26.5q49 0 88.5 -17t67 -47.5t42 -72t14.5 -90.5q0 -15 -2.5 -29.5t-4.5 -25.5q-3 -13 -6 -25h-355q0 -24 9 -45.5t25 -38t39 -26
t50 -9.5q19 0 36 6t31.5 14.5t25 18.5t17.5 18h107q-15 -29 -37.5 -57t-51 -49.5t-62.5 -34.5t-71 -13q-60 0 -108 26.5t-76 73.5q-38 -47 -88.5 -73.5t-105.5 -26.5zM299 91q28 0 55.5 13.5t49.5 38t36 59t14 75.5q0 32 -9.5 58.5t-26 45t-39 29t-47.5 10.5
q-28 0 -55.5 -13.5t-50 -38t-36.5 -58.5t-14 -75q0 -32 10 -58.5t26.5 -45.5t39 -29.5t47.5 -10.5zM822 295v6q0 53 -29.5 86t-82.5 33q-50 0 -89.5 -34.5t-57.5 -90.5h259z" />
    <glyph glyph-name="Racute" unicode="&#x154;" horiz-adv-x="636" 
d="M211 716h285q40 0 73 -16t57 -43.5t37 -63t13 -74.5q0 -37 -8.5 -66t-22 -52t-31.5 -40.5t-36 -29.5q-43 -29 -97 -42l121 -289h-119l-115 284h-125l-50 -284h-108zM448 386q22 0 43.5 9.5t38.5 26.5t27 39.5t10 48.5q0 21 -6.5 39.5t-18.5 32.5t-28 22.5t-35 8.5h-178
l-40 -227h187zM493 904h97l-121 -137h-68z" />
    <glyph glyph-name="racute" unicode="&#x155;" horiz-adv-x="352" 
d="M158 511h74l13 -51q13 16 31 28q16 11 40 20t58 9q11 0 19 -1t14 -3q7 -2 12 -4l-17 -102l-10 4t-12 3t-16 1q-49 0 -90 -30.5t-52 -94.5l-52 -290h-102zM350 727h97l-121 -137h-68z" />
    <glyph glyph-name="Rcommaaccent" unicode="&#x156;" horiz-adv-x="636" 
d="M211 716h285q40 0 73 -16t57 -43.5t37 -63t13 -74.5q0 -37 -8.5 -66t-22 -52t-31.5 -40.5t-36 -29.5q-43 -29 -97 -42l121 -289h-119l-115 284h-125l-50 -284h-108zM448 386q22 0 43.5 9.5t38.5 26.5t27 39.5t10 48.5q0 21 -6.5 39.5t-18.5 32.5t-28 22.5t-35 8.5h-178
l-40 -227h187zM259 -268q13 7 25 18q11 9 21 21.5t18 29.5q-26 3 -41.5 18.5t-15.5 38.5q0 28 20.5 48t47.5 20q26 0 41.5 -17t15.5 -40q0 -33 -15.5 -61.5t-35.5 -49.5t-39.5 -34t-27.5 -16z" />
    <glyph glyph-name="rcommaaccent" unicode="&#x157;" horiz-adv-x="352" 
d="M158 511h74l13 -51q13 16 31 28q16 11 40 20t58 9q11 0 19 -1t14 -3q7 -2 12 -4l-17 -102l-10 4t-12 3t-16 1q-49 0 -90 -30.5t-52 -94.5l-52 -290h-102zM37 -268q13 7 25 18q11 9 21 21.5t18 29.5q-26 3 -41.5 18.5t-15.5 38.5q0 28 20.5 48t47.5 20q26 0 41.5 -17
t15.5 -40q0 -33 -15.5 -61.5t-35.5 -49.5t-39.5 -34t-27.5 -16z" />
    <glyph glyph-name="Rcaron" unicode="&#x158;" horiz-adv-x="636" 
d="M211 716h285q40 0 73 -16t57 -43.5t37 -63t13 -74.5q0 -37 -8.5 -66t-22 -52t-31.5 -40.5t-36 -29.5q-43 -29 -97 -42l121 -289h-119l-115 284h-125l-50 -284h-108zM448 386q22 0 43.5 9.5t38.5 26.5t27 39.5t10 48.5q0 21 -6.5 39.5t-18.5 32.5t-28 22.5t-35 8.5h-178
l-40 -227h187zM318 904h85l43 -80l71 80h96l-126 -136h-91z" />
    <glyph glyph-name="rcaron" unicode="&#x159;" horiz-adv-x="352" 
d="M158 511h74l13 -51q13 16 31 28q16 11 40 20t58 9q11 0 19 -1t14 -3q7 -2 12 -4l-17 -102l-10 4t-12 3t-16 1q-49 0 -90 -30.5t-52 -94.5l-52 -290h-102zM179 727h85l43 -80l71 80h96l-126 -136h-91z" />
    <glyph glyph-name="Sacute" unicode="&#x15a;" 
d="M316 -6q-115 0 -176.5 59t-61.5 163h108q1 -36 16 -63q13 -23 41.5 -42.5t82.5 -19.5q65 0 100.5 30.5t35.5 75.5q0 33 -24 55t-60 39.5t-77.5 34.5t-77.5 40.5t-60 56.5t-24 83q0 55 24 95.5t61 67t80 39.5t81 13q51 0 92 -15.5t70 -44.5t45 -69.5t16 -91.5h-107
q-3 35 -16 62q-11 23 -36 42.5t-70 19.5q-29 0 -53 -8.5t-41.5 -23t-27 -33.5t-9.5 -39q0 -31 24 -51.5t60 -37.5t77.5 -33.5t77.5 -40.5t60 -58.5t24 -86.5q0 -41 -17.5 -80.5t-50.5 -70t-80 -49t-107 -18.5zM464 904h97l-121 -137h-68z" />
    <glyph glyph-name="sacute" unicode="&#x15b;" horiz-adv-x="460" 
d="M260 -6q-48 0 -83.5 13t-58.5 35.5t-34.5 54t-11.5 68.5h103q0 -36 21.5 -55.5t70.5 -19.5q41 0 63 18t22 44q0 19 -17.5 31.5t-43.5 22.5t-56.5 20t-56.5 26t-43.5 39.5t-17.5 59.5q0 34 13.5 64.5t37.5 53t57 35.5t73 13q92 0 136.5 -42.5t44.5 -116.5h-102
q0 24 -20 43t-64 19q-37 0 -57.5 -17.5t-20.5 -40.5q0 -19 17.5 -31t43.5 -22t57 -20t57 -25.5t43.5 -39.5t17.5 -60q0 -37 -14 -68t-39 -53.5t-60.5 -35.5t-77.5 -13zM378 727h97l-121 -137h-68z" />
    <glyph glyph-name="Scircumflex" unicode="&#x15c;" 
d="M316 -6q-115 0 -176.5 59t-61.5 163h108q1 -36 16 -63q13 -23 41.5 -42.5t82.5 -19.5q65 0 100.5 30.5t35.5 75.5q0 33 -24 55t-60 39.5t-77.5 34.5t-77.5 40.5t-60 56.5t-24 83q0 55 24 95.5t61 67t80 39.5t81 13q51 0 92 -15.5t70 -44.5t45 -69.5t16 -91.5h-107
q-3 35 -16 62q-11 23 -36 42.5t-70 19.5q-29 0 -53 -8.5t-41.5 -23t-27 -33.5t-9.5 -39q0 -31 24 -51.5t60 -37.5t77.5 -33.5t77.5 -40.5t60 -58.5t24 -86.5q0 -41 -17.5 -80.5t-50.5 -70t-80 -49t-107 -18.5zM385 904h91l79 -136h-86l-43 79l-70 -79h-97z" />
    <glyph glyph-name="scircumflex" unicode="&#x15d;" horiz-adv-x="460" 
d="M260 -6q-48 0 -83.5 13t-58.5 35.5t-34.5 54t-11.5 68.5h103q0 -36 21.5 -55.5t70.5 -19.5q41 0 63 18t22 44q0 19 -17.5 31.5t-43.5 22.5t-56.5 20t-56.5 26t-43.5 39.5t-17.5 59.5q0 34 13.5 64.5t37.5 53t57 35.5t73 13q92 0 136.5 -42.5t44.5 -116.5h-102
q0 24 -20 43t-64 19q-37 0 -57.5 -17.5t-20.5 -40.5q0 -19 17.5 -31t43.5 -22t57 -20t57 -25.5t43.5 -39.5t17.5 -60q0 -37 -14 -68t-39 -53.5t-60.5 -35.5t-77.5 -13zM304 727h91l79 -136h-86l-43 79l-70 -79h-97z" />
    <glyph glyph-name="Scedilla" unicode="&#x15e;" 
d="M272 -197q-26 0 -48 5q-11 3 -21 6l9 51q8 -3 17 -5q17 -5 36 -5q23 0 36 10.5t13 23.5q0 12 -12.5 23.5t-39.5 11.5q-8 0 -16 -2q-4 -1 -7 -2l46 75q-100 8 -153.5 66t-53.5 155h108q1 -36 16 -63q13 -23 41.5 -42.5t82.5 -19.5q65 0 100.5 30.5t35.5 75.5q0 33 -24 55
t-60 39.5t-77.5 34.5t-77.5 40.5t-60 56.5t-24 83q0 55 24 95.5t61 67t80 39.5t81 13q51 0 92 -15.5t70 -44.5t45 -69.5t16 -91.5h-107q-3 35 -16 62q-11 23 -36 42.5t-70 19.5q-29 0 -53 -8.5t-41.5 -23t-27 -33.5t-9.5 -39q0 -31 24 -51.5t60 -37.5t77.5 -33.5t77.5 -40.5
t60 -58.5t24 -86.5q0 -38 -15.5 -75t-44 -66.5t-70 -49.5t-93.5 -24l-29 -44q26 -6 41 -23.5t15 -41.5q0 -37 -27 -61t-76 -24z" />
    <glyph glyph-name="scedilla" unicode="&#x15f;" horiz-adv-x="460" 
d="M216 -197q-25 0 -47 5q-11 3 -21 6l9 51q7 -3 16 -5q17 -5 36 -5q23 0 36 10.5t13 23.5q0 12 -12.5 23.5t-38.5 11.5q-9 0 -17 -2q-4 -1 -7 -2l46 75q-80 8 -118.5 55t-38.5 115h103q0 -36 21.5 -55.5t70.5 -19.5q41 0 63 18t22 44q0 19 -17.5 31.5t-43.5 22.5t-56.5 20
t-56.5 26t-43.5 39.5t-17.5 59.5q0 34 13.5 64.5t37.5 53t57 35.5t73 13q92 0 136.5 -42.5t44.5 -116.5h-102q0 24 -20 43t-64 19q-37 0 -57.5 -17.5t-20.5 -40.5q0 -19 17.5 -31t43.5 -22t57 -20t57 -25.5t43.5 -39.5t17.5 -60q0 -33 -11.5 -62t-32.5 -50.5t-50 -36
t-64 -18.5l-29 -44q26 -6 40.5 -23.5t14.5 -41.5q0 -37 -26.5 -61t-76.5 -24z" />
    <glyph glyph-name="Scaron" unicode="&#x160;" 
d="M316 -6q-115 0 -176.5 59t-61.5 163h108q1 -36 16 -63q13 -23 41.5 -42.5t82.5 -19.5q65 0 100.5 30.5t35.5 75.5q0 33 -24 55t-60 39.5t-77.5 34.5t-77.5 40.5t-60 56.5t-24 83q0 55 24 95.5t61 67t80 39.5t81 13q51 0 92 -15.5t70 -44.5t45 -69.5t16 -91.5h-107
q-3 35 -16 62q-11 23 -36 42.5t-70 19.5q-29 0 -53 -8.5t-41.5 -23t-27 -33.5t-9.5 -39q0 -31 24 -51.5t60 -37.5t77.5 -33.5t77.5 -40.5t60 -58.5t24 -86.5q0 -41 -17.5 -80.5t-50.5 -70t-80 -49t-107 -18.5zM284 904h85l43 -80l71 80h96l-126 -136h-91z" />
    <glyph glyph-name="scaron" unicode="&#x161;" horiz-adv-x="460" 
d="M260 -6q-48 0 -83.5 13t-58.5 35.5t-34.5 54t-11.5 68.5h103q0 -36 21.5 -55.5t70.5 -19.5q41 0 63 18t22 44q0 19 -17.5 31.5t-43.5 22.5t-56.5 20t-56.5 26t-43.5 39.5t-17.5 59.5q0 34 13.5 64.5t37.5 53t57 35.5t73 13q92 0 136.5 -42.5t44.5 -116.5h-102
q0 24 -20 43t-64 19q-37 0 -57.5 -17.5t-20.5 -40.5q0 -19 17.5 -31t43.5 -22t57 -20t57 -25.5t43.5 -39.5t17.5 -60q0 -37 -14 -68t-39 -53.5t-60.5 -35.5t-77.5 -13zM196 727h85l43 -80l71 80h96l-126 -136h-91z" />
    <glyph glyph-name="Tcommaaccent" unicode="&#x162;" horiz-adv-x="574" 
d="M341 613h-216l18 103h540l-18 -103h-216l-108 -613h-108zM200 -268q13 7 25 18q11 9 21 21.5t18 29.5q-26 3 -41.5 18.5t-15.5 38.5q0 28 20.5 48t47.5 20q26 0 41.5 -17t15.5 -40q0 -33 -15.5 -61.5t-35.5 -49.5t-39.5 -34t-27.5 -16z" />
    <glyph glyph-name="tcommaaccent" unicode="&#x163;" horiz-adv-x="381" 
d="M287 -6q-34 0 -61 11.5t-45.5 31.5t-28.5 47.5t-10 60.5q0 18 3 39l41 231h-91l17 96h40q32 0 54 18.5t27 49.5l12 69h84l-23 -137h113l-17 -96h-113l-42 -240q-2 -5 -2 -14q0 -29 20.5 -49.5t52.5 -20.5h10.5t9.5 1q4 0 8 1l-15 -92q-5 -2 -12 -4q-12 -3 -32 -3z
M151 -268q13 7 25 18q11 9 21 21.5t18 29.5q-26 3 -41.5 18.5t-15.5 38.5q0 28 20.5 48t47.5 20q26 0 41.5 -17t15.5 -40q0 -33 -15.5 -61.5t-35.5 -49.5t-39.5 -34t-27.5 -16z" />
    <glyph glyph-name="Tcaron" unicode="&#x164;" horiz-adv-x="574" 
d="M341 613h-216l18 103h540l-18 -103h-216l-108 -613h-108zM290 904h85l43 -80l71 80h96l-126 -136h-91z" />
    <glyph glyph-name="tcaron" unicode="&#x165;" horiz-adv-x="403" 
d="M473 716h90l-92 -137h-62zM287 -6q-34 0 -61 11.5t-45.5 31.5t-28.5 47.5t-10 60.5q0 18 3 39l41 231h-91l17 96h40q32 0 54 18.5t27 49.5l12 69h84l-23 -137h113l-17 -96h-113l-42 -240q-2 -5 -2 -14q0 -29 20.5 -49.5t52.5 -20.5h10.5t9.5 1q4 0 8 1l-15 -92
q-5 -2 -12 -4q-12 -3 -32 -3z" />
    <glyph glyph-name="Tbar" unicode="&#x166;" horiz-adv-x="574" 
d="M295 358h-119l17 96h119l29 159h-216l18 103h540l-18 -103h-216l-29 -159h120l-17 -96h-120l-62 -358h-108z" />
    <glyph glyph-name="tbar" unicode="&#x167;" horiz-adv-x="381" 
d="M287 -6q-34 0 -61 11.5t-45.5 31.5t-28.5 47.5t-10 60.5q0 18 3 39l14 77h-90l16 91h90l11 63h-91l17 96h40q32 0 54 18.5t27 49.5l12 69h84l-23 -137h113l-17 -96h-113l-12 -63h115l-16 -91h-115l-14 -86q-2 -5 -2 -14q0 -29 20.5 -49.5t52.5 -20.5h10.5t9.5 1q4 0 8 1
l-15 -92q-5 -2 -12 -4q-12 -3 -32 -3z" />
    <glyph glyph-name="uni0168" unicode="&#x168;" horiz-adv-x="682" 
d="M368 -6q-56 0 -102 18.5t-78.5 50.5t-50 75t-17.5 93q0 13 1.5 25.5t3.5 26.5l76 433h108l-77 -440q-4 -15 -4 -34q0 -28 8.5 -55t26.5 -48.5t45.5 -34.5t65.5 -13q65 0 111.5 43.5t59.5 116.5l82 465h108l-84 -477q-9 -54 -35 -99.5t-63.5 -77.5t-85 -50t-99.5 -18z
M535 762q-24 0 -40 10.5t-28.5 23t-23.5 23t-26 10.5q-17 0 -31.5 -16t-19.5 -46h-59q12 69 44 103t74 34q24 0 39.5 -10.5t28 -23t24 -23t26.5 -10.5q17 0 31.5 15.5t19.5 45.5h59q-12 -69 -44 -102.5t-74 -33.5z" />
    <glyph glyph-name="uni0169" unicode="&#x169;" horiz-adv-x="585" 
d="M294 -6q-50 0 -85.5 17t-58.5 44.5t-33.5 62.5t-10.5 72q0 21 3 44l49 277h102l-50 -285q-1 -5 -1.5 -11t-0.5 -11q0 -23 7.5 -43.5t22 -36t34.5 -24.5t44 -9t46.5 9t40.5 24.5t31 36.5t17 45l53 305h103l-90 -511h-74l-14 51q-17 -17 -37 -29q-18 -11 -42.5 -19.5
t-55.5 -8.5zM448 574q-24 0 -40 10.5t-28.5 23t-23.5 23t-26 10.5q-17 0 -31.5 -16t-19.5 -46h-59q12 69 44 103t74 34q24 0 39.5 -10.5t28 -23t24 -23t26.5 -10.5q17 0 31.5 15.5t19.5 45.5h59q-12 -69 -44 -102.5t-74 -33.5z" />
    <glyph glyph-name="Umacron" unicode="&#x16a;" horiz-adv-x="682" 
d="M368 -6q-56 0 -102 18.5t-78.5 50.5t-50 75t-17.5 93q0 13 1.5 25.5t3.5 26.5l76 433h108l-77 -440q-4 -15 -4 -34q0 -28 8.5 -55t26.5 -48.5t45.5 -34.5t65.5 -13q65 0 111.5 43.5t59.5 116.5l82 465h108l-84 -477q-9 -54 -35 -99.5t-63.5 -77.5t-85 -50t-99.5 -18z
M342 881h284l-12 -74h-284z" />
    <glyph glyph-name="umacron" unicode="&#x16b;" horiz-adv-x="585" 
d="M294 -6q-50 0 -85.5 17t-58.5 44.5t-33.5 62.5t-10.5 72q0 21 3 44l49 277h102l-50 -285q-1 -5 -1.5 -11t-0.5 -11q0 -23 7.5 -43.5t22 -36t34.5 -24.5t44 -9t46.5 9t40.5 24.5t31 36.5t17 45l53 305h103l-90 -511h-74l-14 51q-17 -17 -37 -29q-18 -11 -42.5 -19.5
t-55.5 -8.5zM260 676h284l-12 -74h-284z" />
    <glyph glyph-name="Ubreve" unicode="&#x16c;" horiz-adv-x="682" 
d="M368 -6q-56 0 -102 18.5t-78.5 50.5t-50 75t-17.5 93q0 13 1.5 25.5t3.5 26.5l76 433h108l-77 -440q-4 -15 -4 -34q0 -28 8.5 -55t26.5 -48.5t45.5 -34.5t65.5 -13q65 0 111.5 43.5t59.5 116.5l82 465h108l-84 -477q-9 -54 -35 -99.5t-63.5 -77.5t-85 -50t-99.5 -18z
M473 773q-34 0 -59.5 11.5t-42.5 30.5t-25.5 42.5t-8.5 46.5h80q2 -17 9 -29q6 -11 18 -19.5t35 -8.5q26 0 45 18.5t28 38.5h85q-9 -26 -24.5 -50t-36.5 -42t-47 -28.5t-56 -10.5z" />
    <glyph glyph-name="ubreve" unicode="&#x16d;" horiz-adv-x="585" 
d="M294 -6q-50 0 -85.5 17t-58.5 44.5t-33.5 62.5t-10.5 72q0 21 3 44l49 277h102l-50 -285q-1 -5 -1.5 -11t-0.5 -11q0 -23 7.5 -43.5t22 -36t34.5 -24.5t44 -9t46.5 9t40.5 24.5t31 36.5t17 45l53 305h103l-90 -511h-74l-14 51q-17 -17 -37 -29q-18 -11 -42.5 -19.5
t-55.5 -8.5zM393 585q-34 0 -59.5 11.5t-42.5 30.5t-25.5 42.5t-8.5 46.5h80q2 -17 9 -29q6 -11 18 -19.5t35 -8.5q26 0 45 18.5t28 38.5h85q-9 -26 -24.5 -50t-36.5 -42t-47 -28.5t-56 -10.5z" />
    <glyph glyph-name="Uring" unicode="&#x16e;" horiz-adv-x="682" 
d="M368 -6q-56 0 -102 18.5t-78.5 50.5t-50 75t-17.5 93q0 13 1.5 25.5t3.5 26.5l76 433h108l-77 -440q-4 -15 -4 -34q0 -28 8.5 -55t26.5 -48.5t45.5 -34.5t65.5 -13q65 0 111.5 43.5t59.5 116.5l82 465h108l-84 -477q-9 -54 -35 -99.5t-63.5 -77.5t-85 -50t-99.5 -18z
M470 711q-42 0 -65.5 26.5t-23.5 61.5q0 21 8.5 40t23 33.5t33.5 23t41 8.5q41 0 64.5 -26.5t23.5 -60.5q0 -21 -8.5 -40t-22.5 -34t-33.5 -23.5t-40.5 -8.5zM474 762q17 0 31.5 15.5t14.5 33.5q0 17 -10.5 29.5t-27.5 12.5t-31 -15.5t-14 -33.5q0 -16 10 -29t27 -13z" />
    <glyph glyph-name="uring" unicode="&#x16f;" horiz-adv-x="585" 
d="M294 -6q-50 0 -85.5 17t-58.5 44.5t-33.5 62.5t-10.5 72q0 21 3 44l49 277h102l-50 -285q-1 -5 -1.5 -11t-0.5 -11q0 -23 7.5 -43.5t22 -36t34.5 -24.5t44 -9t46.5 9t40.5 24.5t31 36.5t17 45l53 305h103l-90 -511h-74l-14 51q-17 -17 -37 -29q-18 -11 -42.5 -19.5
t-55.5 -8.5zM393 568q-42 0 -65.5 26.5t-23.5 61.5q0 21 8.5 40t23 33.5t33.5 23t41 8.5q41 0 64.5 -26.5t23.5 -60.5q0 -21 -8.5 -40t-22.5 -34t-33.5 -23.5t-40.5 -8.5zM397 619q17 0 31.5 15.5t14.5 33.5q0 17 -10.5 29.5t-27.5 12.5t-31 -15.5t-14 -33.5q0 -16 10 -29
t27 -13z" />
    <glyph glyph-name="Uhungarumlaut" unicode="&#x170;" horiz-adv-x="682" 
d="M368 -6q-56 0 -102 18.5t-78.5 50.5t-50 75t-17.5 93q0 13 1.5 25.5t3.5 26.5l76 433h108l-77 -440q-4 -15 -4 -34q0 -28 8.5 -55t26.5 -48.5t45.5 -34.5t65.5 -13q65 0 111.5 43.5t59.5 116.5l82 465h108l-84 -477q-9 -54 -35 -99.5t-63.5 -77.5t-85 -50t-99.5 -18z
M442 904h97l-127 -137h-68zM601 904h97l-126 -137h-69z" />
    <glyph glyph-name="uhungarumlaut" unicode="&#x171;" horiz-adv-x="585" 
d="M294 -6q-50 0 -85.5 17t-58.5 44.5t-33.5 62.5t-10.5 72q0 21 3 44l49 277h102l-50 -285q-1 -5 -1.5 -11t-0.5 -11q0 -23 7.5 -43.5t22 -36t34.5 -24.5t44 -9t46.5 9t40.5 24.5t31 36.5t17 45l53 305h103l-90 -511h-74l-14 51q-17 -17 -37 -29q-18 -11 -42.5 -19.5
t-55.5 -8.5zM361 727h97l-127 -137h-68zM520 727h97l-126 -137h-69z" />
    <glyph glyph-name="Uogonek" unicode="&#x172;" horiz-adv-x="682" 
d="M390 -202q-55 0 -83.5 24.5t-28.5 63.5q0 21 7 39t16.5 32.5t19 24.5t15.5 15q-50 4 -90 24t-68 51t-43.5 71t-15.5 86q0 14 2 27t4 27l76 433h108l-77 -440q-4 -15 -4 -34q0 -28 8.5 -55t26.5 -48.5t45.5 -34.5t65.5 -13q65 0 111.5 43.5t59.5 116.5l82 465h108
l-84 -477q-9 -50 -32 -92.5t-56 -74t-74.5 -51.5t-88.5 -24q-4 -5 -12.5 -14.5t-17 -22.5t-15 -28t-6.5 -31q0 -22 14 -34t37 -12h14t12 1q6 0 11 1l-10 -57q-5 -1 -11 -1q-5 -1 -11.5 -1h-14.5z" />
    <glyph glyph-name="uogonek" unicode="&#x173;" horiz-adv-x="585" 
d="M491 -202q-55 0 -83.5 24.5t-28.5 63.5q0 25 10 46t22 36q14 18 32 32l-14 51q-17 -17 -37 -29q-18 -11 -42.5 -19.5t-55.5 -8.5q-50 0 -85.5 17t-58.5 44.5t-33.5 62.5t-10.5 72q0 21 3 44l49 277h102l-50 -285q-1 -5 -1.5 -11t-0.5 -11q0 -23 7.5 -43.5t22 -36
t34.5 -24.5t44 -9t46.5 9t40.5 24.5t31 36.5t17 45l53 305h103l-90 -511h-11q-16 -14 -28 -31q-11 -14 -19.5 -32t-8.5 -36q0 -22 14 -34t37 -12h14t12 1q6 0 11 1l-10 -57q-5 -1 -11 -1q-5 -1 -11.5 -1h-14.5z" />
    <glyph glyph-name="Wcircumflex" unicode="&#x174;" horiz-adv-x="909" 
d="M132 716h104l66 -494l235 494h68l61 -494l241 494h111l-348 -716h-74l-63 477l-232 -477h-74zM550 904h91l79 -136h-86l-43 79l-70 -79h-97z" />
    <glyph glyph-name="wcircumflex" unicode="&#x175;" horiz-adv-x="750" 
d="M95 511h98l51 -352l176 352h72l51 -352l176 352h103l-260 -511h-85l-49 335l-167 -335h-85zM446 727h91l79 -136h-86l-43 79l-70 -79h-97z" />
    <glyph glyph-name="Ycircumflex" unicode="&#x176;" horiz-adv-x="585" 
d="M282 278l-150 438h107l107 -324h6l222 324h120l-304 -438l-49 -278h-108zM385 904h91l79 -136h-86l-43 79l-70 -79h-97z" />
    <glyph glyph-name="ycircumflex" unicode="&#x177;" horiz-adv-x="523" 
d="M110 -187q-17 0 -34 5q-9 2 -18 5l15 85q3 -1 6 -1h10q36 0 57.5 16t32.5 38l29 56l-111 494h107l77 -369l207 369h117l-324 -559q-44 -75 -83 -107t-88 -32zM321 727h91l79 -136h-86l-43 79l-70 -79h-97z" />
    <glyph glyph-name="Ydieresis" unicode="&#x178;" horiz-adv-x="585" 
d="M282 278l-150 438h107l107 -324h6l222 324h120l-304 -438l-49 -278h-108zM314 779q-24 0 -40 16.5t-16 40.5q0 28 20 48t48 20q25 0 41 -16.5t16 -40.5q0 -29 -20.5 -48.5t-48.5 -19.5zM511 779q-25 0 -41 16.5t-16 40.5q0 28 20.5 48t47.5 20q25 0 41 -16.5t16 -40.5
q0 -29 -20.5 -48.5t-47.5 -19.5z" />
    <glyph glyph-name="Zacute" unicode="&#x179;" 
d="M47 74l436 539h-330l19 103h471l-13 -74l-436 -540h358l-18 -102h-500zM459 904h97l-121 -137h-68z" />
    <glyph glyph-name="zacute" unicode="&#x17a;" horiz-adv-x="449" 
d="M50 91l295 324h-238l17 96h369l-16 -91l-295 -323h250l-17 -97h-381zM361 727h97l-121 -137h-68z" />
    <glyph glyph-name="Zdotaccent" unicode="&#x17b;" 
d="M47 74l436 539h-330l19 103h471l-13 -74l-436 -540h358l-18 -102h-500zM417 779q-25 0 -41 16.5t-16 40.5q0 28 20.5 48t47.5 20q25 0 41 -16.5t16 -40.5q0 -29 -20.5 -48.5t-47.5 -19.5z" />
    <glyph glyph-name="zdotaccent" unicode="&#x17c;" horiz-adv-x="449" 
d="M50 91l295 324h-238l17 96h369l-16 -91l-295 -323h250l-17 -97h-381zM325 591q-25 0 -41 16.5t-16 40.5q0 28 20.5 48t47.5 20q25 0 41 -16.5t16 -40.5q0 -29 -20.5 -48.5t-47.5 -19.5z" />
    <glyph glyph-name="Zcaron" unicode="&#x17d;" 
d="M47 74l436 539h-330l19 103h471l-13 -74l-436 -540h358l-18 -102h-500zM278 904h85l43 -80l71 80h96l-126 -136h-91z" />
    <glyph glyph-name="zcaron" unicode="&#x17e;" horiz-adv-x="449" 
d="M50 91l295 324h-238l17 96h369l-16 -91l-295 -323h250l-17 -97h-381zM191 727h85l43 -80l71 80h96l-126 -136h-91z" />
    <glyph glyph-name="uni018F" unicode="&#x18f;" horiz-adv-x="750" 
d="M396 -5q-65 0 -119.5 23.5t-94.5 66.5t-62.5 102t-22.5 131q0 17 1.5 34t6.5 34h561q1 50 -15.5 93.5t-45.5 76t-67 51.5t-81 19q-25 0 -55 -8.5t-58.5 -25t-51.5 -39.5t-34 -53h-116q18 50 51.5 90.5t76 69.5t91.5 45t98 16q66 0 123 -25t99 -69.5t66.5 -105
t24.5 -130.5q0 -86 -31 -159t-83.5 -125.5t-120.5 -82t-141 -29.5zM400 91q49 0 89 16.5t70.5 44t53 63.5t36.5 75h-446q1 -40 16 -76t40.5 -63.5t61.5 -43.5t79 -16z" />
    <glyph glyph-name="florin" unicode="&#x192;" horiz-adv-x="409" 
d="M45 -187q-11 0 -20 0.5t-16 1.5q-8 1 -15 3l23 98q5 -2 11 -4q10 -3 29 -3q34 0 55.5 21t29.5 59l68 357h-85l17 91h85l23 108q18 86 65 131t128 45q11 0 20 -1t16 -2q8 -1 15 -2l-23 -98q-5 1 -11 3q-5 2 -12.5 3t-15.5 1q-35 0 -56.5 -21t-29.5 -59l-22 -108h113
l-17 -91h-113l-68 -357q-17 -86 -65 -131t-129 -45z" />
    <glyph glyph-name="Gacute" unicode="&#x1f4;" horiz-adv-x="761" 
d="M406 -6q-65 0 -121 25t-97 69t-64.5 103t-23.5 128q0 85 32.5 158.5t85.5 127.5t121 85t139 31q55 0 104 -16t88 -46.5t66.5 -74.5t39.5 -101h-113q-20 68 -70 104.5t-119 36.5q-44 0 -91 -21t-86 -59.5t-64 -94t-25 -124.5q0 -50 16 -92.5t44 -74t65 -49.5t79 -18
q46 0 83.5 15.5t67 40.5t49.5 56.5t30 63.5h-221l19 102h318l-65 -369h-80l-17 68q-23 -21 -53 -37q-26 -14 -60.5 -25.5t-76.5 -11.5zM555 904h97l-121 -137h-68z" />
    <glyph glyph-name="gacute" unicode="&#x1f5;" horiz-adv-x="585" 
d="M277 -193q-84 0 -143 41t-77 118h102q6 -15 14.5 -27.5t23 -21.5t35 -14t49.5 -5q52 0 90 30.5t47 82.5l9 51q-15 -13 -35 -23q-17 -8 -41.5 -15t-55.5 -7q-45 0 -83.5 17t-67 46.5t-44.5 70.5t-16 89q0 59 22.5 110t59 88t83 58t94.5 21q41 0 69.5 -11t46.5 -24
q21 -15 35 -34l40 63h74l-90 -509q-8 -44 -28.5 -79.5t-52 -61.5t-72.5 -40t-88 -14zM314 114q29 0 57.5 13t51 35.5t36.5 53t14 65.5q0 29 -10 54.5t-27 44t-40.5 29.5t-50.5 11q-29 0 -57.5 -13t-51 -35.5t-36.5 -53t-14 -65.5q0 -29 10 -54.5t27 -44.5t40.5 -29.5
t50.5 -10.5zM435 727h97l-121 -137h-68z" />
    <glyph glyph-name="Aringacute" unicode="&#x1fa;" horiz-adv-x="636" 
d="M404 715q-21 11 -32.5 32t-11.5 45q0 19 7.5 37.5t21 32.5t31 23t38.5 11l5 8h75l-20 -23q36 -27 36 -71q0 -30 -16.5 -55.5t-42.5 -38.5l147 -716h-111l-33 165h-284l-92 -165h-116zM475 267l-51 284l-154 -284h205zM453 755q17 0 31.5 15.5t14.5 33.5q0 17 -10.5 29.5
t-27.5 12.5t-31 -15.5t-14 -33.5q0 -16 10 -29t27 -13z" />
    <glyph glyph-name="aringacute" unicode="&#x1fb;" horiz-adv-x="528" 
d="M445 886h97l-121 -137h-68zM366 539q-42 0 -65.5 26.5t-23.5 61.5q0 21 8.5 40t23 33.5t33.5 23t41 8.5q41 0 64.5 -26.5t23.5 -60.5q0 -21 -8.5 -40t-22.5 -34t-33.5 -23.5t-40.5 -8.5zM370 590q17 0 31.5 15.5t14.5 33.5q0 17 -10.5 29.5t-27.5 12.5t-31 -15.5
t-14 -33.5q0 -16 10 -29t27 -13zM242 -6q-43 0 -75.5 10.5t-54.5 29t-33 43.5t-11 55q0 56 28 92t76 57t112 29t135 8q1 6 2 11l2 10t1 10q0 31 -24 51t-69 20q-40 0 -63 -19.5t-35 -42.5h-106q10 31 28.5 60t45 51t60 35t74.5 13q43 0 78 -12t59.5 -34t38 -52.5t13.5 -67.5
q0 -8 -1 -17.5t-3 -18.5l-54 -315h-74l-14 51q-16 -17 -37 -29q-18 -11 -43 -19.5t-56 -8.5zM242 85q32 0 59 9t47.5 24.5t33.5 36.5t17 45l4 27q-68 0 -112.5 -6t-71 -18t-37 -29t-10.5 -38q0 -20 17.5 -35.5t52.5 -15.5z" />
    <glyph glyph-name="AEacute" unicode="&#x1fc;" horiz-adv-x="937" 
d="M495 716h500l-18 -103h-328l-34 -193h299l-18 -102h-300l-37 -216h340l-19 -102h-448l29 170h-255l-126 -170h-125zM479 273l61 340h-6l-253 -340h198zM709 904h97l-121 -137h-68z" />
    <glyph glyph-name="aeacute" unicode="&#x1fd;" horiz-adv-x="852" 
d="M237 -6q-83 0 -126 39.5t-43 98.5q0 56 27.5 91t74.5 55t109 27t131 7v33q0 31 -21.5 53t-65.5 22q-38 0 -61 -19.5t-34 -42.5h-103q10 31 28 60t43.5 51t58.5 35t72 13q54 0 94 -20t63 -55q36 36 76.5 55.5t88.5 19.5q50 0 89.5 -16t67.5 -45.5t42.5 -70.5t14.5 -90
q0 -15 -2.5 -29t-4.5 -25q-4 -13 -7 -25h-358q0 -24 9 -46.5t25.5 -40t39.5 -28t51 -10.5q19 0 36 6t31.5 14.5t25.5 18.5t18 18h108q-15 -29 -38 -57t-52 -49.5t-63 -34.5t-72 -13q-57 0 -99 22.5t-71 61.5q-9 -9 -26 -23.5t-42.5 -28t-59 -23t-75.5 -9.5zM237 85
q31 0 57 9t46 24.5t33 36.5t17 45l3 27q-66 0 -109.5 -6t-69 -18t-36 -29t-10.5 -38q0 -20 17.5 -35.5t51.5 -15.5zM765 307q2 56 -28 87.5t-86 31.5q-51 0 -91 -31.5t-58 -87.5h263zM560 727h97l-121 -137h-68z" />
    <glyph glyph-name="Oslashacute" unicode="&#x1fe;" horiz-adv-x="772" 
d="M414 -6q-67 0 -123.5 26.5t-98.5 71.5l-93 -75l-56 68l99 81q-34 70 -34 153q0 85 32.5 158.5t85.5 127.5t121 85t139 31q66 0 123 -25.5t99 -71.5l93 75l56 -69l-99 -80q34 -71 34 -154q0 -85 -32.5 -158.5t-85.5 -127.5t-121 -85t-139 -31zM420 91q47 0 94 22.5t85 62
t61.5 94.5t23.5 120q0 47 -14 89l-395 -320q28 -32 65.5 -50t79.5 -18zM625 557q-28 32 -65 50t-79 18q-47 0 -94 -22.5t-85 -62.5t-62 -95t-24 -120q0 -49 13 -89zM562 904h97l-121 -137h-68z" />
    <glyph glyph-name="oslashacute" unicode="&#x1ff;" 
d="M308 -6q-50 0 -90.5 17.5t-70.5 48.5l-71 -55l-46 62l75 59q-8 23 -13.5 46.5t-5.5 50.5q0 65 23 119t60.5 93t86 60.5t100.5 21.5q49 0 90.5 -17.5t70.5 -48.5l71 56l46 -63l-75 -59q19 -44 19 -96q0 -65 -23 -119.5t-60.5 -93.5t-86 -60.5t-100.5 -21.5zM314 91
q29 0 58 13.5t52.5 38t38 59t14.5 75.5q0 11 -1.5 20.5t-3.5 19.5l-243 -191q35 -35 85 -35zM435 385q-17 17 -39.5 26t-45.5 9q-29 0 -58.5 -13.5t-52.5 -38t-37.5 -58.5t-14.5 -75q0 -11 1 -21t4 -20zM431 727h97l-121 -137h-68z" />
    <glyph glyph-name="Scommaaccent" unicode="&#x218;" 
d="M316 -6q-115 0 -176.5 59t-61.5 163h108q1 -36 16 -63q13 -23 41.5 -42.5t82.5 -19.5q65 0 100.5 30.5t35.5 75.5q0 33 -24 55t-60 39.5t-77.5 34.5t-77.5 40.5t-60 56.5t-24 83q0 55 24 95.5t61 67t80 39.5t81 13q51 0 92 -15.5t70 -44.5t45 -69.5t16 -91.5h-107
q-3 35 -16 62q-11 23 -36 42.5t-70 19.5q-29 0 -53 -8.5t-41.5 -23t-27 -33.5t-9.5 -39q0 -31 24 -51.5t60 -37.5t77.5 -33.5t77.5 -40.5t60 -58.5t24 -86.5q0 -41 -17.5 -80.5t-50.5 -70t-80 -49t-107 -18.5zM213 -268q13 7 25 18q11 9 21 21.5t18 29.5q-26 3 -41.5 18.5
t-15.5 38.5q0 28 20.5 48t47.5 20q26 0 41.5 -17t15.5 -40q0 -33 -15.5 -61.5t-35.5 -49.5t-39.5 -34t-27.5 -16z" />
    <glyph glyph-name="scommaaccent" unicode="&#x219;" horiz-adv-x="460" 
d="M260 -6q-48 0 -83.5 13t-58.5 35.5t-34.5 54t-11.5 68.5h103q0 -36 21.5 -55.5t70.5 -19.5q41 0 63 18t22 44q0 19 -17.5 31.5t-43.5 22.5t-56.5 20t-56.5 26t-43.5 39.5t-17.5 59.5q0 34 13.5 64.5t37.5 53t57 35.5t73 13q92 0 136.5 -42.5t44.5 -116.5h-102
q0 24 -20 43t-64 19q-37 0 -57.5 -17.5t-20.5 -40.5q0 -19 17.5 -31t43.5 -22t57 -20t57 -25.5t43.5 -39.5t17.5 -60q0 -37 -14 -68t-39 -53.5t-60.5 -35.5t-77.5 -13zM162 -268q13 7 25 18q11 9 21 21.5t18 29.5q-26 3 -41.5 18.5t-15.5 38.5q0 28 20.5 48t47.5 20
q26 0 41.5 -17t15.5 -40q0 -33 -15.5 -61.5t-35.5 -49.5t-39.5 -34t-27.5 -16z" />
    <glyph glyph-name="uni021A" unicode="&#x21a;" horiz-adv-x="574" 
d="M341 613h-216l18 103h540l-18 -103h-216l-108 -613h-108zM200 -268q13 7 25 18q11 9 21 21.5t18 29.5q-26 3 -41.5 18.5t-15.5 38.5q0 28 20.5 48t47.5 20q26 0 41.5 -17t15.5 -40q0 -33 -15.5 -61.5t-35.5 -49.5t-39.5 -34t-27.5 -16z" />
    <glyph glyph-name="uni021B" unicode="&#x21b;" horiz-adv-x="381" 
d="M287 -6q-34 0 -61 11.5t-45.5 31.5t-28.5 47.5t-10 60.5q0 18 3 39l41 231h-91l17 96h40q32 0 54 18.5t27 49.5l12 69h84l-23 -137h113l-17 -96h-113l-42 -240q-2 -5 -2 -14q0 -29 20.5 -49.5t52.5 -20.5h10.5t9.5 1q4 0 8 1l-15 -92q-5 -2 -12 -4q-12 -3 -32 -3z
M151 -268q13 7 25 18q11 9 21 21.5t18 29.5q-26 3 -41.5 18.5t-15.5 38.5q0 28 20.5 48t47.5 20q26 0 41.5 -17t15.5 -40q0 -33 -15.5 -61.5t-35.5 -49.5t-39.5 -34t-27.5 -16z" />
    <glyph glyph-name="uni0232" unicode="&#x232;" horiz-adv-x="585" 
d="M282 278l-150 438h107l107 -324h6l222 324h120l-304 -438l-49 -278h-108zM279 881h284l-12 -74h-284z" />
    <glyph glyph-name="uni0233" unicode="&#x233;" horiz-adv-x="523" 
d="M110 -187q-17 0 -34 5q-9 2 -18 5l15 85q3 -1 6 -1h10q36 0 57.5 16t32.5 38l29 56l-111 494h107l77 -369l207 369h117l-324 -559q-44 -75 -83 -107t-88 -32zM226 676h284l-12 -74h-284z" />
    <glyph glyph-name="uni0244" unicode="&#x244;" horiz-adv-x="750" 
d="M401 -6q-56 0 -102 18.5t-78.5 50.5t-50 75t-17.5 93q0 13 1 25.5t4 26.5l18 103h-91l16 91h91l42 239h108l-42 -239h318l42 239h108l-42 -239h91l-16 -91h-91l-26 -147q-9 -54 -35 -99.5t-63.5 -77.5t-85 -50t-99.5 -18zM407 91q65 0 111.5 43.5t59.5 116.5l24 135h-318
l-19 -110q-4 -15 -4 -34q0 -28 8.5 -55t26 -48.5t45 -34.5t66.5 -13z" />
    <glyph glyph-name="uni0259" unicode="&#x259;" horiz-adv-x="557" 
d="M300 -6q-52 0 -93 17t-69.5 47.5t-44 72t-15.5 91.5q0 14 2 28.5t5 25.5q4 13 8 25h369q0 24 -9.5 45.5t-26 38t-40.5 26t-52 9.5q-20 0 -37.5 -6t-32.5 -14.5t-26.5 -18t-18.5 -17.5h-111q15 29 38.5 56.5t53.5 49t65.5 34.5t74.5 13q49 0 90.5 -16.5t71.5 -46.5t47 -72
t17 -92q0 -66 -22.5 -120.5t-60 -93.5t-85.5 -60.5t-98 -21.5zM296 91q52 0 93.5 34.5t60.5 90.5h-271v-6q0 -53 31 -86t86 -33z" />
    <glyph glyph-name="uni0289" unicode="&#x289;" horiz-adv-x="608" 
d="M307 -6q-50 0 -85.5 17t-58.5 44.5t-34 62.5t-11 72q0 11 1 22t3 22l4 27h-68l16 91h68l28 159h103l-29 -159h244l29 159h102l-28 -159h68l-16 -91h-68l-46 -261h-73l-14 51q-17 -17 -37 -29q-18 -11 -42.5 -19.5t-55.5 -8.5zM328 91q24 0 46.5 9t41 24.5t31 36.5
t16.5 45l10 55h-245l-5 -35q-1 -5 -2 -11t-1 -11q0 -23 8 -43.5t22 -36t34 -24.5t44 -9z" />
    <glyph glyph-name="afii57929" unicode="&#x2bc;" horiz-adv-x="193" 
d="M141 521q13 7 24 18q10 9 20.5 22t18.5 30q-26 2 -41 18t-15 39q0 28 20 48t48 20q26 0 41.5 -17t15.5 -40q0 -34 -15.5 -62t-36 -49t-40 -34t-27.5 -16z" />
    <glyph glyph-name="circumflex" unicode="&#x2c6;" horiz-adv-x="364" 
d="M261 710h91l79 -136h-86l-43 79l-70 -79h-97z" />
    <glyph glyph-name="caron" unicode="&#x2c7;" horiz-adv-x="364" 
d="M159 710h85l43 -80l71 80h96l-126 -136h-91z" />
    <glyph glyph-name="breve" unicode="&#x2d8;" horiz-adv-x="364" 
d="M295 579q-34 0 -59.5 11.5t-42.5 30.5t-25.5 42.5t-8.5 46.5h80q2 -17 9 -29q6 -11 18 -19.5t35 -8.5q26 0 45 18.5t28 38.5h85q-9 -26 -24.5 -50t-36.5 -42t-47 -28.5t-56 -10.5z" />
    <glyph glyph-name="dotaccent" unicode="&#x2d9;" horiz-adv-x="193" 
d="M206 591q-25 0 -41 16.5t-16 40.5q0 28 20.5 48t47.5 20q25 0 41 -16.5t16 -40.5q0 -29 -20.5 -48.5t-47.5 -19.5z" />
    <glyph glyph-name="ring" unicode="&#x2da;" horiz-adv-x="261" 
d="M239 562q-42 0 -65.5 26.5t-23.5 61.5q0 21 8.5 40t23 33.5t33.5 23t41 8.5q41 0 64.5 -26.5t23.5 -60.5q0 -21 -8.5 -40t-22.5 -34t-33.5 -23.5t-40.5 -8.5zM243 613q17 0 31.5 15.5t14.5 33.5q0 17 -10.5 29.5t-27.5 12.5t-31 -15.5t-14 -33.5q0 -16 10 -29t27 -13z
" />
    <glyph glyph-name="ogonek" unicode="&#x2db;" horiz-adv-x="233" 
d="M127 -202q-54 0 -82.5 24.5t-28.5 63.5q0 25 10 46t22 36q14 18 32 32h62q-16 -14 -28 -31q-11 -14 -19.5 -32t-8.5 -36q0 -22 14 -34t37 -12h14.5t11.5 1q6 0 12 1l-10 -57q-5 -1 -11 -1q-5 -1 -12 -1h-15z" />
    <glyph glyph-name="tilde" unicode="&#x2dc;" horiz-adv-x="399" 
d="M368 574q-24 0 -40 10.5t-28.5 23t-23.5 23t-26 10.5q-17 0 -31.5 -16t-19.5 -46h-59q12 69 44 103t74 34q24 0 39.5 -10.5t28 -23t24 -23t26.5 -10.5q17 0 31.5 15.5t19.5 45.5h59q-12 -69 -44 -102.5t-74 -33.5z" />
    <glyph glyph-name="hungarumlaut" unicode="&#x2dd;" horiz-adv-x="398" 
d="M234 716h97l-127 -137h-68zM393 716h97l-126 -137h-69z" />
    <glyph glyph-name="acutecomb" unicode="&#x301;" horiz-adv-x="0" 
d="M-166 904h97l-121 -137h-68z" />
    <glyph glyph-name="uni0302" unicode="&#x302;" horiz-adv-x="0" 
d="M-243 904h91l79 -136h-86l-43 79l-70 -79h-97z" />
    <glyph glyph-name="uni0304" unicode="&#x304;" horiz-adv-x="0" 
d="M-346 881h284l-12 -74h-284z" />
    <glyph glyph-name="uni0306" unicode="&#x306;" horiz-adv-x="0" 
d="M-216 773q-34 0 -59.5 11.5t-42.5 30.5t-25.5 42.5t-8.5 46.5h80q2 -17 9 -29q6 -11 18 -19.5t35 -8.5q26 0 45 18.5t28 38.5h85q-9 -26 -24.5 -50t-36.5 -42t-47 -28.5t-56 -10.5z" />
    <glyph glyph-name="uni0308" unicode="&#x308;" horiz-adv-x="0" 
d="M-313 779q-24 0 -40 16.5t-16 40.5q0 28 20 48t48 20q25 0 41 -16.5t16 -40.5q0 -29 -20.5 -48.5t-48.5 -19.5zM-116 779q-25 0 -41 16.5t-16 40.5q0 28 20.5 48t47.5 20q25 0 41 -16.5t16 -40.5q0 -29 -20.5 -48.5t-47.5 -19.5z" />
    <glyph glyph-name="uni030A" unicode="&#x30a;" horiz-adv-x="0" 
d="M-226 711q-41 0 -64.5 26.5t-23.5 60.5q0 21 8 40t22.5 34t33.5 23.5t41 8.5q42 0 65.5 -26.5t23.5 -61.5q0 -21 -8.5 -40t-23 -33.5t-33.5 -23t-41 -8.5zM-221 762q17 0 31 15.5t14 33.5q0 16 -10 29t-27 13t-31.5 -15.5t-14.5 -33.5q0 -17 10.5 -29.5t27.5 -12.5z" />
    <glyph glyph-name="uni030C" unicode="&#x30c;" horiz-adv-x="0" 
d="M-347 904h85l43 -80l71 80h96l-126 -136h-91z" />
    <glyph glyph-name="uni0323" unicode="&#x323;" horiz-adv-x="193" 
d="M67 -199q-25 0 -41 16.5t-16 40.5q0 28 20.5 48t47.5 20q25 0 41 -16.5t16 -40.5q0 -29 -20.5 -48.5t-47.5 -19.5z" />
    <glyph glyph-name="Wgrave" unicode="&#x1e80;" horiz-adv-x="909" 
d="M132 716h104l66 -494l235 494h68l61 -494l241 494h111l-348 -716h-74l-63 477l-232 -477h-74zM448 904h97l68 -137h-68z" />
    <glyph glyph-name="wgrave" unicode="&#x1e81;" horiz-adv-x="750" 
d="M95 511h98l51 -352l176 352h72l51 -352l176 352h103l-260 -511h-85l-49 335l-167 -335h-85zM320 727h97l68 -137h-68z" />
    <glyph glyph-name="Wacute" unicode="&#x1e82;" horiz-adv-x="909" 
d="M132 716h104l66 -494l235 494h68l61 -494l241 494h111l-348 -716h-74l-63 477l-232 -477h-74zM640 904h97l-121 -137h-68z" />
    <glyph glyph-name="wacute" unicode="&#x1e83;" horiz-adv-x="750" 
d="M95 511h98l51 -352l176 352h72l51 -352l176 352h103l-260 -511h-85l-49 335l-167 -335h-85zM526 727h97l-121 -137h-68z" />
    <glyph glyph-name="Wdieresis" unicode="&#x1e84;" horiz-adv-x="909" 
d="M132 716h104l66 -494l235 494h68l61 -494l241 494h111l-348 -716h-74l-63 477l-232 -477h-74zM479 779q-24 0 -40 16.5t-16 40.5q0 28 20 48t48 20q25 0 41 -16.5t16 -40.5q0 -29 -20.5 -48.5t-48.5 -19.5zM676 779q-25 0 -41 16.5t-16 40.5q0 28 20.5 48t47.5 20
q25 0 41 -16.5t16 -40.5q0 -29 -20.5 -48.5t-47.5 -19.5z" />
    <glyph glyph-name="wdieresis" unicode="&#x1e85;" horiz-adv-x="750" 
d="M95 511h98l51 -352l176 352h72l51 -352l176 352h103l-260 -511h-85l-49 335l-167 -335h-85zM369 591q-24 0 -40 16.5t-16 40.5q0 28 20 48t48 20q25 0 41 -16.5t16 -40.5q0 -29 -20.5 -48.5t-48.5 -19.5zM566 591q-25 0 -41 16.5t-16 40.5q0 28 20.5 48t47.5 20
q25 0 41 -16.5t16 -40.5q0 -29 -20.5 -48.5t-47.5 -19.5z" />
    <glyph glyph-name="uni1E9E" unicode="&#x1e9e;" horiz-adv-x="682" 
d="M173 528q7 40 28 74.5t52 60t69.5 39.5t79.5 14h320l-17 -97l-167 -203q38 -12 68 -36q26 -20 47.5 -54t21.5 -86q0 -50 -19 -93.5t-52 -76t-76.5 -51.5t-91.5 -19h-84l18 102h73q24 0 46.5 10t39.5 26.5t27 39t10 48.5q0 20 -7 38.5t-19 33t-29 23t-36 8.5h-65l16 91
l158 188h-193q-42 0 -73 -22.5t-39 -62.5l-92 -523h-107z" />
    <glyph glyph-name="endash" unicode="&#x2013;" horiz-adv-x="534" 
d="M93 335h466l-16 -91h-466z" />
    <glyph glyph-name="emdash" unicode="&#x2014;" horiz-adv-x="812" 
d="M93 335h744l-16 -91h-744z" />
    <glyph glyph-name="underscoredbl" unicode="&#x2017;" horiz-adv-x="552" 
d="M-15 -135h582v-64h-582v64zM-15 -262h582v-63h-582v63z" />
    <glyph glyph-name="quoteleft" unicode="&#x2018;" horiz-adv-x="193" 
d="M189 498q-25 0 -41 16t-16 44q0 24 10.5 49t27.5 46.5t38 39t43 28.5l13 -23q-13 -8 -25 -19q-11 -10 -21.5 -23.5t-18.5 -32.5q27 -3 42.5 -19t15.5 -38q0 -28 -20 -48t-48 -20z" />
    <glyph glyph-name="quoteright" unicode="&#x2019;" horiz-adv-x="193" 
d="M142 521q13 8 25 19q11 9 21.5 23t18.5 33q-28 3 -43 19t-15 38q0 28 19.5 48t48.5 20q25 0 41 -16t16 -44q0 -24 -10.5 -49t-27.5 -46.5t-38.5 -39.5t-43.5 -28z" />
    <glyph glyph-name="quotesinglbase" unicode="&#x201a;" horiz-adv-x="193" 
d="M39 -81q12 8 24 19q10 9 21 23t19 33q-27 3 -42.5 19t-15.5 38q0 27 20 47.5t49 20.5q25 0 40.5 -16.5t15.5 -43.5q0 -24 -10.5 -49t-27.5 -46.5t-38 -39.5t-43 -29z" />
    <glyph glyph-name="quotedblleft" unicode="&#x201c;" horiz-adv-x="358" 
d="M189 498q-25 0 -41 16t-16 44q0 24 10.5 49t27.5 46.5t38 39t43 28.5l13 -23q-13 -8 -25 -19q-11 -10 -21.5 -23.5t-18.5 -32.5q27 -3 42.5 -19t15.5 -38q0 -28 -20 -48t-48 -20zM359 498q-25 0 -41 16t-16 44q0 24 10.5 49t27.5 46.5t38.5 39t42.5 28.5l13 -23
q-13 -8 -25 -19q-11 -10 -21.5 -23.5t-18.5 -32.5q28 -3 43 -19t15 -38q0 -28 -20 -48t-48 -20z" />
    <glyph glyph-name="quotedblright" unicode="&#x201d;" horiz-adv-x="358" 
d="M142 521q13 8 25 19q11 9 21.5 23t18.5 33q-28 3 -43 19t-15 38q0 28 19.5 48t48.5 20q25 0 41 -16t16 -44q0 -24 -10.5 -49t-27.5 -46.5t-38.5 -39.5t-43.5 -28zM312 521q13 8 25 19q11 9 21.5 23t18.5 33q-27 3 -42.5 19t-15.5 38q0 28 20 48t48 20q25 0 41 -16t16 -44
q0 -24 -10.5 -49t-27.5 -46.5t-38 -39.5t-43 -28z" />
    <glyph glyph-name="quotedblbase" unicode="&#x201e;" horiz-adv-x="358" 
d="M39 -81q12 8 24 19q10 9 21 23t19 33q-27 3 -42.5 19t-15.5 38q0 27 20 47.5t49 20.5q25 0 40.5 -16.5t15.5 -43.5q0 -24 -10.5 -49t-27.5 -46.5t-38 -39.5t-43 -29zM209 -81q13 8 25 19q11 9 21.5 23t18.5 33q-28 3 -43 19t-15 38q0 27 20 47.5t48 20.5q25 0 41 -16.5
t16 -43.5q0 -24 -10.5 -49t-27.5 -46.5t-38.5 -39.5t-42.5 -29z" />
    <glyph glyph-name="dagger" unicode="&#x2020;" horiz-adv-x="398" 
d="M248 500h-120l14 79h119l25 137h80l-25 -137h119l-14 -79h-119l-52 -296h-80z" />
    <glyph glyph-name="daggerdbl" unicode="&#x2021;" horiz-adv-x="398" 
d="M218 335h-119l12 74h120l18 102h-119l13 74h119l23 131h80l-23 -131h119l-13 -74h-120l-18 -102h119l-12 -74h-119l-23 -131h-80z" />
    <glyph glyph-name="bullet" unicode="&#x2022;" horiz-adv-x="500" 
d="M293 193q-22 0 -41 8.5t-32.5 22.5t-21 33.5t-7.5 40.5q0 25 10.5 47.5t28 39t40 26t46.5 9.5q22 0 41 -8t32.5 -22.5t21 -33.5t7.5 -40q0 -26 -10.5 -48t-28 -39t-40 -26.5t-46.5 -9.5z" />
    <glyph glyph-name="ellipsis" unicode="&#x2026;" horiz-adv-x="648" 
d="M102 -6q-25 0 -41 16.5t-16 40.5q0 29 20.5 48.5t48.5 19.5q25 0 40.5 -16.5t15.5 -40.5q0 -28 -20 -48t-48 -20zM329 -6q-25 0 -40.5 16.5t-15.5 40.5q0 29 20 48.5t48 19.5q25 0 41 -16.5t16 -40.5q0 -28 -20.5 -48t-48.5 -20zM557 -6q-25 0 -41 16.5t-16 40.5
q0 29 20.5 48.5t47.5 19.5q25 0 41 -16.5t16 -40.5q0 -28 -20.5 -48t-47.5 -20z" />
    <glyph glyph-name="perthousand" unicode="&#x2030;" horiz-adv-x="1039" 
d="M654 716h80l-564 -716h-79zM527 0q-28 0 -52.5 11t-42.5 30t-28.5 43.5t-10.5 51.5q0 33 14 61.5t36.5 50.5t51.5 34.5t59 12.5q28 0 52.5 -11t42.5 -29.5t28.5 -43.5t10.5 -52q0 -32 -14 -61t-36.5 -51t-51.5 -34.5t-59 -12.5zM529 62q16 0 32.5 7.5t29.5 20.5t21 29.5
t8 34.5q0 16 -5.5 30.5t-15 25t-22.5 17t-27 6.5q-16 0 -32.5 -7.5t-29.5 -20t-21 -29.5t-8 -35q0 -32 20.5 -55.5t49.5 -23.5zM270 420q-28 0 -52.5 11t-42.5 30t-28.5 44t-10.5 52q0 32 14 61t36.5 50.5t52 34.5t59.5 13q28 0 52.5 -11t42.5 -30t28.5 -44t10.5 -52
q0 -32 -14 -61t-36.5 -51t-52 -34.5t-59.5 -12.5zM275 483q16 0 32.5 7.5t29.5 20t21 29.5t8 35q0 16 -5.5 30t-15.5 24.5t-22.5 17t-27.5 6.5q-16 0 -32.5 -7.5t-29.5 -20t-21 -29.5t-8 -35q0 -16 5.5 -30t15.5 -24.5t22.5 -17t27.5 -6.5zM857 0q-28 0 -52.5 11t-43 30
t-29 43.5t-10.5 51.5q0 33 14 61.5t36.5 50.5t52 34.5t59.5 12.5q28 0 52.5 -11t42.5 -29.5t28.5 -43.5t10.5 -52q0 -32 -14 -61t-36.5 -51t-51.5 -34.5t-59 -12.5zM859 62q16 0 32.5 7.5t29.5 20.5t21 29.5t8 34.5q0 32 -21 55.5t-50 23.5q-16 0 -32.5 -7.5t-29.5 -20
t-21 -29.5t-8 -35q0 -16 5.5 -30t15.5 -25t22.5 -17.5t27.5 -6.5z" />
    <glyph glyph-name="guilsinglleft" unicode="&#x2039;" horiz-adv-x="295" 
d="M80 256l156 181h107l-162 -188l89 -175h-97z" />
    <glyph glyph-name="guilsinglright" unicode="&#x203a;" horiz-adv-x="295" 
d="M204 262l-89 175h97l94 -181l-157 -182h-107z" />
    <glyph glyph-name="uni203D" unicode="&#x203d;" horiz-adv-x="488" 
d="M245 -6q-25 0 -40.5 16.5t-15.5 40.5q0 29 20 48.5t48 19.5q25 0 41 -16.5t16 -40.5q0 -28 -20.5 -48t-48.5 -20zM284 601q-25 -14 -42.5 -41.5t-22.5 -66.5l-2 -16h-101l3 23q8 53 30 94t53.5 69.5t70.5 43t80 14.5q43 0 79 -15t61.5 -40.5t40 -59.5t14.5 -73
q0 -48 -14 -80t-36 -55.5t-48.5 -42.5t-51 -40t-44 -48.5t-27.5 -67.5l-3 -17h-102zM354 396q18 13 34.5 25.5t29 27t20 33t7.5 43.5q0 26 -12.5 46.5t-34.5 32.5z" />
    <glyph glyph-name="fraction" unicode="&#x2044;" horiz-adv-x="108" 
d="M359 716h79l-563 -716h-79z" />
    <glyph glyph-name="zerosuperior" unicode="&#x2070;" horiz-adv-x="341" 
d="M264 479q-52 0 -86 36.5t-34 101.5q0 50 14 88.5t37 64.5t51 39t57 13q51 0 85.5 -36t34.5 -101q0 -50 -14 -88.5t-37 -64.5t-51.5 -39.5t-56.5 -13.5zM265 541q12 0 27.5 7.5t29 24t23 43.5t9.5 66q0 38 -15 58.5t-37 20.5q-12 0 -28 -7.5t-29.5 -24t-23 -43.5t-9.5 -66
q0 -38 15.5 -58.5t37.5 -20.5z" />
    <glyph glyph-name="foursuperior" unicode="&#x2074;" horiz-adv-x="284" 
d="M244 545h-142l9 51l175 222h74l-36 -210h40l-12 -63h-40l-11 -62h-68zM256 608l18 108l-87 -108h69z" />
    <glyph glyph-name="fivesuperior" unicode="&#x2075;" horiz-adv-x="312" 
d="M254 477q-26 0 -47.5 8t-37.5 22t-24.5 32.5t-8.5 39.5h72q0 -14 13 -26.5t36 -12.5q27 0 43 16t16 44q0 23 -14 38t-36 15q-23 0 -35.5 -10t-19.5 -24h-57l57 199h188l-12 -63h-130l-13 -52q5 1 11 3q5 2 12.5 3t16.5 1q27 0 46 -9.5t31 -25t17.5 -35t5.5 -38.5
q0 -26 -9 -48.5t-26 -39.5t-41 -27t-54 -10z" />
    <glyph glyph-name="sixsuperior" unicode="&#x2076;" horiz-adv-x="301" 
d="M251 477q-25 0 -46 8t-36 22.5t-23.5 33.5t-8.5 42q0 25 8.5 46.5t20.5 38.5t25 30t21 23l83 97h78l-94 -108q46 -5 73 -34t27 -69q0 -28 -10.5 -51.5t-28 -41t-41 -27.5t-48.5 -10zM254 540q22 0 39.5 18t17.5 47q0 24 -13.5 36t-32.5 12q-22 0 -40 -18t-18 -48
q0 -23 14 -35t33 -12z" />
    <glyph glyph-name="sevensuperior" unicode="&#x2077;" horiz-adv-x="267" 
d="M312 755h-139l11 63h222l-7 -40l-185 -295h-72z" />
    <glyph glyph-name="eightsuperior" unicode="&#x2078;" horiz-adv-x="295" 
d="M247 477q-27 0 -47.5 8t-35 21.5t-21.5 31t-7 36.5q0 26 9.5 43.5t21.5 28.5q13 12 31 19q-7 6 -12 15q-5 8 -8.5 17.5t-3.5 23.5q0 20 8.5 38.5t23.5 33t34.5 23t41.5 8.5q43 0 69.5 -26.5t26.5 -63.5q0 -21 -7.5 -36t-15.5 -25q-11 -11 -23 -19q9 -6 16 -16
q6 -8 11 -20.5t5 -29.5q0 -23 -9.5 -43t-25 -35t-37 -24t-45.5 -9zM248 540q21 0 35.5 15.5t14.5 32.5q0 16 -11.5 29t-32.5 13t-35.5 -15.5t-14.5 -32.5q0 -16 11.5 -29t32.5 -13zM270 687q18 0 31 11.5t13 27.5q0 14 -9.5 24.5t-26.5 10.5q-18 0 -30.5 -11.5t-12.5 -27.5
q0 -14 9.5 -24.5t25.5 -10.5z" />
    <glyph glyph-name="ninesuperior" unicode="&#x2079;" horiz-adv-x="301" 
d="M251 591q-45 4 -72.5 33.5t-27.5 69.5q0 28 10.5 51.5t28 41t40.5 27.5t49 10q51 0 82 -30.5t31 -75.5q0 -24 -8.5 -45t-20.5 -38.5t-24.5 -31.5t-21.5 -24l-83 -96h-76zM266 648q21 0 39 18t18 47q0 24 -14 36t-33 12q-21 0 -39 -18t-18 -48q0 -24 14 -35.5t33 -11.5z
" />
    <glyph glyph-name="zeroinferior" unicode="&#x2080;" horiz-adv-x="341" 
d="M161 -112q-52 0 -86 36.5t-34 101.5q0 50 14 88.5t37 64.5t51 39t57 13q51 0 85.5 -36t34.5 -101q0 -50 -14 -88.5t-37 -64.5t-51.5 -39.5t-56.5 -13.5zM162 -50q12 0 27.5 7.5t29 24t23 43.5t9.5 66q0 38 -15 58.5t-37 20.5q-12 0 -28 -7.5t-29.5 -24t-23 -43.5
t-9.5 -66q0 -38 15.5 -58.5t37.5 -20.5z" />
    <glyph glyph-name="oneinferior" unicode="&#x2081;" horiz-adv-x="239" 
d="M121 142l-44 -23l-25 51l101 57h51l-59 -335h-68z" />
    <glyph glyph-name="twoinferior" unicode="&#x2082;" horiz-adv-x="295" 
d="M23 -57l151 128q22 19 31.5 31t9.5 32q0 13 -11 24.5t-34 11.5q-20 0 -35.5 -15.5t-19.5 -35.5h-66q5 24 17 45t28.5 36t36.5 24t43 9q54 0 81 -28.5t27 -67.5q0 -19 -6.5 -34.5t-15.5 -27t-18.5 -20t-14.5 -12.5l-105 -89h131l-12 -62h-227z" />
    <glyph glyph-name="threeinferior" unicode="&#x2083;" horiz-adv-x="307" 
d="M147 -114q-53 0 -84 29t-31 85h69q0 -23 10.5 -37t39.5 -14q26 0 39.5 15.5t13.5 32.5q0 15 -9.5 28.5t-37.5 13.5h-31l10 57h34q22 0 33 12t11 26q0 15 -11 25.5t-29 10.5q-43 0 -51 -45h-66q9 53 44 80.5t79 27.5q24 0 43.5 -8t33 -21t21 -30t7.5 -35q0 -23 -7.5 -38.5
t-16.5 -24.5q-11 -11 -24 -17q9 -6 16 -15q6 -8 11.5 -20t5.5 -29q0 -23 -9 -43t-25.5 -34.5t-39 -23t-49.5 -8.5z" />
    <glyph glyph-name="fourinferior" unicode="&#x2084;" horiz-adv-x="284" 
d="M139 -46h-142l9 51l175 222h74l-36 -210h40l-12 -63h-40l-11 -62h-68zM151 17l18 108l-87 -108h69z" />
    <glyph glyph-name="fiveinferior" unicode="&#x2085;" horiz-adv-x="312" 
d="M149 -114q-26 0 -47.5 8t-37.5 22t-24.5 32.5t-8.5 39.5h72q0 -14 13 -26.5t36 -12.5q27 0 43 16t16 44q0 23 -14 38t-36 15q-23 0 -35.5 -10t-19.5 -24h-57l57 199h188l-12 -63h-130l-13 -52q5 1 11 3q5 2 12.5 3t16.5 1q27 0 46 -9.5t31 -25t17.5 -35t5.5 -38.5
q0 -26 -9 -48.5t-26 -39.5t-41 -27t-54 -10z" />
    <glyph glyph-name="sixinferior" unicode="&#x2086;" horiz-adv-x="301" 
d="M146 -114q-25 0 -46 8t-36 22.5t-23.5 33.5t-8.5 42q0 25 8.5 46.5t20.5 38.5t25 30t21 23l83 97h78l-94 -108q46 -5 73 -34t27 -69q0 -28 -10.5 -51.5t-28 -41t-41 -27.5t-48.5 -10zM149 -51q22 0 39.5 18t17.5 47q0 24 -13.5 36t-32.5 12q-22 0 -40 -18t-18 -48
q0 -23 14 -35t33 -12z" />
    <glyph glyph-name="seveninferior" unicode="&#x2087;" horiz-adv-x="267" 
d="M207 164h-139l11 63h222l-7 -40l-185 -295h-72z" />
    <glyph glyph-name="eightinferior" unicode="&#x2088;" horiz-adv-x="295" 
d="M142 -114q-27 0 -47.5 8t-35 21.5t-21.5 31t-7 36.5q0 26 9.5 43.5t21.5 28.5q13 12 31 19q-7 6 -12 15q-5 8 -8.5 17.5t-3.5 23.5q0 20 8.5 38.5t23.5 33t34.5 23t41.5 8.5q43 0 69.5 -26.5t26.5 -63.5q0 -21 -7.5 -36t-15.5 -25q-11 -11 -23 -19q9 -6 16 -16
q6 -8 11 -20.5t5 -29.5q0 -23 -9.5 -43t-25 -35t-37 -24t-45.5 -9zM143 -51q21 0 35.5 15.5t14.5 32.5q0 16 -11.5 29t-32.5 13t-35.5 -15.5t-14.5 -32.5q0 -16 11.5 -29t32.5 -13zM165 96q18 0 31 11.5t13 27.5q0 14 -9.5 24.5t-26.5 10.5q-18 0 -30.5 -11.5t-12.5 -27.5
q0 -14 9.5 -24.5t25.5 -10.5z" />
    <glyph glyph-name="nineinferior" unicode="&#x2089;" horiz-adv-x="301" 
d="M146 0q-45 4 -72.5 33.5t-27.5 69.5q0 28 10.5 51.5t28 41t40.5 27.5t49 10q51 0 82 -30.5t31 -75.5q0 -24 -8.5 -45t-20.5 -38.5t-24.5 -31.5t-21.5 -24l-83 -96h-76zM161 57q21 0 39 18t18 47q0 24 -14 36t-33 12q-21 0 -39 -18t-18 -48q0 -24 14 -35.5t33 -11.5z" />
    <glyph glyph-name="uni20A9" unicode="&#x20a9;" horiz-adv-x="909" 
d="M208 216h-158l16 91h133l-5 45h-120l16 91h96l-25 273h108l25 -273h137l111 273h79l14 -273h136l123 273h108l-123 -273h97l-16 -91h-120l-21 -45h133l-16 -91h-158l-96 -216h-114l-11 216h-128l-88 -216h-114zM339 216h-23l4 -46zM375 307l18 45h-91l5 -45h68zM551 307
l-2 45h-64l-19 -45h85zM670 216h-22l2 -46zM543 443l-2 45l-20 -45h22zM710 307l20 45h-90l2 -45h68z" />
    <glyph glyph-name="uni20AB" unicode="&#x20ab;" horiz-adv-x="540" 
d="M87 80h381l-14 -80h-380zM269 125q-36 0 -68 14.5t-55.5 39t-37.5 57t-14 68.5q0 49 18.5 91t50 73t72.5 48.5t86 17.5q32 0 56 -8t40 -18q18 -11 31 -25l18 102h-142l13 74h142l11 57h92l-11 -57h73l-14 -74h-73l-80 -454h-62l-14 46q-12 -15 -30 -26q-16 -10 -41 -18
t-61 -8zM293 204q28 0 52 10.5t42 28.5t28.5 43.5t10.5 55.5q0 51 -28 81.5t-79 30.5q-26 0 -49.5 -10.5t-42.5 -29t-30 -43.5t-11 -55q0 -51 30 -81.5t77 -30.5z" />
    <glyph glyph-name="Euro" unicode="&#x20ac;" horiz-adv-x="767" 
d="M470 -6q-53 0 -100.5 17.5t-86 48t-66.5 73.5t-41 94h-108l15 85h83q-1 37 6 74h-75l14 85h83q22 55 59.5 101t83.5 79t99 51.5t107 18.5q62 0 113.5 -22t89.5 -58t61.5 -80.5t29.5 -89.5h-112q-6 28 -22 55.5t-40.5 49.5t-56 35.5t-69.5 13.5q-30 0 -62 -10.5t-63 -30
t-58 -48.5t-46 -65h207l-15 -85h-221q-3 -19 -4.5 -37t-0.5 -37h212l-15 -85h-180q24 -62 73.5 -99t112.5 -37q36 0 70.5 13t64 34.5t52.5 49t36 56.5h113q-20 -47 -52.5 -92t-76 -80t-97.5 -56.5t-117 -21.5z" />
    <glyph glyph-name="uni20B4" unicode="&#x20b4;" horiz-adv-x="613" 
d="M329 -6q-47 0 -85 12t-64.5 32t-40.5 47.5t-14 59.5q0 23 6.5 40.5t14 29.5t14.5 18l7 6h-85l15 85h533l-14 -85h-313q-20 -9 -35 -20q-13 -10 -23.5 -24t-10.5 -33q0 -26 25.5 -48.5t71.5 -22.5q22 0 41 7.5t33 18.5t23.5 25t11.5 28h112q-6 -32 -25.5 -63.5
t-49.5 -56.5t-68 -40.5t-80 -15.5zM124 477h312q19 8 35 19q13 10 24 24t11 33q0 13 -6.5 25.5t-19.5 23t-31 17t-40 6.5t-41 -7.5t-33 -19t-23.5 -25.5t-11.5 -28h-113q6 32 25.5 63.5t49.5 56.5t68 40.5t80 15.5q47 0 85 -12t64.5 -32t41 -48t14.5 -59q0 -23 -6.5 -40
t-14 -29t-14.5 -18l-7 -6h85l-15 -85h-534z" />
    <glyph glyph-name="uni20B8" unicode="&#x20b8;" horiz-adv-x="585" 
d="M319 454h-204l17 97h517l-17 -97h-205l-81 -454h-107zM161 716h517l-17 -97h-517z" />
    <glyph glyph-name="uni20B9" unicode="&#x20b9;" horiz-adv-x="579" 
d="M94 278l18 103h194q21 0 40 6.5t33.5 17t24.5 23.5t13 26h-292l16 91h287q0 13 -6.5 26t-18.5 23.5t-29 17.5t-38 7h-182l18 97h494l-17 -97h-120q4 -7 8 -18q7 -20 11 -56h87l-16 -91h-83q-9 -36 -31 -68t-53.5 -56t-71.5 -38t-87 -14h-28l292 -278h-159z" />
    <glyph glyph-name="uni20BA" unicode="&#x20ba;" horiz-adv-x="579" 
d="M149 267l-84 -28l18 102l84 28l10 57l-84 -28l18 102l84 28l33 188h108l-26 -148l164 57l-18 -104l-164 -55l-10 -57l163 57l-18 -104l-162 -55l-37 -205q68 0 116 11t78.5 33.5t46 56.5t18.5 81h108q-8 -72 -34 -125.5t-73 -89t-117 -52.5t-167 -17h-102z" />
    <glyph glyph-name="uni20BD" unicode="&#x20bd;" horiz-adv-x="636" 
d="M134 114h-85l17 96h85l13 74h-86l17 97h86l59 335h255q43 0 78.5 -17t60.5 -45t38.5 -64t13.5 -73q0 -49 -20.5 -91.5t-54.5 -74t-78 -49.5t-91 -18h-170l-13 -74h216l-17 -96h-216l-20 -114h-108zM448 381q26 0 49.5 10.5t41 28t28 40.5t10.5 49q0 21 -7 41t-19.5 35
t-31 24.5t-41.5 9.5h-147l-42 -238h159z" />
    <glyph glyph-name="uni20BF" unicode="&#x20bf;" horiz-adv-x="642" 
d="M182 0h-97l126 716h97l18 102h97l-19 -102h57l18 102h97l-20 -114q25 -10 45.5 -28t35.5 -40.5t23 -49t8 -53.5q0 -44 -16 -74.5t-35 -50.5q-22 -23 -50 -38q20 -16 37 -37q14 -19 25.5 -46t11.5 -64q0 -41 -16 -78.5t-44 -67.5t-66 -50t-83 -26l-18 -103h-97l18 102h-57
l-18 -102h-96zM407 102q25 0 48.5 9.5t41 26t28 38.5t10.5 48q0 18 -7 37t-20.5 34t-32 24.5t-40.5 9.5h-184l-40 -227h196zM453 420q22 0 42.5 8.5t36 22.5t24.5 33t9 40q0 17 -6.5 33t-18 28.5t-27 20t-34.5 7.5h-178l-34 -193h186z" />
    <glyph glyph-name="uni2113" unicode="&#x2113;" horiz-adv-x="386" 
d="M295 -6q-60 0 -95 37.5t-35 110.5v91q-12 -5 -26 -9q-12 -3 -29 -5.5t-36 -2.5v68q19 0 36 2.5t29 5.5q14 4 26 9v273q0 69 34.5 108t90.5 39q25 0 48 -10.5t40 -30.5t27 -49.5t10 -68.5q0 -57 -16.5 -104t-42.5 -84.5t-58.5 -65.5t-64.5 -47v-119q0 -38 19.5 -59
t54.5 -21q13 0 23 2.5t18 6.5q9 4 16 9v-69q-9 -5 -20 -9q-9 -3 -21.5 -5.5t-27.5 -2.5zM233 335q21 19 41.5 40t36.5 48t25.5 60.5t9.5 78.5q0 48 -17.5 69.5t-38.5 21.5q-26 0 -41.5 -18t-15.5 -60v-240z" />
    <glyph glyph-name="afii61352" unicode="&#x2116;" horiz-adv-x="1085" 
d="M211 716h91l256 -517l91 517h108l-127 -716h-90l-256 517l-91 -517h-108zM755 97h296l-17 -97h-296zM930 170q-31 0 -58 12t-46.5 32.5t-30.5 47t-11 56.5q0 34 14.5 65t39 54t56 37t64.5 14q31 0 58 -12t46.5 -32t30.5 -46.5t11 -56.5q0 -34 -14.5 -65t-39 -54.5
t-56 -37.5t-64.5 -14zM936 250q15 0 30 6.5t27 18t19 27.5t7 35q0 31 -19 51.5t-48 20.5q-15 0 -30 -6.5t-27 -18t-19 -27t-7 -34.5q0 -31 19 -52t48 -21z" />
    <glyph glyph-name="uni2117" unicode="&#x2117;" horiz-adv-x="795" 
d="M460 -6q-72 0 -136 28t-112 77t-76 115.5t-28 143.5q0 76 28 142.5t76 115.5t112 77t136 28t136 -28t112 -77t76 -115.5t28 -142.5q0 -77 -28 -143.5t-76 -115.5t-112 -77t-136 -28zM460 68q55 0 105 22t87 61t59 92t22 115t-22 115t-59 92t-87 61t-105 22
q-56 0 -105.5 -22t-86.5 -61t-59 -92t-22 -115t22 -115t59 -92t86.5 -61t105.5 -22zM346 545h137q25 0 48 -10t40 -27t27 -40t10 -48q0 -26 -10 -48.5t-27 -39.5t-40 -27t-48 -10h-63v-125h-74v375zM483 364q21 0 36 15t15 41t-15 41.5t-36 15.5h-63v-113h63z" />
    <glyph glyph-name="trademark" unicode="&#x2122;" horiz-adv-x="613" 
d="M204 659h-85v57h233v-57h-85v-233h-63v233zM392 716h51l91 -131l91 131h51v-290h-63v182l-62 -91h-34l-63 91v-182h-62v290z" />
    <glyph glyph-name="uni2126" unicode="&#x2126;" horiz-adv-x="863" 
d="M165 68h147q-48 29 -85 72q-16 18 -31.5 41.5t-27.5 52t-19 62.5t-7 73q0 75 27 139t74.5 111.5t111.5 74.5t139 27t139 -27t111.5 -74.5t74.5 -111.5t27 -139q0 -39 -7.5 -73t-19.5 -62.5t-27 -52t-31 -41.5q-38 -43 -85 -72h148v-68h-256v68q58 29 105 72
q19 18 38 41.5t34 52t24 62.5t9 73q0 60 -22 111.5t-60.5 90t-90 60.5t-111.5 22t-111.5 -22t-90 -60.5t-60.5 -90t-22 -111.5q0 -39 9 -73t23.5 -62.5t33.5 -52t39 -41.5q46 -43 105 -72v-68h-255v68z" />
    <glyph glyph-name="estimated" unicode="&#x212e;" horiz-adv-x="875" 
d="M506 -11q-77 0 -144.5 29t-117.5 79t-79 117t-29 144q0 76 29 143.5t79 117.5t117.5 79t144.5 29q76 0 143.5 -29t117.5 -79t79 -117.5t29 -143.5v-6h-585v-250q24 -22 57 -40q28 -15 67.5 -27t91.5 -12q77 0 131.5 24.5t89.5 54.5q41 35 68 80h40q-29 -55 -75 -97
q-20 -18 -45.5 -35.5t-57 -31t-69 -21.5t-82.5 -8zM721 386v227q-42 39 -98.5 59.5t-116.5 20.5t-117 -20.5t-99 -59.5v-227h431z" />
    <glyph glyph-name="uni2150" unicode="&#x2150;" horiz-adv-x="648" 
d="M620 716h79l-563 -716h-79zM208 631l-44 -23l-25 51l101 57h51l-59 -335h-68zM579 272h-139l11 63h222l-7 -40l-185 -295h-72z" />
    <glyph glyph-name="uni2151" unicode="&#x2151;" horiz-adv-x="648" 
d="M620 716h79l-563 -716h-79zM208 631l-44 -23l-25 51l101 57h51l-59 -335h-68zM512 108q-45 4 -72.5 33.5t-27.5 69.5q0 28 10.5 51.5t28 41t40.5 27.5t49 10q51 0 82 -30.5t31 -75.5q0 -24 -8.5 -45t-20.5 -38.5t-24.5 -31.5t-21.5 -24l-83 -96h-76zM527 165q21 0 39 18
t18 47q0 24 -14 36t-33 12q-21 0 -39 -18t-18 -48q0 -24 14 -35.5t33 -11.5z" />
    <glyph glyph-name="uni2152" unicode="&#x2152;" horiz-adv-x="909" 
d="M620 716h79l-563 -716h-79zM208 631l-44 -23l-25 51l101 57h51l-59 -335h-68zM516 250l-44 -23l-25 51l101 57h51l-59 -335h-68zM747 -4q-52 0 -86 36.5t-34 101.5q0 50 14 88.5t37 64.5t51 39t57 13q51 0 85.5 -36t34.5 -101q0 -50 -14 -88.5t-37 -64.5t-51.5 -39.5
t-56.5 -13.5zM748 58q12 0 27.5 7.5t29 24t23 43.5t9.5 66q0 38 -15 58.5t-37 20.5q-12 0 -28 -7.5t-29.5 -24t-23 -43.5t-9.5 -66q0 -38 15.5 -58.5t37.5 -20.5z" />
    <glyph glyph-name="onethird" unicode="&#x2153;" horiz-adv-x="670" 
d="M620 716h79l-563 -716h-79zM208 631l-44 -23l-25 51l101 57h51l-59 -335h-68zM530 -6q-53 0 -84 29t-31 85h69q0 -23 10.5 -37t39.5 -14q26 0 39.5 15.5t13.5 32.5q0 15 -9.5 28.5t-37.5 13.5h-31l10 57h34q22 0 33 12t11 26q0 15 -11 25.5t-29 10.5q-43 0 -51 -45h-66
q9 53 44 80.5t79 27.5q24 0 43.5 -8t33 -21t21 -30t7.5 -35q0 -23 -7.5 -38.5t-16.5 -24.5q-11 -11 -24 -17q9 -6 16 -15q6 -8 11.5 -20t5.5 -29q0 -23 -9 -43t-25.5 -34.5t-39 -23t-49.5 -8.5z" />
    <glyph glyph-name="twothirds" unicode="&#x2154;" horiz-adv-x="704" 
d="M677 716h79l-563 -716h-79zM110 432l151 128q22 19 31.5 31t9.5 32q0 13 -11 24.5t-34 11.5q-20 0 -35.5 -15.5t-19.5 -35.5h-66q5 24 17 45t28.5 36t36.5 24t43 9q54 0 81 -28.5t27 -67.5q0 -19 -6.5 -34.5t-15.5 -27t-18.5 -20t-14.5 -12.5l-105 -89h131l-12 -62h-227z
M564 -6q-53 0 -84 29t-31 85h69q0 -23 10.5 -37t39.5 -14q26 0 39.5 15.5t13.5 32.5q0 15 -9.5 28.5t-37.5 13.5h-31l10 57h34q22 0 33 12t11 26q0 15 -11 25.5t-29 10.5q-43 0 -51 -45h-66q9 53 44 80.5t79 27.5q24 0 43.5 -8t33 -21t21 -30t7.5 -35q0 -23 -7.5 -38.5
t-16.5 -24.5q-11 -11 -24 -17q9 -6 16 -15q6 -8 11.5 -20t5.5 -29q0 -23 -9 -43t-25.5 -34.5t-39 -23t-49.5 -8.5z" />
    <glyph glyph-name="uni2155" unicode="&#x2155;" horiz-adv-x="676" 
d="M620 716h79l-563 -716h-79zM208 631l-44 -23l-25 51l101 57h51l-59 -335h-68zM532 -6q-26 0 -47.5 8t-37.5 22t-24.5 32.5t-8.5 39.5h72q0 -14 13 -26.5t36 -12.5q27 0 43 16t16 44q0 23 -14 38t-36 15q-23 0 -35.5 -10t-19.5 -24h-57l57 199h188l-12 -63h-130l-13 -52
q5 1 11 3q5 2 12.5 3t16.5 1q27 0 46 -9.5t31 -25t17.5 -35t5.5 -38.5q0 -26 -9 -48.5t-26 -39.5t-41 -27t-54 -10z" />
    <glyph glyph-name="uni2156" unicode="&#x2156;" horiz-adv-x="710" 
d="M677 716h79l-563 -716h-79zM110 432l151 128q22 19 31.5 31t9.5 32q0 13 -11 24.5t-34 11.5q-20 0 -35.5 -15.5t-19.5 -35.5h-66q5 24 17 45t28.5 36t36.5 24t43 9q54 0 81 -28.5t27 -67.5q0 -19 -6.5 -34.5t-15.5 -27t-18.5 -20t-14.5 -12.5l-105 -89h131l-12 -62h-227z
M566 -6q-26 0 -47.5 8t-37.5 22t-24.5 32.5t-8.5 39.5h72q0 -14 13 -26.5t36 -12.5q27 0 43 16t16 44q0 23 -14 38t-36 15q-23 0 -35.5 -10t-19.5 -24h-57l57 199h188l-12 -63h-130l-13 -52q5 1 11 3q5 2 12.5 3t16.5 1q27 0 46 -9.5t31 -25t17.5 -35t5.5 -38.5
q0 -26 -9 -48.5t-26 -39.5t-41 -27t-54 -10z" />
    <glyph glyph-name="uni2157" unicode="&#x2157;" horiz-adv-x="721" 
d="M677 716h79l-563 -716h-79zM234 375q-53 0 -84 29t-31 85h69q0 -23 10.5 -37t39.5 -14q26 0 39.5 15.5t13.5 32.5q0 15 -9.5 28.5t-37.5 13.5h-31l10 57h34q22 0 33 12t11 26q0 15 -11 25.5t-29 10.5q-43 0 -51 -45h-66q9 53 44 80.5t79 27.5q24 0 43.5 -8t33 -21t21 -30
t7.5 -35q0 -23 -7.5 -38.5t-16.5 -24.5q-11 -11 -24 -17q9 -6 16 -15q6 -8 11.5 -20t5.5 -29q0 -23 -9 -43t-25.5 -34.5t-39 -23t-49.5 -8.5zM578 -6q-26 0 -47.5 8t-37.5 22t-24.5 32.5t-8.5 39.5h72q0 -14 13 -26.5t36 -12.5q27 0 43 16t16 44q0 23 -14 38t-36 15
q-23 0 -35.5 -10t-19.5 -24h-57l57 199h188l-12 -63h-130l-13 -52q5 1 11 3q5 2 12.5 3t16.5 1q27 0 46 -9.5t31 -25t17.5 -35t5.5 -38.5q0 -26 -9 -48.5t-26 -39.5t-41 -27t-54 -10z" />
    <glyph glyph-name="uni2158" unicode="&#x2158;" horiz-adv-x="716" 
d="M683 716h79l-563 -716h-79zM244 443h-142l9 51l175 222h74l-36 -210h40l-12 -63h-40l-11 -62h-68zM256 506l18 108l-87 -108h69zM572 -6q-26 0 -47.5 8t-37.5 22t-24.5 32.5t-8.5 39.5h72q0 -14 13 -26.5t36 -12.5q27 0 43 16t16 44q0 23 -14 38t-36 15q-23 0 -35.5 -10
t-19.5 -24h-57l57 199h188l-12 -63h-130l-13 -52q5 1 11 3q5 2 12.5 3t16.5 1q27 0 46 -9.5t31 -25t17.5 -35t5.5 -38.5q0 -26 -9 -48.5t-26 -39.5t-41 -27t-54 -10z" />
    <glyph glyph-name="uni2159" unicode="&#x2159;" horiz-adv-x="642" 
d="M620 716h79l-563 -716h-79zM208 631l-44 -23l-25 51l101 57h51l-59 -335h-68zM507 -6q-25 0 -46 8t-36 22.5t-23.5 33.5t-8.5 42q0 25 8.5 46.5t20.5 38.5t25 30t21 23l83 97h78l-94 -108q46 -5 73 -34t27 -69q0 -28 -10.5 -51.5t-28 -41t-41 -27.5t-48.5 -10zM510 57
q22 0 39.5 18t17.5 47q0 24 -13.5 36t-32.5 12q-22 0 -40 -18t-18 -48q0 -23 14 -35t33 -12z" />
    <glyph glyph-name="uni215A" unicode="&#x215a;" horiz-adv-x="704" 
d="M683 716h79l-563 -716h-79zM236 375q-26 0 -47.5 8t-37.5 22t-24.5 32.5t-8.5 39.5h72q0 -14 13 -26.5t36 -12.5q27 0 43 16t16 44q0 23 -14 38t-36 15q-23 0 -35.5 -10t-19.5 -24h-57l57 199h188l-12 -63h-130l-13 -52q5 1 11 3q5 2 12.5 3t16.5 1q27 0 46 -9.5t31 -25
t17.5 -35t5.5 -38.5q0 -26 -9 -48.5t-26 -39.5t-41 -27t-54 -10zM569 -6q-25 0 -46 8t-36 22.5t-23.5 33.5t-8.5 42q0 25 8.5 46.5t20.5 38.5t25 30t21 23l83 97h78l-94 -108q46 -5 73 -34t27 -69q0 -28 -10.5 -51.5t-28 -41t-41 -27.5t-48.5 -10zM572 57q22 0 39.5 18
t17.5 47q0 24 -13.5 36t-32.5 12q-22 0 -40 -18t-18 -48q0 -23 14 -35t33 -12z" />
    <glyph glyph-name="oneeighth" unicode="&#x215b;" horiz-adv-x="636" 
d="M620 716h79l-563 -716h-79zM208 631l-44 -23l-25 51l101 57h51l-59 -335h-68zM503 -6q-27 0 -47.5 8t-35 21.5t-21.5 31t-7 36.5q0 26 9.5 43.5t21.5 28.5q13 12 31 19q-7 6 -12 15q-5 8 -8.5 17.5t-3.5 23.5q0 20 8.5 38.5t23.5 33t34.5 23t41.5 8.5q43 0 69.5 -26.5
t26.5 -63.5q0 -21 -7.5 -36t-15.5 -25q-11 -11 -23 -19q9 -6 16 -16q6 -8 11 -20.5t5 -29.5q0 -23 -9.5 -43t-25 -35t-37 -24t-45.5 -9zM504 57q21 0 35.5 15.5t14.5 32.5q0 16 -11.5 29t-32.5 13t-35.5 -15.5t-14.5 -32.5q0 -16 11.5 -29t32.5 -13zM526 204q18 0 31 11.5
t13 27.5q0 14 -9.5 24.5t-26.5 10.5q-18 0 -30.5 -11.5t-12.5 -27.5q0 -14 9.5 -24.5t25.5 -10.5z" />
    <glyph glyph-name="threeeighths" unicode="&#x215c;" horiz-adv-x="693" 
d="M677 716h79l-563 -716h-79zM234 375q-53 0 -84 29t-31 85h69q0 -23 10.5 -37t39.5 -14q26 0 39.5 15.5t13.5 32.5q0 15 -9.5 28.5t-37.5 13.5h-31l10 57h34q22 0 33 12t11 26q0 15 -11 25.5t-29 10.5q-43 0 -51 -45h-66q9 53 44 80.5t79 27.5q24 0 43.5 -8t33 -21t21 -30
t7.5 -35q0 -23 -7.5 -38.5t-16.5 -24.5q-11 -11 -24 -17q9 -6 16 -15q6 -8 11.5 -20t5.5 -29q0 -23 -9 -43t-25.5 -34.5t-39 -23t-49.5 -8.5zM559 -6q-27 0 -47.5 8t-35 21.5t-21.5 31t-7 36.5q0 26 9.5 43.5t21.5 28.5q13 12 31 19q-7 6 -12 15q-5 8 -8.5 17.5t-3.5 23.5
q0 20 8.5 38.5t23.5 33t34.5 23t41.5 8.5q43 0 69.5 -26.5t26.5 -63.5q0 -21 -7.5 -36t-15.5 -25q-11 -11 -23 -19q9 -6 16 -16q6 -8 11 -20.5t5 -29.5q0 -23 -9.5 -43t-25 -35t-37 -24t-45.5 -9zM560 57q21 0 35.5 15.5t14.5 32.5q0 16 -11.5 29t-32.5 13t-35.5 -15.5
t-14.5 -32.5q0 -16 11.5 -29t32.5 -13zM582 204q18 0 31 11.5t13 27.5q0 14 -9.5 24.5t-26.5 10.5q-18 0 -30.5 -11.5t-12.5 -27.5q0 -14 9.5 -24.5t25.5 -10.5z" />
    <glyph glyph-name="fiveeighths" unicode="&#x215d;" horiz-adv-x="699" 
d="M683 716h79l-563 -716h-79zM236 375q-26 0 -47.5 8t-37.5 22t-24.5 32.5t-8.5 39.5h72q0 -14 13 -26.5t36 -12.5q27 0 43 16t16 44q0 23 -14 38t-36 15q-23 0 -35.5 -10t-19.5 -24h-57l57 199h188l-12 -63h-130l-13 -52q5 1 11 3q5 2 12.5 3t16.5 1q27 0 46 -9.5t31 -25
t17.5 -35t5.5 -38.5q0 -26 -9 -48.5t-26 -39.5t-41 -27t-54 -10zM565 -6q-27 0 -47.5 8t-35 21.5t-21.5 31t-7 36.5q0 26 9.5 43.5t21.5 28.5q13 12 31 19q-7 6 -12 15q-5 8 -8.5 17.5t-3.5 23.5q0 20 8.5 38.5t23.5 33t34.5 23t41.5 8.5q43 0 69.5 -26.5t26.5 -63.5
q0 -21 -7.5 -36t-15.5 -25q-11 -11 -23 -19q9 -6 16 -16q6 -8 11 -20.5t5 -29.5q0 -23 -9.5 -43t-25 -35t-37 -24t-45.5 -9zM566 57q21 0 35.5 15.5t14.5 32.5q0 16 -11.5 29t-32.5 13t-35.5 -15.5t-14.5 -32.5q0 -16 11.5 -29t32.5 -13zM588 204q18 0 31 11.5t13 27.5
q0 14 -9.5 24.5t-26.5 10.5q-18 0 -30.5 -11.5t-12.5 -27.5q0 -14 9.5 -24.5t25.5 -10.5z" />
    <glyph glyph-name="seveneighths" unicode="&#x215e;" horiz-adv-x="625" 
d="M609 716h79l-563 -716h-79zM305 653h-139l11 63h222l-7 -40l-185 -295h-72zM491 -6q-27 0 -47.5 8t-35 21.5t-21.5 31t-7 36.5q0 26 9.5 43.5t21.5 28.5q13 12 31 19q-7 6 -12 15q-5 8 -8.5 17.5t-3.5 23.5q0 20 8.5 38.5t23.5 33t34.5 23t41.5 8.5q43 0 69.5 -26.5
t26.5 -63.5q0 -21 -7.5 -36t-15.5 -25q-11 -11 -23 -19q9 -6 16 -16q6 -8 11 -20.5t5 -29.5q0 -23 -9.5 -43t-25 -35t-37 -24t-45.5 -9zM492 57q21 0 35.5 15.5t14.5 32.5q0 16 -11.5 29t-32.5 13t-35.5 -15.5t-14.5 -32.5q0 -16 11.5 -29t32.5 -13zM514 204q18 0 31 11.5
t13 27.5q0 14 -9.5 24.5t-26.5 10.5q-18 0 -30.5 -11.5t-12.5 -27.5q0 -14 9.5 -24.5t25.5 -10.5z" />
    <glyph glyph-name="uni215F" unicode="&#x215f;" horiz-adv-x="369" 
d="M620 716h79l-563 -716h-79zM208 631l-44 -23l-25 51l101 57h51l-59 -335h-68z" />
    <glyph glyph-name="arrowleft" unicode="&#x2190;" horiz-adv-x="1136" 
d="M182 352l272 273l69 -68l-154 -154h710v-102h-710l154 -153l-69 -68z" />
    <glyph glyph-name="arrowup" unicode="&#x2191;" horiz-adv-x="1136" 
d="M579 625l-153 -154l-68 69l272 272l273 -272l-68 -69l-153 154v-710h-103v710z" />
    <glyph glyph-name="arrowright" unicode="&#x2192;" horiz-adv-x="1136" 
d="M738 148l154 153h-710v102h710l-154 154l69 68l272 -273l-272 -272z" />
    <glyph glyph-name="arrowdown" unicode="&#x2193;" horiz-adv-x="1136" 
d="M358 187l68 69l153 -154v710h103v-710l153 154l68 -69l-273 -272z" />
    <glyph glyph-name="arrowboth" unicode="&#x2194;" horiz-adv-x="1136" 
d="M182 352l272 273l69 -68l-154 -154h523l-154 154l69 68l272 -273l-272 -272l-69 68l154 153h-523l154 -153l-69 -68z" />
    <glyph glyph-name="arrowupdn" unicode="&#x2195;" horiz-adv-x="1136" 
d="M358 187l68 69l153 -154v523l-153 -154l-68 69l272 272l273 -272l-68 -69l-153 154v-523l153 154l68 -69l-273 -272z" />
    <glyph glyph-name="uni2196" unicode="&#x2196;" horiz-adv-x="1136" 
d="M392 523v-222h-97v386h387v-96h-222l506 -506l-69 -68z" />
    <glyph glyph-name="uni2197" unicode="&#x2197;" horiz-adv-x="1136" 
d="M295 85l506 506h-222v96h387v-386h-97v222l-505 -506z" />
    <glyph glyph-name="uni2198" unicode="&#x2198;" horiz-adv-x="1136" 
d="M579 114h222l-506 505l69 68l505 -505v221h97v-386h-387v97z" />
    <glyph glyph-name="uni2199" unicode="&#x2199;" horiz-adv-x="1136" 
d="M295 403h97v-221l505 505l69 -68l-506 -505h222v-97h-387v386z" />
    <glyph glyph-name="partialdiff" unicode="&#x2202;" horiz-adv-x="613" 
d="M358 -6q-49 0 -90.5 17t-72 47t-47.5 70.5t-17 87.5q0 51 17 94t48 73.5t74 48t94 17.5q38 0 68.5 -8.5t51.5 -19.5q25 -12 44 -28q-6 72 -23 122.5t-42 82.5t-57.5 46.5t-70.5 14.5q-30 0 -57 -7.5t-47 -15.5q-24 -11 -44 -23v74q19 11 43 20q20 8 48 14t63 6
q53 0 99.5 -22t81 -69.5t54.5 -122t20 -178.5q0 -89 -18 -153.5t-50 -106t-75.5 -61.5t-94.5 -20zM358 62q38 0 69.5 13.5t54 44t34.5 79.5t12 119q-17 17 -42 31q-21 12 -51.5 22t-70.5 10q-78 0 -121.5 -44t-43.5 -121q0 -32 12 -60t33.5 -49t50.5 -33t63 -12z" />
    <glyph glyph-name="emptyset" unicode="&#x2205;" horiz-adv-x="900" 
d="M511 -6q-63 0 -119 19.5t-102 54.5l-63 -68h-91l105 114q-44 48 -68.5 110.5t-24.5 133.5q0 75 28.5 141.5t77.5 115.5t115.5 77.5t141.5 28.5q63 0 118.5 -20t102.5 -55l63 70h91l-106 -115q45 -48 70 -110.5t25 -132.5q0 -75 -28.5 -141.5t-78 -116t-116 -78
t-141.5 -28.5zM685 596q-37 27 -81 42t-93 15q-61 0 -115 -23t-94 -63t-63 -94t-23 -115q0 -56 18.5 -105.5t52.5 -88.5zM511 62q61 0 115 23t94.5 63.5t63.5 94t23 115.5q0 56 -19.5 105.5t-52.5 87.5l-399 -432q37 -27 81 -42t94 -15z" />
    <glyph glyph-name="uni2206" unicode="&#x2206;" horiz-adv-x="716" 
d="M358 716h57l267 -716h-591zM585 68l-199 528l-199 -528h398z" />
    <glyph glyph-name="product" unicode="&#x220f;" horiz-adv-x="784" 
d="M199 716h511v-830h-68v762h-375v-762h-68v830z" />
    <glyph glyph-name="summation" unicode="&#x2211;" horiz-adv-x="585" 
d="M131 -57l238 381l-238 335v57h460v-68h-369l232 -324l-232 -369h369v-69h-460v57z" />
    <glyph glyph-name="minus" unicode="&#x2212;" horiz-adv-x="506" 
d="M85 335h438v-91h-438v91z" />
    <glyph glyph-name="radical" unicode="&#x221a;" horiz-adv-x="676" 
d="M222 170h-120v69h165l97 -262l289 841h74l-324 -932h-79z" />
    <glyph glyph-name="infinity" unicode="&#x221e;" horiz-adv-x="875" 
d="M290 148q-36 0 -67.5 13t-54.5 36t-36 54t-13 67t13 67.5t36 54t54.5 35.5t67.5 13q32 0 59 -9.5t51 -26t45.5 -38t42.5 -45.5q21 24 43 45.5t46 38t51 26t59 9.5q36 0 67.5 -13t54.5 -35.5t36 -54t13 -67.5t-13 -67t-36 -54t-54.5 -36t-67.5 -13q-32 0 -59 9.5t-51 26
t-46 38t-43 45.5q-21 -24 -42.5 -45.5t-45.5 -38t-51 -26t-59 -9.5zM290 216q46 0 83.5 29.5t75.5 72.5q-38 43 -75.5 72.5t-83.5 29.5q-21 0 -40 -8t-33 -21.5t-22 -32.5t-8 -40t8 -40t22 -32.5t33 -21.5t40 -8zM687 216q21 0 40 8t33 21.5t22 32.5t8 40t-8 40t-22 32.5
t-33 21.5t-40 8q-23 0 -43.5 -8t-40 -21.5t-38 -32.5t-37.5 -40q19 -21 37.5 -40t38 -32.5t40 -21.5t43.5 -8z" />
    <glyph glyph-name="integral" unicode="&#x222b;" horiz-adv-x="386" 
d="M108 -45h34q38 0 59 20.5t21 58.5v648q0 72 37.5 109.5t109.5 37.5h34v-68h-34q-79 0 -79 -79v-648q0 -72 -37.5 -110t-110.5 -38h-34v69z" />
    <glyph glyph-name="approxequal" unicode="&#x2248;" horiz-adv-x="557" 
d="M443 108q-28 0 -59.5 10.5t-62.5 23.5t-58.5 23.5t-46.5 10.5q-26 0 -41.5 -16.5t-15.5 -45.5h-85q0 77 39 118t103 41q28 0 59.5 -11t62.5 -23.5t58.5 -23.5t46.5 -11q26 0 41.5 16.5t15.5 46.5h85q0 -77 -39 -118t-103 -41zM443 329q-28 0 -59.5 11t-62.5 23.5
t-58.5 23.5t-46.5 11q-26 0 -41.5 -16.5t-15.5 -46.5h-85q0 77 39 118t103 41q28 0 59.5 -10.5t62.5 -23.5t58.5 -23.5t46.5 -10.5q26 0 41.5 16.5t15.5 45.5h85q0 -77 -39 -118t-103 -41z" />
    <glyph glyph-name="notequal" unicode="&#x2260;" horiz-adv-x="511" 
d="M208 136h-111v97h151l46 113h-197v97h235l54 131h97l-55 -131h112v-97h-151l-47 -113h198v-97h-236l-54 -130h-97z" />
    <glyph glyph-name="lessequal" unicode="&#x2264;" horiz-adv-x="517" 
d="M97 97h426v-97h-426v97zM102 335v57l421 187v-102l-279 -113l279 -114v-102z" />
    <glyph glyph-name="greaterequal" unicode="&#x2265;" horiz-adv-x="517" 
d="M97 97h426v-97h-426v97zM97 250l278 114l-278 113v102l420 -187v-57l-420 -187v102z" />
    <glyph glyph-name="uni2318" unicode="&#x2318;" horiz-adv-x="829" 
d="M256 -6q-30 0 -55.5 11t-45 30.5t-30.5 45.5t-11 55q0 30 11 55.5t30.5 45t45 30.5t55.5 11h73v159h-73q-30 0 -55.5 11t-45 30.5t-30.5 45.5t-11 55q0 30 11 55.5t30.5 45t45 30.5t55.5 11q29 0 55 -11t45.5 -30.5t30.5 -45t11 -55.5v-73h159v73q0 30 11 55.5t30.5 45
t45 30.5t55.5 11q29 0 55 -11t45.5 -30.5t30.5 -45t11 -55.5q0 -29 -11 -55t-30.5 -45.5t-45.5 -30.5t-55 -11h-74v-159h74q29 0 55 -11t45.5 -30.5t30.5 -45t11 -55.5q0 -29 -11 -55t-30.5 -45.5t-45.5 -30.5t-55 -11q-30 0 -55.5 11t-45 30.5t-30.5 45.5t-11 55v74h-159
v-74q0 -29 -11 -55t-30.5 -45.5t-45.5 -30.5t-55 -11zM256 62q30 0 51.5 21.5t21.5 52.5v74h-73q-31 0 -52.5 -21.5t-21.5 -52.5t21.5 -52.5t52.5 -21.5zM329 506v73q0 31 -21.5 52.5t-51.5 21.5q-31 0 -52.5 -21.5t-21.5 -52.5t21.5 -52t52.5 -21h73zM699 62q31 0 52 21.5
t21 52.5t-21 52.5t-52 21.5h-74v-74q0 -31 21.5 -52.5t52.5 -21.5zM557 278v159h-159v-159h159zM699 506q31 0 52 21t21 52t-21 52.5t-52 21.5t-52.5 -21.5t-21.5 -52.5v-73h74z" />
    <glyph glyph-name="uni2460" unicode="&#x2460;" horiz-adv-x="1136" 
d="M630 -114q-98 0 -184.5 37.5t-151.5 102t-103 152t-38 186.5q0 98 38 184.5t103 151.5t151.5 103t184.5 38t185 -38t152 -103t103 -151.5t38 -184.5t-38 -185t-103 -152t-152 -103t-185 -38zM630 -11q77 0 145 30t119 81t81 119t30 145t-30 145t-81 119t-119 80.5
t-145 29.5t-145 -30t-119 -81t-80.5 -119t-29.5 -144q0 -77 29.5 -145t80.5 -119t119 -81t145 -30zM602 477l-62 -40l-46 69l125 85h85v-455h-102v341z" />
    <glyph glyph-name="uni2461" unicode="&#x2461;" horiz-adv-x="1136" 
d="M630 -114q-98 0 -184.5 37.5t-151.5 102t-103 152t-38 186.5q0 98 38 184.5t103 151.5t151.5 103t184.5 38t185 -38t152 -103t103 -151.5t38 -184.5t-38 -185t-103 -152t-152 -103t-185 -38zM630 -11q77 0 145 30t119 81t81 119t30 145t-30 145t-81 119t-119 80.5
t-145 29.5t-145 -30t-119 -81t-80.5 -119t-29.5 -144q0 -77 29.5 -145t80.5 -119t119 -81t145 -30zM477 204l165 171q21 21 33 37t12 42q0 22 -15.5 37t-41.5 15t-41.5 -15t-20.5 -37h-97q2 30 14.5 56t33.5 45t49 30t62 11q36 0 65.5 -11t50.5 -29.5t32.5 -43t11.5 -52.5
q0 -26 -4 -44t-11.5 -33t-18 -27.5t-23.5 -26.5l-97 -102h154v-91h-313v68z" />
    <glyph glyph-name="uni2462" unicode="&#x2462;" horiz-adv-x="1136" 
d="M630 -114q-98 0 -184.5 37.5t-151.5 102t-103 152t-38 186.5q0 98 38 184.5t103 151.5t151.5 103t184.5 38t185 -38t152 -103t103 -151.5t38 -184.5t-38 -185t-103 -152t-152 -103t-185 -38zM630 -11q77 0 145 30t119 81t81 119t30 145t-30 145t-81 119t-119 80.5
t-145 29.5t-145 -30t-119 -81t-80.5 -119t-29.5 -144q0 -77 29.5 -145t80.5 -119t119 -81t145 -30zM630 131q-77 0 -119.5 38.5t-50.5 103.5h102q5 -22 22 -36.5t46 -14.5q35 0 52 15t17 41q0 22 -17 36.5t-52 14.5h-45v80h42q29 0 44.5 15t15.5 35q0 18 -15.5 32.5
t-41.5 14.5q-29 0 -43 -12.5t-19 -33.5h-97q2 27 14.5 51.5t33.5 43t49 30t62 11.5q37 0 66.5 -10t50.5 -27t32 -39.5t11 -48.5q0 -28 -11 -46t-24 -29q-15 -13 -34 -21q22 -6 40 -19q15 -11 27.5 -31t12.5 -52q0 -30 -11.5 -56t-33.5 -45t-54 -30t-72 -11z" />
    <glyph glyph-name="uni2463" unicode="&#x2463;" horiz-adv-x="1136" 
d="M630 -114q-98 0 -184.5 37.5t-151.5 102t-103 152t-38 186.5q0 98 38 184.5t103 151.5t151.5 103t184.5 38t185 -38t152 -103t103 -151.5t38 -184.5t-38 -185t-103 -152t-152 -103t-185 -38zM630 -11q77 0 145 30t119 81t81 119t30 145t-30 145t-81 119t-119 80.5
t-145 29.5t-145 -30t-119 -81t-80.5 -119t-29.5 -144q0 -77 29.5 -145t80.5 -119t119 -81t145 -30zM630 227h-198v80l187 284h114v-273h45v-91h-45v-91h-103v91zM630 318v136l-90 -136h90z" />
    <glyph glyph-name="uni2464" unicode="&#x2464;" horiz-adv-x="1136" 
d="M630 -114q-98 0 -184.5 37.5t-151.5 102t-103 152t-38 186.5q0 98 38 184.5t103 151.5t151.5 103t184.5 38t185 -38t152 -103t103 -151.5t38 -184.5t-38 -185t-103 -152t-152 -103t-185 -38zM630 -11q77 0 145 30t119 81t81 119t30 145t-30 145t-81 119t-119 80.5
t-145 29.5t-145 -30t-119 -81t-80.5 -119t-29.5 -144q0 -77 29.5 -145t80.5 -119t119 -81t145 -30zM630 131q-34 0 -62 11t-49.5 29.5t-35 43t-17.5 52.5h102q5 -17 20.5 -31t41.5 -14q30 0 49.5 19t19.5 49q0 26 -19.5 44t-49.5 18q-15 0 -25.5 -4.5t-17.5 -9.5
q-8 -6 -13 -14h-97l34 267h256v-91h-176l-12 -74q8 2 19 5q8 2 19.5 4t24.5 2q34 0 63 -12t50.5 -32.5t33.5 -48.5t12 -60t-12 -60t-34.5 -48.5t-54 -32.5t-70.5 -12z" />
    <glyph glyph-name="uni2465" unicode="&#x2465;" horiz-adv-x="1136" 
d="M630 -114q-98 0 -184.5 37.5t-151.5 102t-103 152t-38 186.5q0 98 38 184.5t103 151.5t151.5 103t184.5 38t185 -38t152 -103t103 -151.5t38 -184.5t-38 -185t-103 -152t-152 -103t-185 -38zM630 -11q77 0 145 30t119 81t81 119t30 145t-30 145t-81 119t-119 80.5
t-145 29.5t-145 -30t-119 -81t-80.5 -119t-29.5 -144q0 -77 29.5 -145t80.5 -119t119 -81t145 -30zM630 131q-36 0 -67 12.5t-54 34.5t-36 51t-13 61q0 23 5 43t12 34q7 17 17 31l131 193h102l-102 -142h5q36 0 67.5 -13t54.5 -34.5t36 -50.5t13 -61t-13 -61t-36 -51
t-54.5 -34.5t-67.5 -12.5zM630 222q30 0 49.5 19t19.5 49q0 29 -19.5 48.5t-49.5 19.5q-29 0 -48.5 -19.5t-19.5 -48.5q0 -30 19.5 -49t48.5 -19z" />
    <glyph glyph-name="uni2466" unicode="&#x2466;" horiz-adv-x="1136" 
d="M630 -114q-98 0 -184.5 37.5t-151.5 102t-103 152t-38 186.5q0 98 38 184.5t103 151.5t151.5 103t184.5 38t185 -38t152 -103t103 -151.5t38 -184.5t-38 -185t-103 -152t-152 -103t-185 -38zM630 -11q77 0 145 30t119 81t81 119t30 145t-30 145t-81 119t-119 80.5
t-145 29.5t-145 -30t-119 -81t-80.5 -119t-29.5 -144q0 -77 29.5 -145t80.5 -119t119 -81t145 -30zM682 500h-194v91h302v-74l-182 -381h-102z" />
    <glyph glyph-name="uni2467" unicode="&#x2467;" horiz-adv-x="1136" 
d="M630 -114q-98 0 -184.5 37.5t-151.5 102t-103 152t-38 186.5q0 98 38 184.5t103 151.5t151.5 103t184.5 38t185 -38t152 -103t103 -151.5t38 -184.5t-38 -185t-103 -152t-152 -103t-185 -38zM630 -11q77 0 145 30t119 81t81 119t30 145t-30 145t-81 119t-119 80.5
t-145 29.5t-145 -30t-119 -81t-80.5 -119t-29.5 -144q0 -77 29.5 -145t80.5 -119t119 -81t145 -30zM630 131q-40 0 -71.5 11t-53.5 29.5t-33.5 43t-11.5 52.5q0 29 12.5 50t27.5 34q18 15 40 24q-18 8 -32 22q-12 11 -21.5 29.5t-9.5 44.5t10.5 48.5t30 39.5t48 27t64.5 10
t65 -10t48.5 -27t30 -39.5t10.5 -48.5t-10 -44.5t-22 -29.5q-14 -14 -31 -22q22 -9 40 -24q15 -13 27.5 -34t12.5 -50q0 -28 -11.5 -52.5t-33.5 -43t-54 -29.5t-72 -11zM630 216q30 0 49.5 15.5t19.5 41.5t-19.5 41t-49.5 15q-29 0 -48.5 -15t-19.5 -41t19.5 -41.5
t48.5 -15.5zM630 420q22 0 37 12t15 34q0 21 -15 33t-37 12q-21 0 -36 -12t-15 -33q0 -22 15 -34t36 -12z" />
    <glyph glyph-name="uni2468" unicode="&#x2468;" horiz-adv-x="1136" 
d="M630 -114q-98 0 -184.5 38t-151.5 103t-103 152t-38 185t38 184.5t103 151.5t151.5 103t184.5 38t185 -37.5t152 -102t103 -151.5t38 -186q0 -98 -38 -185t-103 -152t-152 -103t-185 -38zM630 -11q77 0 145 30t119 81t81 119t30 145q0 76 -30 144t-81 119t-119 81
t-145 30t-145 -30t-119 -81t-80.5 -119t-29.5 -144q0 -77 29.5 -145.5t80.5 -119.5t119 -80.5t145 -29.5zM636 278h-6q-36 0 -67 13t-54 34.5t-36 50.5t-13 61t13 61t36 50.5t54 34.5t67 13t67.5 -13t54.5 -34.5t36 -50.5t13 -61q0 -23 -5.5 -43t-11.5 -34q-8 -17 -17 -31
l-131 -193h-102zM630 369q30 0 49.5 19.5t19.5 48.5q0 30 -19.5 49.5t-49.5 19.5q-29 0 -48.5 -19.5t-19.5 -49.5q0 -29 19.5 -48.5t48.5 -19.5z" />
    <glyph glyph-name="uni2469" unicode="&#x2469;" horiz-adv-x="1136" 
d="M630 -114q-98 0 -184.5 37.5t-151.5 102t-103 152t-38 186.5q0 98 38 184.5t103 151.5t151.5 103t184.5 38t185 -38t152 -103t103 -151.5t38 -184.5t-38 -185t-103 -152t-152 -103t-185 -38zM630 -11q77 0 145 30t119 81t81 119t30 145t-30 145t-81 119t-119 80.5
t-145 29.5t-145 -30t-119 -81t-80.5 -119t-29.5 -144q0 -77 29.5 -145t80.5 -119t119 -81t145 -30zM426 477l-62 -40l-46 69l125 85h85v-455h-102v341zM755 131q-40 0 -75 15.5t-61.5 45.5t-41.5 73t-15 99q0 55 15 98t41.5 73t61.5 45.5t75 15.5t75.5 -15.5t62 -45.5
t41.5 -73t15 -98q0 -56 -15 -99t-41.5 -73t-62 -45.5t-75.5 -15.5zM755 222q39 0 65 32.5t26 109.5t-26 109.5t-65 32.5q-38 0 -64 -32.5t-26 -109.5t26 -109.5t64 -32.5z" />
    <glyph glyph-name="uni24EA" unicode="&#x24ea;" horiz-adv-x="1136" 
d="M630 -114q-98 0 -184.5 37.5t-151.5 102t-103 152t-38 186.5q0 98 38 184.5t103 151.5t151.5 103t184.5 38t185 -38t152 -103t103 -151.5t38 -184.5t-38 -185t-103 -152t-152 -103t-185 -38zM630 -11q77 0 145 30t119 81t81 119t30 145t-30 145t-81 119t-119 80.5
t-145 29.5t-145 -30t-119 -81t-80.5 -119t-29.5 -144q0 -77 29.5 -145t80.5 -119t119 -81t145 -30zM630 131q-40 0 -75 15.5t-61.5 45.5t-41.5 73t-15 99q0 55 15 98t41.5 73t61.5 45.5t75 15.5t75.5 -15.5t62 -45.5t41.5 -73t15 -98q0 -56 -15 -99t-41.5 -73t-62 -45.5
t-75.5 -15.5zM630 222q39 0 65 32.5t26 109.5t-26 109.5t-65 32.5q-38 0 -64 -32.5t-26 -109.5t26 -109.5t64 -32.5z" />
    <glyph glyph-name="uni24FF" unicode="&#x24ff;" horiz-adv-x="1136" 
d="M630 -114q-98 0 -184.5 37.5t-151.5 102t-103 152t-38 186.5q0 98 38 184.5t103 151.5t151.5 103t184.5 38t185 -38t152 -103t103 -151.5t38 -184.5t-38 -185t-103 -152t-152 -103t-185 -38zM630 131q40 0 75.5 15.5t62 45.5t41.5 73t15 99q0 55 -15 98t-41.5 73
t-62 45.5t-75.5 15.5t-75 -15.5t-61.5 -45.5t-41.5 -73t-15 -98q0 -56 15 -99t41.5 -73t61.5 -45.5t75 -15.5zM630 222q-38 0 -64 32.5t-26 109.5t26 109.5t64 32.5q39 0 65 -32.5t26 -109.5t-26 -109.5t-65 -32.5z" />
    <glyph glyph-name="lozenge" unicode="&#x25ca;" horiz-adv-x="648" 
d="M114 358l227 358h68l227 -358l-227 -358h-68zM557 358l-182 284l-182 -284l182 -284z" />
    <glyph glyph-name="uni2776" unicode="&#x2776;" horiz-adv-x="1136" 
d="M630 -114q-98 0 -184.5 37.5t-151.5 102t-103 152t-38 186.5q0 98 38 184.5t103 151.5t151.5 103t184.5 38t185 -38t152 -103t103 -151.5t38 -184.5t-38 -185t-103 -152t-152 -103t-185 -38zM704 136v455h-85l-125 -85l46 -69l62 40v-341h102z" />
    <glyph glyph-name="uni2777" unicode="&#x2777;" horiz-adv-x="1136" 
d="M630 -114q-98 0 -184.5 37.5t-151.5 102t-103 152t-38 186.5q0 98 38 184.5t103 151.5t151.5 103t184.5 38t185 -38t152 -103t103 -151.5t38 -184.5t-38 -185t-103 -152t-152 -103t-185 -38zM790 136v91h-154l97 102q13 14 23.5 26.5t18 27.5t11.5 33t4 44
q0 28 -11.5 52.5t-32.5 43t-50.5 29.5t-65.5 11q-34 0 -62 -11t-49 -30t-33.5 -45t-14.5 -56h97q5 22 20.5 37t41.5 15t41.5 -15t15.5 -37q0 -26 -12 -42t-33 -37l-165 -171v-68h313z" />
    <glyph glyph-name="uni2778" unicode="&#x2778;" horiz-adv-x="1136" 
d="M630 -114q-98 0 -184.5 37.5t-151.5 102t-103 152t-38 186.5q0 98 38 184.5t103 151.5t151.5 103t184.5 38t185 -38t152 -103t103 -151.5t38 -184.5t-38 -185t-103 -152t-152 -103t-185 -38zM630 131q40 0 72 11t54 30t33.5 45t11.5 56q0 32 -12.5 52t-27.5 31
q-18 13 -40 19q19 8 34 21q13 11 24 29t11 46q0 26 -11 48.5t-32 39.5t-50.5 27t-66.5 10q-34 0 -62 -11.5t-49 -30t-33.5 -43t-14.5 -51.5h97q5 21 19 33.5t43 12.5q26 0 41.5 -14.5t15.5 -32.5q0 -20 -15.5 -35t-44.5 -15h-42v-80h45q35 0 52 -14.5t17 -36.5
q0 -26 -17 -41t-52 -15q-29 0 -46 14.5t-22 36.5h-102q8 -65 50.5 -103.5t119.5 -38.5z" />
    <glyph glyph-name="uni2779" unicode="&#x2779;" horiz-adv-x="1136" 
d="M630 -114q-98 0 -184.5 37.5t-151.5 102t-103 152t-38 186.5q0 98 38 184.5t103 151.5t151.5 103t184.5 38t185 -38t152 -103t103 -151.5t38 -184.5t-38 -185t-103 -152t-152 -103t-185 -38zM733 136v91h45v91h-45v273h-114l-187 -284v-80h198v-91h103zM630 454v-136h-90
z" />
    <glyph glyph-name="uni277A" unicode="&#x277a;" horiz-adv-x="1136" 
d="M630 -114q-98 0 -184.5 37.5t-151.5 102t-103 152t-38 186.5q0 98 38 184.5t103 151.5t151.5 103t184.5 38t185 -38t152 -103t103 -151.5t38 -184.5t-38 -185t-103 -152t-152 -103t-185 -38zM630 131q39 0 70.5 12t54 32.5t34.5 48.5t12 60t-12 60t-33.5 48.5t-50.5 32.5
t-63 12q-13 0 -24.5 -2t-19.5 -4q-11 -3 -19 -5l12 74h176v91h-256l-34 -267h97q5 8 13 14q7 5 17.5 9.5t25.5 4.5q30 0 49.5 -18t19.5 -44q0 -30 -19.5 -49t-49.5 -19q-26 0 -41.5 14t-20.5 31h-102q4 -28 17.5 -52.5t35 -43t49.5 -29.5t62 -11z" />
    <glyph glyph-name="uni277B" unicode="&#x277b;" horiz-adv-x="1136" 
d="M630 -114q-98 0 -184.5 37.5t-151.5 102t-103 152t-38 186.5q0 98 38 184.5t103 151.5t151.5 103t184.5 38t185 -38t152 -103t103 -151.5t38 -184.5t-38 -185t-103 -152t-152 -103t-185 -38zM630 131q36 0 67.5 12.5t54.5 34.5t36 51t13 61t-13 61t-36 50.5t-54.5 34.5
t-67.5 13h-5l102 142h-102l-131 -193q-10 -14 -17 -31q-7 -14 -12 -34t-5 -43q0 -32 13 -61t36 -51t54 -34.5t67 -12.5zM630 222q-29 0 -48.5 19t-19.5 49q0 29 19.5 48.5t48.5 19.5q30 0 49.5 -19.5t19.5 -48.5q0 -30 -19.5 -49t-49.5 -19z" />
    <glyph glyph-name="uni277C" unicode="&#x277c;" horiz-adv-x="1136" 
d="M630 -114q-98 0 -184.5 37.5t-151.5 102t-103 152t-38 186.5q0 98 38 184.5t103 151.5t151.5 103t184.5 38t185 -38t152 -103t103 -151.5t38 -184.5t-38 -185t-103 -152t-152 -103t-185 -38zM608 136l182 381v74h-302v-91h194l-176 -364h102z" />
    <glyph glyph-name="uni277D" unicode="&#x277d;" horiz-adv-x="1136" 
d="M630 -114q-98 0 -184.5 37.5t-151.5 102t-103 152t-38 186.5q0 98 38 184.5t103 151.5t151.5 103t184.5 38t185 -38t152 -103t103 -151.5t38 -184.5t-38 -185t-103 -152t-152 -103t-185 -38zM630 131q40 0 72 11t54 29.5t33.5 43t11.5 52.5q0 29 -12.5 50t-27.5 34
q-18 15 -40 24q17 8 31 22q12 11 22 29.5t10 44.5t-10.5 48.5t-30 39.5t-48.5 27t-65 10t-64.5 -10t-48 -27t-30 -39.5t-10.5 -48.5t9.5 -44.5t21.5 -29.5q14 -14 32 -22q-22 -9 -40 -24q-15 -13 -27.5 -34t-12.5 -50q0 -28 11.5 -52.5t33.5 -43t53.5 -29.5t71.5 -11z
M630 216q-29 0 -48.5 15.5t-19.5 41.5t19.5 41t48.5 15q30 0 49.5 -15t19.5 -41t-19.5 -41.5t-49.5 -15.5zM630 420q-21 0 -36 12t-15 34q0 21 15 33t36 12q22 0 37 -12t15 -33q0 -22 -15 -34t-37 -12z" />
    <glyph glyph-name="uni277E" unicode="&#x277e;" horiz-adv-x="1136" 
d="M630 -114q-98 0 -184.5 38t-151.5 103t-103 152t-38 185t38 184.5t103 151.5t151.5 103t184.5 38t185 -37.5t152 -102t103 -151.5t38 -186q0 -98 -38 -185t-103 -152t-152 -103t-185 -38zM636 136l131 193q9 14 17 31q6 14 11.5 34t5.5 43q0 32 -13 61t-36 50.5
t-54.5 34.5t-67.5 13t-67 -13t-54 -34.5t-36 -50.5t-13 -61t13 -61t36 -50.5t54 -34.5t67 -13h6l-102 -142h102zM630 369q-29 0 -48.5 19.5t-19.5 48.5q0 30 19.5 49.5t48.5 19.5q30 0 49.5 -19.5t19.5 -49.5q0 -29 -19.5 -48.5t-49.5 -19.5z" />
    <glyph glyph-name="uni277F" unicode="&#x277f;" horiz-adv-x="1136" 
d="M630 -114q-98 0 -184.5 37.5t-151.5 102t-103 152t-38 186.5q0 98 38 184.5t103 151.5t151.5 103t184.5 38t185 -38t152 -103t103 -151.5t38 -184.5t-38 -185t-103 -152t-152 -103t-185 -38zM528 136v455h-85l-125 -85l46 -69l62 40v-341h102zM755 131q40 0 75.5 15.5
t62 45.5t41.5 73t15 99q0 55 -15 98t-41.5 73t-62 45.5t-75.5 15.5t-75 -15.5t-61.5 -45.5t-41.5 -73t-15 -98q0 -56 15 -99t41.5 -73t61.5 -45.5t75 -15.5zM755 222q-38 0 -64 32.5t-26 109.5t26 109.5t64 32.5q39 0 65 -32.5t26 -109.5t-26 -109.5t-65 -32.5z" />
    <glyph glyph-name="uni2E18" unicode="&#x2e18;" horiz-adv-x="466" 
d="M216 -187q-43 0 -79 13.5t-61.5 38t-39.5 57.5t-14 72q0 43 14 72.5t36 51.5t48 40t50.5 39t44 48t27.5 67l3 17h103l-59 -394q23 15 39.5 41.5t21.5 64.5l2 16h101l-3 -23q-8 -53 -30.5 -94t-54 -69.5t-70 -43t-79.5 -14.5zM214 116q-18 -12 -34.5 -23.5t-28.5 -24
t-19.5 -28.5t-7.5 -38q0 -54 50 -76zM312 392q-25 0 -40.5 16.5t-15.5 40.5q0 28 20 48t48 20q25 0 41 -16.5t16 -40.5q0 -28 -20.5 -48t-48.5 -20z" />
    <glyph glyph-name="commaaccent" unicode="&#xf6c3;" horiz-adv-x="193" 
d="M3 -268q13 7 25 18q11 9 21 21.5t18 29.5q-26 3 -41.5 18.5t-15.5 38.5q0 28 20.5 48t47.5 20q26 0 41.5 -17t15.5 -40q0 -33 -15.5 -61.5t-35.5 -49.5t-39.5 -34t-27.5 -16z" />
    <glyph glyph-name="zero.osf" unicode="&#xf730;" horiz-adv-x="613" 
d="M329 -6q-54 0 -98 18.5t-75.5 50.5t-49 75t-17.5 93q0 61 23.5 113.5t63 90.5t91 60t107.5 22q54 0 98 -18t76 -50t49.5 -75t17.5 -93q0 -62 -23.5 -114.5t-63 -90.5t-91.5 -60t-108 -22zM337 91q33 0 63.5 13.5t54 38t38 58.5t14.5 75q0 32 -11 58.5t-29.5 45.5
t-44.5 29.5t-56 10.5q-33 0 -63.5 -13.5t-54 -38.5t-37.5 -59t-14 -75q0 -32 10.5 -58.5t29.5 -45t44.5 -29t55.5 -10.5z" />
    <glyph glyph-name="one.osf" unicode="&#xf731;" horiz-adv-x="358" 
d="M234 364l-107 -63l-36 85l203 125h74l-90 -511h-108z" />
    <glyph glyph-name="two.osf" unicode="&#xf732;" horiz-adv-x="523" 
d="M62 68l255 158q19 12 37 23.5t31.5 25t21.5 29.5t8 36q0 34 -26 57t-71 23q-34 0 -64.5 -25.5t-43.5 -65.5h-108q11 39 31.5 73t49 59.5t64.5 40.5t78 15q45 0 81.5 -13t62.5 -36t40.5 -53.5t14.5 -66.5q0 -28 -8 -50.5t-23.5 -42t-38.5 -38.5t-53 -40l-110 -75h199
l-19 -102h-420z" />
    <glyph glyph-name="three.osf" unicode="&#xf733;" horiz-adv-x="534" 
d="M247 -187q-53 0 -94.5 16t-71 43.5t-46.5 63.5t-21 75h110q5 -42 39 -72t90 -30q69 0 108 38t39 97q0 24 -8.5 45t-24 36.5t-37.5 24.5t-48 9q-13 0 -24.5 -2t-19.5 -4q-10 -3 -18 -5l-42 51l201 210h-251l19 102h414l-12 -68l-197 -198q34 -7 62.5 -24.5t49 -42t32 -55
t11.5 -63.5q0 -57 -20.5 -102.5t-55.5 -77.5t-82.5 -49.5t-101.5 -17.5z" />
    <glyph glyph-name="four.osf" unicode="&#xf734;" horiz-adv-x="551" 
d="M341 0h-318l16 91l375 420h124l-71 -409h79l-18 -102h-79l-32 -182h-108zM359 102l48 273l-241 -273h193z" />
    <glyph glyph-name="five.osf" unicode="&#xf735;" 
d="M274 -187q-54 0 -96 16.5t-71.5 44t-44.5 63.5t-15 74h109q0 -19 8.5 -37.5t24.5 -32.5t39 -23t51 -9q30 0 58.5 10.5t50 29.5t35 46.5t13.5 61.5q0 57 -36.5 91t-93.5 34q-34 0 -60 -13.5t-43 -29.5q-20 -18 -35 -42h-88l118 414h380l-18 -102h-288l-45 -159q12 8 29 14
q14 5 33.5 9.5t43.5 4.5q46 0 85 -17.5t67 -47.5t43.5 -69t15.5 -82q0 -56 -22 -102t-59 -78.5t-86 -50.5t-103 -18z" />
    <glyph glyph-name="six.osf" unicode="&#xf736;" 
d="M308 -6q-56 0 -99 18.5t-72.5 49.5t-45 71.5t-15.5 83.5q0 35 11 67.5t27 60.5t34 50.5t33 39.5l246 281h119l-202 -239h5q2 0 6.5 0.5t11.5 0.5q43 0 81.5 -16.5t67 -45.5t45 -68.5t16.5 -86.5q0 -56 -22 -104.5t-58.5 -84.5t-85.5 -57t-103 -21zM314 91q30 0 58 12
t50 34t35 52t13 65q0 28 -9.5 52t-27 42t-41.5 28t-52 10q-30 0 -58.5 -12.5t-50.5 -34t-35 -51.5t-13 -65q0 -28 9.5 -52t27 -42t41.5 -28t53 -10z" />
    <glyph glyph-name="seven.osf" unicode="&#xf737;" horiz-adv-x="506" 
d="M426 409h-319l18 102h449l-14 -74l-387 -619h-120z" />
    <glyph glyph-name="eight.osf" unicode="&#xf738;" horiz-adv-x="557" 
d="M310 -6q-58 0 -102 16.5t-74 44.5t-45.5 63t-15.5 73q0 57 22.5 96t49.5 62q32 27 73 43q-17 14 -30 32q-11 16 -20.5 39.5t-9.5 55.5q0 40 18 77t49 64.5t72.5 44t87.5 16.5t84 -15t65 -39.5t41.5 -57.5t14.5 -69q0 -44 -18 -74t-39 -49q-26 -22 -57 -36q24 -15 43 -37
q16 -19 29.5 -49t13.5 -72q0 -47 -18.5 -88.5t-51.5 -72.5t-79.5 -49.5t-102.5 -18.5zM314 91q62 0 102 35.5t40 92.5q0 47 -34.5 78.5t-98.5 31.5q-63 0 -102.5 -35.5t-39.5 -92.5q0 -46 34 -78t99 -32zM367 426q25 0 46 8.5t36 23.5t23.5 34t8.5 40q0 38 -28 65.5
t-75 27.5q-25 0 -45.5 -8.5t-35.5 -23.5t-23.5 -34t-8.5 -40q0 -38 27 -65.5t75 -27.5z" />
    <glyph glyph-name="nine.osf" unicode="&#xf739;" 
d="M315 34q-2 -1 -5 -1h-18q-44 0 -82 16.5t-66.5 45.5t-45 68.5t-16.5 86.5q0 56 22 104.5t58.5 84.5t85.5 57t103 21q55 0 98.5 -18.5t73 -49.5t45 -71.5t15.5 -83.5q0 -35 -11 -67.5t-27 -60.5t-34 -51t-33 -39l-227 -258h-119zM319 125q30 0 58.5 12.5t50.5 34t35 51.5
t13 66q0 28 -10 52t-27 41.5t-41.5 27.5t-52.5 10q-30 0 -58 -12.5t-50 -34t-35 -51.5t-13 -65q0 -28 9.5 -52t27 -42t41 -28t52.5 -10z" />
    <glyph glyph-name="s_t" unicode="&#xfb06;" horiz-adv-x="824" 
d="M260 -6q-48 0 -83.5 13t-58.5 35.5t-34.5 54t-11.5 68.5h103q0 -36 21.5 -55.5t70.5 -19.5q41 0 63 18t22 44q0 19 -17.5 31.5t-43.5 22.5t-56.5 20t-56.5 26t-43.5 39.5t-17.5 59.5q0 34 13.5 64.5t37.5 53t57 35.5t73 13q25 0 44 -4q-2 5 -3.5 18t-1.5 27
q0 38 16.5 75.5t47 67t73.5 48t96 18.5q45 0 80.5 -14.5t59.5 -39t37 -56.5t13 -67q0 -5 -1.5 -17.5t-3.5 -26.5q-3 -16 -5 -35h113l-17 -96h-113l-41 -240q-1 -5 -1 -14q0 -29 20 -49.5t52 -20.5h10.5t9.5 1q4 0 9 1l-16 -92l-12 -4q-12 -3 -31 -3q-34 0 -61 11.5t-46 31.5
t-29 47.5t-10 60.5q0 20 4 39l39 231h-90l17 96h39q32 0 54.5 18.5t22.5 49.5q0 18 -6.5 35.5t-19.5 31t-33.5 22t-48.5 8.5q-27 0 -51 -10t-42.5 -28.5t-29 -44t-10.5 -55.5q0 -29 7.5 -47.5t16 -36t16 -39t7.5 -57.5h-102q0 24 -20 43t-64 19q-37 0 -57.5 -17.5
t-20.5 -40.5q0 -19 17.5 -31t43.5 -22t57 -20t57 -25.5t43.5 -39.5t17.5 -60q0 -37 -14 -68t-39 -53.5t-60.5 -35.5t-77.5 -13z" />
    <glyph glyph-name="c_t" horiz-adv-x="909" 
d="M307 -6q-49 0 -89.5 17t-70 48t-46 72.5t-16.5 91.5q0 65 23 119t61 93t86.5 60.5t100.5 21.5q13 0 24 -1.5t20 -3.5q10 -2 19 -4q-1 5 -2 12q-1 6 -1.5 14t-0.5 18q0 42 17 81t48 69t74 47.5t94 17.5q45 0 81 -13t61.5 -36.5t39.5 -56t14 -71.5q0 -5 -0.5 -10
t-1.5 -13.5t-3 -21.5t-5 -34h113l-17 -96h-113l-41 -240q-1 -5 -1 -8.5v-7.5q0 -29 20 -48.5t52 -19.5h10.5t9.5 1q4 0 9 1l-16 -92l-12 -4q-12 -3 -31 -3q-34 0 -61 11.5t-46 31.5t-29 47.5t-10 60.5q0 10 1 19t3 20l40 231h-92l17 96h40q30 0 53.5 20.5t23.5 51.5
q0 39 -28 66t-80 27q-30 0 -56 -10.5t-44.5 -29.5t-29 -45.5t-10.5 -57.5q0 -34 8.5 -54.5t19.5 -40t21.5 -44.5t15.5 -70h-105q-13 45 -44 70.5t-73 25.5q-29 0 -58.5 -13.5t-53.5 -37.5t-39 -58t-15 -76q0 -32 10.5 -58.5t28 -45.5t40.5 -29.5t49 -10.5q23 0 44 8t39.5 21
t33 30.5t23.5 36.5h103q-35 -95 -101.5 -144t-148.5 -49z" />
    <glyph glyph-name="f_b" horiz-adv-x="909" 
d="M649 -6q-43 0 -72 10.5t-48 24.5q-22 15 -35 35l-40 -64h-73l106 608q-11 8 -23 14q-11 5 -26 9.5t-32 4.5q-58 0 -87 -31t-40 -82l-2 -12h114l-17 -96h-114l-73 -415h-102l73 415h-63l17 96h63l2 12q9 45 28.5 82.5t49.5 64.5t70 42t89 15q20 0 37 -3t29 -6q14 -4 26 -8
h102l-43 -243q15 14 34 25q17 9 40.5 17t53.5 8q53 0 94.5 -19t70.5 -50.5t44 -72.5t15 -86q0 -66 -22.5 -120t-60 -93t-86 -60.5t-99.5 -21.5zM649 91q30 0 60 13.5t53.5 38t38 58.5t14.5 75q0 31 -10 57t-28 45.5t-42 30.5t-52 11q-31 0 -60.5 -13.5t-53 -38t-38 -58.5
t-14.5 -75q0 -31 10 -57t28 -45.5t42 -30.5t52 -11z" />
    <glyph glyph-name="f_f_b" horiz-adv-x="1198" 
d="M938 -6q-42 0 -71.5 10.5t-47.5 24.5q-22 15 -35 35l-40 -64h-74l107 608q-11 8 -23 14q-11 5 -26 9.5t-33 4.5q-57 0 -86 -31t-40 -82l-2 -12h113l-17 -96h-113l-73 -415h-102l73 415h-188l-73 -415h-102l73 415h-63l17 96h63l4 25q7 38 23.5 68t39 51t51 32.5
t59.5 11.5q17 0 29.5 -2.5t21.5 -5.5q11 -4 18 -8l-15 -89q-6 2 -13 4q-6 2 -13 3t-15 1q-31 0 -54.5 -21.5t-29.5 -52.5l-4 -17h188l2 12q9 45 28.5 82.5t49.5 64.5t70 42t88 15q20 0 37.5 -3t29.5 -6q14 -4 25 -8h102l-43 -243q15 14 34 25q17 9 41 17t54 8q53 0 94.5 -19
t70 -50.5t43.5 -72.5t15 -86q0 -66 -22.5 -120t-60 -93t-85.5 -60.5t-100 -21.5zM938 91q31 0 60.5 13.5t53 38t38 58.5t14.5 75q0 31 -10 57t-28 45.5t-42 30.5t-52 11q-30 0 -60 -13.5t-53 -38t-37.5 -58.5t-14.5 -75q0 -31 10 -57t27.5 -45.5t41.5 -30.5t52 -11z" />
    <glyph glyph-name="f_f_h" horiz-adv-x="1181" 
d="M158 415h-63l17 96h63l4 25q7 38 23.5 68t39 51t51 32.5t59.5 11.5q17 0 29.5 -3t21.5 -6q11 -4 18 -8l-15 -90q-6 2 -13 4q-6 2 -13 3t-15 1q-31 0 -54.5 -20.5t-29.5 -51.5l-4 -17h188l2 12q9 45 28.5 82.5t49.5 64.5t70 42t88 15q20 0 37.5 -3t29.5 -6q14 -4 25 -8
h102l-45 -252q17 16 38 29q18 11 42.5 20.5t55.5 9.5q48 0 83 -17t57 -44.5t32.5 -63t10.5 -71.5q0 -22 -3 -44l-49 -277h-102l50 285q1 5 1.5 11t0.5 11q0 23 -7.5 43.5t-22 36t-34.5 24.5t-44 9t-46.5 -9t-41 -24t-31 -36t-16.5 -45l-54 -306h-102l107 608q-11 8 -23 14
q-11 5 -26 9.5t-33 4.5q-57 0 -86 -31t-40 -82l-2 -12h113l-17 -96h-113l-73 -415h-102l73 415h-188l-73 -415h-102z" />
    <glyph glyph-name="f_f_k" horiz-adv-x="1085" 
d="M158 415h-63l17 96h63l4 25q7 38 23.5 68t39 51t51 32.5t59.5 11.5q17 0 29.5 -2.5t21.5 -5.5q11 -4 18 -8l-15 -89q-6 2 -13 4q-6 2 -13 3t-15 1q-31 0 -54.5 -21.5t-29.5 -52.5l-4 -17h188l2 12q9 45 28.5 82.5t49.5 64.5t70 42t88 15q20 0 37.5 -3t29.5 -6
q14 -4 25 -8h102l-75 -420l208 221h126l-243 -249l182 -262h-113l-167 244l-44 -244h-102l108 608q-11 8 -23 14q-11 5 -26 9.5t-33 4.5q-57 0 -86 -31t-40 -82l-2 -12h113l-17 -96h-113l-73 -415h-102l73 415h-188l-73 -415h-102z" />
    <glyph glyph-name="f_h" horiz-adv-x="892" 
d="M158 415h-63l17 96h63l2 12q9 45 28.5 82.5t49.5 64.5t70 42t89 15q20 0 37 -3t29 -6q14 -4 26 -8h102l-46 -252q17 16 38 29q18 11 43 20.5t56 9.5q48 0 82.5 -17t57 -44.5t33 -63t10.5 -71.5q0 -11 -1 -22t-3 -22l-49 -277h-102l50 285q1 5 1.5 11t0.5 11
q0 23 -7.5 43.5t-22 36t-34.5 24.5t-44 9t-46 -9t-40.5 -24t-31.5 -36t-17 -45l-53 -306h-102l106 608q-11 8 -23 14q-11 5 -26 9.5t-32 4.5q-58 0 -87 -31t-40 -82l-2 -12h114l-17 -96h-114l-73 -415h-102z" />
    <glyph glyph-name="f_k" horiz-adv-x="795" 
d="M158 415h-63l17 96h63l2 12q9 45 28.5 82.5t49.5 64.5t70 42t89 15q20 0 37 -3t29 -6q14 -4 26 -8h102l-75 -420l208 221h126l-243 -249l181 -262h-113l-167 244l-43 -244h-103l108 608q-11 8 -23 14q-11 5 -26 9.5t-32 4.5q-58 0 -87 -31t-40 -82l-2 -12h114l-17 -96
h-114l-73 -415h-102z" />
    <glyph glyph-name="f_t" horiz-adv-x="653" 
d="M560 -6q-34 0 -61 11.5t-45.5 31.5t-28.5 47.5t-10 60.5q0 18 3 39l41 231h-199l-73 -415h-102l73 415h-63l17 96h64l8 46q6 38 22 68.5t39 51.5t51.5 32.5t59.5 11.5q16 0 29 -2.5t22 -5.5q11 -4 19 -8l-16 -89q-7 2 -13 4t-12.5 3.5t-14.5 1.5q-31 0 -55 -21t-30 -53
l-7 -40h147q31 0 53 17t28 51l12 69h84l-24 -137h114l-17 -96h-114l-42 -240q-1 -5 -1 -8.5v-7.5q0 -29 20.5 -48.5t52.5 -19.5h10t9 1q4 0 9 1l-16 -92l-12 -4q-12 -3 -31 -3z" />
    <glyph glyph-name="r_f" horiz-adv-x="602" 
d="M158 511h74l13 -51q12 14 31 25q16 10 41.5 18t60.5 8h76l8 46q6 38 22 68.5t39 51.5t51.5 32.5t59.5 11.5q16 0 29 -2.5t22 -5.5q11 -4 19 -8l-16 -89l-12 4q-5 2 -12.5 3.5t-14.5 1.5q-31 0 -55.5 -21t-30.5 -53l-6 -40h112l-17 -96h-114l-72 -415h-102l72 415h-68
q-55 0 -95.5 -34t-50.5 -91l-52 -290h-102z" />
    <glyph glyph-name="r_t" horiz-adv-x="630" 
d="M524 -6q-60 0 -96 36t-36 101q0 19 3 39l41 245h-68q-54 0 -95 -33.5t-51 -91.5l-52 -290h-102l90 511h74l13 -51q11 14 29 25q16 10 41 18t63 8h24q35 0 55.5 19.5t25.5 48.5l12 69h85l-24 -137h113l-17 -96h-114l-40 -245q-2 -4 -2 -7.5v-6.5q0 -29 19 -47t48 -18
q13 0 24 3q6 1 12 3l-16 -91q-8 -3 -17 -6q-8 -2 -18.5 -4t-23.5 -2z" />
    <glyph glyph-name="I.alt" horiz-adv-x="403" 
d="M52 102h114l90 511h-114l18 103h335l-18 -103h-113l-90 -511h113l-18 -102h-335z" />
    <glyph glyph-name="a.alt" horiz-adv-x="596" 
d="M304 -6q-53 0 -94 19t-70 50.5t-44 73t-15 86.5q0 66 22.5 120t60 92.5t85.5 60t100 21.5q42 0 71 -11t48 -24q21 -15 35 -34l41 63h74l-90 -511h-74l-13 51q-16 -17 -37 -29q-18 -11 -43.5 -19.5t-56.5 -8.5zM315 91q30 0 60 13.5t53.5 38t38 58.5t14.5 75q0 31 -10 57
t-28 45.5t-42 30.5t-52 11q-31 0 -60.5 -13.5t-53 -38t-38 -58.5t-14.5 -75q0 -31 10 -57t28 -45.5t42 -30.5t52 -11z" />
    <glyph glyph-name="l.alt" horiz-adv-x="301" 
d="M245 -6q-34 0 -60.5 11.5t-44.5 32t-27.5 47.5t-9.5 59q0 10 1 19.5t3 20.5l94 532h102l-95 -541q-1 -5 -1 -14q0 -29 19.5 -49.5t51.5 -20.5h10.5t10.5 1t9 2l-16 -93q-6 -2 -13 -4q-12 -3 -34 -3z" />
    <glyph glyph-name="y.alt" horiz-adv-x="585" 
d="M277 -193q-84 0 -141.5 43.5t-74.5 121.5h103q9 -31 38 -50t79 -19q52 0 88 28.5t48 79.5l12 55q-2 -2 -12 -11t-26.5 -19t-40 -17.5t-52.5 -7.5q-50 0 -85.5 17t-58.5 44.5t-34 62.5t-11 72q0 21 3 44l46 260h102l-46 -268q-3 -12 -3 -23q0 -23 7.5 -43t22 -35.5
t34.5 -24.5t44 -9t46.5 9t40.5 24.5t30.5 36.5t16.5 45l51 288h103l-90 -509q-8 -44 -28.5 -79.5t-52 -61.5t-72 -40t-87.5 -14z" />
    <glyph glyph-name="Igrave.alt" horiz-adv-x="403" 
d="M52 102h114l90 511h-114l18 103h335l-18 -103h-113l-90 -511h113l-18 -102h-335zM209 904h97l68 -137h-68z" />
    <glyph glyph-name="Iacute.alt" horiz-adv-x="403" 
d="M52 102h114l90 511h-114l18 103h335l-18 -103h-113l-90 -511h113l-18 -102h-335zM390 904h97l-121 -137h-68z" />
    <glyph glyph-name="Icircumflex.alt" horiz-adv-x="403" 
d="M52 102h114l90 511h-114l18 103h335l-18 -103h-113l-90 -511h113l-18 -102h-335zM312 904h91l79 -136h-86l-43 79l-70 -79h-97z" />
    <glyph glyph-name="Idieresis.alt" horiz-adv-x="403" 
d="M52 102h114l90 511h-114l18 103h335l-18 -103h-113l-90 -511h113l-18 -102h-335zM240 779q-24 0 -40 16.5t-16 40.5q0 28 20 48t48 20q25 0 41 -16.5t16 -40.5q0 -29 -20.5 -48.5t-48.5 -19.5zM437 779q-25 0 -41 16.5t-16 40.5q0 28 20.5 48t47.5 20q25 0 41 -16.5
t16 -40.5q0 -29 -20.5 -48.5t-47.5 -19.5z" />
    <glyph glyph-name="agrave.alt" horiz-adv-x="596" 
d="M304 -6q-53 0 -94 19t-70 50.5t-44 73t-15 86.5q0 66 22.5 120t60 92.5t85.5 60t100 21.5q42 0 71 -11t48 -24q21 -15 35 -34l41 63h74l-90 -511h-74l-13 51q-16 -17 -37 -29q-18 -11 -43.5 -19.5t-56.5 -8.5zM315 91q30 0 60 13.5t53.5 38t38 58.5t14.5 75q0 31 -10 57
t-28 45.5t-42 30.5t-52 11q-31 0 -60.5 -13.5t-53 -38t-38 -58.5t-14.5 -75q0 -31 10 -57t28 -45.5t42 -30.5t52 -11zM252 727h97l68 -137h-68z" />
    <glyph glyph-name="aacute.alt" horiz-adv-x="596" 
d="M304 -6q-53 0 -94 19t-70 50.5t-44 73t-15 86.5q0 66 22.5 120t60 92.5t85.5 60t100 21.5q42 0 71 -11t48 -24q21 -15 35 -34l41 63h74l-90 -511h-74l-13 51q-16 -17 -37 -29q-18 -11 -43.5 -19.5t-56.5 -8.5zM315 91q30 0 60 13.5t53.5 38t38 58.5t14.5 75q0 31 -10 57
t-28 45.5t-42 30.5t-52 11q-31 0 -60.5 -13.5t-53 -38t-38 -58.5t-14.5 -75q0 -31 10 -57t28 -45.5t42 -30.5t52 -11zM435 727h97l-121 -137h-68z" />
    <glyph glyph-name="acircumflex.alt" horiz-adv-x="596" 
d="M304 -6q-53 0 -94 19t-70 50.5t-44 73t-15 86.5q0 66 22.5 120t60 92.5t85.5 60t100 21.5q42 0 71 -11t48 -24q21 -15 35 -34l41 63h74l-90 -511h-74l-13 51q-16 -17 -37 -29q-18 -11 -43.5 -19.5t-56.5 -8.5zM315 91q30 0 60 13.5t53.5 38t38 58.5t14.5 75q0 31 -10 57
t-28 45.5t-42 30.5t-52 11q-31 0 -60.5 -13.5t-53 -38t-38 -58.5t-14.5 -75q0 -31 10 -57t28 -45.5t42 -30.5t52 -11zM372 727h91l79 -136h-86l-43 79l-70 -79h-97z" />
    <glyph glyph-name="atilde.alt" horiz-adv-x="596" 
d="M304 -6q-53 0 -94 19t-70 50.5t-44 73t-15 86.5q0 66 22.5 120t60 92.5t85.5 60t100 21.5q42 0 71 -11t48 -24q21 -15 35 -34l41 63h74l-90 -511h-74l-13 51q-16 -17 -37 -29q-18 -11 -43.5 -19.5t-56.5 -8.5zM315 91q30 0 60 13.5t53.5 38t38 58.5t14.5 75q0 31 -10 57
t-28 45.5t-42 30.5t-52 11q-31 0 -60.5 -13.5t-53 -38t-38 -58.5t-14.5 -75q0 -31 10 -57t28 -45.5t42 -30.5t52 -11zM453 574q-24 0 -40 10.5t-28.5 23t-23.5 23t-26 10.5q-17 0 -31.5 -16t-19.5 -46h-59q12 69 44 103t74 34q24 0 39.5 -10.5t28 -23t24 -23t26.5 -10.5
q17 0 31.5 15.5t19.5 45.5h59q-12 -69 -44 -102.5t-74 -33.5z" />
    <glyph glyph-name="adieresis.alt" horiz-adv-x="596" 
d="M304 -6q-53 0 -94 19t-70 50.5t-44 73t-15 86.5q0 66 22.5 120t60 92.5t85.5 60t100 21.5q42 0 71 -11t48 -24q21 -15 35 -34l41 63h74l-90 -511h-74l-13 51q-16 -17 -37 -29q-18 -11 -43.5 -19.5t-56.5 -8.5zM315 91q30 0 60 13.5t53.5 38t38 58.5t14.5 75q0 31 -10 57
t-28 45.5t-42 30.5t-52 11q-31 0 -60.5 -13.5t-53 -38t-38 -58.5t-14.5 -75q0 -31 10 -57t28 -45.5t42 -30.5t52 -11zM289 591q-24 0 -40 16.5t-16 40.5q0 28 20 48t48 20q25 0 41 -16.5t16 -40.5q0 -29 -20.5 -48.5t-48.5 -19.5zM486 591q-25 0 -41 16.5t-16 40.5
q0 28 20.5 48t47.5 20q25 0 41 -16.5t16 -40.5q0 -29 -20.5 -48.5t-47.5 -19.5z" />
    <glyph glyph-name="aring.alt" horiz-adv-x="596" 
d="M304 -6q-53 0 -94 19t-70 50.5t-44 73t-15 86.5q0 66 22.5 120t60 92.5t85.5 60t100 21.5q42 0 71 -11t48 -24q21 -15 35 -34l41 63h74l-90 -511h-74l-13 51q-16 -17 -37 -29q-18 -11 -43.5 -19.5t-56.5 -8.5zM315 91q30 0 60 13.5t53.5 38t38 58.5t14.5 75q0 31 -10 57
t-28 45.5t-42 30.5t-52 11q-31 0 -60.5 -13.5t-53 -38t-38 -58.5t-14.5 -75q0 -31 10 -57t28 -45.5t42 -30.5t52 -11zM382 568q-42 0 -65.5 26.5t-23.5 61.5q0 21 8.5 40t23 33.5t33.5 23t41 8.5q41 0 64.5 -26.5t23.5 -60.5q0 -21 -8.5 -40t-22.5 -34t-33.5 -23.5
t-40.5 -8.5zM386 619q17 0 31.5 15.5t14.5 33.5q0 17 -10.5 29.5t-27.5 12.5t-31 -15.5t-14 -33.5q0 -16 10 -29t27 -13z" />
    <glyph glyph-name="yacute.alt" horiz-adv-x="585" 
d="M277 -193q-84 0 -141.5 43.5t-74.5 121.5h103q9 -31 38 -50t79 -19q52 0 88 28.5t48 79.5l12 55q-2 -2 -12 -11t-26.5 -19t-40 -17.5t-52.5 -7.5q-50 0 -85.5 17t-58.5 44.5t-34 62.5t-11 72q0 21 3 44l46 260h102l-46 -268q-3 -12 -3 -23q0 -23 7.5 -43t22 -35.5
t34.5 -24.5t44 -9t46.5 9t40.5 24.5t30.5 36.5t16.5 45l51 288h103l-90 -509q-8 -44 -28.5 -79.5t-52 -61.5t-72 -40t-87.5 -14zM440 727h97l-121 -137h-68z" />
    <glyph glyph-name="ydieresis.alt" horiz-adv-x="585" 
d="M277 -193q-84 0 -141.5 43.5t-74.5 121.5h103q9 -31 38 -50t79 -19q52 0 88 28.5t48 79.5l12 55q-2 -2 -12 -11t-26.5 -19t-40 -17.5t-52.5 -7.5q-50 0 -85.5 17t-58.5 44.5t-34 62.5t-11 72q0 21 3 44l46 260h102l-46 -268q-3 -12 -3 -23q0 -23 7.5 -43t22 -35.5
t34.5 -24.5t44 -9t46.5 9t40.5 24.5t30.5 36.5t16.5 45l51 288h103l-90 -509q-8 -44 -28.5 -79.5t-52 -61.5t-72 -40t-87.5 -14zM295 591q-24 0 -40 16.5t-16 40.5q0 28 20 48t48 20q25 0 41 -16.5t16 -40.5q0 -29 -20.5 -48.5t-48.5 -19.5zM492 591q-25 0 -41 16.5
t-16 40.5q0 28 20.5 48t47.5 20q25 0 41 -16.5t16 -40.5q0 -29 -20.5 -48.5t-47.5 -19.5z" />
    <glyph glyph-name="amacron.alt" horiz-adv-x="596" 
d="M304 -6q-53 0 -94 19t-70 50.5t-44 73t-15 86.5q0 66 22.5 120t60 92.5t85.5 60t100 21.5q42 0 71 -11t48 -24q21 -15 35 -34l41 63h74l-90 -511h-74l-13 51q-16 -17 -37 -29q-18 -11 -43.5 -19.5t-56.5 -8.5zM315 91q30 0 60 13.5t53.5 38t38 58.5t14.5 75q0 31 -10 57
t-28 45.5t-42 30.5t-52 11q-31 0 -60.5 -13.5t-53 -38t-38 -58.5t-14.5 -75q0 -31 10 -57t28 -45.5t42 -30.5t52 -11zM254 676h284l-12 -74h-284z" />
    <glyph glyph-name="abreve.alt" horiz-adv-x="596" 
d="M304 -6q-53 0 -94 19t-70 50.5t-44 73t-15 86.5q0 66 22.5 120t60 92.5t85.5 60t100 21.5q42 0 71 -11t48 -24q21 -15 35 -34l41 63h74l-90 -511h-74l-13 51q-16 -17 -37 -29q-18 -11 -43.5 -19.5t-56.5 -8.5zM315 91q30 0 60 13.5t53.5 38t38 58.5t14.5 75q0 31 -10 57
t-28 45.5t-42 30.5t-52 11q-31 0 -60.5 -13.5t-53 -38t-38 -58.5t-14.5 -75q0 -31 10 -57t28 -45.5t42 -30.5t52 -11zM393 585q-34 0 -59.5 11.5t-42.5 30.5t-25.5 42.5t-8.5 46.5h80q2 -17 9 -29q6 -11 18 -19.5t35 -8.5q26 0 45 18.5t28 38.5h85q-9 -26 -24.5 -50
t-36.5 -42t-47 -28.5t-56 -10.5z" />
    <glyph glyph-name="aogonek.alt" horiz-adv-x="596" 
d="M502 -202q-55 0 -83 24.5t-28 63.5q0 25 9.5 46t21.5 36q14 18 32 32l-13 51q-16 -17 -37 -29q-18 -11 -43.5 -19.5t-56.5 -8.5q-53 0 -94 19t-70 50.5t-44 73t-15 86.5q0 66 22.5 120t60 92.5t85.5 60t100 21.5q42 0 71 -11t48 -24q21 -15 35 -34l41 63h74l-90 -511h-11
q-16 -14 -28 -31q-11 -14 -19.5 -32t-8.5 -36q0 -22 14 -34t37 -12h14.5t11.5 1q6 0 12 1l-10 -57q-5 -1 -11 -1q-5 -1 -12 -1h-15zM315 91q30 0 60 13.5t53.5 38t38 58.5t14.5 75q0 31 -10 57t-28 45.5t-42 30.5t-52 11q-31 0 -60.5 -13.5t-53 -38t-38 -58.5t-14.5 -75
q0 -31 10 -57t28 -45.5t42 -30.5t52 -11z" />
    <glyph glyph-name="uni0128.alt" horiz-adv-x="404" 
d="M52 102h114l90 511h-114l18 103h335l-18 -103h-113l-90 -511h113l-18 -102h-335zM399 762q-24 0 -40 10.5t-28.5 23t-23.5 23t-26 10.5q-17 0 -31.5 -16t-19.5 -46h-59q12 69 44 103t74 34q24 0 39.5 -10.5t28 -23t24 -23t26.5 -10.5q17 0 31.5 15.5t19.5 45.5h59
q-12 -69 -44 -102.5t-74 -33.5z" />
    <glyph glyph-name="Imacron.alt" horiz-adv-x="403" 
d="M52 102h114l90 511h-114l18 103h335l-18 -103h-113l-90 -511h113l-18 -102h-335zM205 881h284l-12 -74h-284z" />
    <glyph glyph-name="Ibreve.alt" horiz-adv-x="403" 
d="M52 102h114l90 511h-114l18 103h335l-18 -103h-113l-90 -511h113l-18 -102h-335zM337 773q-34 0 -59.5 11.5t-42.5 30.5t-25.5 42.5t-8.5 46.5h80q2 -17 9 -29q6 -11 18 -19.5t35 -8.5q26 0 45 18.5t28 38.5h85q-9 -26 -24.5 -50t-36.5 -42t-47 -28.5t-56 -10.5z" />
    <glyph glyph-name="Iogonek.alt" horiz-adv-x="403" 
d="M354 -202q-54 0 -82.5 24.5t-28.5 63.5q0 25 10 46t22 36q14 18 32 32h-273l18 102h114l90 511h-114l18 103h335l-18 -103h-113l-90 -511h113l-18 -102q-16 -14 -28 -31q-11 -14 -19 -32t-8 -36q0 -22 14 -34t37 -12h14t12 1q6 0 11 1l-10 -57q-5 -1 -11 -1q-5 -1 -12 -1
h-15z" />
    <glyph glyph-name="Idotaccent.alt" horiz-adv-x="403" 
d="M52 102h114l90 511h-114l18 103h335l-18 -103h-113l-90 -511h113l-18 -102h-335zM338 779q-25 0 -41 16.5t-16 40.5q0 28 20.5 48t47.5 20q25 0 41 -16.5t16 -40.5q0 -29 -20.5 -48.5t-47.5 -19.5z" />
    <glyph glyph-name="lacute.alt" horiz-adv-x="301" 
d="M245 -6q-34 0 -60.5 11.5t-44.5 32t-27.5 47.5t-9.5 59q0 10 1 19.5t3 20.5l94 532h102l-95 -541q-1 -5 -1 -14q0 -29 19.5 -49.5t51.5 -20.5h10.5t10.5 1t9 2l-16 -93q-6 -2 -13 -4q-12 -3 -34 -3zM322 904h97l-121 -137h-68z" />
    <glyph glyph-name="lcommaaccent.alt" horiz-adv-x="301" 
d="M245 -6q-34 0 -60.5 11.5t-44.5 32t-27.5 47.5t-9.5 59q0 10 1 19.5t3 20.5l94 532h102l-95 -541q-1 -5 -1 -14q0 -29 19.5 -49.5t51.5 -20.5h10.5t10.5 1t9 2l-16 -93q-6 -2 -13 -4q-12 -3 -34 -3zM100 -268q13 7 25 18q11 9 21 21.5t18 29.5q-26 3 -41.5 18.5
t-15.5 38.5q0 28 20.5 48t47.5 20q26 0 41.5 -17t15.5 -40q0 -33 -15.5 -61.5t-35.5 -49.5t-39.5 -34t-27.5 -16z" />
    <glyph glyph-name="lcaron.alt" horiz-adv-x="335" 
d="M404 716h91l-92 -137h-62zM245 -6q-34 0 -60.5 11.5t-44.5 32t-27.5 47.5t-9.5 59q0 10 1 19.5t3 20.5l94 532h102l-95 -541q-1 -5 -1 -14q0 -29 19.5 -49.5t51.5 -20.5h10.5t10.5 1t9 2l-16 -93q-6 -2 -13 -4q-12 -3 -34 -3z" />
    <glyph glyph-name="ldot.alt" horiz-adv-x="398" 
d="M245 -6q-34 0 -60.5 11.5t-44.5 32t-27.5 47.5t-9.5 59q0 10 1 19.5t3 20.5l94 532h102l-95 -541q-1 -5 -1 -14q0 -29 19.5 -49.5t51.5 -20.5h10.5t10.5 1t9 2l-16 -93q-6 -2 -13 -4q-12 -3 -34 -3zM381 296q-25 0 -41 16.5t-16 40.5q0 28 20.5 48t47.5 20q25 0 41 -16.5
t16 -40.5q0 -29 -20.5 -48.5t-47.5 -19.5z" />
    <glyph glyph-name="lslash.alt" horiz-adv-x="329" 
d="M262 -6q-34 0 -60.5 11.5t-44.5 32t-27.5 47.5t-9.5 59q0 10 1 19.5t3 20.5l17 100l-88 -51l17 96l88 52l60 335h102l-47 -270l101 60l-17 -97l-101 -59l-31 -175q-1 -5 -1 -14q0 -29 19.5 -50.5t51.5 -21.5h10.5t10.5 1t9 2l-16 -91q-6 -2 -13 -4q-12 -3 -34 -3z" />
    <glyph glyph-name="ycircumflex.alt" horiz-adv-x="585" 
d="M277 -193q-84 0 -141.5 43.5t-74.5 121.5h103q9 -31 38 -50t79 -19q52 0 88 28.5t48 79.5l12 55q-2 -2 -12 -11t-26.5 -19t-40 -17.5t-52.5 -7.5q-50 0 -85.5 17t-58.5 44.5t-34 62.5t-11 72q0 21 3 44l46 260h102l-46 -268q-3 -12 -3 -23q0 -23 7.5 -43t22 -35.5
t34.5 -24.5t44 -9t46.5 9t40.5 24.5t30.5 36.5t16.5 45l51 288h103l-90 -509q-8 -44 -28.5 -79.5t-52 -61.5t-72 -40t-87.5 -14zM361 727h91l79 -136h-86l-43 79l-70 -79h-97z" />
    <glyph glyph-name="aringacute.alt" horiz-adv-x="596" 
d="M462 886h97l-121 -137h-68zM378 539q-42 0 -65.5 26.5t-23.5 61.5q0 21 8.5 40t23 33.5t33.5 23t41 8.5q41 0 64.5 -26.5t23.5 -60.5q0 -21 -8.5 -40t-22.5 -34t-33.5 -23.5t-40.5 -8.5zM382 590q17 0 31.5 15.5t14.5 33.5q0 17 -10.5 29.5t-27.5 12.5t-31 -15.5
t-14 -33.5q0 -16 10 -29t27 -13zM304 -6q-53 0 -94 19t-70 50.5t-44 73t-15 86.5q0 66 22.5 120t60 92.5t85.5 60t100 21.5q42 0 71 -11t48 -24q21 -15 35 -34l41 63h74l-90 -511h-74l-13 51q-16 -17 -37 -29q-18 -11 -43.5 -19.5t-56.5 -8.5zM315 91q30 0 60 13.5t53.5 38
t38 58.5t14.5 75q0 31 -10 57t-28 45.5t-42 30.5t-52 11q-31 0 -60.5 -13.5t-53 -38t-38 -58.5t-14.5 -75q0 -31 10 -57t28 -45.5t42 -30.5t52 -11z" />
    </font>
</defs>
</svg>
