<svg xmlns="http://www.w3.org/2000/svg">
<defs>
<font id="TTCommonsVidMob-Italic" horiz-adv-x="557" >
  <font-face 
    font-family="TT Commons VidMob"
    font-weight="400"
    font-style="italic"
    font-stretch="normal"
    units-per-em="1000"
    panose-1="2 0 5 3 4 0 0 9 0 4"
    ascent="800"
    descent="-200"
    x-height="511"
    cap-height="716"
    bbox="-364 -325 1438 904"
    underline-thickness="73"
    underline-position="-142"
    slope="-10"
    unicode-range="U+000D-FB06"
  />
<missing-glyph horiz-adv-x="900" 
d="M100 284h45v-139h33v139h50v31h-128v126l19 -61h23l34 106l33 -106h23l54 170h-32l-34 -110l-35 110h-19l-35 -110l-31 103v157h700v-150h-110v-170h110v-91q-13 27 -50 27q-29 0 -44.5 -14.5t-15.5 -34.5q0 -22 13.5 -32t30 -15t30.5 -9.5t14 -16.5q0 -14 -9.5 -17.5
t-18.5 -3.5q-15 0 -21.5 7.5t-6.5 17.5h-33q0 -24 16.5 -39.5t44.5 -15.5q20 0 32.5 7.5t17.5 12.5v-163h-700v284zM328 143q38 0 60 25t22 61q0 37 -22.5 62t-59.5 25t-59.5 -25t-22.5 -62q0 -36 22 -61t60 -25zM328 174q-23 0 -37 16t-14 39q0 24 13.5 40t37.5 16
t37.5 -16t13.5 -40q0 -23 -14 -39t-37 -16zM344 380v62h24l35 -62h37l-40 67q36 16 36 50q0 21 -15.5 37t-41.5 16h-68v-170h33zM344 519h35q10 0 17 -6t7 -17q0 -13 -8 -18t-16 -5h-35v46zM585 143q29 0 48 18.5t19 47.5v106h-32v-106q0 -15 -9 -25t-26 -10q-18 0 -27 11
t-9 24v106h-32v-106q0 -29 19.5 -47.5t48.5 -18.5zM502 380v170h-33v-170h33zM612 380v139h50v31h-132v-31h50v-139h32zM800 224q-11 10 -24 14.5t-24.5 8.5t-19.5 8t-8 12q0 9 7.5 14.5t18.5 5.5q10 0 18 -6.5t8 -18.5h24v-38zM722 452h78v-41h-78v41zM722 519h78v-36h-78
v36z" />
    <glyph glyph-name="ff" unicode="ff" horiz-adv-x="602" 
d="M167 432h-62l13 79h63l5 31q7 37 23 66t38 49.5t48.5 31t54.5 10.5q32 0 46 -8.5t14 -7.5l-11 -74q-5 2 -11 4q-5 2 -12.5 3t-15.5 1q-34 0 -58 -21.5t-32 -61.5l-4 -23h205l10 54q6 36 21.5 64.5t38 49t49 31.5t54.5 11q32 0 46 -8.5t14 -7.5l-11 -73q-5 2 -11 4
q-5 2 -12.5 3t-15.5 1q-34 0 -58 -21.5t-31 -61.5l-8 -46h112l-14 -79h-113l-76 -432h-85l76 432h-205l-76 -432h-85z" />
    <glyph glyph-name="uniFB01" unicode="fi" horiz-adv-x="540" 
d="M167 432h-62l13 79h63l10 52q6 36 22 65t38 49.5t49 31.5t54 11q32 0 46.5 -8.5t14.5 -7.5l-12 -70q-5 2 -11 4q-5 2 -12 3t-15 1q-35 0 -59 -21.5t-31 -61.5l-8 -48h289l-90 -511h-85l75 432h-204l-76 -432h-85zM528 602q-23 0 -36.5 15t-13.5 35q0 25 16.5 41.5
t40.5 16.5q23 0 36.5 -15t13.5 -35q0 -25 -16.5 -41.5t-40.5 -16.5z" />
    <glyph glyph-name="uniFB02" unicode="fl" horiz-adv-x="551" 
d="M167 432h-62l13 79h63l4 23q8 41 28 76t50 61t69 41t84 15q20 0 37.5 -3t30.5 -6q15 -4 27 -8h85l-125 -710h-85l110 625q-12 6 -26 11q-12 5 -29 8.5t-38 3.5q-32 0 -54.5 -8.5t-38.5 -23.5t-25.5 -36t-14.5 -46l-4 -23h113l-13 -79h-114l-76 -432h-85z" />
    <glyph glyph-name="ffi" unicode="ffi" horiz-adv-x="829" 
d="M167 432h-62l13 79h63l5 31q7 37 23 66t38 49.5t48.5 31t54.5 10.5q32 0 46 -8.5t14 -7.5l-11 -74q-5 2 -11 4q-5 2 -12.5 3t-15.5 1q-34 0 -58 -21.5t-32 -61.5l-4 -23h205l10 54q6 36 21.5 64.5t38 49t49 31.5t54.5 11q32 0 46 -8.5t14 -7.5l-11 -73q-5 2 -11 4
q-5 2 -12.5 3t-15.5 1q-34 0 -58 -21.5t-31 -61.5l-8 -46h288l-90 -511h-85l75 432h-203l-76 -432h-85l76 432h-205l-76 -432h-85zM818 602q-23 0 -36.5 15t-13.5 35q0 25 16.5 41.5t40.5 16.5q23 0 36.5 -15t13.5 -35q0 -25 -16.5 -41.5t-40.5 -16.5z" />
    <glyph glyph-name="ffl" unicode="ffl" horiz-adv-x="841" 
d="M167 432h-62l13 79h63l5 31q7 37 23 66t38 49.5t48.5 31t54.5 10.5q32 0 46 -8.5t14 -7.5l-11 -74q-5 2 -11 4q-5 2 -12.5 3t-15.5 1q-34 0 -58 -21.5t-32 -61.5l-4 -23h204l5 23q8 41 28 76t50 61t68.5 41t83.5 15q20 0 38 -3t31 -6q15 -4 27 -8h85l-125 -710h-85
l110 625q-12 6 -26 11q-12 5 -29 8.5t-38 3.5q-32 0 -54.5 -8.5t-38.5 -23.5t-25.5 -36t-14.5 -46l-4 -23h113l-14 -79h-113l-76 -432h-85l76 432h-205l-76 -432h-85z" />
    <glyph glyph-name="f_f_j" unicode="ffj" horiz-adv-x="829" 
d="M586 -187q-14 0 -25 2.5t-19 5.5q-9 4 -16 9l12 72q5 -3 10 -5q10 -5 27 -5q34 0 59 23.5t33 65.5l79 451h-204l-76 -432h-85l76 432h-205l-76 -432h-85l76 432h-62l13 79h63l5 31q7 37 23 66t38 49.5t48.5 31t54.5 10.5q32 0 46 -8.5t14 -7.5l-11 -74q-5 2 -11 4
q-5 2 -12.5 3t-15.5 1q-34 0 -58 -21.5t-32 -61.5l-4 -23h205l10 54q6 36 21.5 64.5t38 49t49 31.5t54.5 11q32 0 46 -8.5t14 -7.5l-11 -73q-5 2 -11 4q-5 2 -12.5 3t-15.5 1q-34 0 -58 -21.5t-31 -61.5l-8 -46h288l-95 -541q-6 -36 -22 -65.5t-38 -49.5t-49 -31t-55 -11z
M818 602q-23 0 -36.5 15t-13.5 35q0 25 16.5 41.5t40.5 16.5q23 0 36.5 -15t13.5 -35q0 -25 -16.5 -41.5t-40.5 -16.5z" />
    <glyph glyph-name="f_j" unicode="fj" horiz-adv-x="540" 
d="M296 -187q-14 0 -25 2.5t-19 5.5q-9 4 -16 9l13 72q4 -3 9 -5q10 -5 27 -5q35 0 59.5 23.5t32.5 65.5l79 451h-204l-76 -432h-85l76 432h-62l13 79h63l10 52q6 36 22 65t38 49.5t49 31.5t54 11q32 0 46.5 -8.5t14.5 -7.5l-12 -70q-5 2 -11 4q-5 2 -12 3t-15 1
q-35 0 -59 -21.5t-31 -61.5l-8 -48h289l-96 -541q-6 -36 -22 -65.5t-38 -49.5t-49 -31t-55 -11zM528 602q-23 0 -36.5 15t-13.5 35q0 25 16.5 41.5t40.5 16.5q23 0 36.5 -15t13.5 -35q0 -25 -16.5 -41.5t-40.5 -16.5z" />
    <glyph glyph-name=".notdef" horiz-adv-x="900" 
d="M100 284h45v-139h33v139h50v31h-128v126l19 -61h23l34 106l33 -106h23l54 170h-32l-34 -110l-35 110h-19l-35 -110l-31 103v157h700v-150h-110v-170h110v-91q-13 27 -50 27q-29 0 -44.5 -14.5t-15.5 -34.5q0 -22 13.5 -32t30 -15t30.5 -9.5t14 -16.5q0 -14 -9.5 -17.5
t-18.5 -3.5q-15 0 -21.5 7.5t-6.5 17.5h-33q0 -24 16.5 -39.5t44.5 -15.5q20 0 32.5 7.5t17.5 12.5v-163h-700v284zM328 143q38 0 60 25t22 61q0 37 -22.5 62t-59.5 25t-59.5 -25t-22.5 -62q0 -36 22 -61t60 -25zM328 174q-23 0 -37 16t-14 39q0 24 13.5 40t37.5 16
t37.5 -16t13.5 -40q0 -23 -14 -39t-37 -16zM344 380v62h24l35 -62h37l-40 67q36 16 36 50q0 21 -15.5 37t-41.5 16h-68v-170h33zM344 519h35q10 0 17 -6t7 -17q0 -13 -8 -18t-16 -5h-35v46zM585 143q29 0 48 18.5t19 47.5v106h-32v-106q0 -15 -9 -25t-26 -10q-18 0 -27 11
t-9 24v106h-32v-106q0 -29 19.5 -47.5t48.5 -18.5zM502 380v170h-33v-170h33zM612 380v139h50v31h-132v-31h50v-139h32zM800 224q-11 10 -24 14.5t-24.5 8.5t-19.5 8t-8 12q0 9 7.5 14.5t18.5 5.5q10 0 18 -6.5t8 -18.5h24v-38zM722 452h78v-41h-78v41zM722 519h78v-36h-78
v36z" />
    <glyph glyph-name=".null" horiz-adv-x="0" 
 />
    <glyph glyph-name=".null" horiz-adv-x="0" 
 />
    <glyph glyph-name="nonmarkingreturn" unicode="&#xd;" horiz-adv-x="0" 
 />
    <glyph glyph-name="space" unicode=" " horiz-adv-x="244" 
 />
    <glyph glyph-name="exclam" unicode="!" horiz-adv-x="295" 
d="M152 -6q-26 0 -39.5 13.5t-13.5 35.5q0 29 17 47t43 18t39.5 -13t13.5 -36q0 -29 -17 -47t-43 -18zM217 716h114l-120 -546h-68z" />
    <glyph glyph-name="quotedbl" unicode="&#x22;" horiz-adv-x="346" 
d="M183 716h79l-37 -210h-80zM336 716h80l-38 -210h-79z" />
    <glyph glyph-name="numbersign" unicode="#" horiz-adv-x="682" 
d="M195 204h-136l30 69h130l64 170h-136l29 68h131l75 205h68l-75 -205h170l75 205h68l-75 -205h137l-30 -68h-130l-64 -170h136l-29 -69h-131l-76 -204h-68l76 204h-170l-77 -204h-68zM458 273l63 170h-170l-64 -170h171z" />
    <glyph glyph-name="dollar" unicode="$" horiz-adv-x="562" 
d="M243 1q-80 18 -121.5 74.5t-41.5 134.5h89q0 -65 37.5 -100.5t110.5 -35.5q34 0 60.5 9.5t45.5 25.5t29 38t10 47q0 36 -24 59.5t-59.5 41.5t-77 35t-77 40t-59.5 55.5t-24 83.5q0 50 20.5 88.5t53.5 65t73.5 41t81.5 16.5l19 98h79l-19 -106q66 -20 105.5 -74t39.5 -132
h-90q0 27 -9.5 51.5t-26.5 43.5t-40.5 30t-50.5 11q-35 0 -62 -10.5t-45.5 -28t-28 -39.5t-9.5 -44q0 -36 24 -59t59.5 -41t77.5 -35t77.5 -40t59.5 -56t24 -83q0 -40 -16 -77.5t-46 -67t-73 -47.5t-98 -20l-15 -96h-80z" />
    <glyph glyph-name="percent" unicode="%" horiz-adv-x="682" 
d="M653 716h65l-564 -716h-64zM526 0q-29 0 -53 10t-41 27.5t-27 40.5t-10 50q0 33 12.5 61.5t34 50t49 33.5t57.5 12q28 0 52 -10t41.5 -27.5t27 -40.5t9.5 -50q0 -33 -12.5 -61.5t-33.5 -50t-48.5 -33.5t-57.5 -12zM526 51q18 0 35.5 7.5t31.5 21t22.5 32t8.5 39.5
q0 33 -22 58t-54 25q-18 0 -35.5 -8t-31.5 -21.5t-22.5 -31.5t-8.5 -39q0 -33 22 -58t54 -25zM260 431q-29 0 -52.5 10t-41 27t-27 40.5t-9.5 50.5q0 33 12.5 61.5t33.5 49.5t48.5 33.5t57.5 12.5q28 0 52 -10t41.5 -27.5t27 -41t9.5 -50.5q0 -33 -12.5 -61.5t-33.5 -49.5
t-48.5 -33t-57.5 -12zM260 482q18 0 35.5 7.5t31.5 21t22.5 32t8.5 39.5q0 33 -22 58t-54 25q-18 0 -35.5 -8t-31.5 -21.5t-22.5 -31.5t-8.5 -39q0 -34 22 -58.5t54 -24.5z" />
    <glyph glyph-name="ampersand" unicode="&#x26;" horiz-adv-x="602" 
d="M254 -5q-42 0 -74.5 12.5t-55.5 33.5t-35 49.5t-12 60.5q0 52 25 93t56 69q35 33 81 57l-40 62q-11 13 -19 29q-7 14 -12.5 33t-5.5 43q0 34 15.5 66.5t41 57.5t59 40t70.5 15q33 0 60.5 -12t47.5 -32.5t31.5 -47.5t11.5 -58q0 -36 -15.5 -65.5t-34.5 -51.5t-34.5 -34
t-16.5 -13l-53 -42l117 -145l90 114h97l-140 -172l127 -157h-101l-77 95q-27 -28 -60 -50q-28 -19 -65 -34.5t-79 -15.5zM260 69q29 0 56.5 13t48.5 29q25 18 47 42l-127 156l-18.5 -10t-41.5 -29.5t-42 -47.5t-19 -63q0 -38 27 -64t69 -26zM356 452q-1 0 8.5 7.5t21.5 21.5
t22 34t10 45q0 31 -20.5 53.5t-58.5 22.5q-41 0 -69 -27.5t-28 -65.5q0 -17 4.5 -32.5t10.5 -26.5q6 -14 15 -25l31 -43z" />
    <glyph glyph-name="quotesingle" unicode="'" horiz-adv-x="193" 
d="M183 716h79l-37 -210h-80z" />
    <glyph glyph-name="parenleft" unicode="(" horiz-adv-x="301" 
d="M182 -222q-25 45 -43 101q-16 48 -29 113.5t-13 144.5q0 66 10.5 126.5t28 115t40 102t46.5 86.5q55 92 126 166l48 -47q-62 -74 -110 -160q-21 -37 -40.5 -80.5t-35 -92t-25 -101t-9.5 -107.5q0 -69 10.5 -129t23.5 -105q15 -53 34 -98l-62 -35v0z" />
    <glyph glyph-name="parenright" unicode=")" horiz-adv-x="301" 
d="M-5 -175q62 73 110 160q21 37 40.5 80.5t35.5 92t25.5 101t9.5 107.5q0 69 -10.5 129.5t-23.5 105.5q-15 53 -34 98l62 34q24 -46 42 -101q16 -48 29.5 -113.5t13.5 -144.5q0 -66 -11 -126.5t-28.5 -115t-40 -102t-46.5 -86.5q-55 -92 -125 -166z" />
    <glyph glyph-name="asterisk" unicode="*" horiz-adv-x="375" 
d="M153 443l80 97l-119 28l22 62l108 -39l-5 125h68l-6 -125l108 39l23 -62l-120 -28l80 -97l-63 -40l-56 104l-57 -104z" />
    <glyph glyph-name="plus" unicode="+" horiz-adv-x="500" 
d="M261 256h-176v73h176v188h80v-188h176v-73h-176v-188h-80v188z" />
    <glyph glyph-name="comma" unicode="," horiz-adv-x="193" 
d="M35 -86q14 9 25 21q10 11 20 25.5t15 33.5q-22 2 -34.5 15.5t-12.5 34.5q0 30 17.5 47t42.5 17q26 0 40 -13.5t14 -36.5q0 -24 -9.5 -48t-26 -46t-38 -40t-44.5 -29z" />
    <glyph glyph-name="hyphen" unicode="-" horiz-adv-x="392" 
d="M98 329h312l-14 -79h-312z" />
    <glyph glyph-name="period" unicode="." horiz-adv-x="193" 
d="M102 -6q-26 0 -40 13.5t-14 36.5q0 29 17 46.5t43 17.5t40 -13.5t14 -36.5q0 -29 -17 -46.5t-43 -17.5z" />
    <glyph glyph-name="slash" unicode="/" horiz-adv-x="313" 
d="M360 722h80l-362 -728h-79z" />
    <glyph glyph-name="zero" unicode="0" horiz-adv-x="636" 
d="M340 -6q-51 0 -95.5 19.5t-77 56.5t-51.5 91.5t-19 123.5q0 106 29.5 187t76 136.5t104 84t114.5 28.5q51 0 95.5 -19.5t77.5 -56.5t52 -91t19 -123q0 -106 -29.5 -187.5t-76.5 -137t-104.5 -84t-114.5 -28.5zM343 74q37 0 77.5 21t74.5 65t56.5 111.5t22.5 159.5
q0 53 -12.5 92.5t-34 66t-50 39.5t-59.5 13q-37 0 -77.5 -21t-74.5 -64.5t-56.5 -111t-22.5 -159.5q0 -53 12.5 -93t34 -66.5t49.5 -39.5t60 -13z" />
    <glyph glyph-name="one" unicode="1" horiz-adv-x="352" 
d="M275 591l-115 -68l-27 68l198 125h56l-126 -716h-91z" />
    <glyph glyph-name="two" unicode="2" horiz-adv-x="545" 
d="M64 68l338 307l15 13t33 35t33 50.5t15 59.5q0 45 -33 77t-90 32q-27 0 -52 -11t-45 -29.5t-34 -43.5t-19 -52h-91q7 46 29.5 85t55 68t73.5 45.5t86 16.5q48 0 87 -15t66.5 -40.5t42 -59.5t14.5 -71q0 -43 -20.5 -82t-45 -69t-45 -47.5t-21.5 -18.5l-272 -238h324
l-14 -80h-443z" />
    <glyph glyph-name="three" unicode="3" horiz-adv-x="551" 
d="M293 -6q-53 0 -94 15.5t-70 41.5t-44 60t-15 71h90q4 -47 40.5 -77.5t99.5 -30.5q33 0 61 10.5t48.5 29t31.5 43t11 51.5q0 22 -8.5 43t-24.5 37.5t-40 26t-54 9.5h-41l14 79h50q29 0 54.5 9.5t44 27t29 41t10.5 52.5q0 45 -32 77t-90 32q-26 0 -49 -9t-41.5 -24
t-31.5 -34.5t-19 -40.5h-93q11 38 33.5 72t53 59.5t69 40.5t80.5 15q48 0 87 -15t66.5 -40t42.5 -59t15 -71q0 -48 -20 -80.5t-44.5 -52.5t-45 -29t-21.5 -9q27 -15 48 -37q18 -19 33 -48t15 -69q0 -43 -18.5 -82t-52 -69t-79 -48t-99.5 -18z" />
    <glyph glyph-name="four" unicode="4" horiz-adv-x="545" 
d="M368 153h-318l12 74l388 489h108l-85 -483h79l-14 -80h-79l-27 -153h-91zM382 233l62 352l-278 -352h216z" />
    <glyph glyph-name="five" unicode="5" horiz-adv-x="568" 
d="M307 -6q-49 0 -89.5 15t-69 41t-44.5 60t-17 72h90q5 -50 42.5 -79t92.5 -29q32 0 62 13t53 36.5t36.5 57.5t13.5 76q0 63 -38 99t-98 36q-32 0 -58 -13.5t-44 -29.5q-21 -18 -38 -42h-79l118 409h363l-15 -86h-284l-55 -194q14 9 32 17q15 7 36 12.5t47 5.5
q46 0 84 -18.5t64 -48.5t40.5 -68t14.5 -77q0 -57 -21 -105.5t-57 -84t-83 -55.5t-99 -20z" />
    <glyph glyph-name="six" unicode="6" horiz-adv-x="562" 
d="M307 -6q-56 0 -98.5 20.5t-71 52.5t-42.5 71.5t-14 77.5q0 41 14.5 78.5t32.5 66t33 45.5t16 19l258 291h105l-211 -235q4 0 8 1q4 0 9 0.5t11 0.5q48 0 87 -18t67.5 -48.5t44 -70.5t15.5 -84q0 -57 -22 -106t-58.5 -85t-84 -56.5t-99.5 -20.5zM311 74q31 0 61.5 13.5
t54.5 37.5t39 57.5t15 73.5q0 30 -10.5 55.5t-29.5 45t-44.5 30.5t-55.5 11q-32 0 -62 -13.5t-54 -37.5t-38.5 -57.5t-14.5 -73.5q0 -30 10.5 -56t29 -45t44 -30t55.5 -11z" />
    <glyph glyph-name="seven" unicode="7" horiz-adv-x="500" 
d="M478 636h-326l14 80h432l-12 -63l-412 -653h-100z" />
    <glyph glyph-name="eight" unicode="8" 
d="M303 -6q-42 0 -83 12.5t-73.5 37.5t-52 62t-19.5 86q0 59 24.5 97.5t54.5 61.5q35 26 80 41q-21 11 -37 29q-14 15 -25.5 39t-11.5 59q0 39 17.5 75.5t47.5 64.5t71 45t88 17q44 0 80.5 -15t62.5 -40t40.5 -57.5t14.5 -66.5q0 -48 -19 -79.5t-42 -49.5q-27 -21 -61 -32
q26 -14 46 -37q17 -20 32 -50.5t15 -73.5q0 -45 -19 -86t-52.5 -72t-79 -49.5t-99.5 -18.5zM309 73q34 0 62 11t48.5 30.5t31.5 46t11 57.5q0 54 -37 88.5t-105 34.5q-34 0 -62 -11t-48.5 -30.5t-31.5 -46.5t-11 -58q0 -53 37 -87.5t105 -34.5zM364 420q27 0 50 9.5t40 26
t27 38t10 44.5q0 43 -30.5 73.5t-81.5 30.5q-27 0 -50 -9.5t-40 -26t-27 -38t-10 -44.5q0 -43 30.5 -73.5t81.5 -30.5z" />
    <glyph glyph-name="nine" unicode="9" horiz-adv-x="562" 
d="M360 235q-4 -1 -8 -1q-4 -1 -9 -1h-10q-48 0 -87.5 18t-68 48t-44 70t-15.5 84q0 57 22 106t58.5 85t84.5 56.5t100 20.5q56 0 98.5 -20t71 -52t42.5 -71.5t14 -77.5q0 -41 -14.5 -78.5t-32.5 -66t-33.5 -46t-16.5 -18.5l-258 -291h-104zM349 318q31 0 61.5 13.5
t54.5 37.5t38.5 57.5t14.5 73.5q0 30 -10.5 55.5t-29 45t-44.5 30.5t-56 11q-32 0 -62 -13.5t-54 -37.5t-38.5 -57.5t-14.5 -73.5q0 -30 10.5 -55.5t29 -45t44.5 -30.5t56 -11z" />
    <glyph glyph-name="colon" unicode=":" horiz-adv-x="193" 
d="M102 -6q-26 0 -40 13.5t-14 36.5q0 29 17 46.5t43 17.5t40 -13.5t14 -36.5q0 -29 -17 -46.5t-43 -17.5zM174 398q-26 0 -40.5 13.5t-14.5 36.5q0 28 17 45.5t43 17.5t40.5 -13.5t14.5 -36.5q0 -28 -17 -45.5t-43 -17.5z" />
    <glyph glyph-name="semicolon" unicode=";" horiz-adv-x="193" 
d="M35 -86q14 9 25 21q10 11 20 25.5t15 33.5q-22 2 -34.5 15.5t-12.5 34.5q0 30 17.5 47t42.5 17q26 0 40 -13.5t14 -36.5q0 -24 -9.5 -48t-26 -46t-38 -40t-44.5 -29zM174 398q-26 0 -40.5 13.5t-14.5 36.5q0 28 17 45.5t43 17.5t40.5 -13.5t14.5 -36.5q0 -28 -17 -45.5
t-43 -17.5z" />
    <glyph glyph-name="less" unicode="&#x3c;" horiz-adv-x="500" 
d="M91 222v56l397 216v-85l-301 -159l301 -159v-85z" />
    <glyph glyph-name="equal" unicode="=" horiz-adv-x="500" 
d="M97 227h431v-79h-431v79zM97 437h431v-79h-431v79z" />
    <glyph glyph-name="greater" unicode="&#x3e;" horiz-adv-x="500" 
d="M102 91l301 159l-301 159v85l398 -216v-56l-398 -216v85z" />
    <glyph glyph-name="question" unicode="?" horiz-adv-x="488" 
d="M248 -6q-26 0 -40 13.5t-14 35.5q0 29 17 47t43 18t40 -13t14 -36q0 -29 -17 -47t-43 -18zM231 199q11 56 32 92.5t46 62t50.5 43.5t46.5 37.5t34.5 45t13.5 65.5q0 42 -27.5 69.5t-75.5 27.5q-55 0 -89 -36.5t-48 -105.5l-3 -12h-89l3 20q18 100 78 156.5t153 56.5
q42 0 76.5 -13t60 -35.5t39.5 -54t14 -68.5q0 -51 -14 -84.5t-36 -57t-48.5 -42.5t-52 -41.5t-46 -53.5t-29.5 -78l-2 -11h-91z" />
    <glyph glyph-name="at" unicode="@" horiz-adv-x="841" 
d="M427 -125q-75 0 -137.5 28t-107.5 75.5t-70.5 110.5t-25.5 133q0 86 34.5 161.5t92 131.5t133 88.5t156.5 32.5q76 0 140.5 -25.5t111 -69t73 -101.5t26.5 -122q0 -63 -16 -111t-42.5 -80t-60 -48.5t-67.5 -16.5q-30 0 -50 9.5t-32 21.5t-17.5 22l-5.5 10
q-15 -18 -34 -32q-17 -12 -42 -21.5t-57 -9.5q-33 0 -61 13t-48.5 35.5t-32.5 53.5t-12 68q0 48 17 88t44 68.5t61.5 44.5t69.5 16q32 0 54.5 -9t36.5 -20q17 -12 28 -28l26 51h53l-39 -218q-7 -42 4 -71t47 -29q15 0 33 9.5t33 31.5t25 58t10 88q0 49 -21 96t-58.5 84
t-88.5 59.5t-111 22.5q-64 0 -125 -27t-108.5 -74.5t-76.5 -111t-29 -135.5q0 -59 21 -111.5t57.5 -91.5t86.5 -62t109 -23q29 0 55.5 5.5t46.5 13.5q23 8 43 19l24 -60q-25 -12 -54 -21q-25 -8 -56.5 -14t-65.5 -6zM446 131q25 0 48 9.5t40.5 28.5t28 45.5t10.5 61.5
q0 48 -28.5 76.5t-75.5 28.5q-25 0 -48 -10t-40 -28.5t-27.5 -46t-10.5 -61.5q0 -48 28.5 -76t74.5 -28z" />
    <glyph glyph-name="A" unicode="A" horiz-adv-x="625" 
d="M404 716h80l146 -716h-95l-37 176h-296l-99 -176h-97zM484 256l-65 312l-174 -312h239z" />
    <glyph glyph-name="B" unicode="B" horiz-adv-x="636" 
d="M217 716h268q39 0 71 -14.5t54.5 -38.5t35 -56t12.5 -66q0 -48 -17 -80.5t-37 -52.5q-24 -24 -53 -37q21 -14 39 -35q14 -18 26.5 -45.5t12.5 -65.5q0 -44 -18.5 -84.5t-50.5 -71.5t-76.5 -50t-96.5 -19h-296zM394 80q30 0 56.5 11t46.5 29.5t31.5 44t11.5 55.5
q0 22 -8.5 43t-23.5 37t-36 25.5t-47 9.5h-184l-46 -255h199zM446 415q27 0 50 9.5t40 26t27 37.5t10 45q0 20 -7.5 38.5t-21 33t-32 23t-41.5 8.5h-177l-40 -221h192z" />
    <glyph glyph-name="C" unicode="C" horiz-adv-x="716" 
d="M404 -6q-63 0 -118 25t-96.5 68.5t-65 103t-23.5 128.5q0 85 32.5 158.5t86 127.5t120.5 85t136 31q57 0 105.5 -19.5t86 -53t63 -78t36.5 -93.5h-93q-16 46 -43 82q-24 31 -63.5 57t-98.5 26q-50 0 -99 -24t-89 -66.5t-64.5 -101t-24.5 -127.5q0 -56 17.5 -102
t47.5 -78.5t70 -50.5t84 -18q38 0 74 14t67.5 37.5t56.5 53t40 60.5h95q-22 -51 -57.5 -96t-80.5 -78t-96.5 -52t-105.5 -19z" />
    <glyph glyph-name="D" unicode="D" horiz-adv-x="676" 
d="M217 716h201q62 0 113.5 -25.5t88.5 -69t57.5 -101t20.5 -121.5q0 -80 -30 -152.5t-81 -127t-119.5 -87t-146.5 -32.5h-230zM326 80q51 0 101.5 24t90 66t64.5 99t25 123q0 50 -16 94.5t-43.5 78t-64.5 53t-80 19.5l-109 -1l-99 -556h131z" />
    <glyph glyph-name="E" unicode="E" horiz-adv-x="613" 
d="M217 716h454l-13 -80h-364l-41 -227h335l-13 -80h-335l-45 -249h375l-13 -80h-466z" />
    <glyph glyph-name="F" unicode="F" horiz-adv-x="568" 
d="M217 716h437l-13 -80h-347l-42 -238h284l-15 -80h-284l-55 -318h-91z" />
    <glyph glyph-name="G" unicode="G" horiz-adv-x="772" 
d="M404 -6q-63 0 -117.5 25t-95.5 68.5t-64.5 103t-23.5 128.5q0 85 33 158.5t86 127.5t120 85t136 31q59 0 107.5 -19t85.5 -51t62 -74t38 -89h-95q-16 43 -43 77q-12 14 -27.5 28t-35.5 25t-44.5 17.5t-54.5 6.5q-49 0 -98.5 -24t-89 -66.5t-64.5 -101t-25 -127.5
q0 -54 17 -100t46.5 -79t68 -51.5t82.5 -18.5q40 0 80.5 18t74.5 47.5t58 66t30 72.5h-210l13 80h301l-62 -358h-68l-8 84q-25 -26 -58 -45q-28 -17 -67.5 -31t-87.5 -14z" />
    <glyph glyph-name="H" unicode="H" horiz-adv-x="710" 
d="M217 716h91l-55 -313h347l54 313h91l-126 -716h-91l57 324h-346l-57 -324h-91z" />
    <glyph glyph-name="I" unicode="I" horiz-adv-x="273" 
d="M217 716h91l-126 -716h-91z" />
    <glyph glyph-name="J" unicode="J" horiz-adv-x="523" 
d="M249 -6q-44 0 -82 16.5t-65.5 44.5t-43 64t-15.5 74h93q0 -25 8.5 -47t24 -38t37 -25t47.5 -9q54 0 89.5 34.5t43.5 85.5l92 522h91l-94 -534q-7 -41 -27 -75.5t-50 -59.5t-68 -39t-81 -14z" />
    <glyph glyph-name="K" unicode="K" horiz-adv-x="585" 
d="M217 716h91l-63 -352l335 352h114l-341 -358l238 -358h-103l-243 364l-63 -364h-91z" />
    <glyph glyph-name="L" unicode="L" horiz-adv-x="534" 
d="M217 716h91l-113 -636h341l-13 -80h-432z" />
    <glyph glyph-name="M" unicode="M" horiz-adv-x="863" 
d="M217 716h69l166 -574l368 574h79l-127 -716h-90l85 483l-307 -483h-57l-136 483l-85 -483h-91z" />
    <glyph glyph-name="N" unicode="N" horiz-adv-x="710" 
d="M217 716h79l262 -546l96 546h91l-126 -716h-79l-262 545l-96 -545h-91z" />
    <glyph glyph-name="O" unicode="O" horiz-adv-x="750" 
d="M401 -6q-62 0 -117 25t-95.5 68.5t-64 103t-23.5 128.5q0 85 32.5 158.5t85.5 127.5t120.5 85t136.5 31q62 0 117 -25t95.5 -68.5t64 -103t23.5 -128.5q0 -85 -32.5 -158.5t-85.5 -127.5t-120.5 -85t-136.5 -31zM408 74q53 0 103 25t88.5 68.5t62 102t23.5 125.5
q0 54 -17.5 99t-47 78t-69 51.5t-82.5 18.5q-50 0 -99 -23.5t-89 -66t-64.5 -101.5t-24.5 -130q0 -54 17.5 -99t47 -78t68.5 -51.5t83 -18.5z" />
    <glyph glyph-name="P" unicode="P" horiz-adv-x="608" 
d="M217 716h244q42 0 77 -17.5t60.5 -46t39.5 -65.5t14 -77q0 -48 -20.5 -91t-55 -75.5t-79.5 -51.5t-94 -19h-174l-47 -273h-91zM410 352q28 0 55 12.5t48 34t34 50t13 60.5q0 25 -8.5 48t-23.5 40.5t-35.5 28t-44.5 10.5h-154l-50 -284h166z" />
    <glyph glyph-name="Q" unicode="Q" horiz-adv-x="761" 
d="M593 56q-45 -29 -93.5 -45.5t-98.5 -16.5q-62 0 -117 25t-95.5 68.5t-64 103t-23.5 128.5q0 85 32.5 158.5t85.5 127.5t120.5 85t136.5 31q62 0 117 -25t95.5 -68.5t64 -103t23.5 -128.5q0 -92 -33.5 -161.5t-83.5 -123.5l62 -77l-63 -57zM408 74q71 0 134 43l-67 82
l63 57l67 -82q35 43 57.5 100.5t22.5 120.5q0 54 -17.5 99t-47 78t-69 51.5t-82.5 18.5q-50 0 -99 -23.5t-89 -66t-64.5 -101.5t-24.5 -130q0 -54 17.5 -99t47 -78t68.5 -51.5t83 -18.5z" />
    <glyph glyph-name="R" unicode="R" horiz-adv-x="630" 
d="M217 716h267q40 0 73 -16.5t56.5 -43.5t36.5 -61.5t13 -71.5q0 -35 -8.5 -63.5t-22 -51t-31 -39.5t-35.5 -29q-42 -29 -96 -42l121 -298h-103l-118 295h-136l-52 -295h-91zM436 375q27 0 51.5 11t44 30.5t31 46t11.5 57.5q0 23 -7.5 44t-21.5 37t-33 25.5t-42 9.5h-176
l-46 -261h188z" />
    <glyph glyph-name="S" unicode="S" horiz-adv-x="562" 
d="M311 -6q-55 0 -98 16.5t-72.5 45t-45 68t-15.5 86.5h89q0 -65 37.5 -100.5t110.5 -35.5q34 0 60.5 9.5t45.5 25.5t29 38t10 47q0 36 -24 59.5t-59.5 41.5t-77 35t-77 40t-59.5 55.5t-24 83.5q0 52 22.5 91.5t57.5 66.5t78 40.5t85 13.5q46 0 84.5 -15.5t66.5 -44
t43.5 -68t15.5 -87.5h-90q0 27 -9.5 51.5t-26.5 43.5t-40.5 30t-50.5 11q-35 0 -62 -10.5t-45.5 -28t-28 -39.5t-9.5 -44q0 -36 24 -59t59.5 -41t77.5 -35t77.5 -40t59.5 -56t24 -83q0 -41 -16.5 -79t-48 -67.5t-76.5 -47.5t-102 -18z" />
    <glyph glyph-name="T" unicode="T" 
d="M345 636h-215l13 80h523l-14 -80h-216l-112 -636h-91z" />
    <glyph glyph-name="U" unicode="U" horiz-adv-x="682" 
d="M366 -6q-64 0 -110 20t-75 53t-43 74.5t-14 84.5q0 13 1 25.5t3 24.5l78 440h90l-78 -446q-2 -11 -3 -22t-1 -22q0 -69 41 -110.5t116 -41.5q34 0 64.5 11.5t54.5 33.5t40.5 52t22.5 68l84 477h91l-85 -484q-9 -52 -33.5 -95.5t-61.5 -75t-83.5 -49.5t-98.5 -18z" />
    <glyph glyph-name="V" unicode="V" horiz-adv-x="636" 
d="M132 716h93l107 -585l313 585h100l-387 -716h-91z" />
    <glyph glyph-name="W" unicode="W" horiz-adv-x="897" 
d="M132 716h93l68 -517l244 517h57l63 -517l250 517h99l-347 -716h-63l-62 517l-244 -517h-63z" />
    <glyph glyph-name="X" unicode="X" horiz-adv-x="591" 
d="M308 364l-159 352h96l123 -273l218 273h108l-284 -352l169 -364h-102l-127 284l-231 -284h-108z" />
    <glyph glyph-name="Y" unicode="Y" horiz-adv-x="579" 
d="M287 278l-155 438h96l116 -341l242 341h102l-310 -438l-49 -278h-90z" />
    <glyph glyph-name="Z" unicode="Z" horiz-adv-x="551" 
d="M44 57l451 579h-337l14 80h454l-10 -57l-451 -579h366l-14 -80h-483z" />
    <glyph glyph-name="bracketleft" unicode="[" horiz-adv-x="324" 
d="M217 716h210l-13 -74h-131l-136 -773h130l-12 -73h-210z" />
    <glyph glyph-name="backslash" unicode="\" horiz-adv-x="313" 
d="M127 722h80l104 -728h-80z" />
    <glyph glyph-name="bracketright" unicode="]" horiz-adv-x="324" 
d="M-1 -131h131l136 773h-131l14 74h210l-162 -920h-211z" />
    <glyph glyph-name="asciicircum" unicode="^" horiz-adv-x="432" 
d="M261 716h34l154 -324h-68l-103 216l-102 -216h-68z" />
    <glyph glyph-name="underscore" unicode="_" horiz-adv-x="295" 
d="M-43 -119h341l-13 -68h-341z" />
    <glyph glyph-name="grave" unicode="`" horiz-adv-x="222" 
d="M133 716h85l68 -137h-57z" />
    <glyph glyph-name="a" unicode="a" horiz-adv-x="528" 
d="M239 -6q-39 0 -69 11.5t-51 31.5t-32 46.5t-11 56.5q0 50 27 83t74.5 53t112.5 28t141 8l3 20q4 22 -3 41t-21.5 33t-35.5 22.5t-46 8.5q-39 0 -65 -22t-39 -51h-94q8 29 26.5 56.5t45 49t60 34.5t72.5 13q60 0 98 -20t58.5 -49t26.5 -62t1 -58l-58 -328h-62l-14 57
q-16 -18 -38 -32q-19 -12 -45.5 -21.5t-61.5 -9.5zM249 74q32 0 59.5 10.5t48.5 27.5t34.5 38.5t17.5 42.5l7 40q-86 0 -137 -7.5t-77 -20.5t-33.5 -31t-7.5 -38q0 -32 26.5 -47t61.5 -15z" />
    <glyph glyph-name="b" unicode="b" horiz-adv-x="596" 
d="M340 -6q-41 0 -70 11t-48 25q-22 16 -37 36l-40 -66h-63l124 716h85l-46 -260q17 17 39 30q19 11 45.5 21t60.5 10q46 0 85.5 -17t68 -47t45 -72t16.5 -92q0 -66 -22.5 -120t-59.5 -93t-85 -60.5t-98 -21.5zM342 74q31 0 63 15t57 43t41 66t16 85q0 34 -11 62.5t-29.5 49
t-43 31.5t-52.5 11q-32 0 -63.5 -15t-56.5 -42.5t-41 -66t-16 -84.5q0 -35 11 -63.5t29.5 -48.5t43 -31.5t52.5 -11.5z" />
    <glyph glyph-name="c" unicode="c" horiz-adv-x="534" 
d="M294 -6q-46 0 -85 17t-67.5 47.5t-44.5 72.5t-16 91q0 65 22.5 119.5t59.5 93.5t85 60.5t98 21.5q45 0 82 -15t64.5 -40.5t44.5 -59.5t22 -73h-89q-3 15 -12.5 34t-25.5 35.5t-38.5 27.5t-51.5 11q-31 0 -62.5 -15t-56.5 -42t-41 -65.5t-16 -85.5q0 -35 10.5 -63.5
t29 -48.5t43 -31.5t52.5 -11.5q48 0 89.5 30.5t62.5 77.5h87q-13 -35 -35 -68.5t-53.5 -60t-71 -43t-86.5 -16.5z" />
    <glyph glyph-name="d" unicode="d" horiz-adv-x="596" 
d="M296 -6q-46 0 -85.5 17t-68 47.5t-45 72.5t-16.5 92q0 66 22.5 120t59.5 92.5t85 60t98 21.5q43 0 74 -13t50.5 -28t28.5 -27.5l9 -12.5l49 280h85l-126 -716h-63l-13 57q-16 -18 -38 -32q-19 -12 -45.5 -21.5t-60.5 -9.5zM303 74q31 0 63 15t57.5 43t41.5 66t16 85
q0 34 -11 62.5t-30 49t-43.5 31.5t-52.5 11q-32 0 -63.5 -15t-56.5 -42.5t-41 -66t-16 -84.5q0 -35 11 -63.5t29.5 -48.5t43 -31.5t52.5 -11.5z" />
    <glyph glyph-name="e" unicode="e" horiz-adv-x="551" 
d="M296 -6q-46 0 -85.5 17t-68 47t-45 72t-16.5 92q0 65 22.5 119.5t59 93.5t83.5 60.5t96 21.5q53 0 93 -18.5t67 -49t41 -70t14 -80.5t-8.5 -62t-7.5 -21h-374q2 -26 11 -51.5t26 -45.5t41.5 -32.5t56.5 -12.5q21 0 41 6.5t36 16.5t27.5 20.5t17.5 18.5h100
q-35 -63 -95 -102.5t-133 -39.5zM470 290q2 34 -8 61.5t-28 46.5t-42 29t-49 10q-26 0 -51.5 -11t-48 -30.5t-40 -46.5t-27.5 -59h294z" />
    <glyph glyph-name="f" unicode="f" horiz-adv-x="312" 
d="M167 432h-62l13 79h64l9 54q6 36 22 64.5t38 49t49 31.5t54 11q32 0 46.5 -8.5t14.5 -7.5l-12 -73q-5 2 -11 4q-5 2 -12 3t-15 1q-35 0 -58.5 -21.5t-31.5 -61.5l-8 -46h112l-13 -79h-114l-76 -432h-85z" />
    <glyph glyph-name="g" unicode="g" horiz-adv-x="579" 
d="M272 -193q-42 0 -78.5 11t-64.5 31.5t-46 48.5t-23 62h90q11 -34 41 -54t83 -20q57 0 97.5 33t49.5 86l13 68q-16 -16 -36 -28q-17 -11 -42 -19.5t-56 -8.5q-49 0 -88.5 16t-68 45t-44 69t-15.5 88q0 63 21.5 114.5t57.5 89t83 58t99 20.5q37 0 64 -11t46 -25
q21 -16 37 -36l40 66h63l-88 -513q-8 -42 -28.5 -77t-51 -60.5t-70.5 -39.5t-85 -14zM306 97q30 0 60 13.5t54 39t38.5 61t14.5 79.5q0 33 -10.5 60t-28.5 46.5t-43 30t-54 10.5q-30 0 -60 -13.5t-54 -39t-38.5 -61t-14.5 -79.5q0 -33 10.5 -60t28.5 -46.5t43 -30t54 -10.5z
" />
    <glyph glyph-name="h" unicode="h" horiz-adv-x="579" 
d="M206 716h85l-43 -256q16 16 37 28q18 11 43 20t57 9q50 0 84.5 -18t55.5 -46t30.5 -63t9.5 -69q0 -11 -1 -22t-3 -22l-49 -277h-85l50 285q6 32 -0.5 59.5t-22.5 48t-39 32.5t-50 12q-55 0 -95 -35t-51 -95l-53 -307h-85z" />
    <glyph glyph-name="i" unicode="i" horiz-adv-x="233" 
d="M164 511h85l-90 -511h-85zM216 602q-20 0 -32 13t-12 33q0 26 18.5 44t44.5 18q22 0 34.5 -12.5t12.5 -32.5q0 -27 -19.5 -45t-46.5 -18z" />
    <glyph glyph-name="j" unicode="j" horiz-adv-x="233" 
d="M-9 -187q-15 0 -26 2.5t-19 5.5q-9 4 -15 9l11 72q4 -3 10 -5q12 -5 28 -5q34 0 59 23.5t33 65.5l92 530h85l-95 -541q-6 -36 -22 -65.5t-38 -49.5t-48.5 -31t-54.5 -11zM222 602q-23 0 -36.5 15t-13.5 35q0 25 16.5 41.5t39.5 16.5t36.5 -15t13.5 -35q0 -25 -16.5 -41.5
t-39.5 -16.5z" />
    <glyph glyph-name="k" unicode="k" horiz-adv-x="477" 
d="M206 716h85l-80 -449l232 244h101l-235 -244l174 -267h-97l-175 267l-46 -267h-85z" />
    <glyph glyph-name="l" unicode="l" horiz-adv-x="244" 
d="M206 716h85l-126 -716h-85z" />
    <glyph glyph-name="m" unicode="m" horiz-adv-x="818" 
d="M164 511h62l14 -57q12 17 30 31q15 12 39 22t58 10t57 -12t38 -26q17 -17 28 -37q18 20 43 37q21 14 51 26t69 12q44 0 73.5 -16t47.5 -41.5t26 -57t8 -62.5q0 -13 -1.5 -25t-3.5 -23l-51 -292h-85l52 301q3 16 3 33q0 43 -21.5 73t-66.5 30q-41 0 -77 -31t-46 -88
l-55 -318h-86l53 301q3 16 3 33q0 43 -21.5 73t-67.5 30q-20 0 -40 -8t-36.5 -23t-29 -37.5t-16.5 -50.5l-56 -318h-85z" />
    <glyph glyph-name="n" unicode="n" horiz-adv-x="574" 
d="M164 511h62l14 -57q16 17 37 31q18 12 43.5 22t57.5 10q50 0 84.5 -18t55.5 -46t30.5 -63t9.5 -69q0 -25 -4 -44l-48 -277h-86l50 285q6 32 -0.5 59.5t-22 48t-38.5 32.5t-51 12q-55 0 -95 -35t-51 -95l-53 -307h-85z" />
    <glyph glyph-name="o" unicode="o" 
d="M296 -6q-46 0 -85.5 17t-68 47t-45 72t-16.5 92q0 65 22.5 119.5t59.5 93.5t85 60.5t98 21.5q46 0 86 -17t68.5 -47t45 -71.5t16.5 -91.5q0 -66 -22.5 -120.5t-60 -93.5t-85 -60.5t-98.5 -21.5zM301 74q31 0 62.5 15t56.5 42.5t40.5 65.5t15.5 85q0 34 -10.5 63t-28.5 49
t-42.5 31.5t-52.5 11.5q-32 0 -63 -15t-56 -43t-40.5 -66.5t-15.5 -84.5q0 -35 10.5 -63t28.5 -48.5t42.5 -31.5t52.5 -11z" />
    <glyph glyph-name="p" unicode="p" horiz-adv-x="591" 
d="M165 511h62l14 -57q16 17 38 31q18 12 44.5 22t60.5 10q46 0 86 -17t68.5 -47t45 -72t16.5 -92q0 -66 -22.5 -120t-60 -93t-85.5 -60.5t-98 -21.5q-44 0 -74.5 13t-49.5 28t-28 27.5l-9 12.5l-46 -257h-84zM336 74q31 0 63 15t57 42.5t41 65.5t16 85q0 34 -11 63
t-29.5 49t-43 31.5t-52.5 11.5q-32 0 -63.5 -15t-56.5 -43t-41 -66.5t-16 -84.5q0 -35 11 -63t29.5 -48.5t43 -31.5t52.5 -11z" />
    <glyph glyph-name="q" unicode="q" horiz-adv-x="591" 
d="M442 57q-17 -18 -38 -32q-19 -12 -45 -21.5t-60 -9.5q-47 0 -86.5 17t-68 47.5t-45 72.5t-16.5 92q0 66 22.5 120t60 92.5t85.5 60t98 21.5q40 0 69 -11t48 -25q22 -16 37 -36l40 66h64l-120 -693h-85zM306 74q31 0 63 15t57 42.5t41 65.5t16 85q0 34 -11 63t-30 49
t-43.5 31.5t-52.5 11.5q-32 0 -63.5 -15t-56.5 -43t-41 -66.5t-16 -84.5q0 -35 11 -63t29.5 -48.5t43.5 -31.5t53 -11z" />
    <glyph glyph-name="r" unicode="r" horiz-adv-x="341" 
d="M164 511h62l14 -57q14 17 36 31q19 12 49 22t73 10h11l-15 -85h-23q-70 0 -110 -39t-51 -103l-51 -290h-85z" />
    <glyph glyph-name="s" unicode="s" horiz-adv-x="449" 
d="M249 -6q-43 0 -76.5 13t-56.5 35t-35 50.5t-12 60.5h84q0 -35 26.5 -57t73.5 -22q42 0 67 22.5t25 54.5q0 23 -17 36.5t-42.5 23.5t-55 19.5t-55 24t-42.5 37.5t-17 61q0 33 13 62.5t36 52t56 36t73 13.5q41 0 72.5 -12.5t52.5 -33.5t32 -48.5t11 -58.5h-86
q0 30 -20.5 51.5t-65.5 21.5q-40 0 -64 -22.5t-24 -49.5q0 -23 17 -36.5t42.5 -23.5t55 -19.5t55 -24.5t42.5 -38.5t17 -60.5q0 -36 -13.5 -67t-37.5 -53.5t-57.5 -35t-73.5 -12.5z" />
    <glyph glyph-name="t" unicode="t" horiz-adv-x="364" 
d="M275 -6q-30 0 -54.5 11t-42 31t-27 46.5t-9.5 58.5q0 19 3 37l45 254h-91l13 79h40q30 0 49.5 16.5t24.5 46.5l13 74h75l-25 -137h113l-13 -79h-115l-45 -262q-7 -40 11.5 -68t63.5 -28q13 0 17 1t6 2l-13 -75q-5 -2 -11 -4q-5 -2 -12 -3t-16 -1z" />
    <glyph glyph-name="u" unicode="u" horiz-adv-x="579" 
d="M291 -6q-50 0 -84.5 18t-55.5 46t-30.5 63t-9.5 69q0 25 4 44l49 277h85l-50 -285q-6 -32 0.5 -59.5t22 -48t38.5 -32.5t51 -12q55 0 95 35t51 95l53 307h85l-89 -511h-63l-14 57q-16 -18 -37 -32q-18 -12 -43.5 -21.5t-57.5 -9.5z" />
    <glyph glyph-name="v" unicode="v" horiz-adv-x="511" 
d="M95 511h88l84 -392l223 392h94l-294 -511h-80z" />
    <glyph glyph-name="w" unicode="w" horiz-adv-x="727" 
d="M95 511h87l55 -363l178 363h61l50 -363l183 363h91l-260 -511h-69l-50 364l-177 -364h-68z" />
    <glyph glyph-name="x" unicode="x" horiz-adv-x="466" 
d="M228 261l-127 250h92l92 -187l158 187h101l-213 -250l135 -261h-93l-101 199l-172 -199h-100z" />
    <glyph glyph-name="y" unicode="y" horiz-adv-x="511" 
d="M101 -187q-8 0 -16 1t-15 3q-8 2 -15 5l12 67h14q32 0 51.5 15.5t36.5 45.5l35 61l-110 500h91l84 -392l223 392h95l-328 -569q-40 -69 -76.5 -98.5t-81.5 -30.5z" />
    <glyph glyph-name="z" unicode="z" horiz-adv-x="432" 
d="M47 74l309 358h-246l14 79h352l-13 -74l-309 -357h257l-13 -80h-364z" />
    <glyph glyph-name="braceleft" unicode="{" horiz-adv-x="341" 
d="M227 -204q-62 0 -94 33.5t-32 87.5q0 14 1 21t3 12l36 206v8q1 26 -12 42t-39 16l12 68h7q55 0 66 58l42 237q11 63 49.5 97t101.5 34h77l-14 -74h-65q-25 0 -45.5 -17.5t-25.5 -46.5l-43 -237q-5 -30 -19 -48t-28 -27q-17 -11 -37 -15q16 -8 27 -20q10 -11 18 -28t7 -43
v-5.5t-1 -5.5l-36 -207v-7q-1 -27 14 -46.5t42 -19.5h56l-13 -73h-55v0z" />
    <glyph glyph-name="bar" unicode="|" horiz-adv-x="352" 
d="M199 716h79v-898h-79v898z" />
    <glyph glyph-name="braceright" unicode="}" horiz-adv-x="341" 
d="M0 -131h65q25 0 45 17.5t25 46.5l43 237q5 30 19 47.5t28 27.5q17 11 37 15q-16 8 -27 20q-10 11 -18 28t-7 43v5.5t1 5.5l37 207v7q1 27 -14.5 46.5t-41.5 19.5h-57l14 74h54q62 0 94 -34t32 -88q0 -14 -1 -21t-2 -12l-36 -205v-8q-1 -27 12 -42.5t39 -15.5l-13 -68h-7
q-26 0 -43 -15t-22 -43l-42 -238q-11 -63 -49.5 -96.5t-102.5 -33.5h-77z" />
    <glyph glyph-name="asciitilde" unicode="~" horiz-adv-x="500" 
d="M426 227q-28 0 -59.5 12.5t-63 27.5t-60.5 27.5t-50 12.5q-26 0 -44 -20t-18 -54h-69q0 72 35.5 110t95.5 38q30 0 63 -12.5t64.5 -27.5t59 -27.5t46.5 -12.5q30 0 49 19.5t19 54.5h68q0 -73 -36 -110.5t-100 -37.5z" />
    <glyph glyph-name="nonbreakingspace" unicode="&#xa0;" horiz-adv-x="244" 
 />
    <glyph glyph-name="exclamdown" unicode="&#xa1;" horiz-adv-x="295" 
d="M174 341h68l-70 -523h-114zM226 403q-26 0 -39.5 13.5t-13.5 35.5q0 29 17 47t43 18t39.5 -13t13.5 -36q0 -29 -17 -47t-43 -18z" />
    <glyph glyph-name="cent" unicode="&#xa2;" horiz-adv-x="534" 
d="M239 1q-72 18 -115 77.5t-43 143.5q0 63 20.5 115.5t55 91t79.5 61.5t93 26l17 97h86l-20 -106q62 -19 100.5 -67.5t46.5 -110.5h-89q-3 15 -12.5 34t-25.5 35.5t-38.5 27.5t-51.5 11q-31 0 -62.5 -15t-56.5 -42t-41 -65.5t-16 -85.5q0 -35 10.5 -63.5t29 -48.5t43 -31.5
t52.5 -11.5q48 0 89.5 30.5t62.5 77.5h87q-12 -33 -32 -64t-47.5 -56.5t-62 -43t-75.5 -21.5l-17 -99h-86z" />
    <glyph glyph-name="sterling" unicode="&#xa3;" horiz-adv-x="596" 
d="M65 80q13 0 26.5 6t25 16.5t20 25t11.5 31.5l21 125h-62l13 80h63l29 167q7 39 28.5 74t52.5 60.5t70 40.5t83 15q43 0 80 -16.5t64.5 -44t43 -63t15.5 -74.5h-91q0 51 -32 84.5t-85 33.5q-25 0 -48 -9t-41.5 -24.5t-31.5 -37.5t-18 -47l-28 -159h193l-14 -80h-193
l-21 -125q-5 -22 -13.5 -36.5t-17.5 -24.5q-11 -11 -23 -18h374l-14 -80h-494z" />
    <glyph glyph-name="currency" unicode="&#xa4;" horiz-adv-x="625" 
d="M135 119h-85l14 80h85l15 85h-86l15 80h85l62 352h238q43 0 78.5 -16.5t60.5 -44t38.5 -63t13.5 -74.5q0 -48 -19.5 -91t-52.5 -74.5t-77 -50t-94 -18.5h-172l-14 -85h216l-14 -80h-216l-22 -119h-90zM431 364q30 0 56.5 11t46.5 31.5t31.5 48.5t11.5 61q0 25 -8 47
t-22.5 38t-35 25.5t-46.5 9.5h-148l-48 -272h162z" />
    <glyph glyph-name="yen" unicode="&#xa5;" horiz-adv-x="579" 
d="M260 119h-153l13 80h154l13 74h-153l14 79h113l-122 364h90l116 -341l237 341h102l-252 -364h113l-13 -79h-154l-13 -74h152l-14 -80h-152l-22 -119h-90z" />
    <glyph glyph-name="brokenbar" unicode="&#xa6;" horiz-adv-x="352" 
d="M199 170h79v-352h-79v352zM199 716h79v-352h-79v352z" />
    <glyph glyph-name="section" unicode="&#xa7;" horiz-adv-x="534" 
d="M264 -136q-37 0 -68.5 12.5t-54 34t-35.5 50.5t-13 62h80q0 -35 26.5 -60t74.5 -25q43 0 69 23.5t26 58.5q0 26 -20 44.5t-50 34t-65 31.5t-65 37t-50 50t-20 72q0 49 23 82.5t51 53.5q33 24 75 37q-16 9 -28 22q-11 11 -19 29.5t-8 45.5q0 30 13.5 59.5t37 52t55.5 36.5
t70 14q40 0 70.5 -12t51 -32.5t31 -47t10.5 -55.5h-79q0 12 -5.5 25.5t-16.5 24t-29 17.5t-42 7q-38 0 -62.5 -24t-24.5 -56q0 -27 19 -46.5t47 -36t61.5 -33t61.5 -38t47 -50.5t19 -71q0 -53 -23 -85.5t-50 -51.5q-33 -22 -73 -33q18 -9 33 -23q13 -12 23.5 -30.5
t10.5 -44.5q0 -32 -13.5 -61t-38 -51t-58.5 -35.5t-75 -13.5zM311 175q37 5 66 19q25 12 45.5 34.5t20.5 62.5q0 37 -28 63.5t-97 55.5q-37 -5 -66 -19q-25 -12 -45.5 -35t-20.5 -62q0 -37 28 -63.5t97 -55.5z" />
    <glyph glyph-name="dieresis" unicode="&#xa8;" horiz-adv-x="341" 
d="M199 608q-22 0 -35 13t-13 33q0 23 16.5 39.5t39.5 16.5q21 0 34 -13t13 -34q0 -23 -16.5 -39t-38.5 -16zM368 608q-21 0 -34.5 13t-13.5 33q0 23 16.5 39.5t39.5 16.5q21 0 34.5 -13t13.5 -34q0 -23 -16.5 -39t-39.5 -16z" />
    <glyph glyph-name="copyright" unicode="&#xa9;" horiz-adv-x="784" 
d="M454 -6q-70 0 -133 28t-110 77t-75 115.5t-28 143.5q0 76 28 142.5t75 115.5t110 77t133 28t133.5 -28t110.5 -77t75 -115.5t28 -142.5q0 -77 -28 -143.5t-75 -115.5t-110.5 -77t-133.5 -28zM454 57q55 0 106 23t89 63.5t61 95.5t23 119t-23 119t-61 95.5t-89 63.5
t-106 23t-105.5 -23t-88.5 -63.5t-61 -95.5t-23 -119t23 -119t61 -95.5t88.5 -63.5t105.5 -23zM460 165q-34 0 -66 15t-56.5 41t-39 61t-14.5 76q0 40 14.5 75.5t39 61.5t56.5 41t66 15q30 0 56 -11t47 -29t35.5 -42t20.5 -49h-68q-8 30 -31 49t-66 19q-20 0 -39.5 -9.5
t-34.5 -26.5t-24.5 -41t-9.5 -53q0 -30 9.5 -54t24.5 -41t34.5 -26.5t39.5 -9.5q43 0 66 19.5t31 48.5h68q-6 -26 -20.5 -49.5t-35.5 -41.5t-47 -28.5t-56 -10.5z" />
    <glyph glyph-name="ordfeminine" unicode="&#xaa;" horiz-adv-x="318" 
d="M227 429q-45 0 -71 23.5t-26 53.5q0 32 15.5 52t42.5 31t63 15t77 4q1 3 1 10q0 19 -14 33t-40 14q-23 0 -37 -12t-19 -23h-57q2 16 12.5 32.5t26.5 29.5t37 21t44 8q21 0 41 -7.5t35 -21t24 -32.5t9 -43q0 -5 -0.5 -11t-1.5 -12l-29 -162h-45l-5 34q-10 -11 -22 -19
q-11 -7 -26.5 -12.5t-34.5 -5.5zM239 477q29 0 51.5 19.5t27.5 48.5l3 17q-42 0 -68 -4.5t-41 -11.5t-20 -16.5t-5 -18.5q0 -14 12 -24t40 -10z" />
    <glyph glyph-name="guillemotleft" unicode="&#xab;" horiz-adv-x="500" 
d="M85 256l157 181h91l-163 -188l90 -175h-82zM295 256l157 181h91l-162 -188l89 -175h-81z" />
    <glyph glyph-name="logicalnot" unicode="&#xac;" horiz-adv-x="500" 
d="M466 358h-386v74h465v-228h-79v154z" />
    <glyph glyph-name="uni00AD" unicode="&#xad;" horiz-adv-x="392" 
d="M98 329h312l-14 -79h-312z" />
    <glyph glyph-name="registered" unicode="&#xae;" horiz-adv-x="784" 
d="M454 -6q-70 0 -133 28t-110 77t-75 115.5t-28 143.5q0 76 28 142.5t75 115.5t110 77t133 28t133.5 -28t110.5 -77t75 -115.5t28 -142.5q0 -77 -28 -143.5t-75 -115.5t-110.5 -77t-133.5 -28zM454 57q55 0 106 23t89 63.5t61 95.5t23 119t-23 119t-61 95.5t-89 63.5
t-106 23t-105.5 -23t-88.5 -63.5t-61 -95.5t-23 -119t23 -119t61 -95.5t88.5 -63.5t105.5 -23zM335 545h131q25 0 48 -10t40 -26.5t27 -38t10 -44.5q0 -32 -13.5 -53t-29.5 -33q-18 -14 -42 -22l96 -148h-68l-91 137h-45v-137h-63v375zM466 364q26 0 44 18t18 44t-18 44
t-44 18h-68v-124h68z" />
    <glyph glyph-name="macron" unicode="&#xaf;" horiz-adv-x="341" 
d="M154 682h273l-12 -69h-273z" />
    <glyph glyph-name="degree" unicode="&#xb0;" horiz-adv-x="352" 
d="M273 449q-28 0 -53 11t-43.5 29.5t-29.5 43t-11 52.5t11 52.5t29.5 43t43.5 29.5t53 11q27 0 52 -11t43.5 -29.5t29.5 -43t11 -52.5t-11 -52.5t-29.5 -43t-43.5 -29.5t-52 -11zM273 511q13 0 25 6t21.5 16t15.5 23.5t6 28.5t-6 28.5t-15.5 23.5t-21.5 16t-25 6t-25.5 -6
t-22 -16t-15.5 -23.5t-6 -28.5t6 -28.5t15.5 -23.5t22 -16t25.5 -6z" />
    <glyph glyph-name="plusminus" unicode="&#xb1;" horiz-adv-x="500" 
d="M74 108h176v193h-176v74h176v187h79v-187h177v-74h-177v-193h177v-74h-432v74z" />
    <glyph glyph-name="twosuperior" unicode="&#xb2;" horiz-adv-x="290" 
d="M128 534l149 129q17 15 30.5 29t13.5 35q0 17 -11.5 28.5t-37.5 11.5q-21 0 -36 -14.5t-19 -36.5h-60q7 47 41 77.5t78 30.5q50 0 78.5 -28.5t28.5 -66.5q0 -17 -6.5 -31.5t-15 -25.5t-16 -18t-9.5 -8l-118 -101h134l-10 -57h-222z" />
    <glyph glyph-name="threesuperior" unicode="&#xb3;" horiz-adv-x="301" 
d="M252 483q-51 0 -82.5 28.5t-34.5 79.5h62q0 -19 13 -35t39 -16q27 0 43 14.5t16 33.5q0 20 -12 34t-35 14h-30l9 51h35q21 0 33.5 12t12.5 30q0 17 -10.5 27.5t-33.5 10.5q-22 0 -37 -14t-20 -32h-59q4 21 15.5 40t27.5 33t36 22t42 8q47 0 74.5 -27t27.5 -63
q0 -22 -7.5 -36t-15.5 -22q-10 -10 -22 -15q9 -5 16 -15q6 -8 11 -21t5 -30q0 -24 -9 -44.5t-24.5 -35.5t-37.5 -23.5t-48 -8.5z" />
    <glyph glyph-name="acute" unicode="&#xb4;" horiz-adv-x="222" 
d="M228 716h86l-121 -137h-57z" />
    <glyph glyph-name="mu" unicode="&#xb5;" horiz-adv-x="579" 
d="M165 511h85l-52 -299q-5 -29 2 -54t23 -44t39 -29.5t49 -10.5q55 0 95.5 35t51.5 95l53 307h85l-90 -511h-63l-14 57q-15 -18 -35 -32q-17 -12 -42 -21.5t-57 -9.5q-31 0 -54 10.5t-39 23.5q-18 15 -33 34l-42 -244h-85z" />
    <glyph glyph-name="paragraph" unicode="&#xb6;" horiz-adv-x="568" 
d="M278 386q-36 0 -67 13t-54 35.5t-36 52t-13 63.5t13 64.5t36 53t54 35.5t67 13h267v-818h-74v742h-119v-742h-74v488z" />
    <glyph glyph-name="periodcentered" unicode="&#xb7;" horiz-adv-x="244" 
d="M185 301q-26 0 -40 13.5t-14 36.5q0 29 17 46.5t43 17.5t40 -13.5t14 -36.5q0 -29 -17 -46.5t-43 -17.5z" />
    <glyph glyph-name="cedilla" unicode="&#xb8;" horiz-adv-x="222" 
d="M69 -193q-27 0 -47 5q-11 3 -19 6l8 43q7 -3 16 -5q8 -2 16.5 -3t18.5 -1q24 0 37 11.5t13 25.5q0 11 -13 21t-39 10q-5 0 -8.5 -0.5t-6.5 -0.5q-4 -1 -6 -1l47 82h53l-32 -45q29 -8 45 -26t16 -43q0 -32 -25 -55.5t-74 -23.5z" />
    <glyph glyph-name="onesuperior" unicode="&#xb9;" horiz-adv-x="233" 
d="M226 738l-49 -22l-20 45l101 57h45l-58 -330h-62z" />
    <glyph glyph-name="ordmasculine" unicode="&#xba;" horiz-adv-x="352" 
d="M264 426q-29 0 -53.5 10.5t-42 29t-27 43.5t-9.5 53q0 33 13 62t35 50.5t49.5 34t57.5 12.5q29 0 53.5 -10.5t42 -29t27 -43.5t9.5 -53q0 -33 -13 -62t-35 -50.5t-49.5 -34t-57.5 -12.5zM267 488q17 0 33 7t29 19.5t20.5 29t7.5 35.5q0 34 -21 57t-52 23q-17 0 -33 -7
t-29 -19.5t-20.5 -29t-7.5 -35.5q0 -33 21 -56.5t52 -23.5z" />
    <glyph glyph-name="guillemotright" unicode="&#xbb;" horiz-adv-x="500" 
d="M209 262l-90 175h82l93 -181l-157 -182h-90zM419 262l-90 175h82l93 -181l-156 -182h-91z" />
    <glyph glyph-name="onequarter" unicode="&#xbc;" horiz-adv-x="619" 
d="M609 716h74l-564 -716h-73zM208 636l-49 -22l-20 45l101 57h45l-58 -330h-62zM494 63h-142l8 45l175 222h68l-36 -210h40l-10 -57h-40l-12 -63h-62zM505 120l20 119l-94 -119h74z" />
    <glyph glyph-name="onehalf" unicode="&#xbd;" horiz-adv-x="648" 
d="M609 716h74l-564 -716h-73zM208 636l-49 -22l-20 45l101 57h45l-58 -330h-62zM400 46l149 129q17 15 30.5 29t13.5 35q0 17 -11.5 28.5t-37.5 11.5q-21 0 -36 -14.5t-19 -36.5h-60q7 47 41 77.5t78 30.5q50 0 78.5 -28.5t28.5 -66.5q0 -17 -6.5 -31.5t-15 -25.5t-16 -18
t-9.5 -8l-118 -101h134l-10 -57h-222z" />
    <glyph glyph-name="threequarters" unicode="&#xbe;" horiz-adv-x="676" 
d="M677 716h74l-564 -716h-73zM234 381q-51 0 -82.5 28.5t-34.5 79.5h62q0 -19 13 -35t39 -16q27 0 43 14.5t16 33.5q0 20 -12 34t-35 14h-30l9 51h35q21 0 33.5 12t12.5 30q0 17 -10.5 27.5t-33.5 10.5q-22 0 -37 -14t-20 -32h-59q4 21 15.5 40t27.5 33t36 22t42 8
q47 0 74.5 -27t27.5 -63q0 -22 -7.5 -36t-15.5 -22q-10 -10 -22 -15q9 -5 16 -15q6 -8 11 -21t5 -30q0 -24 -9 -44.5t-24.5 -35.5t-37.5 -23.5t-48 -8.5zM551 63h-142l8 45l175 222h68l-36 -210h40l-10 -57h-40l-12 -63h-62zM562 120l20 119l-94 -119h74z" />
    <glyph glyph-name="questiondown" unicode="&#xbf;" horiz-adv-x="477" 
d="M222 -187q-42 0 -77 12t-60.5 33.5t-39.5 52t-14 67.5q0 48 13.5 79.5t35 53.5t47.5 40t51 40t46 53t32 80l2 11h91l-3 -12q-12 -58 -32.5 -95t-45.5 -62.5t-50.5 -43.5t-46.5 -36.5t-34.5 -42t-13.5 -60.5q0 -42 30 -66.5t73 -24.5q55 0 89.5 36.5t48.5 105.5l2 11h90
l-4 -19q-18 -100 -78 -156.5t-152 -56.5zM317 403q-26 0 -39.5 13.5t-13.5 35.5q0 29 17 47t43 18t39.5 -13t13.5 -36q0 -29 -17 -47t-43 -18z" />
    <glyph glyph-name="Agrave" unicode="&#xc0;" horiz-adv-x="625" 
d="M404 716h80l146 -716h-95l-37 176h-296l-99 -176h-97zM484 256l-65 312l-174 -312h239zM308 904h85l68 -137h-57z" />
    <glyph glyph-name="Aacute" unicode="&#xc1;" horiz-adv-x="625" 
d="M404 716h80l146 -716h-95l-37 176h-296l-99 -176h-97zM484 256l-65 312l-174 -312h239zM515 904h86l-121 -137h-57z" />
    <glyph glyph-name="Acircumflex" unicode="&#xc2;" horiz-adv-x="625" 
d="M404 716h80l146 -716h-95l-37 176h-296l-99 -176h-97zM484 256l-65 312l-174 -312h239zM430 904h80l78 -136h-79l-44 79l-70 -79h-91z" />
    <glyph glyph-name="Atilde" unicode="&#xc3;" horiz-adv-x="625" 
d="M404 716h80l146 -716h-95l-37 176h-296l-99 -176h-97zM484 256l-65 312l-174 -312h239zM514 767q-26 0 -42 11.5t-27.5 25t-22 25t-25.5 11.5q-18 0 -35 -17.5t-22 -49.5h-51q10 64 41.5 97.5t69.5 33.5q25 0 41 -11.5t27.5 -25.5t22.5 -25.5t26 -11.5q18 0 35 18t22 50
h51q-11 -64 -42 -97.5t-69 -33.5z" />
    <glyph glyph-name="Adieresis" unicode="&#xc4;" horiz-adv-x="625" 
d="M404 716h80l146 -716h-95l-37 176h-296l-99 -176h-97zM484 256l-65 312l-174 -312h239zM369 802q-22 0 -35 13t-13 33q0 23 16.5 39.5t39.5 16.5q21 0 34 -13t13 -34q0 -23 -16.5 -39t-38.5 -16zM538 802q-21 0 -34.5 13t-13.5 33q0 23 16.5 39.5t39.5 16.5
q21 0 34.5 -13t13.5 -34q0 -23 -16.5 -39t-39.5 -16z" />
    <glyph glyph-name="Aring" unicode="&#xc5;" horiz-adv-x="625" 
d="M404 716h80l146 -716h-95l-37 176h-296l-99 -176h-97zM484 256l-65 312l-174 -312h239zM452 722q-37 0 -60 23.5t-23 58.5q0 21 8 39.5t21.5 32t31 21t37.5 7.5q37 0 60 -23.5t23 -58.5q0 -21 -8 -39.5t-21.5 -32t-31.5 -21t-37 -7.5zM458 773q16 0 29 12.5t13 31.5
q0 15 -11 25.5t-28 10.5q-16 0 -29 -13t-13 -32q0 -14 11 -24.5t28 -10.5z" />
    <glyph glyph-name="AE" unicode="&#xc6;" horiz-adv-x="920" 
d="M501 716h477l-14 -80h-318l-41 -227h290l-13 -80h-290l-44 -249h329l-14 -80h-420l32 182h-267l-134 -182h-102zM490 261l66 375h-12l-276 -375h222z" />
    <glyph glyph-name="Ccedilla" unicode="&#xc7;" horiz-adv-x="716" 
d="M375 -193q-27 0 -47 5q-11 3 -19 6l8 45q0 1 16 -4.5t35 -5.5q24 0 37 10.5t13 24.5q0 11 -13 21.5t-39 10.5q-5 0 -9 -0.5t-7 -0.5q-4 -1 -6 -1l45 77q-61 3 -113.5 29t-91.5 69t-61 101t-22 125q0 85 32.5 158.5t86 127.5t120.5 85t136 31q57 0 105.5 -19.5t86 -53
t63 -78t36.5 -93.5h-93q-16 46 -43 82q-24 31 -63.5 57t-98.5 26q-50 0 -99 -24t-89 -66.5t-64.5 -101t-24.5 -127.5q0 -56 17.5 -102t47.5 -78.5t70 -50.5t84 -18q38 0 74 14t67.5 37.5t56.5 53t40 60.5h95q-20 -47 -52 -88t-71.5 -73t-85 -53t-93.5 -27l-30 -43
q29 -8 45.5 -26t16.5 -43q0 -32 -25 -55.5t-74 -23.5z" />
    <glyph glyph-name="Egrave" unicode="&#xc8;" horiz-adv-x="613" 
d="M217 716h454l-13 -80h-364l-41 -227h335l-13 -80h-335l-45 -249h375l-13 -80h-466zM331 904h85l68 -137h-57z" />
    <glyph glyph-name="Eacute" unicode="&#xc9;" horiz-adv-x="613" 
d="M217 716h454l-13 -80h-364l-41 -227h335l-13 -80h-335l-45 -249h375l-13 -80h-466zM510 904h86l-121 -137h-57z" />
    <glyph glyph-name="Ecircumflex" unicode="&#xca;" horiz-adv-x="613" 
d="M217 716h454l-13 -80h-364l-41 -227h335l-13 -80h-335l-45 -249h375l-13 -80h-466zM430 904h80l78 -136h-79l-44 79l-70 -79h-91z" />
    <glyph glyph-name="Edieresis" unicode="&#xcb;" horiz-adv-x="613" 
d="M217 716h454l-13 -80h-364l-41 -227h335l-13 -80h-335l-45 -249h375l-13 -80h-466zM369 802q-22 0 -35 13t-13 33q0 23 16.5 39.5t39.5 16.5q21 0 34 -13t13 -34q0 -23 -16.5 -39t-38.5 -16zM538 802q-21 0 -34.5 13t-13.5 33q0 23 16.5 39.5t39.5 16.5q21 0 34.5 -13
t13.5 -34q0 -23 -16.5 -39t-39.5 -16z" />
    <glyph glyph-name="Igrave" unicode="&#xcc;" horiz-adv-x="273" 
d="M217 716h91l-126 -716h-91zM138 904h85l68 -137h-57z" />
    <glyph glyph-name="Iacute" unicode="&#xcd;" horiz-adv-x="273" 
d="M217 716h91l-126 -716h-91zM336 904h86l-121 -137h-57z" />
    <glyph glyph-name="Icircumflex" unicode="&#xce;" horiz-adv-x="273" 
d="M217 716h91l-126 -716h-91zM258 904h80l78 -136h-79l-44 79l-70 -79h-91z" />
    <glyph glyph-name="Idieresis" unicode="&#xcf;" horiz-adv-x="273" 
d="M217 716h91l-126 -716h-91zM196 802q-22 0 -35 13t-13 33q0 23 16.5 39.5t39.5 16.5q21 0 34 -13t13 -34q0 -23 -16.5 -39t-38.5 -16zM365 802q-21 0 -34.5 13t-13.5 33q0 23 16.5 39.5t39.5 16.5q21 0 34.5 -13t13.5 -34q0 -23 -16.5 -39t-39.5 -16z" />
    <glyph glyph-name="Eth" unicode="&#xd0;" horiz-adv-x="704" 
d="M173 312h-101l13 80h102l57 324h201q62 0 113.5 -25.5t88.5 -69t57.5 -101t20.5 -121.5q0 -80 -29.5 -152.5t-80.5 -127t-119.5 -87t-146.5 -32.5h-231zM353 80q51 0 101.5 24t90.5 66t64.5 99t24.5 123q0 50 -16 94.5t-43.5 78t-64.5 53t-79 19.5l-110 -1l-43 -244h137
l-14 -80h-137l-41 -232h130z" />
    <glyph glyph-name="Ntilde" unicode="&#xd1;" horiz-adv-x="710" 
d="M217 716h79l262 -546l96 546h91l-126 -716h-79l-262 545l-96 -545h-91zM554 767q-26 0 -42 11.5t-27.5 25t-22 25t-25.5 11.5q-18 0 -35 -17.5t-22 -49.5h-51q10 64 41.5 97.5t69.5 33.5q25 0 41 -11.5t27.5 -25.5t22.5 -25.5t26 -11.5q18 0 35 18t22 50h51
q-11 -64 -42 -97.5t-69 -33.5z" />
    <glyph glyph-name="Ograve" unicode="&#xd2;" horiz-adv-x="750" 
d="M401 -6q-62 0 -117 25t-95.5 68.5t-64 103t-23.5 128.5q0 85 32.5 158.5t85.5 127.5t120.5 85t136.5 31q62 0 117 -25t95.5 -68.5t64 -103t23.5 -128.5q0 -85 -32.5 -158.5t-85.5 -127.5t-120.5 -85t-136.5 -31zM408 74q53 0 103 25t88.5 68.5t62 102t23.5 125.5
q0 54 -17.5 99t-47 78t-69 51.5t-82.5 18.5q-50 0 -99 -23.5t-89 -66t-64.5 -101.5t-24.5 -130q0 -54 17.5 -99t47 -78t68.5 -51.5t83 -18.5zM365 904h85l68 -137h-57z" />
    <glyph glyph-name="Oacute" unicode="&#xd3;" horiz-adv-x="750" 
d="M401 -6q-62 0 -117 25t-95.5 68.5t-64 103t-23.5 128.5q0 85 32.5 158.5t85.5 127.5t120.5 85t136.5 31q62 0 117 -25t95.5 -68.5t64 -103t23.5 -128.5q0 -85 -32.5 -158.5t-85.5 -127.5t-120.5 -85t-136.5 -31zM408 74q53 0 103 25t88.5 68.5t62 102t23.5 125.5
q0 54 -17.5 99t-47 78t-69 51.5t-82.5 18.5q-50 0 -99 -23.5t-89 -66t-64.5 -101.5t-24.5 -130q0 -54 17.5 -99t47 -78t68.5 -51.5t83 -18.5zM555 904h86l-121 -137h-57z" />
    <glyph glyph-name="Ocircumflex" unicode="&#xd4;" horiz-adv-x="750" 
d="M401 -6q-62 0 -117 25t-95.5 68.5t-64 103t-23.5 128.5q0 85 32.5 158.5t85.5 127.5t120.5 85t136.5 31q62 0 117 -25t95.5 -68.5t64 -103t23.5 -128.5q0 -85 -32.5 -158.5t-85.5 -127.5t-120.5 -85t-136.5 -31zM408 74q53 0 103 25t88.5 68.5t62 102t23.5 125.5
q0 54 -17.5 99t-47 78t-69 51.5t-82.5 18.5q-50 0 -99 -23.5t-89 -66t-64.5 -101.5t-24.5 -130q0 -54 17.5 -99t47 -78t68.5 -51.5t83 -18.5zM476 904h80l78 -136h-79l-44 79l-70 -79h-91z" />
    <glyph glyph-name="Otilde" unicode="&#xd5;" horiz-adv-x="750" 
d="M401 -6q-62 0 -117 25t-95.5 68.5t-64 103t-23.5 128.5q0 85 32.5 158.5t85.5 127.5t120.5 85t136.5 31q62 0 117 -25t95.5 -68.5t64 -103t23.5 -128.5q0 -85 -32.5 -158.5t-85.5 -127.5t-120.5 -85t-136.5 -31zM408 74q53 0 103 25t88.5 68.5t62 102t23.5 125.5
q0 54 -17.5 99t-47 78t-69 51.5t-82.5 18.5q-50 0 -99 -23.5t-89 -66t-64.5 -101.5t-24.5 -130q0 -54 17.5 -99t47 -78t68.5 -51.5t83 -18.5zM559 767q-26 0 -42 11.5t-27.5 25t-22 25t-25.5 11.5q-18 0 -35 -17.5t-22 -49.5h-51q10 64 41.5 97.5t69.5 33.5q25 0 41 -11.5
t27.5 -25.5t22.5 -25.5t26 -11.5q18 0 35 18t22 50h51q-11 -64 -42 -97.5t-69 -33.5z" />
    <glyph glyph-name="Odieresis" unicode="&#xd6;" horiz-adv-x="750" 
d="M401 -6q-62 0 -117 25t-95.5 68.5t-64 103t-23.5 128.5q0 85 32.5 158.5t85.5 127.5t120.5 85t136.5 31q62 0 117 -25t95.5 -68.5t64 -103t23.5 -128.5q0 -85 -32.5 -158.5t-85.5 -127.5t-120.5 -85t-136.5 -31zM408 74q53 0 103 25t88.5 68.5t62 102t23.5 125.5
q0 54 -17.5 99t-47 78t-69 51.5t-82.5 18.5q-50 0 -99 -23.5t-89 -66t-64.5 -101.5t-24.5 -130q0 -54 17.5 -99t47 -78t68.5 -51.5t83 -18.5zM415 802q-22 0 -35 13t-13 33q0 23 16.5 39.5t39.5 16.5q21 0 34 -13t13 -34q0 -23 -16.5 -39t-38.5 -16zM584 802q-21 0 -34.5 13
t-13.5 33q0 23 16.5 39.5t39.5 16.5q21 0 34.5 -13t13.5 -34q0 -23 -16.5 -39t-39.5 -16z" />
    <glyph glyph-name="multiply" unicode="&#xd7;" horiz-adv-x="500" 
d="M119 158l131 131l-131 130l51 51l131 -130l131 130l51 -51l-131 -130l131 -131l-51 -51l-131 130l-131 -130z" />
    <glyph glyph-name="Oslash" unicode="&#xd8;" horiz-adv-x="761" 
d="M407 -6q-66 0 -123 27.5t-99 75.5l-103 -86l-47 57l109 90q-37 74 -37 161q0 85 32.5 158.5t85.5 127.5t120 85t137 31q66 0 122.5 -27.5t97.5 -75.5l105 86l46 -56l-110 -91q19 -35 29 -75.5t10 -85.5q0 -85 -32.5 -158.5t-85.5 -127.5t-120.5 -85t-136.5 -31zM414 74
q53 0 103 25t88.5 68.5t62 102t23.5 125.5q0 55 -20 103l-418 -345q30 -38 71.5 -58.5t89.5 -20.5zM634 562q-30 37 -71.5 58.5t-87.5 21.5q-50 0 -99 -23.5t-89 -66t-64.5 -101.5t-24.5 -130q0 -58 19 -103z" />
    <glyph glyph-name="Ugrave" unicode="&#xd9;" horiz-adv-x="682" 
d="M366 -6q-64 0 -110 20t-75 53t-43 74.5t-14 84.5q0 13 1 25.5t3 24.5l78 440h90l-78 -446q-2 -11 -3 -22t-1 -22q0 -69 41 -110.5t116 -41.5q34 0 64.5 11.5t54.5 33.5t40.5 52t22.5 68l84 477h91l-85 -484q-9 -52 -33.5 -95.5t-61.5 -75t-83.5 -49.5t-98.5 -18zM348 904
h85l68 -137h-57z" />
    <glyph glyph-name="Uacute" unicode="&#xda;" horiz-adv-x="682" 
d="M366 -6q-64 0 -110 20t-75 53t-43 74.5t-14 84.5q0 13 1 25.5t3 24.5l78 440h90l-78 -446q-2 -11 -3 -22t-1 -22q0 -69 41 -110.5t116 -41.5q34 0 64.5 11.5t54.5 33.5t40.5 52t22.5 68l84 477h91l-85 -484q-9 -52 -33.5 -95.5t-61.5 -75t-83.5 -49.5t-98.5 -18zM527 904
h86l-121 -137h-57z" />
    <glyph glyph-name="Ucircumflex" unicode="&#xdb;" horiz-adv-x="682" 
d="M366 -6q-64 0 -110 20t-75 53t-43 74.5t-14 84.5q0 13 1 25.5t3 24.5l78 440h90l-78 -446q-2 -11 -3 -22t-1 -22q0 -69 41 -110.5t116 -41.5q34 0 64.5 11.5t54.5 33.5t40.5 52t22.5 68l84 477h91l-85 -484q-9 -52 -33.5 -95.5t-61.5 -75t-83.5 -49.5t-98.5 -18zM453 904
h80l78 -136h-79l-44 79l-70 -79h-91z" />
    <glyph glyph-name="Udieresis" unicode="&#xdc;" horiz-adv-x="682" 
d="M366 -6q-64 0 -110 20t-75 53t-43 74.5t-14 84.5q0 13 1 25.5t3 24.5l78 440h90l-78 -446q-2 -11 -3 -22t-1 -22q0 -69 41 -110.5t116 -41.5q34 0 64.5 11.5t54.5 33.5t40.5 52t22.5 68l84 477h91l-85 -484q-9 -52 -33.5 -95.5t-61.5 -75t-83.5 -49.5t-98.5 -18zM392 802
q-22 0 -35 13t-13 33q0 23 16.5 39.5t39.5 16.5q21 0 34 -13t13 -34q0 -23 -16.5 -39t-38.5 -16zM561 802q-21 0 -34.5 13t-13.5 33q0 23 16.5 39.5t39.5 16.5q21 0 34.5 -13t13.5 -34q0 -23 -16.5 -39t-39.5 -16z" />
    <glyph glyph-name="Yacute" unicode="&#xdd;" horiz-adv-x="579" 
d="M287 278l-155 438h96l116 -341l242 341h102l-310 -438l-49 -278h-90zM476 904h86l-121 -137h-57z" />
    <glyph glyph-name="Thorn" unicode="&#xde;" horiz-adv-x="659" 
d="M217 716h91l-22 -125h205q41 0 75.5 -17.5t59.5 -46t39 -65t14 -73.5q0 -46 -20 -87.5t-54 -73t-77.5 -50.5t-91.5 -19h-226l-28 -159h-91zM441 239q28 0 55 11.5t48 31.5t34 46.5t13 56.5q0 24 -8.5 47t-24 40.5t-36.5 28t-45 10.5h-205l-48 -272h217z" />
    <glyph glyph-name="germandbls" unicode="&#xdf;" horiz-adv-x="568" 
d="M170 545q6 36 25.5 68t49 56t66 38t75.5 14q41 0 75 -13.5t58 -37.5t37.5 -56.5t13.5 -70.5q0 -50 -15 -83t-33 -53q-21 -24 -47 -38q25 -13 45 -34q17 -18 31 -47t14 -71q0 -48 -17.5 -87.5t-46.5 -68.5t-67 -45t-80 -16h-76l13 74h66q24 0 46 10t39 28.5t27 45t10 59.5
q0 45 -23 76t-64 31h-57l14 74h10q24 0 47 10t40.5 28.5t28 44t10.5 57.5q0 48 -28.5 79t-73.5 31q-22 0 -43.5 -9t-39.5 -24.5t-30.5 -35.5t-16.5 -42l-94 -537h-85z" />
    <glyph glyph-name="agrave" unicode="&#xe0;" horiz-adv-x="528" 
d="M239 -6q-39 0 -69 11.5t-51 31.5t-32 46.5t-11 56.5q0 50 27 83t74.5 53t112.5 28t141 8l3 20q4 22 -3 41t-21.5 33t-35.5 22.5t-46 8.5q-39 0 -65 -22t-39 -51h-94q8 29 26.5 56.5t45 49t60 34.5t72.5 13q60 0 98 -20t58.5 -49t26.5 -62t1 -58l-58 -328h-62l-14 57
q-16 -18 -38 -32q-19 -12 -45.5 -21.5t-61.5 -9.5zM249 74q32 0 59.5 10.5t48.5 27.5t34.5 38.5t17.5 42.5l7 40q-86 0 -137 -7.5t-77 -20.5t-33.5 -31t-7.5 -38q0 -32 26.5 -47t61.5 -15zM238 727h85l68 -137h-57z" />
    <glyph glyph-name="aacute" unicode="&#xe1;" horiz-adv-x="528" 
d="M239 -6q-39 0 -69 11.5t-51 31.5t-32 46.5t-11 56.5q0 50 27 83t74.5 53t112.5 28t141 8l3 20q4 22 -3 41t-21.5 33t-35.5 22.5t-46 8.5q-39 0 -65 -22t-39 -51h-94q8 29 26.5 56.5t45 49t60 34.5t72.5 13q60 0 98 -20t58.5 -49t26.5 -62t1 -58l-58 -328h-62l-14 57
q-16 -18 -38 -32q-19 -12 -45.5 -21.5t-61.5 -9.5zM249 74q32 0 59.5 10.5t48.5 27.5t34.5 38.5t17.5 42.5l7 40q-86 0 -137 -7.5t-77 -20.5t-33.5 -31t-7.5 -38q0 -32 26.5 -47t61.5 -15zM429 727h86l-121 -137h-57z" />
    <glyph glyph-name="acircumflex" unicode="&#xe2;" horiz-adv-x="528" 
d="M239 -6q-39 0 -69 11.5t-51 31.5t-32 46.5t-11 56.5q0 50 27 83t74.5 53t112.5 28t141 8l3 20q4 22 -3 41t-21.5 33t-35.5 22.5t-46 8.5q-39 0 -65 -22t-39 -51h-94q8 29 26.5 56.5t45 49t60 34.5t72.5 13q60 0 98 -20t58.5 -49t26.5 -62t1 -58l-58 -328h-62l-14 57
q-16 -18 -38 -32q-19 -12 -45.5 -21.5t-61.5 -9.5zM249 74q32 0 59.5 10.5t48.5 27.5t34.5 38.5t17.5 42.5l7 40q-86 0 -137 -7.5t-77 -20.5t-33.5 -31t-7.5 -38q0 -32 26.5 -47t61.5 -15zM350 727h80l78 -136h-79l-44 79l-70 -79h-91z" />
    <glyph glyph-name="atilde" unicode="&#xe3;" horiz-adv-x="528" 
d="M239 -6q-39 0 -69 11.5t-51 31.5t-32 46.5t-11 56.5q0 50 27 83t74.5 53t112.5 28t141 8l3 20q4 22 -3 41t-21.5 33t-35.5 22.5t-46 8.5q-39 0 -65 -22t-39 -51h-94q8 29 26.5 56.5t45 49t60 34.5t72.5 13q60 0 98 -20t58.5 -49t26.5 -62t1 -58l-58 -328h-62l-14 57
q-16 -18 -38 -32q-19 -12 -45.5 -21.5t-61.5 -9.5zM249 74q32 0 59.5 10.5t48.5 27.5t34.5 38.5t17.5 42.5l7 40q-86 0 -137 -7.5t-77 -20.5t-33.5 -31t-7.5 -38q0 -32 26.5 -47t61.5 -15zM432 579q-26 0 -42 11.5t-27.5 25t-22 25t-25.5 11.5q-18 0 -35 -17.5t-22 -49.5
h-51q10 64 41.5 97.5t69.5 33.5q25 0 41 -11.5t27.5 -25.5t22.5 -25.5t26 -11.5q18 0 35 18t22 50h51q-11 -64 -42 -97.5t-69 -33.5z" />
    <glyph glyph-name="adieresis" unicode="&#xe4;" horiz-adv-x="528" 
d="M239 -6q-39 0 -69 11.5t-51 31.5t-32 46.5t-11 56.5q0 50 27 83t74.5 53t112.5 28t141 8l3 20q4 22 -3 41t-21.5 33t-35.5 22.5t-46 8.5q-39 0 -65 -22t-39 -51h-94q8 29 26.5 56.5t45 49t60 34.5t72.5 13q60 0 98 -20t58.5 -49t26.5 -62t1 -58l-58 -328h-62l-14 57
q-16 -18 -38 -32q-19 -12 -45.5 -21.5t-61.5 -9.5zM249 74q32 0 59.5 10.5t48.5 27.5t34.5 38.5t17.5 42.5l7 40q-86 0 -137 -7.5t-77 -20.5t-33.5 -31t-7.5 -38q0 -32 26.5 -47t61.5 -15zM283 602q-22 0 -35 13t-13 33q0 23 16.5 39.5t39.5 16.5q21 0 34 -13t13 -34
q0 -23 -16.5 -39t-38.5 -16zM452 602q-21 0 -34.5 13t-13.5 33q0 23 16.5 39.5t39.5 16.5q21 0 34.5 -13t13.5 -34q0 -23 -16.5 -39t-39.5 -16z" />
    <glyph glyph-name="aring" unicode="&#xe5;" horiz-adv-x="528" 
d="M239 -6q-39 0 -69 11.5t-51 31.5t-32 46.5t-11 56.5q0 50 27 83t74.5 53t112.5 28t141 8l3 20q4 22 -3 41t-21.5 33t-35.5 22.5t-46 8.5q-39 0 -65 -22t-39 -51h-94q8 29 26.5 56.5t45 49t60 34.5t72.5 13q60 0 98 -20t58.5 -49t26.5 -62t1 -58l-58 -328h-62l-14 57
q-16 -18 -38 -32q-19 -12 -45.5 -21.5t-61.5 -9.5zM249 74q32 0 59.5 10.5t48.5 27.5t34.5 38.5t17.5 42.5l7 40q-86 0 -137 -7.5t-77 -20.5t-33.5 -31t-7.5 -38q0 -32 26.5 -47t61.5 -15zM371 579q-37 0 -60 23.5t-23 58.5q0 21 8 39.5t21.5 32t31 21t37.5 7.5
q37 0 60 -23.5t23 -58.5q0 -21 -8 -39.5t-21.5 -32t-31.5 -21t-37 -7.5zM377 630q16 0 29 12.5t13 31.5q0 15 -11 25.5t-28 10.5q-16 0 -29 -13t-13 -32q0 -14 11 -24.5t28 -10.5z" />
    <glyph glyph-name="ae" unicode="&#xe6;" horiz-adv-x="841" 
d="M243 -6q-40 0 -70.5 11.5t-51 31.5t-31 46.5t-10.5 56.5q0 50 26 82.5t71 51t106.5 26t132.5 7.5l3 25q4 22 -2.5 41t-20.5 33t-34.5 22.5t-44.5 8.5q-37 0 -61.5 -22t-37.5 -51h-88q8 29 25.5 56.5t42.5 49t56.5 34.5t68.5 13q63 0 101 -24.5t57 -57.5q34 38 78 60
t91 22q50 0 87.5 -18.5t63 -49t38.5 -70t13 -80.5t-8 -59t-7 -18h-346q0 -65 30 -106.5t91 -41.5q20 0 38.5 6.5t34 16.5t26.5 20.5t16 18.5h93q-32 -63 -88 -102.5t-125 -39.5q-33 0 -62 11t-51.5 27.5t-38.5 35t-23 34.5q-6 -11 -21 -29t-38.5 -35.5t-56 -30.5t-73.5 -13z
M242 74q30 0 56.5 10.5t46.5 27.5t33 38.5t17 42.5l7 34q-81 0 -129 -6.5t-73 -18.5t-32.5 -29t-7.5 -37q0 -32 24.5 -47t57.5 -15zM770 295q2 32 -7 58.5t-25.5 45t-37.5 28.5t-43 10q-24 0 -48.5 -9.5t-45 -27.5t-36 -44.5t-21.5 -60.5h264z" />
    <glyph glyph-name="ccedilla" unicode="&#xe7;" horiz-adv-x="534" 
d="M258 -192q-27 0 -47 5q-11 3 -19 6l8 46q0 1 16 -4t35 -5q24 0 37 10t13 24q0 11 -13 22t-39 11q-8 0 -16 -2q-4 -1 -6 -1l45 75q-42 4 -77 22.5t-60.5 48.5t-39.5 70t-14 86q0 65 22.5 119.5t59.5 93.5t85 60.5t98 21.5q45 0 82 -15t64.5 -40.5t44.5 -59.5t22 -73h-89
q-3 15 -12.5 34t-25.5 35.5t-38.5 27.5t-51.5 11q-31 0 -62.5 -15t-56.5 -42t-41 -65.5t-16 -85.5q0 -35 10.5 -63.5t29 -48.5t43 -31.5t52.5 -11.5q48 0 89.5 30.5t62.5 77.5h87q-12 -32 -32 -63t-47 -56.5t-61 -43t-75 -22.5l-30 -42q29 -8 45.5 -25.5t16.5 -41.5
q0 -33 -25 -56.5t-74 -23.5z" />
    <glyph glyph-name="egrave" unicode="&#xe8;" horiz-adv-x="551" 
d="M296 -6q-46 0 -85.5 17t-68 47t-45 72t-16.5 92q0 65 22.5 119.5t59 93.5t83.5 60.5t96 21.5q53 0 93 -18.5t67 -49t41 -70t14 -80.5t-8.5 -62t-7.5 -21h-374q2 -26 11 -51.5t26 -45.5t41.5 -32.5t56.5 -12.5q21 0 41 6.5t36 16.5t27.5 20.5t17.5 18.5h100
q-35 -63 -95 -102.5t-133 -39.5zM470 290q2 34 -8 61.5t-28 46.5t-42 29t-49 10q-26 0 -51.5 -11t-48 -30.5t-40 -46.5t-27.5 -59h294zM232 727h85l68 -137h-57z" />
    <glyph glyph-name="eacute" unicode="&#xe9;" horiz-adv-x="551" 
d="M296 -6q-46 0 -85.5 17t-68 47t-45 72t-16.5 92q0 65 22.5 119.5t59 93.5t83.5 60.5t96 21.5q53 0 93 -18.5t67 -49t41 -70t14 -80.5t-8.5 -62t-7.5 -21h-374q2 -26 11 -51.5t26 -45.5t41.5 -32.5t56.5 -12.5q21 0 41 6.5t36 16.5t27.5 20.5t17.5 18.5h100
q-35 -63 -95 -102.5t-133 -39.5zM470 290q2 34 -8 61.5t-28 46.5t-42 29t-49 10q-26 0 -51.5 -11t-48 -30.5t-40 -46.5t-27.5 -59h294zM423 727h86l-121 -137h-57z" />
    <glyph glyph-name="ecircumflex" unicode="&#xea;" horiz-adv-x="551" 
d="M296 -6q-46 0 -85.5 17t-68 47t-45 72t-16.5 92q0 65 22.5 119.5t59 93.5t83.5 60.5t96 21.5q53 0 93 -18.5t67 -49t41 -70t14 -80.5t-8.5 -62t-7.5 -21h-374q2 -26 11 -51.5t26 -45.5t41.5 -32.5t56.5 -12.5q21 0 41 6.5t36 16.5t27.5 20.5t17.5 18.5h100
q-35 -63 -95 -102.5t-133 -39.5zM470 290q2 34 -8 61.5t-28 46.5t-42 29t-49 10q-26 0 -51.5 -11t-48 -30.5t-40 -46.5t-27.5 -59h294zM344 727h80l78 -136h-79l-44 79l-70 -79h-91z" />
    <glyph glyph-name="edieresis" unicode="&#xeb;" horiz-adv-x="551" 
d="M296 -6q-46 0 -85.5 17t-68 47t-45 72t-16.5 92q0 65 22.5 119.5t59 93.5t83.5 60.5t96 21.5q53 0 93 -18.5t67 -49t41 -70t14 -80.5t-8.5 -62t-7.5 -21h-374q2 -26 11 -51.5t26 -45.5t41.5 -32.5t56.5 -12.5q21 0 41 6.5t36 16.5t27.5 20.5t17.5 18.5h100
q-35 -63 -95 -102.5t-133 -39.5zM470 290q2 34 -8 61.5t-28 46.5t-42 29t-49 10q-26 0 -51.5 -11t-48 -30.5t-40 -46.5t-27.5 -59h294zM283 602q-22 0 -35 13t-13 33q0 23 16.5 39.5t39.5 16.5q21 0 34 -13t13 -34q0 -23 -16.5 -39t-38.5 -16zM452 602q-21 0 -34.5 13
t-13.5 33q0 23 16.5 39.5t39.5 16.5q21 0 34.5 -13t13.5 -34q0 -23 -16.5 -39t-39.5 -16z" />
    <glyph glyph-name="igrave" unicode="&#xec;" horiz-adv-x="233" 
d="M164 511h85l-90 -511h-85zM84 727h85l68 -137h-57z" />
    <glyph glyph-name="iacute" unicode="&#xed;" horiz-adv-x="233" 
d="M164 511h85l-90 -511h-85zM281 727h86l-121 -137h-57z" />
    <glyph glyph-name="icircumflex" unicode="&#xee;" horiz-adv-x="233" 
d="M164 511h85l-90 -511h-85zM196 727h80l78 -136h-79l-44 79l-70 -79h-91z" />
    <glyph glyph-name="idieresis" unicode="&#xef;" horiz-adv-x="233" 
d="M164 511h85l-90 -511h-85zM135 602q-22 0 -35 13t-13 33q0 23 16.5 39.5t39.5 16.5q21 0 34 -13t13 -34q0 -23 -16.5 -39t-38.5 -16zM304 602q-21 0 -34.5 13t-13.5 33q0 23 16.5 39.5t39.5 16.5q21 0 34.5 -13t13.5 -34q0 -23 -16.5 -39t-39.5 -16z" />
    <glyph glyph-name="eth" unicode="&#xf0;" horiz-adv-x="579" 
d="M310 -6q-50 0 -91.5 17.5t-71.5 47.5t-46.5 71t-16.5 88q0 60 22.5 110.5t59.5 87.5t83.5 57.5t94.5 20.5q47 0 78.5 -13t51.5 -28q23 -18 38 -41q0 50 -11.5 88.5t-25.5 64.5q-17 31 -37 54l-114 -68l-30 57l96 57q-17 13 -36 22t-36 16q-19 7 -39 13l40 68
q26 -10 52 -21q22 -10 46 -23.5t43 -29.5l102 62l30 -56l-89 -51q24 -29 42 -71q16 -36 29.5 -90t13.5 -126q0 -90 -21 -161.5t-58.5 -121t-88.5 -75.5t-110 -26zM314 74q33 0 64 14.5t55.5 40t39.5 60.5t15 75q0 32 -11 59.5t-30 48t-45.5 32t-56.5 11.5q-33 0 -64 -14.5
t-56 -40t-40 -60.5t-15 -75q0 -32 11 -60t30.5 -48t46 -31.5t56.5 -11.5z" />
    <glyph glyph-name="ntilde" unicode="&#xf1;" horiz-adv-x="574" 
d="M164 511h62l14 -57q16 17 37 31q18 12 43.5 22t57.5 10q50 0 84.5 -18t55.5 -46t30.5 -63t9.5 -69q0 -25 -4 -44l-48 -277h-86l50 285q6 32 -0.5 59.5t-22 48t-38.5 32.5t-51 12q-55 0 -95 -35t-51 -95l-53 -307h-85zM455 579q-26 0 -42 11.5t-27.5 25t-22 25t-25.5 11.5
q-18 0 -35 -17.5t-22 -49.5h-51q10 64 41.5 97.5t69.5 33.5q25 0 41 -11.5t27.5 -25.5t22.5 -25.5t26 -11.5q18 0 35 18t22 50h51q-11 -64 -42 -97.5t-69 -33.5z" />
    <glyph glyph-name="ograve" unicode="&#xf2;" 
d="M296 -6q-46 0 -85.5 17t-68 47t-45 72t-16.5 92q0 65 22.5 119.5t59.5 93.5t85 60.5t98 21.5q46 0 86 -17t68.5 -47t45 -71.5t16.5 -91.5q0 -66 -22.5 -120.5t-60 -93.5t-85 -60.5t-98.5 -21.5zM301 74q31 0 62.5 15t56.5 42.5t40.5 65.5t15.5 85q0 34 -10.5 63t-28.5 49
t-42.5 31.5t-52.5 11.5q-32 0 -63 -15t-56 -43t-40.5 -66.5t-15.5 -84.5q0 -35 10.5 -63t28.5 -48.5t42.5 -31.5t52.5 -11zM232 727h85l68 -137h-57z" />
    <glyph glyph-name="oacute" unicode="&#xf3;" 
d="M296 -6q-46 0 -85.5 17t-68 47t-45 72t-16.5 92q0 65 22.5 119.5t59.5 93.5t85 60.5t98 21.5q46 0 86 -17t68.5 -47t45 -71.5t16.5 -91.5q0 -66 -22.5 -120.5t-60 -93.5t-85 -60.5t-98.5 -21.5zM301 74q31 0 62.5 15t56.5 42.5t40.5 65.5t15.5 85q0 34 -10.5 63t-28.5 49
t-42.5 31.5t-52.5 11.5q-32 0 -63 -15t-56 -43t-40.5 -66.5t-15.5 -84.5q0 -35 10.5 -63t28.5 -48.5t42.5 -31.5t52.5 -11zM429 727h86l-121 -137h-57z" />
    <glyph glyph-name="ocircumflex" unicode="&#xf4;" 
d="M296 -6q-46 0 -85.5 17t-68 47t-45 72t-16.5 92q0 65 22.5 119.5t59.5 93.5t85 60.5t98 21.5q46 0 86 -17t68.5 -47t45 -71.5t16.5 -91.5q0 -66 -22.5 -120.5t-60 -93.5t-85 -60.5t-98.5 -21.5zM301 74q31 0 62.5 15t56.5 42.5t40.5 65.5t15.5 85q0 34 -10.5 63t-28.5 49
t-42.5 31.5t-52.5 11.5q-32 0 -63 -15t-56 -43t-40.5 -66.5t-15.5 -84.5q0 -35 10.5 -63t28.5 -48.5t42.5 -31.5t52.5 -11zM344 727h80l78 -136h-79l-44 79l-70 -79h-91z" />
    <glyph glyph-name="otilde" unicode="&#xf5;" 
d="M296 -6q-46 0 -85.5 17t-68 47t-45 72t-16.5 92q0 65 22.5 119.5t59.5 93.5t85 60.5t98 21.5q46 0 86 -17t68.5 -47t45 -71.5t16.5 -91.5q0 -66 -22.5 -120.5t-60 -93.5t-85 -60.5t-98.5 -21.5zM301 74q31 0 62.5 15t56.5 42.5t40.5 65.5t15.5 85q0 34 -10.5 63t-28.5 49
t-42.5 31.5t-52.5 11.5q-32 0 -63 -15t-56 -43t-40.5 -66.5t-15.5 -84.5q0 -35 10.5 -63t28.5 -48.5t42.5 -31.5t52.5 -11zM426 579q-26 0 -42 11.5t-27.5 25t-22 25t-25.5 11.5q-18 0 -35 -17.5t-22 -49.5h-51q10 64 41.5 97.5t69.5 33.5q25 0 41 -11.5t27.5 -25.5
t22.5 -25.5t26 -11.5q18 0 35 18t22 50h51q-11 -64 -42 -97.5t-69 -33.5z" />
    <glyph glyph-name="odieresis" unicode="&#xf6;" 
d="M296 -6q-46 0 -85.5 17t-68 47t-45 72t-16.5 92q0 65 22.5 119.5t59.5 93.5t85 60.5t98 21.5q46 0 86 -17t68.5 -47t45 -71.5t16.5 -91.5q0 -66 -22.5 -120.5t-60 -93.5t-85 -60.5t-98.5 -21.5zM301 74q31 0 62.5 15t56.5 42.5t40.5 65.5t15.5 85q0 34 -10.5 63t-28.5 49
t-42.5 31.5t-52.5 11.5q-32 0 -63 -15t-56 -43t-40.5 -66.5t-15.5 -84.5q0 -35 10.5 -63t28.5 -48.5t42.5 -31.5t52.5 -11zM283 602q-22 0 -35 13t-13 33q0 23 16.5 39.5t39.5 16.5q21 0 34 -13t13 -34q0 -23 -16.5 -39t-38.5 -16zM452 602q-21 0 -34.5 13t-13.5 33
q0 23 16.5 39.5t39.5 16.5q21 0 34.5 -13t13.5 -34q0 -23 -16.5 -39t-39.5 -16z" />
    <glyph glyph-name="divide" unicode="&#xf7;" horiz-adv-x="500" 
d="M301 51q-26 0 -41.5 15.5t-15.5 41.5t15.5 41.5t41.5 15.5t41.5 -15.5t15.5 -41.5t-15.5 -41.5t-41.5 -15.5zM91 329h420v-73h-420v73zM301 420q-26 0 -41.5 15.5t-15.5 41.5t15.5 41.5t41.5 15.5t41.5 -15.5t15.5 -41.5t-15.5 -41.5t-41.5 -15.5z" />
    <glyph glyph-name="oslash" unicode="&#xf8;" horiz-adv-x="579" 
d="M308 -6q-49 0 -89.5 18t-69.5 50l-77 -62l-41 57l80 65q-19 46 -19 100q0 65 22.5 119.5t60 93.5t85.5 60.5t98 21.5q48 0 89 -18t70 -50l77 62l41 -57l-81 -64q20 -46 20 -100q0 -66 -22.5 -120.5t-60 -93.5t-85.5 -60.5t-98 -21.5zM312 74q31 0 62.5 15t56.5 42.5
t40.5 65.5t15.5 85q0 25 -6 49l-264 -214q18 -20 42.5 -31.5t52.5 -11.5zM449 393q-39 44 -96 44q-32 0 -63 -15t-56 -43t-40.5 -66.5t-15.5 -84.5q0 -13 1 -24.5t5 -22.5z" />
    <glyph glyph-name="ugrave" unicode="&#xf9;" horiz-adv-x="579" 
d="M291 -6q-50 0 -84.5 18t-55.5 46t-30.5 63t-9.5 69q0 25 4 44l49 277h85l-50 -285q-6 -32 0.5 -59.5t22 -48t38.5 -32.5t51 -12q55 0 95 35t51 95l53 307h85l-89 -511h-63l-14 57q-16 -18 -37 -32q-18 -12 -43.5 -21.5t-57.5 -9.5zM260 727h85l68 -137h-57z" />
    <glyph glyph-name="uacute" unicode="&#xfa;" horiz-adv-x="579" 
d="M291 -6q-50 0 -84.5 18t-55.5 46t-30.5 63t-9.5 69q0 25 4 44l49 277h85l-50 -285q-6 -32 0.5 -59.5t22 -48t38.5 -32.5t51 -12q55 0 95 35t51 95l53 307h85l-89 -511h-63l-14 57q-16 -18 -37 -32q-18 -12 -43.5 -21.5t-57.5 -9.5zM435 727h86l-121 -137h-57z" />
    <glyph glyph-name="ucircumflex" unicode="&#xfb;" horiz-adv-x="579" 
d="M291 -6q-50 0 -84.5 18t-55.5 46t-30.5 63t-9.5 69q0 25 4 44l49 277h85l-50 -285q-6 -32 0.5 -59.5t22 -48t38.5 -32.5t51 -12q55 0 95 35t51 95l53 307h85l-89 -511h-63l-14 57q-16 -18 -37 -32q-18 -12 -43.5 -21.5t-57.5 -9.5zM367 727h80l78 -136h-79l-44 79
l-70 -79h-91z" />
    <glyph glyph-name="udieresis" unicode="&#xfc;" horiz-adv-x="579" 
d="M291 -6q-50 0 -84.5 18t-55.5 46t-30.5 63t-9.5 69q0 25 4 44l49 277h85l-50 -285q-6 -32 0.5 -59.5t22 -48t38.5 -32.5t51 -12q55 0 95 35t51 95l53 307h85l-89 -511h-63l-14 57q-16 -18 -37 -32q-18 -12 -43.5 -21.5t-57.5 -9.5zM306 602q-22 0 -35 13t-13 33
q0 23 16.5 39.5t39.5 16.5q21 0 34 -13t13 -34q0 -23 -16.5 -39t-38.5 -16zM475 602q-21 0 -34.5 13t-13.5 33q0 23 16.5 39.5t39.5 16.5q21 0 34.5 -13t13.5 -34q0 -23 -16.5 -39t-39.5 -16z" />
    <glyph glyph-name="yacute" unicode="&#xfd;" horiz-adv-x="511" 
d="M101 -187q-8 0 -16 1t-15 3q-8 2 -15 5l12 67h14q32 0 51.5 15.5t36.5 45.5l35 61l-110 500h91l84 -392l223 392h95l-328 -569q-40 -69 -76.5 -98.5t-81.5 -30.5zM401 727h86l-121 -137h-57z" />
    <glyph glyph-name="thorn" unicode="&#xfe;" horiz-adv-x="602" 
d="M206 716h85l-44 -262q16 17 38 31q18 12 44.5 22t60.5 10q46 0 85.5 -17t68 -47t45 -72t16.5 -92q0 -66 -22.5 -120t-59.5 -93t-85 -60.5t-98 -21.5q-44 0 -74.5 13t-50 28t-28.5 27.5l-9 12.5l-45 -257h-84zM342 74q31 0 63 15t57 43t41 66t16 85q0 34 -11 62.5
t-29.5 49t-43 31.5t-52.5 11q-32 0 -63.5 -15t-56.5 -42.5t-41 -66t-16 -84.5q0 -35 11 -63.5t29.5 -48.5t43 -31.5t52.5 -11.5z" />
    <glyph glyph-name="ydieresis" unicode="&#xff;" horiz-adv-x="511" 
d="M101 -187q-8 0 -16 1t-15 3q-8 2 -15 5l12 67h14q32 0 51.5 15.5t36.5 45.5l35 61l-110 500h91l84 -392l223 392h95l-328 -569q-40 -69 -76.5 -98.5t-81.5 -30.5zM260 602q-22 0 -35 13t-13 33q0 23 16.5 39.5t39.5 16.5q21 0 34 -13t13 -34q0 -23 -16.5 -39t-38.5 -16z
M429 602q-21 0 -34.5 13t-13.5 33q0 23 16.5 39.5t39.5 16.5q21 0 34.5 -13t13.5 -34q0 -23 -16.5 -39t-39.5 -16z" />
    <glyph glyph-name="Amacron" unicode="&#x100;" horiz-adv-x="625" 
d="M404 716h80l146 -716h-95l-37 176h-296l-99 -176h-97zM484 256l-65 312l-174 -312h239zM326 881h273l-12 -69h-273z" />
    <glyph glyph-name="amacron" unicode="&#x101;" horiz-adv-x="528" 
d="M239 -6q-39 0 -69 11.5t-51 31.5t-32 46.5t-11 56.5q0 50 27 83t74.5 53t112.5 28t141 8l3 20q4 22 -3 41t-21.5 33t-35.5 22.5t-46 8.5q-39 0 -65 -22t-39 -51h-94q8 29 26.5 56.5t45 49t60 34.5t72.5 13q60 0 98 -20t58.5 -49t26.5 -62t1 -58l-58 -328h-62l-14 57
q-16 -18 -38 -32q-19 -12 -45.5 -21.5t-61.5 -9.5zM249 74q32 0 59.5 10.5t48.5 27.5t34.5 38.5t17.5 42.5l7 40q-86 0 -137 -7.5t-77 -20.5t-33.5 -31t-7.5 -38q0 -32 26.5 -47t61.5 -15zM238 676h273l-12 -69h-273z" />
    <glyph glyph-name="Abreve" unicode="&#x102;" horiz-adv-x="625" 
d="M404 716h80l146 -716h-95l-37 176h-296l-99 -176h-97zM484 256l-65 312l-174 -312h239zM459 779q-30 0 -53 10.5t-39.5 28t-25.5 40t-10 46.5h65q0 -32 19 -50t48 -18q27 0 48 20t30 48h68q-9 -26 -23.5 -48.5t-34 -39.5t-42.5 -27t-50 -10z" />
    <glyph glyph-name="abreve" unicode="&#x103;" horiz-adv-x="528" 
d="M239 -6q-39 0 -69 11.5t-51 31.5t-32 46.5t-11 56.5q0 50 27 83t74.5 53t112.5 28t141 8l3 20q4 22 -3 41t-21.5 33t-35.5 22.5t-46 8.5q-39 0 -65 -22t-39 -51h-94q8 29 26.5 56.5t45 49t60 34.5t72.5 13q60 0 98 -20t58.5 -49t26.5 -62t1 -58l-58 -328h-62l-14 57
q-16 -18 -38 -32q-19 -12 -45.5 -21.5t-61.5 -9.5zM249 74q32 0 59.5 10.5t48.5 27.5t34.5 38.5t17.5 42.5l7 40q-86 0 -137 -7.5t-77 -20.5t-33.5 -31t-7.5 -38q0 -32 26.5 -47t61.5 -15zM378 591q-30 0 -53 10.5t-39.5 28t-25.5 40t-10 46.5h65q0 -32 19 -50t48 -18
q27 0 48 20t30 48h68q-9 -26 -23.5 -48.5t-34 -39.5t-42.5 -27t-50 -10z" />
    <glyph glyph-name="Aogonek" unicode="&#x104;" horiz-adv-x="625" 
d="M580 -193q-53 0 -81 22.5t-28 60.5q0 23 10 42.5t22 34.5q14 18 32 33l-37 176h-296l-99 -176h-97l398 716h80l146 -716h-40q-18 -15 -31 -32q-11 -14 -20.5 -32.5t-9.5 -38.5q0 -25 17 -35t44 -10h10.5t9.5 1l8 2l-8 -46q-5 -1 -9 -1q-5 -1 -10 -1h-11zM484 256l-65 312
l-174 -312h239z" />
    <glyph glyph-name="aogonek" unicode="&#x105;" horiz-adv-x="528" 
d="M443 -197q-53 0 -81 24.5t-28 62.5q0 23 10 42.5t22 34.5q14 18 32 33l-14 57q-16 -18 -38 -32q-19 -12 -45.5 -21.5t-61.5 -9.5q-39 0 -69 11.5t-51 31.5t-32 46.5t-11 56.5q0 50 27 83t74.5 53t112.5 28t141 8l3 20q4 22 -3 41t-21.5 33t-35.5 22.5t-46 8.5
q-39 0 -65 -22t-39 -51h-94q8 29 26.5 56.5t45 49t60 34.5t72.5 13q60 0 98 -20t58.5 -49t26.5 -62t1 -58l-58 -328h-8q-17 -15 -30 -32q-11 -14 -20.5 -32.5t-9.5 -38.5q0 -25 17 -36.5t43 -11.5h11t9 1q4 0 9 1l-8 -45q-5 -1 -9 -2q-5 -1 -10 -1h-11zM249 74
q32 0 59.5 10.5t48.5 27.5t34.5 38.5t17.5 42.5l7 40q-86 0 -137 -7.5t-77 -20.5t-33.5 -31t-7.5 -38q0 -32 26.5 -47t61.5 -15z" />
    <glyph glyph-name="Cacute" unicode="&#x106;" horiz-adv-x="716" 
d="M404 -6q-63 0 -118 25t-96.5 68.5t-65 103t-23.5 128.5q0 85 32.5 158.5t86 127.5t120.5 85t136 31q57 0 105.5 -19.5t86 -53t63 -78t36.5 -93.5h-93q-16 46 -43 82q-24 31 -63.5 57t-98.5 26q-50 0 -99 -24t-89 -66.5t-64.5 -101t-24.5 -127.5q0 -56 17.5 -102
t47.5 -78.5t70 -50.5t84 -18q38 0 74 14t67.5 37.5t56.5 53t40 60.5h95q-22 -51 -57.5 -96t-80.5 -78t-96.5 -52t-105.5 -19zM555 904h86l-121 -137h-57z" />
    <glyph glyph-name="cacute" unicode="&#x107;" horiz-adv-x="534" 
d="M294 -6q-46 0 -85 17t-67.5 47.5t-44.5 72.5t-16 91q0 65 22.5 119.5t59.5 93.5t85 60.5t98 21.5q45 0 82 -15t64.5 -40.5t44.5 -59.5t22 -73h-89q-3 15 -12.5 34t-25.5 35.5t-38.5 27.5t-51.5 11q-31 0 -62.5 -15t-56.5 -42t-41 -65.5t-16 -85.5q0 -35 10.5 -63.5
t29 -48.5t43 -31.5t52.5 -11.5q48 0 89.5 30.5t62.5 77.5h87q-13 -35 -35 -68.5t-53.5 -60t-71 -43t-86.5 -16.5zM423 727h86l-121 -137h-57z" />
    <glyph glyph-name="Ccircumflex" unicode="&#x108;" horiz-adv-x="716" 
d="M404 -6q-63 0 -118 25t-96.5 68.5t-65 103t-23.5 128.5q0 85 32.5 158.5t86 127.5t120.5 85t136 31q57 0 105.5 -19.5t86 -53t63 -78t36.5 -93.5h-93q-16 46 -43 82q-24 31 -63.5 57t-98.5 26q-50 0 -99 -24t-89 -66.5t-64.5 -101t-24.5 -127.5q0 -56 17.5 -102
t47.5 -78.5t70 -50.5t84 -18q38 0 74 14t67.5 37.5t56.5 53t40 60.5h95q-22 -51 -57.5 -96t-80.5 -78t-96.5 -52t-105.5 -19zM476 904h80l78 -136h-79l-44 79l-70 -79h-91z" />
    <glyph glyph-name="ccircumflex" unicode="&#x109;" horiz-adv-x="534" 
d="M294 -6q-46 0 -85 17t-67.5 47.5t-44.5 72.5t-16 91q0 65 22.5 119.5t59.5 93.5t85 60.5t98 21.5q45 0 82 -15t64.5 -40.5t44.5 -59.5t22 -73h-89q-3 15 -12.5 34t-25.5 35.5t-38.5 27.5t-51.5 11q-31 0 -62.5 -15t-56.5 -42t-41 -65.5t-16 -85.5q0 -35 10.5 -63.5
t29 -48.5t43 -31.5t52.5 -11.5q48 0 89.5 30.5t62.5 77.5h87q-13 -35 -35 -68.5t-53.5 -60t-71 -43t-86.5 -16.5zM344 727h80l78 -136h-79l-44 79l-70 -79h-91z" />
    <glyph glyph-name="Cdotaccent" unicode="&#x10a;" horiz-adv-x="716" 
d="M404 -6q-63 0 -118 25t-96.5 68.5t-65 103t-23.5 128.5q0 85 32.5 158.5t86 127.5t120.5 85t136 31q57 0 105.5 -19.5t86 -53t63 -78t36.5 -93.5h-93q-16 46 -43 82q-24 31 -63.5 57t-98.5 26q-50 0 -99 -24t-89 -66.5t-64.5 -101t-24.5 -127.5q0 -56 17.5 -102
t47.5 -78.5t70 -50.5t84 -18q38 0 74 14t67.5 37.5t56.5 53t40 60.5h95q-22 -51 -57.5 -96t-80.5 -78t-96.5 -52t-105.5 -19zM500 796q-23 0 -36.5 14t-13.5 34q0 26 17 43t41 17q23 0 36.5 -14t13.5 -34q0 -26 -17 -43t-41 -17z" />
    <glyph glyph-name="cdotaccent" unicode="&#x10b;" horiz-adv-x="534" 
d="M294 -6q-46 0 -85 17t-67.5 47.5t-44.5 72.5t-16 91q0 65 22.5 119.5t59.5 93.5t85 60.5t98 21.5q45 0 82 -15t64.5 -40.5t44.5 -59.5t22 -73h-89q-3 15 -12.5 34t-25.5 35.5t-38.5 27.5t-51.5 11q-31 0 -62.5 -15t-56.5 -42t-41 -65.5t-16 -85.5q0 -35 10.5 -63.5
t29 -48.5t43 -31.5t52.5 -11.5q48 0 89.5 30.5t62.5 77.5h87q-13 -35 -35 -68.5t-53.5 -60t-71 -43t-86.5 -16.5zM365 602q-23 0 -36.5 14t-13.5 34q0 26 17 43t41 17q23 0 36.5 -14t13.5 -34q0 -26 -17 -43t-41 -17z" />
    <glyph glyph-name="Ccaron" unicode="&#x10c;" horiz-adv-x="716" 
d="M404 -6q-63 0 -118 25t-96.5 68.5t-65 103t-23.5 128.5q0 85 32.5 158.5t86 127.5t120.5 85t136 31q57 0 105.5 -19.5t86 -53t63 -78t36.5 -93.5h-93q-16 46 -43 82q-24 31 -63.5 57t-98.5 26q-50 0 -99 -24t-89 -66.5t-64.5 -101t-24.5 -127.5q0 -56 17.5 -102
t47.5 -78.5t70 -50.5t84 -18q38 0 74 14t67.5 37.5t56.5 53t40 60.5h95q-22 -51 -57.5 -96t-80.5 -78t-96.5 -52t-105.5 -19zM375 904h80l43 -80l70 80h91l-126 -136h-80z" />
    <glyph glyph-name="ccaron" unicode="&#x10d;" horiz-adv-x="534" 
d="M294 -6q-46 0 -85 17t-67.5 47.5t-44.5 72.5t-16 91q0 65 22.5 119.5t59.5 93.5t85 60.5t98 21.5q45 0 82 -15t64.5 -40.5t44.5 -59.5t22 -73h-89q-3 15 -12.5 34t-25.5 35.5t-38.5 27.5t-51.5 11q-31 0 -62.5 -15t-56.5 -42t-41 -65.5t-16 -85.5q0 -35 10.5 -63.5
t29 -48.5t43 -31.5t52.5 -11.5q48 0 89.5 30.5t62.5 77.5h87q-13 -35 -35 -68.5t-53.5 -60t-71 -43t-86.5 -16.5zM242 727h80l43 -80l70 80h91l-126 -136h-80z" />
    <glyph glyph-name="Dcaron" unicode="&#x10e;" horiz-adv-x="676" 
d="M217 716h201q62 0 113.5 -25.5t88.5 -69t57.5 -101t20.5 -121.5q0 -80 -30 -152.5t-81 -127t-119.5 -87t-146.5 -32.5h-230zM326 80q51 0 101.5 24t90 66t64.5 99t25 123q0 50 -16 94.5t-43.5 78t-64.5 53t-80 19.5l-109 -1l-99 -556h131zM346 904h80l43 -80l70 80h91
l-126 -136h-80z" />
    <glyph glyph-name="dcaron" unicode="&#x10f;" horiz-adv-x="654" 
d="M745 716h81l-92 -137h-52zM296 -6q-46 0 -85.5 17t-68 47.5t-45 72.5t-16.5 92q0 66 22.5 120t59.5 92.5t85 60t98 21.5q43 0 74 -13t50.5 -28t28.5 -27.5l9 -12.5l49 280h85l-126 -716h-63l-13 57q-16 -18 -38 -32q-19 -12 -45.5 -21.5t-60.5 -9.5zM303 74q31 0 63 15
t57.5 43t41.5 66t16 85q0 34 -11 62.5t-30 49t-43.5 31.5t-52.5 11q-32 0 -63.5 -15t-56.5 -42.5t-41 -66t-16 -84.5q0 -35 11 -63.5t29.5 -48.5t43 -31.5t52.5 -11.5z" />
    <glyph glyph-name="Dcroat" unicode="&#x110;" horiz-adv-x="704" 
d="M173 312h-101l13 80h102l57 324h201q62 0 113.5 -25.5t88.5 -69t57.5 -101t20.5 -121.5q0 -80 -29.5 -152.5t-80.5 -127t-119.5 -87t-146.5 -32.5h-231zM353 80q51 0 101.5 24t90.5 66t64.5 99t24.5 123q0 50 -16 94.5t-43.5 78t-64.5 53t-79 19.5l-110 -1l-43 -244h137
l-14 -80h-137l-41 -232h130z" />
    <glyph glyph-name="dcroat" unicode="&#x111;" horiz-adv-x="574" 
d="M279 -6q-44 0 -81.5 16.5t-65 45.5t-43 68t-15.5 84q0 57 21 105t55.5 83.5t80 55t93.5 19.5q39 0 67.5 -12t46.5 -26q21 -17 36 -37l27 155h-142l12 74h142l18 91h85l-17 -91h85l-13 -74h-85l-95 -551h-63l-13 57q-17 -18 -38 -32q-18 -12 -43.5 -21.5t-54.5 -9.5z
M292 74q30 0 59.5 13.5t53 37t37.5 56t14 70.5q0 30 -10 56t-28 45t-42 29.5t-52 10.5q-30 0 -59.5 -13.5t-53 -37t-37.5 -56t-14 -70.5q0 -30 10 -56t28 -45t42 -29.5t52 -10.5z" />
    <glyph glyph-name="Emacron" unicode="&#x112;" horiz-adv-x="613" 
d="M217 716h454l-13 -80h-364l-41 -227h335l-13 -80h-335l-45 -249h375l-13 -80h-466zM326 881h273l-12 -69h-273z" />
    <glyph glyph-name="emacron" unicode="&#x113;" horiz-adv-x="551" 
d="M296 -6q-46 0 -85.5 17t-68 47t-45 72t-16.5 92q0 65 22.5 119.5t59 93.5t83.5 60.5t96 21.5q53 0 93 -18.5t67 -49t41 -70t14 -80.5t-8.5 -62t-7.5 -21h-374q2 -26 11 -51.5t26 -45.5t41.5 -32.5t56.5 -12.5q21 0 41 6.5t36 16.5t27.5 20.5t17.5 18.5h100
q-35 -63 -95 -102.5t-133 -39.5zM470 290q2 34 -8 61.5t-28 46.5t-42 29t-49 10q-26 0 -51.5 -11t-48 -30.5t-40 -46.5t-27.5 -59h294zM238 676h273l-12 -69h-273z" />
    <glyph glyph-name="Ebreve" unicode="&#x114;" horiz-adv-x="613" 
d="M217 716h454l-13 -80h-364l-41 -227h335l-13 -80h-335l-45 -249h375l-13 -80h-466zM464 779q-30 0 -53 10.5t-39.5 28t-25.5 40t-10 46.5h65q0 -32 19 -50t48 -18q27 0 48 20t30 48h68q-9 -26 -23.5 -48.5t-34 -39.5t-42.5 -27t-50 -10z" />
    <glyph glyph-name="ebreve" unicode="&#x115;" horiz-adv-x="551" 
d="M296 -6q-46 0 -85.5 17t-68 47t-45 72t-16.5 92q0 65 22.5 119.5t59 93.5t83.5 60.5t96 21.5q53 0 93 -18.5t67 -49t41 -70t14 -80.5t-8.5 -62t-7.5 -21h-374q2 -26 11 -51.5t26 -45.5t41.5 -32.5t56.5 -12.5q21 0 41 6.5t36 16.5t27.5 20.5t17.5 18.5h100
q-35 -63 -95 -102.5t-133 -39.5zM470 290q2 34 -8 61.5t-28 46.5t-42 29t-49 10q-26 0 -51.5 -11t-48 -30.5t-40 -46.5t-27.5 -59h294zM372 591q-30 0 -53 10.5t-39.5 28t-25.5 40t-10 46.5h65q0 -32 19 -50t48 -18q27 0 48 20t30 48h68q-9 -26 -23.5 -48.5t-34 -39.5
t-42.5 -27t-50 -10z" />
    <glyph glyph-name="Edotaccent" unicode="&#x116;" horiz-adv-x="613" 
d="M217 716h454l-13 -80h-364l-41 -227h335l-13 -80h-335l-45 -249h375l-13 -80h-466zM457 796q-23 0 -36.5 14t-13.5 34q0 26 17 43t41 17q23 0 36.5 -14t13.5 -34q0 -26 -17 -43t-41 -17z" />
    <glyph glyph-name="edotaccent" unicode="&#x117;" horiz-adv-x="551" 
d="M296 -6q-46 0 -85.5 17t-68 47t-45 72t-16.5 92q0 65 22.5 119.5t59 93.5t83.5 60.5t96 21.5q53 0 93 -18.5t67 -49t41 -70t14 -80.5t-8.5 -62t-7.5 -21h-374q2 -26 11 -51.5t26 -45.5t41.5 -32.5t56.5 -12.5q21 0 41 6.5t36 16.5t27.5 20.5t17.5 18.5h100
q-35 -63 -95 -102.5t-133 -39.5zM470 290q2 34 -8 61.5t-28 46.5t-42 29t-49 10q-26 0 -51.5 -11t-48 -30.5t-40 -46.5t-27.5 -59h294zM370 602q-23 0 -36.5 14t-13.5 34q0 26 17 43t41 17q23 0 36.5 -14t13.5 -34q0 -26 -17 -43t-41 -17z" />
    <glyph glyph-name="Eogonek" unicode="&#x118;" horiz-adv-x="613" 
d="M548 -193q-54 0 -82 22.5t-28 60.5q0 23 10 42.5t22 34.5q14 18 32 33h-411l126 716h454l-13 -80h-364l-41 -227h335l-13 -80h-335l-45 -249h375l-13 -80q-18 -15 -31 -32q-11 -14 -20.5 -32.5t-9.5 -38.5q0 -25 17 -35t44 -10h11t9 1l8 2l-8 -46q-5 -1 -9 -1
q-4 -1 -9.5 -1h-10.5z" />
    <glyph glyph-name="eogonek" unicode="&#x119;" horiz-adv-x="551" 
d="M312 -197q-53 0 -81 24.5t-28 62.5q0 19 7.5 36.5t17.5 32t19.5 24l14.5 14.5q-40 5 -73 24t-57 48.5t-37.5 68.5t-13.5 84q0 65 22.5 119.5t59 93.5t83.5 60.5t96 21.5q53 0 93 -18.5t67 -49t41 -70t14 -80.5t-8.5 -62t-7.5 -21h-374q2 -26 11 -51.5t26 -45.5
t41.5 -32.5t56.5 -12.5q21 0 41 6.5t36 16.5t27.5 20.5t17.5 18.5h100q-32 -58 -87 -97t-121 -44q-5 -4 -14 -13.5t-18 -22.5t-16 -29t-7 -33q0 -25 17 -36.5t43 -11.5h11t9 1q4 0 9 1l-8 -45q-5 -1 -9 -2q-5 -1 -10 -1h-11zM470 290q2 34 -8 61.5t-28 46.5t-42 29t-49 10
q-26 0 -51.5 -11t-48 -30.5t-40 -46.5t-27.5 -59h294z" />
    <glyph glyph-name="Ecaron" unicode="&#x11a;" horiz-adv-x="613" 
d="M217 716h454l-13 -80h-364l-41 -227h335l-13 -80h-335l-45 -249h375l-13 -80h-466zM335 904h80l43 -80l70 80h91l-126 -136h-80z" />
    <glyph glyph-name="ecaron" unicode="&#x11b;" horiz-adv-x="551" 
d="M296 -6q-46 0 -85.5 17t-68 47t-45 72t-16.5 92q0 65 22.5 119.5t59 93.5t83.5 60.5t96 21.5q53 0 93 -18.5t67 -49t41 -70t14 -80.5t-8.5 -62t-7.5 -21h-374q2 -26 11 -51.5t26 -45.5t41.5 -32.5t56.5 -12.5q21 0 41 6.5t36 16.5t27.5 20.5t17.5 18.5h100
q-35 -63 -95 -102.5t-133 -39.5zM470 290q2 34 -8 61.5t-28 46.5t-42 29t-49 10q-26 0 -51.5 -11t-48 -30.5t-40 -46.5t-27.5 -59h294zM242 727h80l43 -80l70 80h91l-126 -136h-80z" />
    <glyph glyph-name="Gcircumflex" unicode="&#x11c;" horiz-adv-x="772" 
d="M404 -6q-63 0 -117.5 25t-95.5 68.5t-64.5 103t-23.5 128.5q0 85 33 158.5t86 127.5t120 85t136 31q59 0 107.5 -19t85.5 -51t62 -74t38 -89h-95q-16 43 -43 77q-12 14 -27.5 28t-35.5 25t-44.5 17.5t-54.5 6.5q-49 0 -98.5 -24t-89 -66.5t-64.5 -101t-25 -127.5
q0 -54 17 -100t46.5 -79t68 -51.5t82.5 -18.5q40 0 80.5 18t74.5 47.5t58 66t30 72.5h-210l13 80h301l-62 -358h-68l-8 84q-25 -26 -58 -45q-28 -17 -67.5 -31t-87.5 -14zM481 904h80l78 -136h-79l-44 79l-70 -79h-91z" />
    <glyph glyph-name="gcircumflex" unicode="&#x11d;" horiz-adv-x="579" 
d="M272 -193q-42 0 -78.5 11t-64.5 31.5t-46 48.5t-23 62h90q11 -34 41 -54t83 -20q57 0 97.5 33t49.5 86l13 68q-16 -16 -36 -28q-17 -11 -42 -19.5t-56 -8.5q-49 0 -88.5 16t-68 45t-44 69t-15.5 88q0 63 21.5 114.5t57.5 89t83 58t99 20.5q37 0 64 -11t46 -25
q21 -16 37 -36l40 66h63l-88 -513q-8 -42 -28.5 -77t-51 -60.5t-70.5 -39.5t-85 -14zM306 97q30 0 60 13.5t54 39t38.5 61t14.5 79.5q0 33 -10.5 60t-28.5 46.5t-43 30t-54 10.5q-30 0 -60 -13.5t-54 -39t-38.5 -61t-14.5 -79.5q0 -33 10.5 -60t28.5 -46.5t43 -30t54 -10.5z
M355 727h80l78 -136h-79l-44 79l-70 -79h-91z" />
    <glyph glyph-name="Gbreve" unicode="&#x11e;" horiz-adv-x="772" 
d="M404 -6q-63 0 -117.5 25t-95.5 68.5t-64.5 103t-23.5 128.5q0 85 33 158.5t86 127.5t120 85t136 31q59 0 107.5 -19t85.5 -51t62 -74t38 -89h-95q-16 43 -43 77q-12 14 -27.5 28t-35.5 25t-44.5 17.5t-54.5 6.5q-49 0 -98.5 -24t-89 -66.5t-64.5 -101t-25 -127.5
q0 -54 17 -100t46.5 -79t68 -51.5t82.5 -18.5q40 0 80.5 18t74.5 47.5t58 66t30 72.5h-210l13 80h301l-62 -358h-68l-8 84q-25 -26 -58 -45q-28 -17 -67.5 -31t-87.5 -14zM510 779q-30 0 -53 10.5t-39.5 28t-25.5 40t-10 46.5h65q0 -32 19 -50t48 -18q27 0 48 20t30 48h68
q-9 -26 -23.5 -48.5t-34 -39.5t-42.5 -27t-50 -10z" />
    <glyph glyph-name="gbreve" unicode="&#x11f;" horiz-adv-x="579" 
d="M272 -193q-42 0 -78.5 11t-64.5 31.5t-46 48.5t-23 62h90q11 -34 41 -54t83 -20q57 0 97.5 33t49.5 86l13 68q-16 -16 -36 -28q-17 -11 -42 -19.5t-56 -8.5q-49 0 -88.5 16t-68 45t-44 69t-15.5 88q0 63 21.5 114.5t57.5 89t83 58t99 20.5q37 0 64 -11t46 -25
q21 -16 37 -36l40 66h63l-88 -513q-8 -42 -28.5 -77t-51 -60.5t-70.5 -39.5t-85 -14zM306 97q30 0 60 13.5t54 39t38.5 61t14.5 79.5q0 33 -10.5 60t-28.5 46.5t-43 30t-54 10.5q-30 0 -60 -13.5t-54 -39t-38.5 -61t-14.5 -79.5q0 -33 10.5 -60t28.5 -46.5t43 -30t54 -10.5z
M378 591q-30 0 -53 10.5t-39.5 28t-25.5 40t-10 46.5h65q0 -32 19 -50t48 -18q27 0 48 20t30 48h68q-9 -26 -23.5 -48.5t-34 -39.5t-42.5 -27t-50 -10z" />
    <glyph glyph-name="Gdotaccent" unicode="&#x120;" horiz-adv-x="772" 
d="M404 -6q-63 0 -117.5 25t-95.5 68.5t-64.5 103t-23.5 128.5q0 85 33 158.5t86 127.5t120 85t136 31q59 0 107.5 -19t85.5 -51t62 -74t38 -89h-95q-16 43 -43 77q-12 14 -27.5 28t-35.5 25t-44.5 17.5t-54.5 6.5q-49 0 -98.5 -24t-89 -66.5t-64.5 -101t-25 -127.5
q0 -54 17 -100t46.5 -79t68 -51.5t82.5 -18.5q40 0 80.5 18t74.5 47.5t58 66t30 72.5h-210l13 80h301l-62 -358h-68l-8 84q-25 -26 -58 -45q-28 -17 -67.5 -31t-87.5 -14zM506 796q-23 0 -36.5 14t-13.5 34q0 26 17 43t41 17q23 0 36.5 -14t13.5 -34q0 -26 -17 -43t-41 -17z
" />
    <glyph glyph-name="gdotaccent" unicode="&#x121;" horiz-adv-x="579" 
d="M272 -193q-42 0 -78.5 11t-64.5 31.5t-46 48.5t-23 62h90q11 -34 41 -54t83 -20q57 0 97.5 33t49.5 86l13 68q-16 -16 -36 -28q-17 -11 -42 -19.5t-56 -8.5q-49 0 -88.5 16t-68 45t-44 69t-15.5 88q0 63 21.5 114.5t57.5 89t83 58t99 20.5q37 0 64 -11t46 -25
q21 -16 37 -36l40 66h63l-88 -513q-8 -42 -28.5 -77t-51 -60.5t-70.5 -39.5t-85 -14zM306 97q30 0 60 13.5t54 39t38.5 61t14.5 79.5q0 33 -10.5 60t-28.5 46.5t-43 30t-54 10.5q-30 0 -60 -13.5t-54 -39t-38.5 -61t-14.5 -79.5q0 -33 10.5 -60t28.5 -46.5t43 -30t54 -10.5z
M376 602q-23 0 -36.5 14t-13.5 34q0 26 17 43t41 17q23 0 36.5 -14t13.5 -34q0 -26 -17 -43t-41 -17z" />
    <glyph glyph-name="Gcommaaccent" unicode="&#x122;" horiz-adv-x="772" 
d="M404 -6q-63 0 -117.5 25t-95.5 68.5t-64.5 103t-23.5 128.5q0 85 33 158.5t86 127.5t120 85t136 31q59 0 107.5 -19t85.5 -51t62 -74t38 -89h-95q-16 43 -43 77q-12 14 -27.5 28t-35.5 25t-44.5 17.5t-54.5 6.5q-49 0 -98.5 -24t-89 -66.5t-64.5 -101t-25 -127.5
q0 -54 17 -100t46.5 -79t68 -51.5t82.5 -18.5q40 0 80.5 18t74.5 47.5t58 66t30 72.5h-210l13 80h301l-62 -358h-68l-8 84q-25 -26 -58 -45q-28 -17 -67.5 -31t-87.5 -14zM319 -262q13 10 24 21q10 10 19.5 23.5t14.5 30.5q-21 2 -35 18.5t-14 36.5q0 24 16.5 41t40.5 17
q26 0 42 -17.5t16 -40.5q0 -21 -9 -43.5t-24 -42.5t-35 -38t-43 -30z" />
    <glyph glyph-name="gcommaaccent" unicode="&#x123;" horiz-adv-x="579" 
d="M381 591q-26 0 -42 17.5t-16 40.5q0 21 9 43t24 42.5t35 38.5t43 30l12 -24q-13 -10 -24 -21q-10 -10 -19 -23.5t-14 -30.5q21 -2 34.5 -18.5t13.5 -36.5q0 -24 -16.5 -41t-39.5 -17zM272 -193q-42 0 -78.5 11t-64.5 31.5t-46 48.5t-23 62h90q11 -34 41 -54t83 -20
q57 0 97.5 33t49.5 86l13 68q-16 -16 -36 -28q-17 -11 -42 -19.5t-56 -8.5q-49 0 -88.5 16t-68 45t-44 69t-15.5 88q0 63 21.5 114.5t57.5 89t83 58t99 20.5q37 0 64 -11t46 -25q21 -16 37 -36l40 66h63l-88 -513q-8 -42 -28.5 -77t-51 -60.5t-70.5 -39.5t-85 -14zM306 97
q30 0 60 13.5t54 39t38.5 61t14.5 79.5q0 33 -10.5 60t-28.5 46.5t-43 30t-54 10.5q-30 0 -60 -13.5t-54 -39t-38.5 -61t-14.5 -79.5q0 -33 10.5 -60t28.5 -46.5t43 -30t54 -10.5z" />
    <glyph glyph-name="Hcircumflex" unicode="&#x124;" horiz-adv-x="710" 
d="M217 716h91l-55 -313h347l54 313h91l-126 -716h-91l57 324h-346l-57 -324h-91zM464 904h80l78 -136h-79l-44 79l-70 -79h-91z" />
    <glyph glyph-name="hcircumflex" unicode="&#x125;" horiz-adv-x="579" 
d="M206 716h85l-43 -256q16 16 37 28q18 11 43 20t57 9q50 0 84.5 -18t55.5 -46t30.5 -63t9.5 -69q0 -11 -1 -22t-3 -22l-49 -277h-85l50 285q6 32 -0.5 59.5t-22.5 48t-39 32.5t-50 12q-55 0 -95 -35t-51 -95l-53 -307h-85zM396 904h80l78 -136h-79l-44 79l-70 -79h-91z
" />
    <glyph glyph-name="Hbar" unicode="&#x126;" horiz-adv-x="767" 
d="M210 517h-96l13 79h97l21 120h91l-21 -120h346l22 120h91l-22 -120h97l-14 -79h-97l-90 -517h-91l56 324h-346l-57 -324h-91zM627 403l21 114h-347l-20 -114h346z" />
    <glyph glyph-name="hbar" unicode="&#x127;" horiz-adv-x="585" 
d="M181 551h-84l12 74h85l16 91h85l-16 -91h142l-12 -74h-142l-24 -142q16 16 37 28q18 11 43.5 20t57.5 9q49 0 83.5 -18t55.5 -46t30.5 -63t9.5 -69q0 -23 -3 -44l-40 -226h-85l41 234q5 32 -1.5 59.5t-22 48t-38.5 32.5t-51 12q-55 0 -95 -35t-50 -95l-45 -256h-85z" />
    <glyph glyph-name="uni0128" unicode="&#x128;" horiz-adv-x="273" 
d="M217 716h91l-126 -716h-91zM338 767q-26 0 -42 11.5t-27.5 25t-22 25t-25.5 11.5q-18 0 -35 -17.5t-22 -49.5h-51q10 64 41.5 97.5t69.5 33.5q25 0 41 -11.5t27.5 -25.5t22.5 -25.5t26 -11.5q18 0 35 18t22 50h51q-11 -64 -42 -97.5t-69 -33.5z" />
    <glyph glyph-name="uni0129" unicode="&#x129;" horiz-adv-x="233" 
d="M164 511h85l-90 -511h-85zM279 579q-26 0 -42 11.5t-27.5 25t-22 25t-25.5 11.5q-18 0 -35 -17.5t-22 -49.5h-51q10 64 41.5 97.5t69.5 33.5q25 0 41 -11.5t27.5 -25.5t22.5 -25.5t26 -11.5q18 0 35 18t22 50h51q-11 -64 -42 -97.5t-69 -33.5z" />
    <glyph glyph-name="Imacron" unicode="&#x12a;" horiz-adv-x="273" 
d="M217 716h91l-126 -716h-91zM148 881h273l-12 -69h-273z" />
    <glyph glyph-name="imacron" unicode="&#x12b;" horiz-adv-x="233" 
d="M164 511h85l-90 -511h-85zM90 676h273l-12 -69h-273z" />
    <glyph glyph-name="Ibreve" unicode="&#x12c;" horiz-adv-x="273" 
d="M217 716h91l-126 -716h-91zM280 779q-30 0 -53 10.5t-39.5 28t-25.5 40t-10 46.5h65q0 -32 19 -50t48 -18q27 0 48 20t30 48h68q-9 -26 -23.5 -48.5t-34 -39.5t-42.5 -27t-50 -10z" />
    <glyph glyph-name="ibreve" unicode="&#x12d;" horiz-adv-x="233" 
d="M164 511h85l-90 -511h-85zM225 591q-30 0 -53 10.5t-39.5 28t-25.5 40t-10 46.5h65q0 -32 19 -50t48 -18q27 0 48 20t30 48h68q-9 -26 -23.5 -48.5t-34 -39.5t-42.5 -27t-50 -10z" />
    <glyph glyph-name="Iogonek" unicode="&#x12e;" horiz-adv-x="273" 
d="M136 -193q-53 0 -81 22.5t-28 60.5q0 23 10 42.5t22 34.5q14 18 32 33l126 716h91l-126 -716h-37q-17 -15 -30 -32q-11 -14 -20.5 -32.5t-9.5 -38.5q0 -25 17 -35t43 -10h11t9 1t9 2l-8 -46q-5 -1 -9 -1q-5 -1 -10 -1h-11z" />
    <glyph glyph-name="iogonek" unicode="&#x12f;" horiz-adv-x="233" 
d="M119 -193q-53 0 -81 22.5t-28 60.5q0 23 10 42.5t22 34.5q14 18 32 33l90 511h85l-90 -511h-31q-17 -15 -30 -32q-11 -14 -20.5 -32.5t-9.5 -38.5q0 -25 17 -35t43 -10h11t9 1t9 2l-8 -46q-5 -1 -9 -1q-5 -1 -10 -1h-11zM222 602q-23 0 -36.5 15t-13.5 35q0 25 16.5 41.5
t39.5 16.5t36.5 -15t13.5 -35q0 -25 -16.5 -41.5t-39.5 -16.5z" />
    <glyph glyph-name="Idotaccent" unicode="&#x130;" horiz-adv-x="273" 
d="M217 716h91l-126 -716h-91zM281 796q-23 0 -36.5 14t-13.5 34q0 26 17 43t41 17q23 0 36.5 -14t13.5 -34q0 -26 -17 -43t-41 -17z" />
    <glyph glyph-name="dotlessi" unicode="&#x131;" horiz-adv-x="233" 
d="M164 511h85l-90 -511h-85z" />
    <glyph glyph-name="uni0132" unicode="&#x132;" horiz-adv-x="761" 
d="M217 716h91l-126 -716h-91zM488 -6q-44 0 -82 16.5t-65.5 44.5t-43 64t-15.5 74h93q0 -25 8.5 -47t24 -38t37 -25t47.5 -9q54 0 89.5 34.5t43.5 85.5l92 522h91l-94 -534q-7 -41 -27 -75.5t-50 -59.5t-68 -39t-81 -14z" />
    <glyph glyph-name="uni0133" unicode="&#x133;" horiz-adv-x="460" 
d="M164 511h85l-90 -511h-85zM218 -187q-15 0 -26 2.5t-19 5.5q-9 4 -15 9l11 72q4 -3 10 -5q12 -5 28 -5q34 0 59 23.5t33 65.5l92 530h85l-94 -541q-6 -36 -22 -65.5t-38 -49.5t-49 -31t-55 -11zM216 602q-20 0 -32 13t-12 33q0 26 18.5 44t44.5 18q22 0 34.5 -12.5
t12.5 -32.5q0 -27 -19.5 -45t-46.5 -18zM449 602q-23 0 -36.5 15t-13.5 35q0 25 16.5 41.5t40.5 16.5q23 0 36.5 -15t13.5 -35q0 -25 -16.5 -41.5t-40.5 -16.5z" />
    <glyph glyph-name="Jcircumflex" unicode="&#x134;" horiz-adv-x="523" 
d="M249 -6q-44 0 -82 16.5t-65.5 44.5t-43 64t-15.5 74h93q0 -25 8.5 -47t24 -38t37 -25t47.5 -9q54 0 89.5 34.5t43.5 85.5l92 522h91l-94 -534q-7 -41 -27 -75.5t-50 -59.5t-68 -39t-81 -14zM515 904h80l78 -136h-79l-44 79l-70 -79h-91z" />
    <glyph glyph-name="jcircumflex" unicode="&#x135;" horiz-adv-x="233" 
d="M-22 -187q-24 0 -37 5q-7 3 -11 6l12 74q4 -2 8 -3q7 -3 20 -3q39 0 66.5 24t35.5 67l93 528h85l-93 -528q-7 -38 -24.5 -69.5t-42 -54t-53.5 -34.5t-59 -12zM196 727h80l78 -136h-79l-44 79l-70 -79h-91z" />
    <glyph glyph-name="Kcommaaccent" unicode="&#x136;" horiz-adv-x="585" 
d="M217 716h91l-63 -352l335 352h114l-341 -358l238 -358h-103l-243 364l-63 -364h-91zM245 -262q13 10 24 21q10 10 19.5 23.5t14.5 30.5q-21 2 -35 18.5t-14 36.5q0 24 16.5 41t40.5 17q26 0 42 -17.5t16 -40.5q0 -21 -9 -43.5t-24 -42.5t-35 -38t-43 -30z" />
    <glyph glyph-name="kcommaaccent" unicode="&#x137;" horiz-adv-x="477" 
d="M206 716h85l-80 -449l232 244h101l-235 -244l174 -267h-97l-175 267l-46 -267h-85zM194 -262q13 10 24 21q10 10 19.5 23.5t14.5 30.5q-21 2 -35 18.5t-14 36.5q0 24 16.5 41t40.5 17q26 0 42 -17.5t16 -40.5q0 -21 -9 -43.5t-24 -42.5t-35 -38t-43 -30z" />
    <glyph glyph-name="Lacute" unicode="&#x139;" horiz-adv-x="534" 
d="M217 716h91l-113 -636h341l-13 -80h-432zM334 904h86l-121 -137h-57z" />
    <glyph glyph-name="lacute" unicode="&#x13a;" horiz-adv-x="244" 
d="M206 716h85l-126 -716h-85zM322 904h86l-121 -137h-57z" />
    <glyph glyph-name="Lcommaaccent" unicode="&#x13b;" horiz-adv-x="534" 
d="M217 716h91l-113 -636h341l-13 -80h-432zM234 -262q13 10 24 21q10 10 19.5 23.5t14.5 30.5q-21 2 -35 18.5t-14 36.5q0 24 16.5 41t40.5 17q26 0 42 -17.5t16 -40.5q0 -21 -9 -43.5t-24 -42.5t-35 -38t-43 -30z" />
    <glyph glyph-name="lcommaaccent" unicode="&#x13c;" horiz-adv-x="244" 
d="M206 716h85l-126 -716h-85zM35 -262q13 10 24 21q10 10 19.5 23.5t14.5 30.5q-21 2 -35 18.5t-14 36.5q0 24 16.5 41t40.5 17q26 0 42 -17.5t16 -40.5q0 -21 -9 -43.5t-24 -42.5t-35 -38t-43 -30z" />
    <glyph glyph-name="Lcaron" unicode="&#x13d;" horiz-adv-x="534" 
d="M421 716h80l-92 -137h-51zM217 716h91l-113 -636h341l-13 -80h-432z" />
    <glyph glyph-name="lcaron" unicode="&#x13e;" horiz-adv-x="301" 
d="M393 716h80l-92 -137h-52zM206 716h85l-126 -716h-85z" />
    <glyph glyph-name="Ldot" unicode="&#x13f;" horiz-adv-x="534" 
d="M217 716h91l-113 -636h341l-13 -80h-432zM468 324q-23 0 -36.5 14t-13.5 34q0 26 17 43t41 17q23 0 36.5 -14t13.5 -34q0 -26 -17 -43t-41 -17z" />
    <glyph glyph-name="ldot" unicode="&#x140;" horiz-adv-x="398" 
d="M206 716h85l-126 -716h-85zM379 301q-23 0 -36.5 14t-13.5 34q0 26 17 43t41 17q23 0 36.5 -14t13.5 -34q0 -26 -17 -43t-41 -17z" />
    <glyph glyph-name="Lslash" unicode="&#x141;" horiz-adv-x="551" 
d="M147 222l-89 -52l16 91l88 51l72 404h91l-61 -347l189 114l-16 -91l-189 -114l-36 -198h341l-13 -80h-432z" />
    <glyph glyph-name="lslash" unicode="&#x142;" horiz-adv-x="284" 
d="M149 294l-96 -55l15 85l96 55l59 337h85l-49 -281l101 59l-16 -85l-101 -59l-61 -350h-85z" />
    <glyph glyph-name="Nacute" unicode="&#x143;" horiz-adv-x="710" 
d="M217 716h79l262 -546l96 546h91l-126 -716h-79l-262 545l-96 -545h-91zM544 904h86l-121 -137h-57z" />
    <glyph glyph-name="nacute" unicode="&#x144;" horiz-adv-x="574" 
d="M164 511h62l14 -57q16 17 37 31q18 12 43.5 22t57.5 10q50 0 84.5 -18t55.5 -46t30.5 -63t9.5 -69q0 -25 -4 -44l-48 -277h-86l50 285q6 32 -0.5 59.5t-22 48t-38.5 32.5t-51 12q-55 0 -95 -35t-51 -95l-53 -307h-85zM446 727h86l-121 -137h-57z" />
    <glyph glyph-name="Ncommaaccent" unicode="&#x145;" horiz-adv-x="710" 
d="M217 716h79l262 -546l96 546h91l-126 -716h-79l-262 545l-96 -545h-91zM274 -262q13 10 24 21q10 10 19.5 23.5t14.5 30.5q-21 2 -35 18.5t-14 36.5q0 24 16.5 41t40.5 17q26 0 42 -17.5t16 -40.5q0 -21 -9 -43.5t-24 -42.5t-35 -38t-43 -30z" />
    <glyph glyph-name="ncommaaccent" unicode="&#x146;" horiz-adv-x="574" 
d="M164 511h62l14 -57q16 17 37 31q18 12 43.5 22t57.5 10q50 0 84.5 -18t55.5 -46t30.5 -63t9.5 -69q0 -25 -4 -44l-48 -277h-86l50 285q6 32 -0.5 59.5t-22 48t-38.5 32.5t-51 12q-55 0 -95 -35t-51 -95l-53 -307h-85zM211 -262q13 10 24 21q10 10 19.5 23.5t14.5 30.5
q-21 2 -35 18.5t-14 36.5q0 24 16.5 41t40.5 17q26 0 42 -17.5t16 -40.5q0 -21 -9 -43.5t-24 -42.5t-35 -38t-43 -30z" />
    <glyph glyph-name="Ncaron" unicode="&#x147;" horiz-adv-x="710" 
d="M217 716h79l262 -546l96 546h91l-126 -716h-79l-262 545l-96 -545h-91zM363 904h80l43 -80l70 80h91l-126 -136h-80z" />
    <glyph glyph-name="ncaron" unicode="&#x148;" horiz-adv-x="574" 
d="M164 511h62l14 -57q16 17 37 31q18 12 43.5 22t57.5 10q50 0 84.5 -18t55.5 -46t30.5 -63t9.5 -69q0 -25 -4 -44l-48 -277h-86l50 285q6 32 -0.5 59.5t-22 48t-38.5 32.5t-51 12q-55 0 -95 -35t-51 -95l-53 -307h-85zM265 727h80l43 -80l70 80h91l-126 -136h-80z" />
    <glyph glyph-name="napostrophe" unicode="&#x149;" horiz-adv-x="619" 
d="M209 511h62l14 -57q16 17 37 31q18 12 43.5 22t57.5 10q50 0 84.5 -18t55.5 -46t30.5 -63t9.5 -69q0 -25 -4 -44l-48 -277h-86l50 285q6 32 -0.5 59.5t-22 48t-38.5 32.5t-51 12q-55 0 -95 -35t-51 -95l-53 -307h-85zM79 505q13 10 24 21q10 10 19.5 23.5t14.5 30.5
q-21 2 -35 18.5t-14 36.5q0 24 16.5 41t40.5 17q26 0 42 -17.5t16 -40.5q0 -21 -9 -43.5t-24 -42.5t-35 -38t-43 -30z" />
    <glyph glyph-name="Eng" unicode="&#x14a;" horiz-adv-x="710" 
d="M393 -261q-38 0 -71.5 14t-58.5 39.5t-40 61t-15 78.5h91q0 -21 6.5 -40.5t19 -34.5t31.5 -24t44 -9q43 0 75 27.5t40 72.5l16 93l-253 528l-96 -545h-91l126 716h79l262 -546l96 546h91l-141 -800q-7 -38 -26 -70.5t-47.5 -56t-63.5 -37t-74 -13.5z" />
    <glyph glyph-name="eng" unicode="&#x14b;" horiz-adv-x="574" 
d="M336 -187q-14 0 -25 2.5t-19 5.5q-9 4 -16 9l11 72q4 -3 10 -5q12 -5 28 -5q34 0 59 23.5t33 65.5l53 304q6 32 -0.5 59.5t-22 48t-38.5 32.5t-51 12q-55 0 -95 -35t-51 -95l-53 -307h-85l90 511h62l14 -57q16 17 37 31q18 12 43.5 22t57.5 10q50 0 84.5 -18t55.5 -46
t30.5 -63t9.5 -69q0 -25 -4 -44l-54 -307q-6 -36 -22 -65.5t-38 -49.5t-49 -31t-55 -11z" />
    <glyph glyph-name="Omacron" unicode="&#x14c;" horiz-adv-x="750" 
d="M401 -6q-62 0 -117 25t-95.5 68.5t-64 103t-23.5 128.5q0 85 32.5 158.5t85.5 127.5t120.5 85t136.5 31q62 0 117 -25t95.5 -68.5t64 -103t23.5 -128.5q0 -85 -32.5 -158.5t-85.5 -127.5t-120.5 -85t-136.5 -31zM408 74q53 0 103 25t88.5 68.5t62 102t23.5 125.5
q0 54 -17.5 99t-47 78t-69 51.5t-82.5 18.5q-50 0 -99 -23.5t-89 -66t-64.5 -101.5t-24.5 -130q0 -54 17.5 -99t47 -78t68.5 -51.5t83 -18.5zM371 881h273l-12 -69h-273z" />
    <glyph glyph-name="omacron" unicode="&#x14d;" 
d="M296 -6q-46 0 -85.5 17t-68 47t-45 72t-16.5 92q0 65 22.5 119.5t59.5 93.5t85 60.5t98 21.5q46 0 86 -17t68.5 -47t45 -71.5t16.5 -91.5q0 -66 -22.5 -120.5t-60 -93.5t-85 -60.5t-98.5 -21.5zM301 74q31 0 62.5 15t56.5 42.5t40.5 65.5t15.5 85q0 34 -10.5 63t-28.5 49
t-42.5 31.5t-52.5 11.5q-32 0 -63 -15t-56 -43t-40.5 -66.5t-15.5 -84.5q0 -35 10.5 -63t28.5 -48.5t42.5 -31.5t52.5 -11zM238 676h273l-12 -69h-273z" />
    <glyph glyph-name="Obreve" unicode="&#x14e;" horiz-adv-x="750" 
d="M401 -6q-62 0 -117 25t-95.5 68.5t-64 103t-23.5 128.5q0 85 32.5 158.5t85.5 127.5t120.5 85t136.5 31q62 0 117 -25t95.5 -68.5t64 -103t23.5 -128.5q0 -85 -32.5 -158.5t-85.5 -127.5t-120.5 -85t-136.5 -31zM408 74q53 0 103 25t88.5 68.5t62 102t23.5 125.5
q0 54 -17.5 99t-47 78t-69 51.5t-82.5 18.5q-50 0 -99 -23.5t-89 -66t-64.5 -101.5t-24.5 -130q0 -54 17.5 -99t47 -78t68.5 -51.5t83 -18.5zM504 779q-30 0 -53 10.5t-39.5 28t-25.5 40t-10 46.5h65q0 -32 19 -50t48 -18q27 0 48 20t30 48h68q-9 -26 -23.5 -48.5t-34 -39.5
t-42.5 -27t-50 -10z" />
    <glyph glyph-name="obreve" unicode="&#x14f;" 
d="M296 -6q-46 0 -85.5 17t-68 47t-45 72t-16.5 92q0 65 22.5 119.5t59.5 93.5t85 60.5t98 21.5q46 0 86 -17t68.5 -47t45 -71.5t16.5 -91.5q0 -66 -22.5 -120.5t-60 -93.5t-85 -60.5t-98.5 -21.5zM301 74q31 0 62.5 15t56.5 42.5t40.5 65.5t15.5 85q0 34 -10.5 63t-28.5 49
t-42.5 31.5t-52.5 11.5q-32 0 -63 -15t-56 -43t-40.5 -66.5t-15.5 -84.5q0 -35 10.5 -63t28.5 -48.5t42.5 -31.5t52.5 -11zM372 591q-30 0 -53 10.5t-39.5 28t-25.5 40t-10 46.5h65q0 -32 19 -50t48 -18q27 0 48 20t30 48h68q-9 -26 -23.5 -48.5t-34 -39.5t-42.5 -27
t-50 -10z" />
    <glyph glyph-name="Ohungarumlaut" unicode="&#x150;" horiz-adv-x="750" 
d="M401 -6q-62 0 -117 25t-95.5 68.5t-64 103t-23.5 128.5q0 85 32.5 158.5t85.5 127.5t120.5 85t136.5 31q62 0 117 -25t95.5 -68.5t64 -103t23.5 -128.5q0 -85 -32.5 -158.5t-85.5 -127.5t-120.5 -85t-136.5 -31zM408 74q53 0 103 25t88.5 68.5t62 102t23.5 125.5
q0 54 -17.5 99t-47 78t-69 51.5t-82.5 18.5q-50 0 -99 -23.5t-89 -66t-64.5 -101.5t-24.5 -130q0 -54 17.5 -99t47 -78t68.5 -51.5t83 -18.5zM482 904h85l-126 -137h-57zM641 904h85l-126 -137h-57z" />
    <glyph glyph-name="ohungarumlaut" unicode="&#x151;" 
d="M296 -6q-46 0 -85.5 17t-68 47t-45 72t-16.5 92q0 65 22.5 119.5t59.5 93.5t85 60.5t98 21.5q46 0 86 -17t68.5 -47t45 -71.5t16.5 -91.5q0 -66 -22.5 -120.5t-60 -93.5t-85 -60.5t-98.5 -21.5zM301 74q31 0 62.5 15t56.5 42.5t40.5 65.5t15.5 85q0 34 -10.5 63t-28.5 49
t-42.5 31.5t-52.5 11.5q-32 0 -63 -15t-56 -43t-40.5 -66.5t-15.5 -84.5q0 -35 10.5 -63t28.5 -48.5t42.5 -31.5t52.5 -11zM356 727h85l-126 -137h-57zM515 727h85l-126 -137h-57z" />
    <glyph glyph-name="OE" unicode="&#x152;" horiz-adv-x="954" 
d="M381 0q-59 0 -109.5 26t-87.5 70.5t-57.5 102.5t-20.5 121q0 83 32.5 155t85 125.5t119.5 84.5t136 31h527l-13 -80h-324l-41 -227h296l-14 -80h-295l-45 -249h335l-13 -80h-511zM479 80l99 556h-105q-58 0 -108.5 -27t-87.5 -71t-58.5 -100t-21.5 -113q0 -50 15.5 -94.5
t42 -78t62.5 -53t77 -19.5h85z" />
    <glyph glyph-name="oe" unicode="&#x153;" horiz-adv-x="897" 
d="M290 -6q-44 0 -82.5 17t-66.5 47t-44 72t-16 92q0 65 22 119.5t58 93.5t81.5 60.5t93.5 21.5q60 0 107 -29t73 -80q37 51 87 80t104 29q50 0 87.5 -18.5t62.5 -49t37.5 -70t12.5 -80.5t-8 -62t-7 -21h-350q1 -26 9.5 -51.5t24.5 -45.5t39 -32.5t54 -12.5q21 0 39 6.5
t32 16.5t24.5 20.5t15.5 18.5h95q-34 -63 -88.5 -102.5t-123.5 -39.5q-59 0 -104.5 29t-71.5 80q-37 -52 -90 -80.5t-107 -28.5zM293 74q30 0 60.5 15t54.5 42.5t39 65.5t15 85q0 34 -10.5 63t-28 49t-41 31.5t-49.5 11.5q-30 0 -60.5 -15t-55 -43t-40 -66.5t-15.5 -84.5
q0 -35 11 -63t29 -48.5t41.5 -31.5t49.5 -11zM825 290q1 34 -8 61.5t-25 46.5t-38 29t-46 10t-48.5 -11t-45.5 -30.5t-37.5 -46.5t-25.5 -59h274z" />
    <glyph glyph-name="Racute" unicode="&#x154;" horiz-adv-x="630" 
d="M217 716h267q40 0 73 -16.5t56.5 -43.5t36.5 -61.5t13 -71.5q0 -35 -8.5 -63.5t-22 -51t-31 -39.5t-35.5 -29q-42 -29 -96 -42l121 -298h-103l-118 295h-136l-52 -295h-91zM436 375q27 0 51.5 11t44 30.5t31 46t11.5 57.5q0 23 -7.5 44t-21.5 37t-33 25.5t-42 9.5h-176
l-46 -261h188zM504 904h86l-121 -137h-57z" />
    <glyph glyph-name="racute" unicode="&#x155;" horiz-adv-x="341" 
d="M164 511h62l14 -57q14 17 36 31q19 12 49 22t73 10h11l-15 -85h-23q-70 0 -110 -39t-51 -103l-51 -290h-85zM361 727h86l-121 -137h-57z" />
    <glyph glyph-name="Rcommaaccent" unicode="&#x156;" horiz-adv-x="630" 
d="M217 716h267q40 0 73 -16.5t56.5 -43.5t36.5 -61.5t13 -71.5q0 -35 -8.5 -63.5t-22 -51t-31 -39.5t-35.5 -29q-42 -29 -96 -42l121 -298h-103l-118 295h-136l-52 -295h-91zM436 375q27 0 51.5 11t44 30.5t31 46t11.5 57.5q0 23 -7.5 44t-21.5 37t-33 25.5t-42 9.5h-176
l-46 -261h188zM257 -262q13 10 24 21q10 10 19.5 23.5t14.5 30.5q-21 2 -35 18.5t-14 36.5q0 24 16.5 41t40.5 17q26 0 42 -17.5t16 -40.5q0 -21 -9 -43.5t-24 -42.5t-35 -38t-43 -30z" />
    <glyph glyph-name="rcommaaccent" unicode="&#x157;" horiz-adv-x="341" 
d="M164 511h62l14 -57q14 17 36 31q19 12 49 22t73 10h11l-15 -85h-23q-70 0 -110 -39t-51 -103l-51 -290h-85zM35 -262q13 10 24 21q10 10 19.5 23.5t14.5 30.5q-21 2 -35 18.5t-14 36.5q0 24 16.5 41t40.5 17q26 0 42 -17.5t16 -40.5q0 -21 -9 -43.5t-24 -42.5t-35 -38
t-43 -30z" />
    <glyph glyph-name="Rcaron" unicode="&#x158;" horiz-adv-x="630" 
d="M217 716h267q40 0 73 -16.5t56.5 -43.5t36.5 -61.5t13 -71.5q0 -35 -8.5 -63.5t-22 -51t-31 -39.5t-35.5 -29q-42 -29 -96 -42l121 -298h-103l-118 295h-136l-52 -295h-91zM436 375q27 0 51.5 11t44 30.5t31 46t11.5 57.5q0 23 -7.5 44t-21.5 37t-33 25.5t-42 9.5h-176
l-46 -261h188zM329 904h80l43 -80l70 80h91l-126 -136h-80z" />
    <glyph glyph-name="rcaron" unicode="&#x159;" horiz-adv-x="341" 
d="M164 511h62l14 -57q14 17 36 31q19 12 49 22t73 10h11l-15 -85h-23q-70 0 -110 -39t-51 -103l-51 -290h-85zM185 727h80l43 -80l70 80h91l-126 -136h-80z" />
    <glyph glyph-name="Sacute" unicode="&#x15a;" horiz-adv-x="562" 
d="M311 -6q-55 0 -98 16.5t-72.5 45t-45 68t-15.5 86.5h89q0 -65 37.5 -100.5t110.5 -35.5q34 0 60.5 9.5t45.5 25.5t29 38t10 47q0 36 -24 59.5t-59.5 41.5t-77 35t-77 40t-59.5 55.5t-24 83.5q0 52 22.5 91.5t57.5 66.5t78 40.5t85 13.5q46 0 84.5 -15.5t66.5 -44
t43.5 -68t15.5 -87.5h-90q0 27 -9.5 51.5t-26.5 43.5t-40.5 30t-50.5 11q-35 0 -62 -10.5t-45.5 -28t-28 -39.5t-9.5 -44q0 -36 24 -59t59.5 -41t77.5 -35t77.5 -40t59.5 -56t24 -83q0 -41 -16.5 -79t-48 -67.5t-76.5 -47.5t-102 -18zM464 904h86l-121 -137h-57z" />
    <glyph glyph-name="sacute" unicode="&#x15b;" horiz-adv-x="449" 
d="M249 -6q-43 0 -76.5 13t-56.5 35t-35 50.5t-12 60.5h84q0 -35 26.5 -57t73.5 -22q42 0 67 22.5t25 54.5q0 23 -17 36.5t-42.5 23.5t-55 19.5t-55 24t-42.5 37.5t-17 61q0 33 13 62.5t36 52t56 36t73 13.5q41 0 72.5 -12.5t52.5 -33.5t32 -48.5t11 -58.5h-86
q0 30 -20.5 51.5t-65.5 21.5q-40 0 -64 -22.5t-24 -49.5q0 -23 17 -36.5t42.5 -23.5t55 -19.5t55 -24.5t42.5 -38.5t17 -60.5q0 -36 -13.5 -67t-37.5 -53.5t-57.5 -35t-73.5 -12.5zM372 727h86l-121 -137h-57z" />
    <glyph glyph-name="Scircumflex" unicode="&#x15c;" horiz-adv-x="562" 
d="M311 -6q-55 0 -98 16.5t-72.5 45t-45 68t-15.5 86.5h89q0 -65 37.5 -100.5t110.5 -35.5q34 0 60.5 9.5t45.5 25.5t29 38t10 47q0 36 -24 59.5t-59.5 41.5t-77 35t-77 40t-59.5 55.5t-24 83.5q0 52 22.5 91.5t57.5 66.5t78 40.5t85 13.5q46 0 84.5 -15.5t66.5 -44
t43.5 -68t15.5 -87.5h-90q0 27 -9.5 51.5t-26.5 43.5t-40.5 30t-50.5 11q-35 0 -62 -10.5t-45.5 -28t-28 -39.5t-9.5 -44q0 -36 24 -59t59.5 -41t77.5 -35t77.5 -40t59.5 -56t24 -83q0 -41 -16.5 -79t-48 -67.5t-76.5 -47.5t-102 -18zM385 904h80l78 -136h-79l-44 79
l-70 -79h-91z" />
    <glyph glyph-name="scircumflex" unicode="&#x15d;" horiz-adv-x="449" 
d="M249 -6q-43 0 -76.5 13t-56.5 35t-35 50.5t-12 60.5h84q0 -35 26.5 -57t73.5 -22q42 0 67 22.5t25 54.5q0 23 -17 36.5t-42.5 23.5t-55 19.5t-55 24t-42.5 37.5t-17 61q0 33 13 62.5t36 52t56 36t73 13.5q41 0 72.5 -12.5t52.5 -33.5t32 -48.5t11 -58.5h-86
q0 30 -20.5 51.5t-65.5 21.5q-40 0 -64 -22.5t-24 -49.5q0 -23 17 -36.5t42.5 -23.5t55 -19.5t55 -24.5t42.5 -38.5t17 -60.5q0 -36 -13.5 -67t-37.5 -53.5t-57.5 -35t-73.5 -12.5zM298 727h80l78 -136h-79l-44 79l-70 -79h-91z" />
    <glyph glyph-name="Scedilla" unicode="&#x15e;" horiz-adv-x="562" 
d="M279 -192q-26 0 -46 5q-11 3 -19 6l8 46q0 1 16 -4t35 -5q23 0 36.5 10t13.5 24q0 11 -13 22t-40 11q-5 0 -8.5 -0.5t-6.5 -1.5q-4 -1 -6 -1l44 75q-51 3 -90.5 20t-67 45.5t-41.5 66.5t-14 83h89q0 -65 37.5 -100.5t110.5 -35.5q34 0 60.5 9.5t45.5 25.5t29 38t10 47
q0 36 -24 59.5t-59.5 41.5t-77 35t-77 40t-59.5 55.5t-24 83.5q0 52 22.5 91.5t57.5 66.5t78 40.5t85 13.5q46 0 84.5 -15.5t66.5 -44t43.5 -68t15.5 -87.5h-90q0 27 -9.5 51.5t-26.5 43.5t-40.5 30t-50.5 11q-35 0 -62 -10.5t-45.5 -28t-28 -39.5t-9.5 -44q0 -36 24 -59
t59.5 -41t77.5 -35t77.5 -40t59.5 -56t24 -83q0 -38 -14 -73.5t-41 -64t-66 -47.5t-88 -24l-28 -42q29 -8 45 -25.5t16 -41.5q0 -33 -25 -56.5t-74 -23.5z" />
    <glyph glyph-name="scedilla" unicode="&#x15f;" horiz-adv-x="449" 
d="M206 -192q-27 0 -47 5q-11 3 -19 6l8 46q0 1 16 -4t35 -5q24 0 37 10t13 24q0 11 -13 22t-39 11q-8 0 -16 -2q-4 -1 -6 -1l45 77q-36 4 -64.5 18t-47.5 35t-29 47.5t-10 55.5h84q0 -35 26.5 -57t73.5 -22q42 0 67 22.5t25 54.5q0 23 -17 36.5t-42.5 23.5t-55 19.5t-55 24
t-42.5 37.5t-17 61q0 33 13 62.5t36 52t56 36t73 13.5q41 0 72.5 -12.5t52.5 -33.5t32 -48.5t11 -58.5h-86q0 30 -20.5 51.5t-65.5 21.5q-40 0 -64 -22.5t-24 -49.5q0 -23 17 -36.5t42.5 -23.5t55 -19.5t55 -24.5t42.5 -38.5t17 -60.5q0 -33 -11.5 -62t-32.5 -51t-50.5 -36
t-64.5 -18l-29 -40q29 -8 45 -25.5t16 -41.5q0 -33 -25 -56.5t-73 -23.5z" />
    <glyph glyph-name="Scaron" unicode="&#x160;" horiz-adv-x="562" 
d="M311 -6q-55 0 -98 16.5t-72.5 45t-45 68t-15.5 86.5h89q0 -65 37.5 -100.5t110.5 -35.5q34 0 60.5 9.5t45.5 25.5t29 38t10 47q0 36 -24 59.5t-59.5 41.5t-77 35t-77 40t-59.5 55.5t-24 83.5q0 52 22.5 91.5t57.5 66.5t78 40.5t85 13.5q46 0 84.5 -15.5t66.5 -44
t43.5 -68t15.5 -87.5h-90q0 27 -9.5 51.5t-26.5 43.5t-40.5 30t-50.5 11q-35 0 -62 -10.5t-45.5 -28t-28 -39.5t-9.5 -44q0 -36 24 -59t59.5 -41t77.5 -35t77.5 -40t59.5 -56t24 -83q0 -41 -16.5 -79t-48 -67.5t-76.5 -47.5t-102 -18zM284 904h80l43 -80l70 80h91l-126 -136
h-80z" />
    <glyph glyph-name="scaron" unicode="&#x161;" horiz-adv-x="449" 
d="M249 -6q-43 0 -76.5 13t-56.5 35t-35 50.5t-12 60.5h84q0 -35 26.5 -57t73.5 -22q42 0 67 22.5t25 54.5q0 23 -17 36.5t-42.5 23.5t-55 19.5t-55 24t-42.5 37.5t-17 61q0 33 13 62.5t36 52t56 36t73 13.5q41 0 72.5 -12.5t52.5 -33.5t32 -48.5t11 -58.5h-86
q0 30 -20.5 51.5t-65.5 21.5q-40 0 -64 -22.5t-24 -49.5q0 -23 17 -36.5t42.5 -23.5t55 -19.5t55 -24.5t42.5 -38.5t17 -60.5q0 -36 -13.5 -67t-37.5 -53.5t-57.5 -35t-73.5 -12.5zM196 727h80l43 -80l70 80h91l-126 -136h-80z" />
    <glyph glyph-name="Tcommaaccent" unicode="&#x162;" 
d="M345 636h-215l13 80h523l-14 -80h-216l-112 -636h-91zM194 -262q13 10 24 21q10 10 19.5 23.5t14.5 30.5q-21 2 -35 18.5t-14 36.5q0 24 16.5 41t40.5 17q26 0 42 -17.5t16 -40.5q0 -21 -9 -43.5t-24 -42.5t-35 -38t-43 -30z" />
    <glyph glyph-name="tcommaaccent" unicode="&#x163;" horiz-adv-x="364" 
d="M275 -6q-30 0 -54.5 11t-42 31t-27 46.5t-9.5 58.5q0 19 3 37l45 254h-91l13 79h40q30 0 49.5 16.5t24.5 46.5l13 74h75l-25 -137h113l-13 -79h-115l-45 -262q-7 -40 11.5 -68t63.5 -28q13 0 17 1t6 2l-13 -75q-5 -2 -11 -4q-5 -2 -12 -3t-16 -1zM143 -262q13 10 24 21
q10 10 19.5 23.5t14.5 30.5q-21 2 -35 18.5t-14 36.5q0 24 16.5 41t40.5 17q26 0 42 -17.5t16 -40.5q0 -21 -9 -43.5t-24 -42.5t-35 -38t-43 -30z" />
    <glyph glyph-name="Tcaron" unicode="&#x164;" 
d="M345 636h-215l13 80h523l-14 -80h-216l-112 -636h-91zM295 904h80l43 -80l70 80h91l-126 -136h-80z" />
    <glyph glyph-name="tcaron" unicode="&#x165;" horiz-adv-x="386" 
d="M467 716h79l-92 -137h-51zM275 -6q-30 0 -54.5 11t-42 31t-27 46.5t-9.5 58.5q0 19 3 37l45 254h-91l13 79h40q30 0 49.5 16.5t24.5 46.5l13 74h75l-25 -137h113l-13 -79h-115l-45 -262q-7 -40 11.5 -68t63.5 -28q13 0 17 1t6 2l-13 -75q-5 -2 -11 -4q-5 -2 -12 -3
t-16 -1z" />
    <glyph glyph-name="Tbar" unicode="&#x166;" 
d="M299 369h-120l14 80h119l33 187h-215l13 80h523l-14 -80h-216l-33 -187h120l-14 -80h-119l-66 -369h-91z" />
    <glyph glyph-name="tbar" unicode="&#x167;" horiz-adv-x="364" 
d="M275 -6q-30 0 -54.5 11t-42 31t-27 46.5t-9.5 58.5q0 19 3 37l16 95h-91l14 79h91l15 80h-91l13 79h40q30 0 49.5 16.5t24.5 46.5l13 74h75l-25 -137h113l-13 -79h-115l-14 -80h114l-14 -79h-113l-18 -103q-7 -40 11.5 -68t63.5 -28q13 0 17 1t6 2l-13 -75q-5 -2 -11 -4
q-5 -2 -12 -3t-16 -1z" />
    <glyph glyph-name="uni0168" unicode="&#x168;" horiz-adv-x="682" 
d="M366 -6q-64 0 -110 20t-75 53t-43 74.5t-14 84.5q0 13 1 25.5t3 24.5l78 440h90l-78 -446q-2 -11 -3 -22t-1 -22q0 -69 41 -110.5t116 -41.5q34 0 64.5 11.5t54.5 33.5t40.5 52t22.5 68l84 477h91l-85 -484q-9 -52 -33.5 -95.5t-61.5 -75t-83.5 -49.5t-98.5 -18zM537 767
q-26 0 -42 11.5t-27.5 25t-22 25t-25.5 11.5q-18 0 -35 -17.5t-22 -49.5h-51q10 64 41.5 97.5t69.5 33.5q25 0 41 -11.5t27.5 -25.5t22.5 -25.5t26 -11.5q18 0 35 18t22 50h51q-11 -64 -42 -97.5t-69 -33.5z" />
    <glyph glyph-name="uni0169" unicode="&#x169;" horiz-adv-x="579" 
d="M291 -6q-50 0 -84.5 18t-55.5 46t-30.5 63t-9.5 69q0 25 4 44l49 277h85l-50 -285q-6 -32 0.5 -59.5t22 -48t38.5 -32.5t51 -12q55 0 95 35t51 95l53 307h85l-89 -511h-63l-14 57q-16 -18 -37 -32q-18 -12 -43.5 -21.5t-57.5 -9.5zM449 579q-26 0 -42 11.5t-27.5 25
t-22 25t-25.5 11.5q-18 0 -35 -17.5t-22 -49.5h-51q10 64 41.5 97.5t69.5 33.5q25 0 41 -11.5t27.5 -25.5t22.5 -25.5t26 -11.5q18 0 35 18t22 50h51q-11 -64 -42 -97.5t-69 -33.5z" />
    <glyph glyph-name="Umacron" unicode="&#x16a;" horiz-adv-x="682" 
d="M366 -6q-64 0 -110 20t-75 53t-43 74.5t-14 84.5q0 13 1 25.5t3 24.5l78 440h90l-78 -446q-2 -11 -3 -22t-1 -22q0 -69 41 -110.5t116 -41.5q34 0 64.5 11.5t54.5 33.5t40.5 52t22.5 68l84 477h91l-85 -484q-9 -52 -33.5 -95.5t-61.5 -75t-83.5 -49.5t-98.5 -18zM348 881
h273l-12 -69h-273z" />
    <glyph glyph-name="umacron" unicode="&#x16b;" horiz-adv-x="579" 
d="M291 -6q-50 0 -84.5 18t-55.5 46t-30.5 63t-9.5 69q0 25 4 44l49 277h85l-50 -285q-6 -32 0.5 -59.5t22 -48t38.5 -32.5t51 -12q55 0 95 35t51 95l53 307h85l-89 -511h-63l-14 57q-16 -18 -37 -32q-18 -12 -43.5 -21.5t-57.5 -9.5zM261 676h273l-12 -69h-273z" />
    <glyph glyph-name="Ubreve" unicode="&#x16c;" horiz-adv-x="682" 
d="M366 -6q-64 0 -110 20t-75 53t-43 74.5t-14 84.5q0 13 1 25.5t3 24.5l78 440h90l-78 -446q-2 -11 -3 -22t-1 -22q0 -69 41 -110.5t116 -41.5q34 0 64.5 11.5t54.5 33.5t40.5 52t22.5 68l84 477h91l-85 -484q-9 -52 -33.5 -95.5t-61.5 -75t-83.5 -49.5t-98.5 -18zM481 779
q-30 0 -53 10.5t-39.5 28t-25.5 40t-10 46.5h65q0 -32 19 -50t48 -18q27 0 48 20t30 48h68q-9 -26 -23.5 -48.5t-34 -39.5t-42.5 -27t-50 -10z" />
    <glyph glyph-name="ubreve" unicode="&#x16d;" horiz-adv-x="579" 
d="M291 -6q-50 0 -84.5 18t-55.5 46t-30.5 63t-9.5 69q0 25 4 44l49 277h85l-50 -285q-6 -32 0.5 -59.5t22 -48t38.5 -32.5t51 -12q55 0 95 35t51 95l53 307h85l-89 -511h-63l-14 57q-16 -18 -37 -32q-18 -12 -43.5 -21.5t-57.5 -9.5zM395 591q-30 0 -53 10.5t-39.5 28
t-25.5 40t-10 46.5h65q0 -32 19 -50t48 -18q27 0 48 20t30 48h68q-9 -26 -23.5 -48.5t-34 -39.5t-42.5 -27t-50 -10z" />
    <glyph glyph-name="Uring" unicode="&#x16e;" horiz-adv-x="682" 
d="M366 -6q-64 0 -110 20t-75 53t-43 74.5t-14 84.5q0 13 1 25.5t3 24.5l78 440h90l-78 -446q-2 -11 -3 -22t-1 -22q0 -69 41 -110.5t116 -41.5q34 0 64.5 11.5t54.5 33.5t40.5 52t22.5 68l84 477h91l-85 -484q-9 -52 -33.5 -95.5t-61.5 -75t-83.5 -49.5t-98.5 -18zM475 722
q-37 0 -60 23.5t-23 58.5q0 21 8 39.5t21.5 32t31 21t37.5 7.5q37 0 60 -23.5t23 -58.5q0 -21 -8 -39.5t-21.5 -32t-31.5 -21t-37 -7.5zM481 773q16 0 29 12.5t13 31.5q0 15 -11 25.5t-28 10.5q-16 0 -29 -13t-13 -32q0 -14 11 -24.5t28 -10.5z" />
    <glyph glyph-name="uring" unicode="&#x16f;" horiz-adv-x="579" 
d="M291 -6q-50 0 -84.5 18t-55.5 46t-30.5 63t-9.5 69q0 25 4 44l49 277h85l-50 -285q-6 -32 0.5 -59.5t22 -48t38.5 -32.5t51 -12q55 0 95 35t51 95l53 307h85l-89 -511h-63l-14 57q-16 -18 -37 -32q-18 -12 -43.5 -21.5t-57.5 -9.5zM388 579q-37 0 -60 23.5t-23 58.5
q0 21 8 39.5t21.5 32t31 21t37.5 7.5q37 0 60 -23.5t23 -58.5q0 -21 -8 -39.5t-21.5 -32t-31.5 -21t-37 -7.5zM394 630q16 0 29 12.5t13 31.5q0 15 -11 25.5t-28 10.5q-16 0 -29 -13t-13 -32q0 -14 11 -24.5t28 -10.5z" />
    <glyph glyph-name="Uhungarumlaut" unicode="&#x170;" horiz-adv-x="682" 
d="M366 -6q-64 0 -110 20t-75 53t-43 74.5t-14 84.5q0 13 1 25.5t3 24.5l78 440h90l-78 -446q-2 -11 -3 -22t-1 -22q0 -69 41 -110.5t116 -41.5q34 0 64.5 11.5t54.5 33.5t40.5 52t22.5 68l84 477h91l-85 -484q-9 -52 -33.5 -95.5t-61.5 -75t-83.5 -49.5t-98.5 -18zM459 904
h85l-126 -137h-57zM618 904h85l-126 -137h-57z" />
    <glyph glyph-name="uhungarumlaut" unicode="&#x171;" horiz-adv-x="579" 
d="M291 -6q-50 0 -84.5 18t-55.5 46t-30.5 63t-9.5 69q0 25 4 44l49 277h85l-50 -285q-6 -32 0.5 -59.5t22 -48t38.5 -32.5t51 -12q55 0 95 35t51 95l53 307h85l-89 -511h-63l-14 57q-16 -18 -37 -32q-18 -12 -43.5 -21.5t-57.5 -9.5zM367 727h85l-126 -137h-57zM526 727h85
l-126 -137h-57z" />
    <glyph glyph-name="Uogonek" unicode="&#x172;" horiz-adv-x="682" 
d="M389 -193q-54 0 -82 22.5t-28 60.5q0 19 7 36t16 30.5t19 23.5t16 15q-56 4 -96.5 25.5t-66.5 53.5t-38 71t-12 80q0 28 4 51l78 440h90l-78 -446q-2 -11 -3 -22t-1 -22q0 -69 41 -110.5t116 -41.5q34 0 64.5 11.5t54.5 33.5t40.5 52t22.5 68l84 477h91l-85 -484
q-9 -49 -31.5 -90.5t-55.5 -72.5t-74.5 -50.5t-89.5 -23.5q-5 -4 -14 -13.5t-18 -22.5t-16 -29t-7 -33q0 -25 17 -35t44 -10h11t9 1l8 2l-8 -46q-5 -1 -9 -1q-4 -1 -9.5 -1h-10.5z" />
    <glyph glyph-name="uogonek" unicode="&#x173;" horiz-adv-x="579" 
d="M488 -193q-53 0 -81 22.5t-28 60.5q0 23 10 42.5t22 34.5q14 18 32 33l-14 57q-16 -18 -37 -32q-18 -12 -43.5 -21.5t-57.5 -9.5q-50 0 -84.5 18t-55.5 46t-30.5 63t-9.5 69q0 25 4 44l49 277h85l-50 -285q-6 -32 0.5 -59.5t22 -48t38.5 -32.5t51 -12q55 0 95 35t51 95
l53 307h85l-89 -511h-8q-18 -15 -31 -32q-11 -14 -20.5 -32.5t-9.5 -38.5q0 -25 17 -35t44 -10h10.5t9.5 1l8 2l-8 -46q-5 -1 -9 -1q-5 -1 -10 -1h-11z" />
    <glyph glyph-name="Wcircumflex" unicode="&#x174;" horiz-adv-x="897" 
d="M132 716h93l68 -517l244 517h57l63 -517l250 517h99l-347 -716h-63l-62 517l-244 -517h-63zM561 904h80l78 -136h-79l-44 79l-70 -79h-91z" />
    <glyph glyph-name="wcircumflex" unicode="&#x175;" horiz-adv-x="727" 
d="M95 511h87l55 -363l178 363h61l50 -363l183 363h91l-260 -511h-69l-50 364l-177 -364h-68zM437 729h80l78 -136h-79l-44 79l-70 -79h-91z" />
    <glyph glyph-name="Ycircumflex" unicode="&#x176;" horiz-adv-x="579" 
d="M287 278l-155 438h96l116 -341l242 341h102l-310 -438l-49 -278h-90zM391 904h80l78 -136h-79l-44 79l-70 -79h-91z" />
    <glyph glyph-name="ycircumflex" unicode="&#x177;" horiz-adv-x="511" 
d="M101 -187q-8 0 -16 1t-15 3q-8 2 -15 5l12 67h14q32 0 51.5 15.5t36.5 45.5l35 61l-110 500h91l84 -392l223 392h95l-328 -569q-40 -69 -76.5 -98.5t-81.5 -30.5zM321 727h80l78 -136h-79l-44 79l-70 -79h-91z" />
    <glyph glyph-name="Ydieresis" unicode="&#x178;" horiz-adv-x="579" 
d="M287 278l-155 438h96l116 -341l242 341h102l-310 -438l-49 -278h-90zM330 802q-22 0 -35 13t-13 33q0 23 16.5 39.5t39.5 16.5q21 0 34 -13t13 -34q0 -23 -16.5 -39t-38.5 -16zM499 802q-21 0 -34.5 13t-13.5 33q0 23 16.5 39.5t39.5 16.5q21 0 34.5 -13t13.5 -34
q0 -23 -16.5 -39t-39.5 -16z" />
    <glyph glyph-name="Zacute" unicode="&#x179;" horiz-adv-x="562" 
d="M44 57l451 579h-337l14 80h454l-10 -57l-451 -579h366l-14 -80h-483zM470 904h86l-121 -137h-57z" />
    <glyph glyph-name="zacute" unicode="&#x17a;" horiz-adv-x="443" 
d="M47 74l309 358h-246l14 79h352l-13 -74l-309 -357h257l-13 -80h-364zM350 727h86l-121 -137h-57z" />
    <glyph glyph-name="Zdotaccent" unicode="&#x17b;" horiz-adv-x="562" 
d="M44 57l451 579h-337l14 80h454l-10 -57l-451 -579h366l-14 -80h-483zM411 796q-23 0 -36.5 14t-13.5 34q0 26 17 43t41 17q23 0 36.5 -14t13.5 -34q0 -26 -17 -43t-41 -17z" />
    <glyph glyph-name="zdotaccent" unicode="&#x17c;" horiz-adv-x="443" 
d="M47 74l309 358h-246l14 79h352l-13 -74l-309 -357h257l-13 -80h-364zM308 602q-23 0 -36.5 14t-13.5 34q0 26 17 43t41 17q23 0 36.5 -14t13.5 -34q0 -26 -17 -43t-41 -17z" />
    <glyph glyph-name="Zcaron" unicode="&#x17d;" horiz-adv-x="562" 
d="M44 57l451 579h-337l14 80h454l-10 -57l-451 -579h366l-14 -80h-483zM290 904h80l43 -80l70 80h91l-126 -136h-80z" />
    <glyph glyph-name="zcaron" unicode="&#x17e;" horiz-adv-x="443" 
d="M47 74l309 358h-246l14 79h352l-13 -74l-309 -357h257l-13 -80h-364zM191 727h80l43 -80l70 80h91l-126 -136h-80z" />
    <glyph glyph-name="uni018F" unicode="&#x18f;" horiz-adv-x="738" 
d="M390 -5q-62 0 -115 23.5t-92 66.5t-61 102t-22 130q0 14 1.5 30.5t5.5 33.5h567q0 55 -17.5 102.5t-47.5 82.5t-70.5 55.5t-86.5 20.5q-70 0 -119.5 -35.5t-81.5 -88.5l-97 8q21 40 51.5 76t69 62t85 41.5t100.5 15.5q63 0 118.5 -25.5t97 -69.5t65.5 -104.5t24 -130.5
q0 -84 -32.5 -156.5t-85.5 -126t-120 -83.5t-137 -30zM395 74q45 0 88.5 19t79.5 50.5t61 72.5t34 85h-467q0 -46 15 -87.5t42 -72.5t64.5 -49t82.5 -18z" />
    <glyph glyph-name="florin" unicode="&#x192;" horiz-adv-x="364" 
d="M34 -187q-25 0 -38 5q-8 3 -13 6l17 74q4 -2 8 -3q7 -3 20 -3q39 0 64 24t33 67l68 369h-79l11 80h79l23 119q7 36 23.5 67.5t39.5 54t52 35.5t61 13q13 0 22 -2t16 -4q7 -3 13 -5l-17 -74q-4 1 -8 3q-4 1 -9 2t-11 1q-38 0 -63 -24t-34 -67l-22 -119h113l-11 -80h-114
l-68 -369q-7 -36 -23.5 -67.5t-39.5 -54t-52 -35.5t-61 -13z" />
    <glyph glyph-name="Gacute" unicode="&#x1f4;" horiz-adv-x="772" 
d="M404 -6q-63 0 -117.5 25t-95.5 68.5t-64.5 103t-23.5 128.5q0 85 33 158.5t86 127.5t120 85t136 31q59 0 107.5 -19t85.5 -51t62 -74t38 -89h-95q-16 43 -43 77q-12 14 -27.5 28t-35.5 25t-44.5 17.5t-54.5 6.5q-49 0 -98.5 -24t-89 -66.5t-64.5 -101t-25 -127.5
q0 -54 17 -100t46.5 -79t68 -51.5t82.5 -18.5q40 0 80.5 18t74.5 47.5t58 66t30 72.5h-210l13 80h301l-62 -358h-68l-8 84q-25 -26 -58 -45q-28 -17 -67.5 -31t-87.5 -14zM555 904h86l-121 -137h-57z" />
    <glyph glyph-name="gacute" unicode="&#x1f5;" horiz-adv-x="579" 
d="M272 -193q-42 0 -78.5 11t-64.5 31.5t-46 48.5t-23 62h90q11 -34 41 -54t83 -20q57 0 97.5 33t49.5 86l13 68q-16 -16 -36 -28q-17 -11 -42 -19.5t-56 -8.5q-49 0 -88.5 16t-68 45t-44 69t-15.5 88q0 63 21.5 114.5t57.5 89t83 58t99 20.5q37 0 64 -11t46 -25
q21 -16 37 -36l40 66h63l-88 -513q-8 -42 -28.5 -77t-51 -60.5t-70.5 -39.5t-85 -14zM306 97q30 0 60 13.5t54 39t38.5 61t14.5 79.5q0 33 -10.5 60t-28.5 46.5t-43 30t-54 10.5q-30 0 -60 -13.5t-54 -39t-38.5 -61t-14.5 -79.5q0 -33 10.5 -60t28.5 -46.5t43 -30t54 -10.5z
M435 727h86l-121 -137h-57z" />
    <glyph glyph-name="Aringacute" unicode="&#x1fa;" horiz-adv-x="625" 
d="M404 716h11q-23 8 -36.5 29t-13.5 47q0 41 26 69t63 31l8 12h65l-21 -24q18 -11 28.5 -29t10.5 -41q0 -34 -18.5 -59t-47.5 -35h5l146 -716h-95l-37 176h-296l-99 -176h-97zM484 256l-65 312l-174 -312h239zM453 761q17 0 29.5 12.5t12.5 31.5q0 15 -10.5 25.5
t-27.5 10.5t-29.5 -13t-12.5 -32q0 -14 10.5 -24.5t27.5 -10.5z" />
    <glyph glyph-name="aringacute" unicode="&#x1fb;" horiz-adv-x="528" 
d="M439 886h86l-121 -137h-57zM360 545q-37 0 -60 23.5t-23 58.5q0 21 8 39.5t21.5 32t31 21t37.5 7.5q37 0 60 -23.5t23 -58.5q0 -21 -8 -39.5t-21.5 -32t-31.5 -21t-37 -7.5zM366 596q16 0 29 12.5t13 31.5q0 15 -11 25.5t-28 10.5q-16 0 -29 -13t-13 -32q0 -14 11 -24.5
t28 -10.5zM239 -6q-39 0 -69 11.5t-51 31.5t-32 46.5t-11 56.5q0 50 27 83t74.5 53t112.5 28t141 8l3 20q4 22 -3 41t-21.5 33t-35.5 22.5t-46 8.5q-39 0 -65 -22t-39 -51h-94q8 29 26.5 56.5t45 49t60 34.5t72.5 13q60 0 98 -20t58.5 -49t26.5 -62t1 -58l-58 -328h-62
l-14 57q-16 -18 -38 -32q-19 -12 -45.5 -21.5t-61.5 -9.5zM249 74q32 0 59.5 10.5t48.5 27.5t34.5 38.5t17.5 42.5l7 40q-86 0 -137 -7.5t-77 -20.5t-33.5 -31t-7.5 -38q0 -32 26.5 -47t61.5 -15z" />
    <glyph glyph-name="AEacute" unicode="&#x1fc;" horiz-adv-x="920" 
d="M501 716h477l-14 -80h-318l-41 -227h290l-13 -80h-290l-44 -249h329l-14 -80h-420l32 182h-267l-134 -182h-102zM490 261l66 375h-12l-276 -375h222zM691 904h86l-121 -137h-57z" />
    <glyph glyph-name="aeacute" unicode="&#x1fd;" horiz-adv-x="841" 
d="M243 -6q-40 0 -70.5 11.5t-51 31.5t-31 46.5t-10.5 56.5q0 50 26 82.5t71 51t106.5 26t132.5 7.5l3 25q4 22 -2.5 41t-20.5 33t-34.5 22.5t-44.5 8.5q-37 0 -61.5 -22t-37.5 -51h-88q8 29 25.5 56.5t42.5 49t56.5 34.5t68.5 13q63 0 101 -24.5t57 -57.5q34 38 78 60
t91 22q50 0 87.5 -18.5t63 -49t38.5 -70t13 -80.5t-8 -59t-7 -18h-346q0 -65 30 -106.5t91 -41.5q20 0 38.5 6.5t34 16.5t26.5 20.5t16 18.5h93q-32 -63 -88 -102.5t-125 -39.5q-33 0 -62 11t-51.5 27.5t-38.5 35t-23 34.5q-6 -11 -21 -29t-38.5 -35.5t-56 -30.5t-73.5 -13z
M242 74q30 0 56.5 10.5t46.5 27.5t33 38.5t17 42.5l7 34q-81 0 -129 -6.5t-73 -18.5t-32.5 -29t-7.5 -37q0 -32 24.5 -47t57.5 -15zM770 295q2 32 -7 58.5t-25.5 45t-37.5 28.5t-43 10q-24 0 -48.5 -9.5t-45 -27.5t-36 -44.5t-21.5 -60.5h264zM565 727h86l-121 -137h-57z
" />
    <glyph glyph-name="Oslashacute" unicode="&#x1fe;" horiz-adv-x="761" 
d="M407 -6q-66 0 -123 27.5t-99 75.5l-103 -86l-47 57l109 90q-37 74 -37 161q0 85 32.5 158.5t85.5 127.5t120 85t137 31q66 0 122.5 -27.5t97.5 -75.5l105 86l46 -56l-110 -91q19 -35 29 -75.5t10 -85.5q0 -85 -32.5 -158.5t-85.5 -127.5t-120.5 -85t-136.5 -31zM414 74
q53 0 103 25t88.5 68.5t62 102t23.5 125.5q0 55 -20 103l-418 -345q30 -38 71.5 -58.5t89.5 -20.5zM634 562q-30 37 -71.5 58.5t-87.5 21.5q-50 0 -99 -23.5t-89 -66t-64.5 -101.5t-24.5 -130q0 -58 19 -103zM561 904h86l-121 -137h-57z" />
    <glyph glyph-name="oslashacute" unicode="&#x1ff;" horiz-adv-x="579" 
d="M308 -6q-49 0 -89.5 18t-69.5 50l-77 -62l-41 57l80 65q-19 46 -19 100q0 65 22.5 119.5t60 93.5t85.5 60.5t98 21.5q48 0 89 -18t70 -50l77 62l41 -57l-81 -64q20 -46 20 -100q0 -66 -22.5 -120.5t-60 -93.5t-85.5 -60.5t-98 -21.5zM312 74q31 0 62.5 15t56.5 42.5
t40.5 65.5t15.5 85q0 25 -6 49l-264 -214q18 -20 42.5 -31.5t52.5 -11.5zM449 393q-39 44 -96 44q-32 0 -63 -15t-56 -43t-40.5 -66.5t-15.5 -84.5q0 -13 1 -24.5t5 -22.5zM435 727h86l-121 -137h-57z" />
    <glyph glyph-name="Scommaaccent" unicode="&#x218;" horiz-adv-x="562" 
d="M311 -6q-55 0 -98 16.5t-72.5 45t-45 68t-15.5 86.5h89q0 -65 37.5 -100.5t110.5 -35.5q34 0 60.5 9.5t45.5 25.5t29 38t10 47q0 36 -24 59.5t-59.5 41.5t-77 35t-77 40t-59.5 55.5t-24 83.5q0 52 22.5 91.5t57.5 66.5t78 40.5t85 13.5q46 0 84.5 -15.5t66.5 -44
t43.5 -68t15.5 -87.5h-90q0 27 -9.5 51.5t-26.5 43.5t-40.5 30t-50.5 11q-35 0 -62 -10.5t-45.5 -28t-28 -39.5t-9.5 -44q0 -36 24 -59t59.5 -41t77.5 -35t77.5 -40t59.5 -56t24 -83q0 -41 -16.5 -79t-48 -67.5t-76.5 -47.5t-102 -18zM211 -262q13 10 24 21q10 10 19.5 23.5
t14.5 30.5q-21 2 -35 18.5t-14 36.5q0 24 16.5 41t40.5 17q26 0 42 -17.5t16 -40.5q0 -21 -9 -43.5t-24 -42.5t-35 -38t-43 -30z" />
    <glyph glyph-name="scommaaccent" unicode="&#x219;" horiz-adv-x="449" 
d="M249 -6q-43 0 -76.5 13t-56.5 35t-35 50.5t-12 60.5h84q0 -35 26.5 -57t73.5 -22q42 0 67 22.5t25 54.5q0 23 -17 36.5t-42.5 23.5t-55 19.5t-55 24t-42.5 37.5t-17 61q0 33 13 62.5t36 52t56 36t73 13.5q41 0 72.5 -12.5t52.5 -33.5t32 -48.5t11 -58.5h-86
q0 30 -20.5 51.5t-65.5 21.5q-40 0 -64 -22.5t-24 -49.5q0 -23 17 -36.5t42.5 -23.5t55 -19.5t55 -24.5t42.5 -38.5t17 -60.5q0 -36 -13.5 -67t-37.5 -53.5t-57.5 -35t-73.5 -12.5zM154 -262q13 10 24 21q10 10 19.5 23.5t14.5 30.5q-21 2 -35 18.5t-14 36.5q0 24 16.5 41
t40.5 17q26 0 42 -17.5t16 -40.5q0 -21 -9 -43.5t-24 -42.5t-35 -38t-43 -30z" />
    <glyph glyph-name="uni021A" unicode="&#x21a;" 
d="M345 636h-215l13 80h523l-14 -80h-216l-112 -636h-91zM194 -262q13 10 24 21q10 10 19.5 23.5t14.5 30.5q-21 2 -35 18.5t-14 36.5q0 24 16.5 41t40.5 17q26 0 42 -17.5t16 -40.5q0 -21 -9 -43.5t-24 -42.5t-35 -38t-43 -30z" />
    <glyph glyph-name="uni021B" unicode="&#x21b;" horiz-adv-x="364" 
d="M275 -6q-30 0 -54.5 11t-42 31t-27 46.5t-9.5 58.5q0 19 3 37l45 254h-91l13 79h40q30 0 49.5 16.5t24.5 46.5l13 74h75l-25 -137h113l-13 -79h-115l-45 -262q-7 -40 11.5 -68t63.5 -28q13 0 17 1t6 2l-13 -75q-5 -2 -11 -4q-5 -2 -12 -3t-16 -1zM143 -262q13 10 24 21
q10 10 19.5 23.5t14.5 30.5q-21 2 -35 18.5t-14 36.5q0 24 16.5 41t40.5 17q26 0 42 -17.5t16 -40.5q0 -21 -9 -43.5t-24 -42.5t-35 -38t-43 -30z" />
    <glyph glyph-name="uni0232" unicode="&#x232;" horiz-adv-x="579" 
d="M287 278l-155 438h96l116 -341l242 341h102l-310 -438l-49 -278h-90zM286 881h273l-12 -69h-273z" />
    <glyph glyph-name="uni0233" unicode="&#x233;" horiz-adv-x="511" 
d="M101 -187q-8 0 -16 1t-15 3q-8 2 -15 5l12 67h14q32 0 51.5 15.5t36.5 45.5l35 61l-110 500h91l84 -392l223 392h95l-328 -569q-40 -69 -76.5 -98.5t-81.5 -30.5zM215 676h273l-12 -69h-273z" />
    <glyph glyph-name="uni0244" unicode="&#x244;" horiz-adv-x="750" 
d="M400 -6q-64 0 -110 20t-75 53t-43 74.5t-14 84.5q0 13 1 25.5t3 24.5l21 116h-97l14 79h97l43 245h91l-44 -245h341l43 245h91l-43 -245h97l-14 -79h-97l-28 -160q-9 -52 -33.5 -95.5t-61.5 -75t-83.5 -49.5t-98.5 -18zM406 74q34 0 64.5 11.5t54 33.5t40 52t22.5 68
l28 153h-341l-22 -122q-2 -11 -3 -22t-1 -22q0 -69 41.5 -110.5t116.5 -41.5z" />
    <glyph glyph-name="uni0259" unicode="&#x259;" horiz-adv-x="551" 
d="M295 -6q-53 0 -93 18.5t-67 49t-40.5 70t-13.5 80.5t8.5 62t7.5 21h373q-2 26 -11 51.5t-26 45.5t-41.5 32.5t-56.5 12.5q-21 0 -41 -6.5t-36 -16.5t-27.5 -20.5t-16.5 -18.5h-100q17 31 41 57t53.5 45t63 29.5t69.5 10.5q46 0 86 -17t68.5 -47t45 -71.5t16.5 -91.5
q0 -66 -22.5 -120.5t-59.5 -93.5t-84 -60.5t-96 -21.5zM294 74q25 0 51 11t48.5 30.5t40 47t27.5 59.5h-294q-2 -34 8 -61.5t28 -46.5t41.5 -29.5t49.5 -10.5z" />
    <glyph glyph-name="uni0289" unicode="&#x289;" horiz-adv-x="591" 
d="M296 -6q-50 0 -84 18t-55 46t-30.5 63t-9.5 69q0 23 3 44l6 32h-68l15 80h67l29 165h85l-29 -165h262l29 165h85l-30 -165h70l-15 -80h-68l-47 -266h-62l-14 57q-16 -18 -37 -32q-18 -12 -44 -21.5t-58 -9.5zM317 74q55 0 95 35t50 95l11 62h-262l-7 -40
q-5 -32 1.5 -59.5t22 -48t38.5 -32.5t51 -12z" />
    <glyph glyph-name="afii57929" unicode="&#x2bc;" horiz-adv-x="182" 
d="M141 527q13 10 24 21q10 10 19.5 23.5t14.5 30.5q-22 2 -35.5 18.5t-13.5 37.5q0 24 16.5 41t40.5 17q26 0 42 -18t16 -40q0 -21 -9 -43.5t-24 -43t-35.5 -38.5t-43.5 -30z" />
    <glyph glyph-name="circumflex" unicode="&#x2c6;" horiz-adv-x="352" 
d="M261 710h80l78 -136h-79l-44 79l-70 -79h-91z" />
    <glyph glyph-name="caron" unicode="&#x2c7;" horiz-adv-x="352" 
d="M159 710h80l43 -80l70 80h91l-126 -136h-80z" />
    <glyph glyph-name="breve" unicode="&#x2d8;" horiz-adv-x="341" 
d="M286 585q-30 0 -53 10.5t-39.5 28t-25.5 40t-10 46.5h65q0 -32 19 -50t48 -18q27 0 48 20t30 48h68q-9 -26 -23.5 -48.5t-34 -39.5t-42.5 -27t-50 -10z" />
    <glyph glyph-name="dotaccent" unicode="&#x2d9;" horiz-adv-x="176" 
d="M200 602q-23 0 -36.5 14t-13.5 34q0 26 17 43t41 17q23 0 36.5 -14t13.5 -34q0 -26 -17 -43t-41 -17z" />
    <glyph glyph-name="ring" unicode="&#x2da;" horiz-adv-x="250" 
d="M234 568q-37 0 -60 23.5t-23 58.5q0 21 8 39.5t21.5 32t31 21t37.5 7.5q37 0 60 -23.5t23 -58.5q0 -21 -8 -39.5t-21.5 -32t-31.5 -21t-37 -7.5zM240 619q16 0 29 12.5t13 31.5q0 15 -11 25.5t-28 10.5q-16 0 -29 -13t-13 -32q0 -14 11 -24.5t28 -10.5z" />
    <glyph glyph-name="ogonek" unicode="&#x2db;" horiz-adv-x="222" 
d="M124 -193q-54 0 -81.5 22.5t-27.5 60.5q0 23 9.5 42.5t21.5 34.5q14 18 32 33h55q-17 -15 -30 -32q-11 -14 -20.5 -32.5t-9.5 -38.5q0 -25 17 -35t43 -10h11t9 1l8 2l-8 -46q-5 -1 -9 -1q-4 -1 -9 -1h-11z" />
    <glyph glyph-name="tilde" unicode="&#x2dc;" horiz-adv-x="386" 
d="M364 579q-26 0 -42 11.5t-27.5 25t-22 25t-25.5 11.5q-18 0 -35 -17.5t-22 -49.5h-51q10 64 41.5 97.5t69.5 33.5q25 0 41 -11.5t27.5 -25.5t22.5 -25.5t26 -11.5q18 0 35 18t22 50h51q-11 -64 -42 -97.5t-69 -33.5z" />
    <glyph glyph-name="hungarumlaut" unicode="&#x2dd;" horiz-adv-x="386" 
d="M234 716h85l-126 -137h-57zM393 716h85l-126 -137h-57z" />
    <glyph glyph-name="acutecomb" unicode="&#x301;" horiz-adv-x="0" 
d="M-159 904h85l-120 -137h-57z" />
    <glyph glyph-name="uni0302" unicode="&#x302;" horiz-adv-x="0" 
d="M-238 904h80l78 -136h-79l-44 79l-70 -79h-91z" />
    <glyph glyph-name="uni0304" unicode="&#x304;" horiz-adv-x="0" 
d="M-341 881h273l-12 -69h-273z" />
    <glyph glyph-name="uni0306" unicode="&#x306;" horiz-adv-x="0" 
d="M-213 779q-30 0 -53 10.5t-39.5 28t-25.5 40t-10 46.5h65q0 -32 19 -50t48 -18q27 0 48 20t30 48h68q-9 -26 -23.5 -48.5t-34 -39.5t-42.5 -27t-50 -10z" />
    <glyph glyph-name="uni0308" unicode="&#x308;" horiz-adv-x="0" 
d="M-299 802q-22 0 -35 13t-13 33q0 23 16.5 39.5t39.5 16.5q21 0 34 -13t13 -34q0 -23 -16.5 -39t-38.5 -16zM-130 802q-21 0 -34.5 13t-13.5 33q0 23 16.5 39.5t39.5 16.5q21 0 34.5 -13t13.5 -34q0 -23 -16.5 -39t-39.5 -16z" />
    <glyph glyph-name="uni030A" unicode="&#x30a;" horiz-adv-x="0" 
d="M-219 723q-37 0 -60 23t-23 58q0 21 8 39.5t21.5 32t31 21t37.5 7.5q37 0 60 -23.5t23 -58.5q0 -21 -8 -39t-21.5 -31.5t-31.5 -21t-37 -7.5zM-213 774q16 0 29 12.5t13 31.5q0 14 -11 24.5t-28 10.5q-16 0 -29 -12.5t-13 -31.5q0 -14 11 -24.5t28 -10.5z" />
    <glyph glyph-name="uni030C" unicode="&#x30c;" horiz-adv-x="0" 
d="M-341 904h80l43 -80l70 80h91l-126 -136h-80z" />
    <glyph glyph-name="uni0323" unicode="&#x323;" horiz-adv-x="176" 
d="M61 -182q-23 0 -36.5 14t-13.5 34q0 26 17 43t41 17q23 0 36.5 -14t13.5 -34q0 -26 -17 -43t-41 -17z" />
    <glyph glyph-name="Wgrave" unicode="&#x1e80;" horiz-adv-x="897" 
d="M132 716h93l68 -517l244 517h57l63 -517l250 517h99l-347 -716h-63l-62 517l-244 -517h-63zM439 904h85l68 -137h-57z" />
    <glyph glyph-name="wgrave" unicode="&#x1e81;" horiz-adv-x="727" 
d="M95 511h87l55 -363l178 363h61l50 -363l183 363h91l-260 -511h-69l-50 364l-177 -364h-68zM328 727h85l68 -137h-57z" />
    <glyph glyph-name="Wacute" unicode="&#x1e82;" horiz-adv-x="897" 
d="M132 716h93l68 -517l244 517h57l63 -517l250 517h99l-347 -716h-63l-62 517l-244 -517h-63zM640 904h86l-121 -137h-57z" />
    <glyph glyph-name="wacute" unicode="&#x1e83;" horiz-adv-x="727" 
d="M95 511h87l55 -363l178 363h61l50 -363l183 363h91l-260 -511h-69l-50 364l-177 -364h-68zM520 727h86l-121 -137h-57z" />
    <glyph glyph-name="Wdieresis" unicode="&#x1e84;" horiz-adv-x="897" 
d="M132 716h93l68 -517l244 517h57l63 -517l250 517h99l-347 -716h-63l-62 517l-244 -517h-63zM500 802q-22 0 -35 13t-13 33q0 23 16.5 39.5t39.5 16.5q21 0 34 -13t13 -34q0 -23 -16.5 -39t-38.5 -16zM669 802q-21 0 -34.5 13t-13.5 33q0 23 16.5 39.5t39.5 16.5
q21 0 34.5 -13t13.5 -34q0 -23 -16.5 -39t-39.5 -16z" />
    <glyph glyph-name="wdieresis" unicode="&#x1e85;" horiz-adv-x="727" 
d="M95 511h87l55 -363l178 363h61l50 -363l183 363h91l-260 -511h-69l-50 364l-177 -364h-68zM368 602q-22 0 -35 13t-13 33q0 23 16.5 39.5t39.5 16.5q21 0 34 -13t13 -34q0 -23 -16.5 -39t-38.5 -16zM537 602q-21 0 -34.5 13t-13.5 33q0 23 16.5 39.5t39.5 16.5
q21 0 34.5 -13t13.5 -34q0 -23 -16.5 -39t-39.5 -16z" />
    <glyph glyph-name="uni1E9E" unicode="&#x1e9e;" horiz-adv-x="659" 
d="M170 518q7 42 27 78t49.5 63t67.5 42t82 15h304l-12 -70l-182 -230q41 -11 74 -34q28 -20 51 -54t23 -89q0 -50 -18 -93.5t-49 -76t-72.5 -51t-87.5 -18.5h-86l13 80h77q26 0 49.5 11t41.5 31t29 48t11 63q0 22 -7 41.5t-20 34.5t-30.5 23.5t-39.5 8.5h-64l14 79l171 216
h-196q-49 0 -84 -32t-46 -94l-90 -510h-90z" />
    <glyph glyph-name="endash" unicode="&#x2013;" horiz-adv-x="528" 
d="M98 329h448l-13 -79h-449z" />
    <glyph glyph-name="emdash" unicode="&#x2014;" horiz-adv-x="807" 
d="M98 329h727l-14 -79h-727z" />
    <glyph glyph-name="underscoredbl" unicode="&#x2017;" horiz-adv-x="552" 
d="M-15 -135h582v-64h-582v64zM-15 -262h582v-63h-582v63z" />
    <glyph glyph-name="quoteleft" unicode="&#x2018;" horiz-adv-x="193" 
d="M192 506q-26 0 -40.5 13.5t-14.5 36.5t10 47t26.5 46t38 40t44.5 29l9 -18q-14 -10 -25 -22q-10 -11 -20.5 -25.5t-15.5 -33.5q23 -2 35.5 -15t12.5 -35q0 -30 -17.5 -46.5t-42.5 -16.5z" />
    <glyph glyph-name="quoteright" unicode="&#x2019;" horiz-adv-x="193" 
d="M143 527q14 10 25 22q10 11 20 25.5t15 33.5q-22 2 -34.5 15t-12.5 35q0 30 17.5 46.5t42.5 16.5q26 0 40 -13.5t14 -36.5t-9.5 -47.5t-26 -46t-38 -39.5t-44.5 -29z" />
    <glyph glyph-name="quotesinglbase" unicode="&#x201a;" horiz-adv-x="193" 
d="M35 -86q14 9 25 21q10 11 20 25.5t15 33.5q-22 2 -34.5 15.5t-12.5 34.5q0 30 17.5 47t42.5 17q26 0 40 -13.5t14 -36.5q0 -24 -9.5 -48t-26 -46t-38 -40t-44.5 -29z" />
    <glyph glyph-name="quotedblleft" unicode="&#x201c;" horiz-adv-x="346" 
d="M192 506q-26 0 -40.5 13.5t-14.5 36.5t10 47t26.5 46t38 40t44.5 29l9 -18q-14 -10 -25 -22q-10 -11 -20.5 -25.5t-15.5 -33.5q23 -2 35.5 -15t12.5 -35q0 -30 -17.5 -46.5t-42.5 -16.5zM350 506q-26 0 -40.5 13.5t-14.5 36.5t10 47t26.5 46t38 40t44.5 29l9 -18
q-14 -10 -25 -22q-10 -11 -20.5 -25.5t-15.5 -33.5q23 -2 35.5 -15t12.5 -35q0 -30 -17.5 -46.5t-42.5 -16.5z" />
    <glyph glyph-name="quotedblright" unicode="&#x201d;" horiz-adv-x="346" 
d="M142 527q13 10 24 22q10 11 20 25.5t16 33.5q-22 2 -35 15t-13 35q0 30 18 46.5t43 16.5q26 0 40 -13.5t14 -36.5t-10 -47.5t-26.5 -46t-37.5 -39.5t-44 -29zM300 527q13 10 24 22q10 11 20 25.5t16 33.5q-22 2 -35 15t-13 35q0 30 18 46.5t43 16.5q26 0 40 -13.5
t14 -36.5t-10 -47.5t-26.5 -46t-37.5 -39.5t-44 -29z" />
    <glyph glyph-name="quotedblbase" unicode="&#x201e;" horiz-adv-x="352" 
d="M36 -86q14 9 25 21q10 11 20 25.5t16 33.5q-23 2 -35.5 15.5t-12.5 34.5q0 30 17.5 47t42.5 17q26 0 40.5 -13.5t14.5 -36.5q0 -24 -10 -48t-26.5 -46t-38 -40t-44.5 -29zM194 -86q14 9 25 21q10 11 20 25.5t15 33.5q-22 2 -34.5 15.5t-12.5 34.5q0 30 17.5 47t42.5 17
q26 0 40 -13.5t14 -36.5q0 -24 -9.5 -48t-26 -46t-38 -40t-44.5 -29z" />
    <glyph glyph-name="dagger" unicode="&#x2020;" horiz-adv-x="386" 
d="M248 506h-120l13 68h119l25 142h68l-25 -142h120l-13 -68h-119l-54 -302h-68z" />
    <glyph glyph-name="daggerdbl" unicode="&#x2021;" horiz-adv-x="386" 
d="M219 341h-119l12 68h120l17 102h-119l12 68h119l24 137h68l-24 -137h120l-13 -68h-119l-17 -102h119l-12 -68h-120l-23 -137h-69z" />
    <glyph glyph-name="bullet" unicode="&#x2022;" horiz-adv-x="432" 
d="M260 204q-21 0 -38.5 7.5t-29.5 20.5t-19 30t-7 36q0 23 9 43.5t24.5 35.5t36 23.5t42.5 8.5q42 0 68.5 -27.5t26.5 -65.5q0 -24 -9.5 -44.5t-25 -35.5t-36 -23.5t-42.5 -8.5z" />
    <glyph glyph-name="ellipsis" unicode="&#x2026;" horiz-adv-x="625" 
d="M102 -6q-26 0 -40 13.5t-14 36.5q0 29 17 46.5t43 17.5t40 -13.5t14 -36.5q0 -29 -17 -46.5t-43 -17.5zM318 -6q-26 0 -40 13.5t-14 36.5q0 29 17 46.5t43 17.5t40 -13.5t14 -36.5q0 -29 -17 -46.5t-43 -17.5zM534 -6q-26 0 -40.5 13.5t-14.5 36.5q0 29 17.5 46.5
t43.5 17.5t40 -13.5t14 -36.5q0 -29 -17 -46.5t-43 -17.5z" />
    <glyph glyph-name="perthousand" unicode="&#x2030;" horiz-adv-x="1010" 
d="M653 716h65l-564 -716h-64zM526 0q-29 0 -53 10t-41 27.5t-27 40.5t-10 50q0 33 12.5 61.5t34 50t49 33.5t57.5 12q28 0 52 -10t41.5 -27.5t27 -40.5t9.5 -50q0 -33 -12.5 -61.5t-33.5 -50t-48.5 -33.5t-57.5 -12zM526 51q18 0 35.5 7.5t31.5 21t22.5 32t8.5 39.5
q0 33 -22 58t-54 25q-18 0 -35.5 -8t-31.5 -21.5t-22.5 -31.5t-8.5 -39q0 -33 22 -58t54 -25zM858 0q-29 0 -53 10t-41 27.5t-27 40.5t-10 50q0 33 12.5 61.5t33.5 50t48.5 33.5t57.5 12q28 0 52.5 -10t41.5 -27.5t27 -40.5t10 -50q0 -33 -12.5 -61.5t-33.5 -50t-48.5 -33.5
t-57.5 -12zM858 51q18 0 35 7.5t31 21t22.5 32t8.5 39.5q0 33 -22 58t-54 25q-18 0 -35 -8t-31 -21.5t-22.5 -31.5t-8.5 -39q0 -33 22 -58t54 -25zM260 431q-29 0 -52.5 10t-41 27t-27 40.5t-9.5 50.5q0 33 12.5 61.5t33.5 49.5t48.5 33.5t57.5 12.5q28 0 52 -10t41.5 -27.5
t27 -41t9.5 -50.5q0 -33 -12.5 -61.5t-33.5 -49.5t-48.5 -33t-57.5 -12zM260 482q18 0 35.5 7.5t31.5 21t22.5 32t8.5 39.5q0 33 -22 58t-54 25q-18 0 -35.5 -8t-31.5 -21.5t-22.5 -31.5t-8.5 -39q0 -34 22 -58.5t54 -24.5z" />
    <glyph glyph-name="guilsinglleft" unicode="&#x2039;" horiz-adv-x="290" 
d="M85 256l157 181h91l-163 -188l90 -175h-82z" />
    <glyph glyph-name="guilsinglright" unicode="&#x203a;" horiz-adv-x="290" 
d="M209 262l-90 175h82l93 -181l-157 -182h-90z" />
    <glyph glyph-name="uni203D" unicode="&#x203d;" horiz-adv-x="488" 
d="M248 -6q-26 0 -40 13.5t-14 35.5q0 29 17 47t43 18t40 -13t14 -36q0 -29 -17 -47t-43 -18zM287 625q-56 -33 -73 -125l-3 -12h-89l3 20q18 100 78 156.5t153 56.5q42 0 76.5 -13t60 -35.5t39.5 -54t14 -68.5q0 -51 -14 -84.5t-36 -57t-48.5 -42.5t-52 -41.5t-46 -53.5
t-29.5 -78l-2 -11h-91zM340 381q22 18 42.5 33t36.5 33t25.5 41.5t9.5 56.5q0 31 -15.5 54.5t-43.5 34.5z" />
    <glyph glyph-name="fraction" unicode="&#x2044;" horiz-adv-x="136" 
d="M376 716h74l-564 -716h-73z" />
    <glyph glyph-name="zerosuperior" unicode="&#x2070;" horiz-adv-x="341" 
d="M267 483q-51 0 -85.5 36.5t-34.5 99.5q0 49 14 87t36.5 64.5t51 40t57.5 13.5q51 0 85.5 -37t34.5 -100q0 -49 -14 -87t-37 -64t-51.5 -39.5t-56.5 -13.5zM272 538q15 0 30.5 9t29 27t22 46t8.5 66q0 42 -18 62t-44 20q-15 0 -31 -9t-29.5 -27t-22 -46t-8.5 -66
q0 -42 18 -62t45 -20z" />
    <glyph glyph-name="foursuperior" unicode="&#x2074;" horiz-adv-x="284" 
d="M245 551h-142l8 45l175 222h68l-36 -210h40l-10 -57h-40l-12 -63h-62zM256 608l20 119l-94 -119h74z" />
    <glyph glyph-name="fivesuperior" unicode="&#x2075;" horiz-adv-x="307" 
d="M254 483q-27 0 -46.5 8t-33 21.5t-21 30.5t-10.5 36h61q3 -11 9 -20q5 -8 15.5 -13.5t27.5 -5.5q27 0 44.5 18t17.5 50q0 25 -15 38t-41 13q-21 0 -35 -11.5t-20 -22.5h-51l56 193h182l-10 -57h-130l-17 -62q6 2 14 5q7 2 15 4t18 2q25 0 43.5 -9.5t30.5 -24.5
t17.5 -32.5t5.5 -33.5q0 -26 -10 -49t-27 -40.5t-40 -27.5t-50 -10z" />
    <glyph glyph-name="sixsuperior" unicode="&#x2076;" horiz-adv-x="295" 
d="M251 483q-25 0 -46 8.5t-36 23t-23.5 33.5t-8.5 40q0 24 11.5 47t25 41t25.5 29l12 11l92 102h73l-98 -108q46 -5 72.5 -34.5t26.5 -71.5q0 -25 -10 -47t-27 -38.5t-40 -26t-49 -9.5zM253 540q26 0 44.5 16t18.5 45q0 23 -14.5 37.5t-40.5 14.5t-43 -17.5t-17 -44.5
q0 -20 14.5 -35.5t37.5 -15.5z" />
    <glyph glyph-name="sevensuperior" unicode="&#x2077;" horiz-adv-x="261" 
d="M324 761h-145l11 57h216l-7 -40l-183 -290h-67z" />
    <glyph glyph-name="eightsuperior" unicode="&#x2078;" horiz-adv-x="295" 
d="M245 483q-54 0 -82 28.5t-28 65.5q0 27 9.5 44t21.5 28q13 12 31 19q-8 6 -13 14q-5 7 -8.5 16.5t-3.5 23.5q0 20 9 38.5t24 32.5t34.5 22.5t41.5 8.5q21 0 38 -7t30 -19.5t20 -28.5t7 -34q0 -22 -7 -36.5t-15 -22.5q-10 -10 -22 -15q8 -7 15 -17q5 -8 10 -20.5t5 -29.5
q0 -23 -9 -43t-25 -35t-37 -24t-46 -9zM245 540q23 0 40 15t17 37q0 17 -13 30.5t-35 13.5t-39 -15.5t-17 -36.5q0 -17 13 -30.5t34 -13.5zM273 687q20 0 33.5 13t13.5 32q0 15 -12 25t-32 10t-34 -13t-14 -32q0 -15 12 -25t33 -10z" />
    <glyph glyph-name="ninesuperior" unicode="&#x2079;" horiz-adv-x="295" 
d="M248 596q-46 5 -72.5 35t-26.5 71q0 25 10 47.5t27 39t40 26t49 9.5q25 0 46 -8.5t36 -23t23.5 -34t8.5 -40.5q0 -24 -11.5 -47t-25 -41t-25.5 -28.5l-12 -10.5l-92 -103h-73zM265 653q26 0 43 17.5t17 45.5q0 20 -14.5 35.5t-37.5 15.5q-26 0 -44.5 -16.5t-18.5 -45.5
q0 -23 14.5 -37.5t40.5 -14.5z" />
    <glyph glyph-name="zeroinferior" unicode="&#x2080;" horiz-adv-x="341" 
d="M162 -108q-51 0 -85.5 36.5t-34.5 99.5q0 49 14 87t36.5 64.5t51 40t57.5 13.5q51 0 85.5 -37t34.5 -100q0 -49 -14 -87t-37 -64t-51.5 -39.5t-56.5 -13.5zM167 -53q15 0 30.5 9t29 27t22 46t8.5 66q0 42 -18 62t-44 20q-15 0 -31 -9t-29.5 -27t-22 -46t-8.5 -66
q0 -42 18 -62t45 -20z" />
    <glyph glyph-name="oneinferior" unicode="&#x2081;" horiz-adv-x="233" 
d="M121 147l-49 -22l-20 45l101 57h45l-58 -330h-62z" />
    <glyph glyph-name="twoinferior" unicode="&#x2082;" horiz-adv-x="290" 
d="M23 -57l149 129q17 15 30.5 29t13.5 35q0 17 -11.5 28.5t-37.5 11.5q-21 0 -36 -14.5t-19 -36.5h-60q7 47 41 77.5t78 30.5q50 0 78.5 -28.5t28.5 -66.5q0 -17 -6.5 -31.5t-15 -25.5t-16 -18t-9.5 -8l-118 -101h134l-10 -57h-222z" />
    <glyph glyph-name="threeinferior" unicode="&#x2083;" horiz-adv-x="301" 
d="M147 -108q-51 0 -82.5 28.5t-34.5 79.5h62q0 -19 13 -35t39 -16q27 0 43 14.5t16 33.5q0 20 -12 34t-35 14h-30l9 51h35q21 0 33.5 12t12.5 30q0 17 -10.5 27.5t-33.5 10.5q-22 0 -37 -14t-20 -32h-59q4 21 15.5 40t27.5 33t36 22t42 8q47 0 74.5 -27t27.5 -63
q0 -22 -7.5 -36t-15.5 -22q-10 -10 -22 -15q9 -5 16 -15q6 -8 11 -21t5 -30q0 -24 -9 -44.5t-24.5 -35.5t-37.5 -23.5t-48 -8.5z" />
    <glyph glyph-name="fourinferior" unicode="&#x2084;" horiz-adv-x="284" 
d="M140 -40h-142l8 45l175 222h68l-36 -210h40l-10 -57h-40l-12 -63h-62zM151 17l20 119l-94 -119h74z" />
    <glyph glyph-name="fiveinferior" unicode="&#x2085;" horiz-adv-x="307" 
d="M149 -108q-27 0 -46.5 8t-33 21.5t-21 30.5t-10.5 36h61q3 -11 9 -20q5 -8 15.5 -13.5t27.5 -5.5q27 0 44.5 18t17.5 50q0 25 -15 38t-41 13q-21 0 -35 -11.5t-20 -22.5h-51l56 193h182l-10 -57h-130l-17 -62q6 2 14 5q7 2 15 4t18 2q25 0 43.5 -9.5t30.5 -24.5
t17.5 -32.5t5.5 -33.5q0 -26 -10 -49t-27 -40.5t-40 -27.5t-50 -10z" />
    <glyph glyph-name="sixinferior" unicode="&#x2086;" horiz-adv-x="295" 
d="M146 -108q-25 0 -46 8.5t-36 23t-23.5 33.5t-8.5 40q0 24 11.5 47t25 41t25.5 29l12 11l92 102h73l-98 -108q46 -5 72.5 -34.5t26.5 -71.5q0 -25 -10 -47t-27 -38.5t-40 -26t-49 -9.5zM148 -51q26 0 44.5 16t18.5 45q0 23 -14.5 37.5t-40.5 14.5t-43 -17.5t-17 -44.5
q0 -20 14.5 -35.5t37.5 -15.5z" />
    <glyph glyph-name="seveninferior" unicode="&#x2087;" horiz-adv-x="261" 
d="M219 170h-145l11 57h216l-7 -40l-183 -290h-67z" />
    <glyph glyph-name="eightinferior" unicode="&#x2088;" horiz-adv-x="295" 
d="M142 -108q-54 0 -82 28.5t-28 65.5q0 27 9.5 44t21.5 28q13 12 31 19q-8 6 -13 14q-5 7 -8.5 16.5t-3.5 23.5q0 20 9 38.5t24 32.5t34.5 22.5t41.5 8.5q21 0 38 -7t30 -19.5t20 -28.5t7 -34q0 -22 -7 -36.5t-15 -22.5q-10 -10 -22 -15q8 -7 15 -17q5 -8 10 -20.5t5 -29.5
q0 -23 -9 -43t-25 -35t-37 -24t-46 -9zM142 -51q23 0 40 15t17 37q0 17 -13 30.5t-35 13.5t-39 -15.5t-17 -36.5q0 -17 13 -30.5t34 -13.5zM170 96q20 0 33.5 13t13.5 32q0 15 -12 25t-32 10t-34 -13t-14 -32q0 -15 12 -25t33 -10z" />
    <glyph glyph-name="nineinferior" unicode="&#x2089;" horiz-adv-x="295" 
d="M143 5q-46 5 -72.5 35t-26.5 71q0 25 10 47.5t27 39t40 26t49 9.5q25 0 46 -8.5t36 -23t23.5 -34t8.5 -40.5q0 -24 -11.5 -47t-25 -41t-25.5 -28.5l-12 -10.5l-92 -103h-73zM160 62q26 0 43 17.5t17 45.5q0 20 -14.5 35.5t-37.5 15.5q-26 0 -44.5 -16.5t-18.5 -45.5
q0 -23 14.5 -37.5t40.5 -14.5z" />
    <glyph glyph-name="uni20A9" unicode="&#x20a9;" horiz-adv-x="909" 
d="M210 220h-160l14 80h137l-6 64h-120l15 79h97l-27 273h97l22 -273h152l115 273h69l20 -273h150l119 273h97l-124 -273h99l-15 -79h-120l-30 -64h139l-14 -80h-160l-100 -220h-91l-17 220h-150l-94 -220h-91zM335 220h-37l6 -72zM368 300l27 64h-110l6 -64h77zM561 300
l-4 64h-79l-27 -64h110zM687 220h-36l6 -72zM551 443l-6 74l-32 -74h38zM721 300l29 64h-110l4 -64h77z" />
    <glyph glyph-name="uni20AB" unicode="&#x20ab;" horiz-adv-x="540" 
d="M102 68h352l-11 -68h-352zM276 125q-37 0 -68 13t-54 36.5t-36 55.5t-13 70q0 49 18.5 90.5t48 70.5t67 45.5t75.5 16.5q35 0 59 -10t40 -22q18 -14 30 -31l23 125h-120l12 63h119l13 68h73l-12 -68h74l-12 -63h-73l-80 -454h-51l-14 39q-14 -13 -32 -23
q-16 -8 -37.5 -15t-49.5 -7zM293 193q28 0 53 10t44 29.5t30 47.5t11 64q0 51 -32 80.5t-83 29.5q-28 0 -53 -10t-44 -29.5t-30 -47.5t-11 -64q0 -51 32 -80.5t83 -29.5z" />
    <glyph glyph-name="Euro" unicode="&#x20ac;" horiz-adv-x="750" 
d="M448 -6q-54 0 -100 17.5t-82 49t-60 75.5t-34 97h-108l12 74h90q0 20 1.5 41t6.5 44h-82l13 74h88q18 51 47.5 97t70.5 81.5t93 56t116 20.5q59 0 107 -19.5t83 -52.5t57 -77.5t30 -94.5h-93q-5 34 -19.5 64t-38 52.5t-56.5 35.5t-74 13q-40 0 -74.5 -14t-63 -38t-51 -56
t-37.5 -68h218l-13 -74h-229q-8 -40 -8 -74v-11h221l-12 -74h-201q16 -71 61.5 -115t126.5 -44q37 0 71 13t62.5 35.5t49.5 52.5t32 64h97q-22 -56 -52.5 -101t-70.5 -77t-88.5 -49.5t-106.5 -17.5z" />
    <glyph glyph-name="uni20B4" unicode="&#x20b4;" horiz-adv-x="619" 
d="M329 -6q-45 0 -81 12.5t-61 34t-38.5 49.5t-13.5 59q0 27 7 45.5t15 29.5q10 13 22 20h-85l13 74h517l-13 -74h-322q-18 -8 -32 -19q-12 -10 -21.5 -26t-9.5 -39q0 -16 7.5 -31.5t21.5 -27.5t34 -19.5t44 -7.5q22 0 41.5 7.5t35 19.5t26.5 27.5t15 30.5h92
q-7 -29 -24.5 -58.5t-45 -53t-64 -38.5t-80.5 -15zM134 471h323q17 7 31 19q11 10 21 26.5t10 39.5q0 16 -7.5 31.5t-21.5 27.5t-34 19.5t-44 7.5q-22 0 -41.5 -7.5t-35 -19.5t-26.5 -27.5t-15 -30.5h-92q7 29 24.5 58.5t45 53t64 38t80.5 14.5q45 0 81 -12.5t61 -33.5
t38.5 -49t13.5 -59q0 -28 -7 -46t-15 -29q-10 -13 -22 -21h85l-13 -73h-516z" />
    <glyph glyph-name="uni20B8" unicode="&#x20b8;" horiz-adv-x="568" 
d="M323 477h-211l14 80h511l-13 -80h-210l-85 -477h-90zM154 716h512l-14 -80h-511z" />
    <glyph glyph-name="uni20B9" unicode="&#x20b9;" horiz-adv-x="574" 
d="M95 284l14 80h186q26 0 49 8.5t41.5 22.5t30.5 31t17 34h-307l15 80h297q-3 17 -12.5 34t-25 31t-37 22.5t-48.5 8.5h-157l14 80h488l-14 -80h-147q8 -11 15 -25q6 -12 12.5 -30t10.5 -41h92l-14 -80h-83q-10 -36 -30.5 -68t-49.5 -56t-66 -38t-79 -14h-70l303 -284h-131
z" />
    <glyph glyph-name="uni20BA" unicode="&#x20ba;" horiz-adv-x="574" 
d="M157 275l-91 -31l15 85l91 31l12 74l-90 -31l15 85l91 31l34 197h91l-29 -163l175 60l-14 -85l-175 -60l-14 -74l176 60l-16 -85l-175 -60l-41 -229q75 0 127 12t86 36.5t51 62t22 88.5h90q-7 -71 -32.5 -123t-72.5 -87t-117 -52t-167 -17h-91z" />
    <glyph glyph-name="uni20BD" unicode="&#x20bd;" horiz-adv-x="625" 
d="M135 119h-85l14 80h85l15 85h-86l15 80h85l62 352h238q43 0 78.5 -16.5t60.5 -44t38.5 -63t13.5 -74.5q0 -48 -19.5 -91t-52.5 -74.5t-77 -50t-94 -18.5h-172l-14 -85h216l-14 -80h-216l-22 -119h-90zM431 364q30 0 56.5 11t46.5 31.5t31.5 48.5t11.5 61q0 25 -8 47
t-22.5 38t-35 25.5t-46.5 9.5h-148l-48 -272h162z" />
    <glyph glyph-name="uni20BF" unicode="&#x20bf;" horiz-adv-x="636" 
d="M187 0h-96l126 716h97l19 108h85l-19 -108h62l20 108h85l-21 -119q53 -19 83 -64.5t30 -99.5q0 -48 -17 -80.5t-37 -52.5q-24 -24 -53 -37q21 -14 39 -35q14 -18 26.5 -45.5t12.5 -65.5q0 -40 -15.5 -77.5t-43.5 -68t-66 -51t-84 -26.5l-19 -110h-85l19 108h-62l-20 -108
h-85zM394 80q30 0 56.5 11t46.5 29.5t31.5 44t11.5 55.5q0 22 -8.5 43t-23.5 37t-36 25.5t-47 9.5h-184l-46 -255h199zM446 415q27 0 50 9.5t40 26t27 37.5t10 45q0 20 -7.5 38.5t-21 33t-32 23t-41.5 8.5h-177l-40 -221h192z" />
    <glyph glyph-name="uni2113" unicode="&#x2113;" horiz-adv-x="392" 
d="M295 -6q-60 0 -95 37.5t-35 110.5v97q-12 -4 -26 -8q-12 -3 -29 -6t-36 -3v62q19 1 36 3.5t29 5.5q14 4 26 8v273q0 69 34 108t85 39q25 0 48 -10.5t40 -30t27 -48t10 -64.5q0 -59 -16.5 -107t-42.5 -86.5t-58.5 -66.5t-64.5 -47v-119q0 -43 20 -64t54 -21q13 0 23.5 2.5
t18.5 5.5q9 4 15 9v-63q-7 -5 -17 -9q-8 -3 -19.5 -5.5t-26.5 -2.5zM227 329q22 18 43.5 40.5t38.5 51t27 64.5t10 83t-18 69t-44 22t-41.5 -19t-15.5 -66v-245z" />
    <glyph glyph-name="afii61352" unicode="&#x2116;" horiz-adv-x="1068" 
d="M217 716h79l262 -546l96 546h91l-126 -716h-79l-262 545l-96 -545h-91zM740 74h284l-13 -74h-284zM908 170q-33 0 -59 12t-43.5 32.5t-27 47.5t-9.5 57q0 34 13.5 65t36.5 54t54 36.5t66 13.5q33 0 59 -12t43.5 -32.5t27 -47t9.5 -56.5q0 -35 -13.5 -65.5t-36.5 -54
t-54 -37t-66 -13.5zM914 244q15 0 30.5 7t28 19t20 29t7.5 38q0 35 -19.5 56.5t-47.5 21.5q-15 0 -30.5 -7t-28 -19t-20 -29.5t-7.5 -38.5q0 -34 19.5 -55.5t47.5 -21.5z" />
    <glyph glyph-name="uni2117" unicode="&#x2117;" horiz-adv-x="784" 
d="M454 -6q-70 0 -133 28t-110 77t-75 115.5t-28 143.5q0 76 28 142.5t75 115.5t110 77t133 28t133.5 -28t110.5 -77t75 -115.5t28 -142.5q0 -77 -28 -143.5t-75 -115.5t-110.5 -77t-133.5 -28zM454 57q55 0 106 23t89 63.5t61 95.5t23 119t-23 119t-61 95.5t-89 63.5
t-106 23t-105.5 -23t-88.5 -63.5t-61 -95.5t-23 -119t23 -119t61 -95.5t88.5 -63.5t105.5 -23zM352 545h131q28 0 51 -9t39.5 -25t25.5 -38t9 -47q0 -26 -9 -47.5t-25.5 -37.5t-39.5 -25t-51 -9h-68v-137h-63v375zM483 364q26 0 44 18t18 44t-18 44t-44 18h-68v-124h68z" />
    <glyph glyph-name="trademark" unicode="&#x2122;" horiz-adv-x="602" 
d="M204 665h-85v51h227v-51h-85v-239h-57v239zM392 716h45l91 -131l91 131h46v-290h-57v182l-63 -91h-34l-62 91v-182h-57v290z" />
    <glyph glyph-name="uni2126" unicode="&#x2126;" horiz-adv-x="852" 
d="M165 62h159q-53 28 -94 72q-18 19 -34.5 42.5t-30 53t-21.5 64t-8 75.5q0 75 27 139t74.5 111.5t112 74.5t138.5 27q75 0 139.5 -27t112 -74.5t74.5 -111.5t27 -139q0 -41 -8 -75.5t-21.5 -64t-30 -53t-34.5 -42.5q-41 -44 -94 -72h159v-62h-250v68q60 27 108 69
q20 18 39.5 41.5t34.5 52t24.5 63t9.5 75.5q0 60 -23 112.5t-62 92t-92 62.5t-113 23t-112.5 -23t-91.5 -62.5t-62 -92t-23 -112.5q0 -41 9.5 -75.5t24.5 -63t34.5 -52t39.5 -41.5q48 -42 108 -69v-68h-250v62z" />
    <glyph glyph-name="estimated" unicode="&#x212e;" horiz-adv-x="875" 
d="M506 -11q-77 0 -144.5 29t-117.5 79t-79 117t-29 144q0 76 29 143.5t79 117.5t117.5 79t144.5 29q76 0 143.5 -29t117.5 -79t79 -117.5t29 -143.5v-6h-585v-250q24 -22 57 -40q28 -15 67.5 -27t91.5 -12q77 0 131.5 24.5t89.5 54.5q41 35 68 80h40q-29 -55 -75 -97
q-20 -18 -45.5 -35.5t-57 -31t-69 -21.5t-82.5 -8zM721 386v227q-42 39 -98.5 59.5t-116.5 20.5t-117 -20.5t-99 -59.5v-227h431z" />
    <glyph glyph-name="uni2150" unicode="&#x2150;" horiz-adv-x="636" 
d="M609 716h74l-564 -716h-73zM208 636l-49 -22l-20 45l101 57h45l-58 -330h-62zM578 273h-145l11 57h216l-7 -40l-183 -290h-67z" />
    <glyph glyph-name="uni2151" unicode="&#x2151;" horiz-adv-x="642" 
d="M609 716h74l-564 -716h-73zM208 636l-49 -22l-20 45l101 57h45l-58 -330h-62zM508 108q-46 5 -72.5 35t-26.5 71q0 25 10 47.5t27 39t40 26t49 9.5q25 0 46 -8.5t36 -23t23.5 -34t8.5 -40.5q0 -24 -11.5 -47t-25 -41t-25.5 -28.5l-12 -10.5l-92 -103h-73zM525 165
q26 0 43 17.5t17 45.5q0 20 -14.5 35.5t-37.5 15.5q-26 0 -44.5 -16.5t-18.5 -45.5q0 -23 14.5 -37.5t40.5 -14.5z" />
    <glyph glyph-name="uni2152" unicode="&#x2152;" horiz-adv-x="897" 
d="M609 716h74l-564 -716h-73zM503 250l-49 -22l-20 45l101 57h45l-58 -330h-62zM208 636l-49 -22l-20 45l101 57h45l-58 -330h-62zM737 -5q-51 0 -85.5 36.5t-34.5 99.5q0 49 14 87t36.5 64.5t51 40t57.5 13.5q51 0 85.5 -37t34.5 -100q0 -49 -14 -87t-37 -64t-51.5 -39.5
t-56.5 -13.5zM742 50q15 0 30.5 9t29 27t22 46t8.5 66q0 42 -18 62t-44 20q-15 0 -31 -9t-29.5 -27t-22 -46t-8.5 -66q0 -42 18 -62t45 -20z" />
    <glyph glyph-name="onethird" unicode="&#x2153;" horiz-adv-x="659" 
d="M609 716h74l-564 -716h-73zM208 636l-49 -22l-20 45l101 57h45l-58 -330h-62zM524 -5q-51 0 -82.5 28.5t-34.5 79.5h62q0 -19 13 -35t39 -16q27 0 43 14.5t16 33.5q0 20 -12 34t-35 14h-30l9 51h35q21 0 33.5 12t12.5 30q0 17 -10.5 27.5t-33.5 10.5q-22 0 -37 -14
t-20 -32h-59q4 21 15.5 40t27.5 33t36 22t42 8q47 0 74.5 -27t27.5 -63q0 -22 -7.5 -36t-15.5 -22q-10 -10 -22 -15q9 -5 16 -15q6 -8 11 -21t5 -30q0 -24 -9 -44.5t-24.5 -35.5t-37.5 -23.5t-48 -8.5z" />
    <glyph glyph-name="twothirds" unicode="&#x2154;" horiz-adv-x="699" 
d="M666 716h74l-564 -716h-73zM110 432l149 129q17 15 30.5 29t13.5 35q0 17 -11.5 28.5t-37.5 11.5q-21 0 -36 -14.5t-19 -36.5h-60q7 47 41 77.5t78 30.5q50 0 78.5 -28.5t28.5 -66.5q0 -17 -6.5 -31.5t-15 -25.5t-16 -18t-9.5 -8l-118 -101h134l-10 -57h-222zM564 -5
q-51 0 -82.5 28.5t-34.5 79.5h62q0 -19 13 -35t39 -16q27 0 43 14.5t16 33.5q0 20 -12 34t-35 14h-30l9 51h35q21 0 33.5 12t12.5 30q0 17 -10.5 27.5t-33.5 10.5q-22 0 -37 -14t-20 -32h-59q4 21 15.5 40t27.5 33t36 22t42 8q47 0 74.5 -27t27.5 -63q0 -22 -7.5 -36
t-15.5 -22q-10 -10 -22 -15q9 -5 16 -15q6 -8 11 -21t5 -30q0 -24 -9 -44.5t-24.5 -35.5t-37.5 -23.5t-48 -8.5z" />
    <glyph glyph-name="uni2155" unicode="&#x2155;" horiz-adv-x="665" 
d="M609 716h74l-564 -716h-73zM208 636l-49 -22l-20 45l101 57h45l-58 -330h-62zM526 -5q-27 0 -46.5 8t-33 21.5t-21 30.5t-10.5 36h61q3 -11 9 -20q5 -8 15.5 -13.5t27.5 -5.5q27 0 44.5 18t17.5 50q0 25 -15 38t-41 13q-21 0 -35 -11.5t-20 -22.5h-51l56 193h182l-10 -57
h-130l-17 -62q6 2 14 5q7 2 15 4t18 2q25 0 43.5 -9.5t30.5 -24.5t17.5 -32.5t5.5 -33.5q0 -26 -10 -49t-27 -40.5t-40 -27.5t-50 -10z" />
    <glyph glyph-name="uni2156" unicode="&#x2156;" horiz-adv-x="704" 
d="M666 716h74l-564 -716h-73zM110 432l149 129q17 15 30.5 29t13.5 35q0 17 -11.5 28.5t-37.5 11.5q-21 0 -36 -14.5t-19 -36.5h-60q7 47 41 77.5t78 30.5q50 0 78.5 -28.5t28.5 -66.5q0 -17 -6.5 -31.5t-15 -25.5t-16 -18t-9.5 -8l-118 -101h134l-10 -57h-222zM565 -5
q-27 0 -46.5 8t-33 21.5t-21 30.5t-10.5 36h61q3 -11 9 -20q5 -8 15.5 -13.5t27.5 -5.5q27 0 44.5 18t17.5 50q0 25 -15 38t-41 13q-21 0 -35 -11.5t-20 -22.5h-51l56 193h182l-10 -57h-130l-17 -62q6 2 14 5q7 2 15 4t18 2q25 0 43.5 -9.5t30.5 -24.5t17.5 -32.5t5.5 -33.5
q0 -26 -10 -49t-27 -40.5t-40 -27.5t-50 -10z" />
    <glyph glyph-name="uni2157" unicode="&#x2157;" horiz-adv-x="710" 
d="M677 716h74l-564 -716h-73zM234 381q-51 0 -82.5 28.5t-34.5 79.5h62q0 -19 13 -35t39 -16q27 0 43 14.5t16 33.5q0 20 -12 34t-35 14h-30l9 51h35q21 0 33.5 12t12.5 30q0 17 -10.5 27.5t-33.5 10.5q-22 0 -37 -14t-20 -32h-59q4 21 15.5 40t27.5 33t36 22t42 8
q47 0 74.5 -27t27.5 -63q0 -22 -7.5 -36t-15.5 -22q-10 -10 -22 -15q9 -5 16 -15q6 -8 11 -21t5 -30q0 -24 -9 -44.5t-24.5 -35.5t-37.5 -23.5t-48 -8.5zM571 -5q-27 0 -46.5 8t-33 21.5t-21 30.5t-10.5 36h61q3 -11 9 -20q5 -8 15.5 -13.5t27.5 -5.5q27 0 44.5 18t17.5 50
q0 25 -15 38t-41 13q-21 0 -35 -11.5t-20 -22.5h-51l56 193h182l-10 -57h-130l-17 -62q6 2 14 5q7 2 15 4t18 2q25 0 43.5 -9.5t30.5 -24.5t17.5 -32.5t5.5 -33.5q0 -26 -10 -49t-27 -40.5t-40 -27.5t-50 -10z" />
    <glyph glyph-name="uni2158" unicode="&#x2158;" horiz-adv-x="721" 
d="M677 716h74l-564 -716h-73zM245 449h-142l8 45l175 222h68l-36 -210h40l-10 -57h-40l-12 -63h-62zM256 506l20 119l-94 -119h74zM582 -5q-27 0 -46.5 8t-33 21.5t-21 30.5t-10.5 36h61q3 -11 9 -20q5 -8 15.5 -13.5t27.5 -5.5q27 0 44.5 18t17.5 50q0 25 -15 38t-41 13
q-21 0 -35 -11.5t-20 -22.5h-51l56 193h182l-10 -57h-130l-17 -62q6 2 14 5q7 2 15 4t18 2q25 0 43.5 -9.5t30.5 -24.5t17.5 -32.5t5.5 -33.5q0 -26 -10 -49t-27 -40.5t-40 -27.5t-50 -10z" />
    <glyph glyph-name="uni2159" unicode="&#x2159;" horiz-adv-x="625" 
d="M609 716h74l-564 -716h-73zM208 636l-49 -22l-20 45l101 57h45l-58 -330h-62zM494 -5q-25 0 -46 8.5t-36 23t-23.5 33.5t-8.5 40q0 24 11.5 47t25 41t25.5 29l12 11l92 102h73l-98 -108q46 -5 72.5 -34.5t26.5 -71.5q0 -25 -10 -47t-27 -38.5t-40 -26t-49 -9.5zM496 52
q26 0 44.5 16t18.5 45q0 23 -14.5 37.5t-40.5 14.5t-43 -17.5t-17 -44.5q0 -20 14.5 -35.5t37.5 -15.5z" />
    <glyph glyph-name="uni215A" unicode="&#x215a;" horiz-adv-x="693" 
d="M683 716h74l-564 -716h-73zM236 381q-27 0 -46.5 8t-33 21.5t-21 30.5t-10.5 36h61q3 -11 9 -20q5 -8 15.5 -13.5t27.5 -5.5q27 0 44.5 18t17.5 50q0 25 -15 38t-41 13q-21 0 -35 -11.5t-20 -22.5h-51l56 193h182l-10 -57h-130l-17 -62q6 2 14 5q7 2 15 4t18 2
q25 0 43.5 -9.5t30.5 -24.5t17.5 -32.5t5.5 -33.5q0 -26 -10 -49t-27 -40.5t-40 -27.5t-50 -10zM562 -5q-25 0 -46 8.5t-36 23t-23.5 33.5t-8.5 40q0 24 11.5 47t25 41t25.5 29l12 11l92 102h73l-98 -108q46 -5 72.5 -34.5t26.5 -71.5q0 -25 -10 -47t-27 -38.5t-40 -26
t-49 -9.5zM564 52q26 0 44.5 16t18.5 45q0 23 -14.5 37.5t-40.5 14.5t-43 -17.5t-17 -44.5q0 -20 14.5 -35.5t37.5 -15.5z" />
    <glyph glyph-name="oneeighth" unicode="&#x215b;" horiz-adv-x="630" 
d="M609 716h74l-564 -716h-73zM208 636l-49 -22l-20 45l101 57h45l-58 -330h-62zM495 -5q-54 0 -82 28.5t-28 65.5q0 27 9.5 44t21.5 28q13 12 31 19q-8 6 -13 14q-5 7 -8.5 16.5t-3.5 23.5q0 20 9 38.5t24 32.5t34.5 22.5t41.5 8.5q21 0 38 -7t30 -19.5t20 -28.5t7 -34
q0 -22 -7 -36.5t-15 -22.5q-10 -10 -22 -15q8 -7 15 -17q5 -8 10 -20.5t5 -29.5q0 -23 -9 -43t-25 -35t-37 -24t-46 -9zM495 52q23 0 40 15t17 37q0 17 -13 30.5t-35 13.5t-39 -15.5t-17 -36.5q0 -17 13 -30.5t34 -13.5zM523 199q20 0 33.5 13t13.5 32q0 15 -12 25t-32 10
t-34 -13t-14 -32q0 -15 12 -25t33 -10z" />
    <glyph glyph-name="threeeighths" unicode="&#x215c;" horiz-adv-x="699" 
d="M677 716h74l-564 -716h-73zM234 381q-51 0 -82.5 28.5t-34.5 79.5h62q0 -19 13 -35t39 -16q27 0 43 14.5t16 33.5q0 20 -12 34t-35 14h-30l9 51h35q21 0 33.5 12t12.5 30q0 17 -10.5 27.5t-33.5 10.5q-22 0 -37 -14t-20 -32h-59q4 21 15.5 40t27.5 33t36 22t42 8
q47 0 74.5 -27t27.5 -63q0 -22 -7.5 -36t-15.5 -22q-10 -10 -22 -15q9 -5 16 -15q6 -8 11 -21t5 -30q0 -24 -9 -44.5t-24.5 -35.5t-37.5 -23.5t-48 -8.5zM563 -5q-54 0 -82 28.5t-28 65.5q0 27 9.5 44t21.5 28q13 12 31 19q-8 6 -13 14q-5 7 -8.5 16.5t-3.5 23.5
q0 20 9 38.5t24 32.5t34.5 22.5t41.5 8.5q21 0 38 -7t30 -19.5t20 -28.5t7 -34q0 -22 -7 -36.5t-15 -22.5q-10 -10 -22 -15q8 -7 15 -17q5 -8 10 -20.5t5 -29.5q0 -23 -9 -43t-25 -35t-37 -24t-46 -9zM563 52q23 0 40 15t17 37q0 17 -13 30.5t-35 13.5t-39 -15.5t-17 -36.5
q0 -17 13 -30.5t34 -13.5zM591 199q20 0 33.5 13t13.5 32q0 15 -12 25t-32 10t-34 -13t-14 -32q0 -15 12 -25t33 -10z" />
    <glyph glyph-name="fiveeighths" unicode="&#x215d;" horiz-adv-x="704" 
d="M683 716h74l-564 -716h-73zM236 381q-27 0 -46.5 8t-33 21.5t-21 30.5t-10.5 36h61q3 -11 9 -20q5 -8 15.5 -13.5t27.5 -5.5q27 0 44.5 18t17.5 50q0 25 -15 38t-41 13q-21 0 -35 -11.5t-20 -22.5h-51l56 193h182l-10 -57h-130l-17 -62q6 2 14 5q7 2 15 4t18 2
q25 0 43.5 -9.5t30.5 -24.5t17.5 -32.5t5.5 -33.5q0 -26 -10 -49t-27 -40.5t-40 -27.5t-50 -10zM569 -5q-54 0 -82 28.5t-28 65.5q0 27 9.5 44t21.5 28q13 12 31 19q-8 6 -13 14q-5 7 -8.5 16.5t-3.5 23.5q0 20 9 38.5t24 32.5t34.5 22.5t41.5 8.5q21 0 38 -7t30 -19.5
t20 -28.5t7 -34q0 -22 -7 -36.5t-15 -22.5q-10 -10 -22 -15q8 -7 15 -17q5 -8 10 -20.5t5 -29.5q0 -23 -9 -43t-25 -35t-37 -24t-46 -9zM569 52q23 0 40 15t17 37q0 17 -13 30.5t-35 13.5t-39 -15.5t-17 -36.5q0 -17 13 -30.5t34 -13.5zM597 199q20 0 33.5 13t13.5 32
q0 15 -12 25t-32 10t-34 -13t-14 -32q0 -15 12 -25t33 -10z" />
    <glyph glyph-name="seveneighths" unicode="&#x215e;" horiz-adv-x="636" 
d="M615 716h74l-564 -716h-73zM306 659h-145l11 57h216l-7 -40l-183 -290h-67zM501 -5q-54 0 -82 28.5t-28 65.5q0 27 9.5 44t21.5 28q13 12 31 19q-8 6 -13 14q-5 7 -8.5 16.5t-3.5 23.5q0 20 9 38.5t24 32.5t34.5 22.5t41.5 8.5q21 0 38 -7t30 -19.5t20 -28.5t7 -34
q0 -22 -7 -36.5t-15 -22.5q-10 -10 -22 -15q8 -7 15 -17q5 -8 10 -20.5t5 -29.5q0 -23 -9 -43t-25 -35t-37 -24t-46 -9zM501 52q23 0 40 15t17 37q0 17 -13 30.5t-35 13.5t-39 -15.5t-17 -36.5q0 -17 13 -30.5t34 -13.5zM529 199q20 0 33.5 13t13.5 32q0 15 -12 25t-32 10
t-34 -13t-14 -32q0 -15 12 -25t33 -10z" />
    <glyph glyph-name="uni215F" unicode="&#x215f;" horiz-adv-x="369" 
d="M609 716h74l-564 -716h-73zM208 636l-49 -22l-20 45l101 57h45l-58 -330h-62z" />
    <glyph glyph-name="arrowleft" unicode="&#x2190;" horiz-adv-x="1136" 
d="M193 352l244 244l51 -51l-153 -153h733v-80h-733l153 -153l-51 -51z" />
    <glyph glyph-name="arrowup" unicode="&#x2191;" horiz-adv-x="1136" 
d="M591 659l-154 -153l-51 51l244 244l245 -244l-51 -51l-154 153v-733h-79v733z" />
    <glyph glyph-name="arrowright" unicode="&#x2192;" horiz-adv-x="1136" 
d="M772 159l154 153h-733v80h733l-154 153l52 51l244 -244l-244 -244z" />
    <glyph glyph-name="arrowdown" unicode="&#x2193;" horiz-adv-x="1136" 
d="M386 170l51 52l154 -154v733h79v-733l154 154l51 -52l-245 -244z" />
    <glyph glyph-name="arrowboth" unicode="&#x2194;" horiz-adv-x="1136" 
d="M193 352l244 244l51 -51l-153 -153h591l-154 153l52 51l244 -244l-244 -244l-52 51l154 153h-591l153 -153l-51 -51z" />
    <glyph glyph-name="arrowupdn" unicode="&#x2195;" horiz-adv-x="1136" 
d="M386 170l51 52l154 -154v591l-154 -153l-51 51l244 244l245 -244l-51 -51l-154 153v-591l154 154l51 -52l-245 -244z" />
    <glyph glyph-name="uni2196" unicode="&#x2196;" horiz-adv-x="1136" 
d="M381 545v-221h-74v352h352v-74h-222l517 -517l-57 -57z" />
    <glyph glyph-name="uni2197" unicode="&#x2197;" horiz-adv-x="1136" 
d="M307 85l517 517h-222v74h352v-352h-74v221l-516 -517z" />
    <glyph glyph-name="uni2198" unicode="&#x2198;" horiz-adv-x="1136" 
d="M602 102h222l-517 517l57 57l516 -517v222h74v-353h-352v74z" />
    <glyph glyph-name="uni2199" unicode="&#x2199;" horiz-adv-x="1136" 
d="M307 381h74v-222l516 517l57 -57l-517 -517h222v-74h-352v353z" />
    <glyph glyph-name="partialdiff" unicode="&#x2202;" horiz-adv-x="613" 
d="M358 -6q-49 0 -90.5 17t-72 47t-47.5 70.5t-17 87.5q0 49 17 90.5t48 72t74 47.5t94 17q40 0 71.5 -9t53.5 -20q26 -12 45 -28q-6 75 -23.5 127.5t-44 86.5t-60 49.5t-71.5 15.5q-30 0 -57 -7.5t-47 -15.5q-24 -11 -44 -23v68q19 11 43 20q20 8 48.5 14t63.5 6
q53 0 99 -22t80.5 -69.5t54.5 -122t20 -178.5q0 -89 -18 -153.5t-50 -106t-75.5 -61.5t-94.5 -20zM358 57q38 0 70.5 14.5t56 46t36.5 81t13 119.5q-19 17 -45 31q-22 12 -53.5 22t-71.5 10q-81 0 -126 -44t-45 -121q0 -32 13 -61t35.5 -50.5t52.5 -34.5t64 -13z" />
    <glyph glyph-name="emptyset" unicode="&#x2205;" horiz-adv-x="897" 
d="M511 -6q-64 0 -120.5 20t-104.5 55l-64 -69h-80l101 110q-45 50 -70 112.5t-25 135.5q0 75 28.5 141.5t77.5 115.5t115.5 77.5t141.5 28.5q63 0 120 -20.5t103 -56.5l67 72h79l-102 -113q45 -49 71 -111.5t26 -133.5q0 -75 -28.5 -141.5t-78 -116t-116 -78t-141.5 -28.5z
M692 599q-38 28 -84 44t-97 16q-63 0 -118 -23.5t-95.5 -64.5t-64 -95.5t-23.5 -117.5q0 -58 19.5 -110t55.5 -92zM511 57q63 0 117.5 23.5t95.5 64t64.5 95.5t23.5 118q0 57 -20.5 109t-55.5 91l-408 -442q77 -59 183 -59z" />
    <glyph glyph-name="uni2206" unicode="&#x2206;" horiz-adv-x="693" 
d="M352 716h46l267 -716h-580zM574 62l-199 546l-199 -546h398z" />
    <glyph glyph-name="product" unicode="&#x220f;" horiz-adv-x="784" 
d="M199 716h511v-830h-62v767h-387v-767h-62v830z" />
    <glyph glyph-name="summation" unicode="&#x2211;" horiz-adv-x="585" 
d="M136 -62l239 386l-239 341v51h455v-63h-375l238 -329l-238 -375h375v-63h-455v52z" />
    <glyph glyph-name="minus" unicode="&#x2212;" horiz-adv-x="488" 
d="M85 329h421v-73h-421v73z" />
    <glyph glyph-name="radical" unicode="&#x221a;" horiz-adv-x="676" 
d="M187 170h-119v63h159l102 -261l290 846h68l-323 -932h-69z" />
    <glyph glyph-name="infinity" unicode="&#x221e;" horiz-adv-x="875" 
d="M301 148q-35 0 -66 13.5t-54 36.5t-36.5 54t-13.5 66t13.5 66t36.5 54t54 36.5t66 13.5q32 0 59 -10t51 -26.5t46 -39.5t43 -48q21 25 43 48t46 39.5t51 26.5t59 10q35 0 66 -13.5t54 -36.5t36.5 -54t13.5 -66t-13.5 -66t-36.5 -54t-54 -36.5t-66 -13.5q-32 0 -59 10
t-51 27t-46 39.5t-43 48.5q-21 -26 -43 -48.5t-46 -39.5t-51 -27t-59 -10zM301 210q24 0 45.5 9t41 24t37.5 34.5t35 40.5q-17 21 -35 40.5t-37.5 34.5t-41 24t-45.5 9q-22 0 -41.5 -8.5t-34.5 -23.5t-23.5 -34.5t-8.5 -41.5t8.5 -41.5t23.5 -34.5t34.5 -23.5t41.5 -8.5z
M699 210q22 0 41.5 8.5t34.5 23.5t23.5 34.5t8.5 41.5t-8.5 41.5t-23.5 34.5t-34.5 23.5t-41.5 8.5q-24 0 -45.5 -9t-41 -24t-37.5 -34.5t-35 -40.5q17 -21 35 -40.5t37.5 -34.5t41 -24t45.5 -9z" />
    <glyph glyph-name="integral" unicode="&#x222b;" horiz-adv-x="381" 
d="M108 -51h34q38 0 59 21t21 64v648q0 72 36.5 109.5t105.5 37.5h34v-62h-34q-80 0 -80 -85v-648q0 -72 -36.5 -110t-105.5 -38h-34v63z" />
    <glyph glyph-name="approxequal" unicode="&#x2248;" horiz-adv-x="500" 
d="M426 114q-28 0 -59.5 12.5t-63 27t-60.5 27t-50 12.5q-26 0 -44 -19.5t-18 -54.5h-69q0 73 35.5 110.5t95.5 37.5q30 0 63 -12.5t64.5 -27.5t59 -27.5t46.5 -12.5q30 0 49 20t19 54h68q0 -72 -36 -109.5t-100 -37.5zM426 335q-28 0 -59.5 12.5t-63 27.5t-60.5 27.5
t-50 12.5q-26 0 -44 -20t-18 -54h-69q0 72 35.5 109.5t95.5 37.5q30 0 63 -12.5t64.5 -27t59 -27t46.5 -12.5q30 0 49 19.5t19 54.5h68q0 -73 -36 -110.5t-100 -37.5z" />
    <glyph glyph-name="notequal" unicode="&#x2260;" horiz-adv-x="500" 
d="M209 148h-112v79h145l54 131h-199v79h232l57 137h85l-56 -137h113v-79h-146l-55 -131h201v-79h-234l-55 -137h-86z" />
    <glyph glyph-name="lessequal" unicode="&#x2264;" horiz-adv-x="494" 
d="M97 80h403v-80h-403v80zM102 335v57l398 187v-85l-278 -130l278 -131v-85z" />
    <glyph glyph-name="greaterequal" unicode="&#x2265;" horiz-adv-x="494" 
d="M97 80h403v-80h-403v80zM97 233l278 131l-278 130v85l397 -187v-57l-397 -187v85z" />
    <glyph glyph-name="uni2318" unicode="&#x2318;" horiz-adv-x="818" 
d="M250 -6q-29 0 -55 11t-45.5 30.5t-30.5 45.5t-11 55q0 30 11 55.5t30.5 45t45.5 30.5t55 11h79v159h-79q-29 0 -55 11t-45.5 30.5t-30.5 45.5t-11 55q0 30 11 55.5t30.5 45t45.5 30.5t55 11t55 -11t45.5 -30.5t30.5 -45t11 -55.5v-79h159v79q0 30 11 55.5t30.5 45
t45.5 30.5t55 11t55 -11t45.5 -30.5t30.5 -45t11 -55.5q0 -29 -11 -55t-30.5 -45.5t-45.5 -30.5t-55 -11h-80v-159h80q29 0 55 -11t45.5 -30.5t30.5 -45t11 -55.5q0 -29 -11 -55t-30.5 -45.5t-45.5 -30.5t-55 -11t-55 11t-45.5 30.5t-30.5 45.5t-11 55v80h-159v-80
q0 -29 -11 -55t-30.5 -45.5t-45.5 -30.5t-55 -11zM250 57q33 0 56 23t23 56v80h-79q-33 0 -56.5 -23t-23.5 -57q0 -33 23.5 -56t56.5 -23zM329 500v79q0 34 -23 57t-56 23t-56.5 -23t-23.5 -57q0 -33 23.5 -56t56.5 -23h79zM693 57q33 0 56 23t23 56q0 34 -23 57t-56 23h-80
v-80q0 -33 23.5 -56t56.5 -23zM551 278v159h-159v-159h159zM693 500q33 0 56 23t23 56q0 34 -23 57t-56 23t-56.5 -23t-23.5 -57v-79h80z" />
    <glyph glyph-name="uni2460" unicode="&#x2460;" horiz-adv-x="1136" 
d="M630 -108q-98 0 -184 37t-149.5 101t-100.5 150t-37 184t37 184t100.5 149.5t149.5 100.5t184 37t184 -37t150 -100.5t101 -149.5t37 -184t-37 -184t-101 -150t-150 -101t-184 -37zM630 -28q81 0 152.5 31t124.5 84t84 124.5t31 152.5t-31 152t-84 124t-124.5 84
t-152.5 31t-152 -31t-124 -84t-84 -124t-31 -152t31 -152.5t84 -124.5t124 -84t152 -31zM613 500l-68 -46l-39 52l119 85h68v-455h-80v364z" />
    <glyph glyph-name="uni2461" unicode="&#x2461;" horiz-adv-x="1136" 
d="M630 -108q-98 0 -184 37t-149.5 101t-100.5 150t-37 184t37 184t100.5 149.5t149.5 100.5t184 37t184 -37t150 -100.5t101 -149.5t37 -184t-37 -184t-101 -150t-150 -101t-184 -37zM630 -28q81 0 152.5 31t124.5 84t84 124.5t31 152.5t-31 152t-84 124t-124.5 84
t-152.5 31t-152 -31t-124 -84t-84 -124t-31 -152t31 -152.5t84 -124.5t124 -84t152 -31zM483 187l170 182q20 22 33 41.5t13 49.5q0 26 -19.5 44.5t-49.5 18.5q-29 0 -49 -19.5t-24 -49.5h-80q2 30 14.5 56t32.5 45t47 30t59 11t59.5 -11t47 -29.5t30.5 -43t11 -52.5
q0 -26 -5 -45t-13 -34.5t-18.5 -28t-20.5 -23.5l-113 -119h170v-74h-295v51z" />
    <glyph glyph-name="uni2462" unicode="&#x2462;" horiz-adv-x="1136" 
d="M630 -108q-98 0 -184 37t-149.5 101t-100.5 150t-37 184t37 184t100.5 149.5t149.5 100.5t184 37t184 -37t150 -100.5t101 -149.5t37 -184t-37 -184t-101 -150t-150 -101t-184 -37zM630 -28q81 0 152.5 31t124.5 84t84 124.5t31 152.5t-31 152t-84 124t-124.5 84
t-152.5 31t-152 -31t-124 -84t-84 -124t-31 -152t31 -152.5t84 -124.5t124 -84t152 -31zM630 131q-72 0 -114 38t-50 98h79q5 -21 28 -42t57 -21q43 0 64.5 19.5t21.5 49.5q0 27 -21.5 44.5t-64.5 17.5h-43v68h43q35 0 54.5 19t19.5 44q0 21 -19.5 39t-54.5 18
q-34 0 -52.5 -15.5t-26.5 -41.5h-74q2 25 14.5 48.5t32.5 41.5t47 29t59 11q36 0 65 -10t48.5 -27t30 -39.5t10.5 -48.5q0 -30 -10.5 -48.5t-23.5 -29.5q-15 -12 -34 -18q21 -6 39 -19q15 -11 27.5 -31t12.5 -52q0 -30 -11.5 -56t-32.5 -45t-51.5 -30t-69.5 -11z" />
    <glyph glyph-name="uni2463" unicode="&#x2463;" horiz-adv-x="1136" 
d="M630 -108q-98 0 -184 37t-149.5 101t-100.5 150t-37 184t37 184t100.5 149.5t149.5 100.5t184 37t184 -37t150 -100.5t101 -149.5t37 -184t-37 -184t-101 -150t-150 -101t-184 -37zM630 -28q81 0 152.5 31t124.5 84t84 124.5t31 152.5t-31 152t-84 124t-124.5 84
t-152.5 31t-152 -31t-124 -84t-84 -124t-31 -152t31 -152.5t84 -124.5t124 -84t152 -31zM636 233h-204v62l198 296h86v-284h51v-74h-51v-97h-80v97zM636 307v170l-119 -170h119z" />
    <glyph glyph-name="uni2464" unicode="&#x2464;" horiz-adv-x="1136" 
d="M630 -108q-98 0 -184 37t-149.5 101t-100.5 150t-37 184t37 184t100.5 149.5t149.5 100.5t184 37t184 -37t150 -100.5t101 -149.5t37 -184t-37 -184t-101 -150t-150 -101t-184 -37zM630 -28q81 0 152.5 31t124.5 84t84 124.5t31 152.5t-31 152t-84 124t-124.5 84
t-152.5 31t-152 -31t-124 -84t-84 -124t-31 -152t31 -152.5t84 -124.5t124 -84t152 -31zM630 131q-34 0 -62 11t-49.5 29.5t-35 43t-17.5 52.5h79q9 -26 30 -44.5t55 -18.5q35 0 60.5 23t25.5 57t-25.5 57t-60.5 23q-20 0 -33.5 -5.5t-22.5 -12.5q-11 -8 -17 -17h-74l34 262
h244v-74h-182l-11 -97q9 4 20 8q10 3 23.5 6t30.5 3q34 0 62 -12.5t48.5 -34t31.5 -49t11 -57.5q0 -32 -12 -60t-34 -48.5t-52.5 -32.5t-66.5 -12z" />
    <glyph glyph-name="uni2465" unicode="&#x2465;" horiz-adv-x="1136" 
d="M630 -108q-98 0 -184 37t-149.5 101t-100.5 150t-37 184t37 184t100.5 149.5t149.5 100.5t184 37t184 -37t150 -100.5t101 -149.5t37 -184t-37 -184t-101 -150t-150 -101t-184 -37zM630 -28q81 0 152.5 31t124.5 84t84 124.5t31 152.5t-31 152t-84 124t-124.5 84
t-152.5 31t-152 -31t-124 -84t-84 -124t-31 -152t31 -152.5t84 -124.5t124 -84t152 -31zM630 131q-34 0 -63.5 12.5t-52 34.5t-35.5 51t-13 61q0 23 5 43t12 34q7 17 17 31l130 193h86l-97 -142h11q34 0 64 -13t52.5 -34.5t35.5 -50.5t13 -61t-13 -61t-35.5 -51t-52.5 -34.5
t-64 -12.5zM630 204q39 0 62.5 25.5t23.5 60.5q0 34 -23.5 59.5t-62.5 25.5q-38 0 -61.5 -25.5t-23.5 -59.5q0 -35 23.5 -60.5t61.5 -25.5z" />
    <glyph glyph-name="uni2466" unicode="&#x2466;" horiz-adv-x="1136" 
d="M630 -108q-98 0 -184 37t-149.5 101t-100.5 150t-37 184t37 184t100.5 149.5t149.5 100.5t184 37t184 -37t150 -100.5t101 -149.5t37 -184t-37 -184t-101 -150t-150 -101t-184 -37zM630 -28q81 0 152.5 31t124.5 84t84 124.5t31 152.5t-31 152t-84 124t-124.5 84
t-152.5 31t-152 -31t-124 -84t-84 -124t-31 -152t31 -152.5t84 -124.5t124 -84t152 -31zM699 517h-205v74h290v-60l-188 -395h-79z" />
    <glyph glyph-name="uni2467" unicode="&#x2467;" horiz-adv-x="1136" 
d="M630 -108q-98 0 -184 37t-149.5 101t-100.5 150t-37 184t37 184t100.5 149.5t149.5 100.5t184 37t184 -37t150 -100.5t101 -149.5t37 -184t-37 -184t-101 -150t-150 -101t-184 -37zM630 -28q81 0 152.5 31t124.5 84t84 124.5t31 152.5t-31 152t-84 124t-124.5 84
t-152.5 31t-152 -31t-124 -84t-84 -124t-31 -152t31 -152.5t84 -124.5t124 -84t152 -31zM630 131q-38 0 -68.5 11t-51.5 29.5t-32.5 43t-11.5 52.5q0 31 12 51.5t27 33.5q18 15 40 23q-18 8 -31 21q-12 11 -21.5 29t-9.5 46q0 26 10.5 48.5t29.5 39.5t46 27t61 10t61.5 -10
t46.5 -27t29.5 -39.5t10.5 -48.5q0 -28 -10 -46t-21 -29q-14 -13 -31 -21q21 -8 39 -23q15 -13 27.5 -33.5t12.5 -51.5q0 -28 -11.5 -52.5t-32.5 -43t-51.5 -29.5t-69.5 -11zM630 199q39 0 62.5 21.5t23.5 48.5q0 29 -23.5 50.5t-62.5 21.5q-38 0 -61.5 -21.5t-23.5 -50.5
q0 -27 23.5 -48.5t61.5 -21.5zM630 409q30 0 49.5 18t19.5 41q0 24 -19.5 42t-49.5 18q-29 0 -48.5 -18t-19.5 -42q0 -23 19.5 -41t48.5 -18z" />
    <glyph glyph-name="uni2468" unicode="&#x2468;" horiz-adv-x="1136" 
d="M630 -108q-98 0 -184 37t-149.5 101t-100.5 150t-37 184t37 184t100.5 149.5t149.5 100.5t184 37t184 -37t150 -100.5t101 -149.5t37 -184t-37 -184t-101 -150t-150 -101t-184 -37zM630 -28q81 0 152.5 31t124.5 84t84 124.5t31 152.5t-31 152t-84 124t-124.5 84
t-152.5 31t-152 -31t-124 -84t-84 -124t-31 -152t31 -152.5t84 -124.5t124 -84t152 -31zM642 278h-12q-34 0 -63.5 13t-52 34.5t-35.5 50.5t-13 61t13 61t35.5 50.5t52 34.5t63.5 13t64 -13t52.5 -34.5t35.5 -50.5t13 -61q0 -23 -5.5 -43t-11.5 -34q-8 -17 -17 -31
l-131 -193h-85zM630 352q39 0 62.5 25.5t23.5 59.5q0 35 -23.5 60.5t-62.5 25.5q-38 0 -61.5 -25.5t-23.5 -60.5q0 -34 23.5 -59.5t61.5 -25.5z" />
    <glyph glyph-name="uni2469" unicode="&#x2469;" horiz-adv-x="1136" 
d="M630 -108q-98 0 -184 37t-149.5 101t-100.5 150t-37 184t37 184t100.5 149.5t149.5 100.5t184 37t184 -37t150 -100.5t101 -149.5t37 -184t-37 -184t-101 -150t-150 -101t-184 -37zM630 -28q81 0 152.5 31t124.5 84t84 124.5t31 152.5t-31 152t-84 124t-124.5 84
t-152.5 31t-152 -31t-124 -84t-84 -124t-31 -152t31 -152.5t84 -124.5t124 -84t152 -31zM432 500l-68 -46l-40 52l119 85h68v-455h-79v364zM755 131q-38 0 -72 15.5t-59.5 45.5t-40.5 73t-15 99q0 55 15 98t40.5 73t59.5 45.5t72 15.5q39 0 73 -15.5t59.5 -45.5t40.5 -73
t15 -98q0 -56 -15 -99t-40.5 -73t-59.5 -45.5t-73 -15.5zM755 204q21 0 40.5 10t34.5 29.5t24 49.5t9 71q0 40 -9 70t-24 49.5t-34.5 29.5t-40.5 10t-40.5 -10t-34 -29.5t-23.5 -49.5t-9 -70q0 -41 9 -71t23.5 -49.5t34 -29.5t40.5 -10z" />
    <glyph glyph-name="uni24EA" unicode="&#x24ea;" horiz-adv-x="1136" 
d="M630 -108q-98 0 -184 37t-149.5 101t-100.5 150t-37 184t37 184t100.5 149.5t149.5 100.5t184 37t184 -37t150 -100.5t101 -149.5t37 -184t-37 -184t-101 -150t-150 -101t-184 -37zM630 -28q81 0 152.5 31t124.5 84t84 124.5t31 152.5t-31 152t-84 124t-124.5 84
t-152.5 31t-152 -31t-124 -84t-84 -124t-31 -152t31 -152.5t84 -124.5t124 -84t152 -31zM630 131q-38 0 -72 15.5t-59.5 45.5t-40.5 73t-15 99q0 55 15 98t40.5 73t59.5 45.5t72 15.5q39 0 73 -15.5t59.5 -45.5t40.5 -73t15 -98q0 -56 -15 -99t-40.5 -73t-59.5 -45.5
t-73 -15.5zM630 204q21 0 40.5 10t34.5 29.5t24 49.5t9 71q0 40 -9 70t-24 49.5t-34.5 29.5t-40.5 10t-40.5 -10t-34 -29.5t-23.5 -49.5t-9 -70q0 -41 9 -71t23.5 -49.5t34 -29.5t40.5 -10z" />
    <glyph glyph-name="uni24FF" unicode="&#x24ff;" horiz-adv-x="1136" 
d="M630 -108q-98 0 -184 37t-149.5 101t-100.5 150t-37 184t37 184t100.5 149.5t149.5 100.5t184 37t184 -37t150 -100.5t101 -149.5t37 -184t-37 -184t-101 -150t-150 -101t-184 -37zM630 131q39 0 73 15.5t59.5 45.5t40.5 73t15 99q0 55 -15 98t-40.5 73t-59.5 45.5
t-73 15.5q-38 0 -72 -15.5t-59.5 -45.5t-40.5 -73t-15 -98q0 -56 15 -99t40.5 -73t59.5 -45.5t72 -15.5zM630 204q-21 0 -40.5 10t-34 29.5t-23.5 49.5t-9 71q0 40 9 70t23.5 49.5t34 29.5t40.5 10t40.5 -10t34.5 -29.5t24 -49.5t9 -70q0 -41 -9 -71t-24 -49.5t-34.5 -29.5
t-40.5 -10z" />
    <glyph glyph-name="lozenge" unicode="&#x25ca;" horiz-adv-x="648" 
d="M136 358l228 358h68l227 -358l-227 -358h-68zM585 358l-187 290l-188 -290l188 -290z" />
    <glyph glyph-name="uni2776" unicode="&#x2776;" horiz-adv-x="1136" 
d="M630 -108q-98 0 -184 37t-149.5 101t-100.5 150t-37 184t37 184t100.5 149.5t149.5 100.5t184 37t184 -37t150 -100.5t101 -149.5t37 -184t-37 -184t-101 -150t-150 -101t-184 -37zM693 136v455h-68l-119 -85l39 -52l68 46v-364h80z" />
    <glyph glyph-name="uni2777" unicode="&#x2777;" horiz-adv-x="1136" 
d="M630 -108q-98 0 -184 37t-149.5 101t-100.5 150t-37 184t37 184t100.5 149.5t149.5 100.5t184 37t184 -37t150 -100.5t101 -149.5t37 -184t-37 -184t-101 -150t-150 -101t-184 -37zM778 136v74h-170l113 119q10 11 20.5 23.5t18.5 28t13 34.5t5 45q0 28 -11 52.5
t-30.5 43t-47 29.5t-59.5 11t-59 -11t-47 -30t-32.5 -45t-14.5 -56h80q4 30 24 49.5t49 19.5q30 0 49.5 -18.5t19.5 -44.5q0 -30 -13 -49.5t-33 -41.5l-170 -182v-51h295z" />
    <glyph glyph-name="uni2778" unicode="&#x2778;" horiz-adv-x="1136" 
d="M630 -108q-98 0 -184 37t-149.5 101t-100.5 150t-37 184t37 184t100.5 149.5t149.5 100.5t184 37t184 -37t150 -100.5t101 -149.5t37 -184t-37 -184t-101 -150t-150 -101t-184 -37zM630 131q39 0 69.5 11t51.5 30t32.5 45t11.5 56q0 32 -12.5 52t-27.5 31q-18 13 -39 19
q19 6 34 18q13 11 23.5 29.5t10.5 48.5q0 26 -10.5 48.5t-30 39.5t-48.5 27t-65 10q-32 0 -59 -11t-47 -29t-32.5 -41.5t-14.5 -48.5h74q8 26 26.5 41.5t52.5 15.5q35 0 54.5 -18t19.5 -39q0 -25 -19.5 -44t-54.5 -19h-43v-68h43q43 0 64.5 -17.5t21.5 -44.5
q0 -30 -21.5 -49.5t-64.5 -19.5q-34 0 -57 21t-28 42h-79q8 -60 50 -98t114 -38z" />
    <glyph glyph-name="uni2779" unicode="&#x2779;" horiz-adv-x="1136" 
d="M630 -108q-98 0 -184 37t-149.5 101t-100.5 150t-37 184t37 184t100.5 149.5t149.5 100.5t184 37t184 -37t150 -100.5t101 -149.5t37 -184t-37 -184t-101 -150t-150 -101t-184 -37zM716 136v97h51v74h-51v284h-86l-198 -296v-62h204v-97h80zM636 477v-170h-119z" />
    <glyph glyph-name="uni277A" unicode="&#x277a;" horiz-adv-x="1136" 
d="M630 -108q-98 0 -184 37t-149.5 101t-100.5 150t-37 184t37 184t100.5 149.5t149.5 100.5t184 37t184 -37t150 -100.5t101 -149.5t37 -184t-37 -184t-101 -150t-150 -101t-184 -37zM630 131q36 0 66.5 12t52.5 32.5t34 48.5t12 60q0 30 -11 57.5t-31.5 49t-48.5 34
t-62 12.5q-17 0 -30.5 -3t-23.5 -6q-11 -4 -20 -8l11 97h182v74h-244l-34 -262h74q6 9 17 17q9 7 22.5 12.5t33.5 5.5q35 0 60.5 -23t25.5 -57t-25.5 -57t-60.5 -23q-34 0 -55 18.5t-30 44.5h-79q4 -28 17.5 -52.5t35 -43t49.5 -29.5t62 -11z" />
    <glyph glyph-name="uni277B" unicode="&#x277b;" horiz-adv-x="1136" 
d="M630 -108q-98 0 -184 37t-149.5 101t-100.5 150t-37 184t37 184t100.5 149.5t149.5 100.5t184 37t184 -37t150 -100.5t101 -149.5t37 -184t-37 -184t-101 -150t-150 -101t-184 -37zM630 131q34 0 64 12.5t52.5 34.5t35.5 51t13 61t-13 61t-35.5 50.5t-52.5 34.5t-64 13
h-11l97 142h-86l-130 -193q-10 -14 -17 -31q-7 -14 -12 -34t-5 -43q0 -32 13 -61t35.5 -51t52 -34.5t63.5 -12.5zM630 204q-38 0 -61.5 25.5t-23.5 60.5q0 34 23.5 59.5t61.5 25.5q39 0 62.5 -25.5t23.5 -59.5q0 -35 -23.5 -60.5t-62.5 -25.5z" />
    <glyph glyph-name="uni277C" unicode="&#x277c;" horiz-adv-x="1136" 
d="M630 -108q-98 0 -184 37t-149.5 101t-100.5 150t-37 184t37 184t100.5 149.5t149.5 100.5t184 37t184 -37t150 -100.5t101 -149.5t37 -184t-37 -184t-101 -150t-150 -101t-184 -37zM596 136l188 395v60h-290v-74h205l-182 -381h79z" />
    <glyph glyph-name="uni277D" unicode="&#x277d;" horiz-adv-x="1136" 
d="M630 -108q-98 0 -184 37t-149.5 101t-100.5 150t-37 184t37 184t100.5 149.5t149.5 100.5t184 37t184 -37t150 -100.5t101 -149.5t37 -184t-37 -184t-101 -150t-150 -101t-184 -37zM630 131q39 0 69.5 11t51.5 29.5t32.5 43t11.5 52.5q0 31 -12.5 51.5t-27.5 33.5
q-18 15 -39 23q17 8 31 21q11 11 21 29t10 46q0 26 -10.5 48.5t-29.5 39.5t-46.5 27t-61.5 10t-61 -10t-46 -27t-29.5 -39.5t-10.5 -48.5q0 -28 9.5 -46t21.5 -29q13 -13 31 -21q-22 -8 -40 -23q-15 -13 -27 -33.5t-12 -51.5q0 -28 11.5 -52.5t32.5 -43t51.5 -29.5t68.5 -11
zM630 199q-38 0 -61.5 21.5t-23.5 48.5q0 29 23.5 50.5t61.5 21.5q39 0 62.5 -21.5t23.5 -50.5q0 -27 -23.5 -48.5t-62.5 -21.5zM630 409q-29 0 -48.5 18t-19.5 41q0 24 19.5 42t48.5 18q30 0 49.5 -18t19.5 -42q0 -23 -19.5 -41t-49.5 -18z" />
    <glyph glyph-name="uni277E" unicode="&#x277e;" horiz-adv-x="1136" 
d="M630 -108q-98 0 -184 37t-149.5 101t-100.5 150t-37 184t37 184t100.5 149.5t149.5 100.5t184 37t184 -37t150 -100.5t101 -149.5t37 -184t-37 -184t-101 -150t-150 -101t-184 -37zM630 136l131 193q9 14 17 31q6 14 11.5 34t5.5 43q0 32 -13 61t-35.5 50.5t-52.5 34.5
t-64 13t-63.5 -13t-52 -34.5t-35.5 -50.5t-13 -61t13 -61t35.5 -50.5t52 -34.5t63.5 -13h12l-97 -142h85zM630 352q-38 0 -61.5 25.5t-23.5 59.5q0 35 23.5 60.5t61.5 25.5q39 0 62.5 -25.5t23.5 -60.5q0 -34 -23.5 -59.5t-62.5 -25.5z" />
    <glyph glyph-name="uni277F" unicode="&#x277f;" horiz-adv-x="1136" 
d="M630 -108q-98 0 -184 37t-149.5 101t-100.5 150t-37 184t37 184t100.5 149.5t149.5 100.5t184 37t184 -37t150 -100.5t101 -149.5t37 -184t-37 -184t-101 -150t-150 -101t-184 -37zM511 136v455h-68l-119 -85l40 -52l68 46v-364h79zM755 131q39 0 73 15.5t59.5 45.5
t40.5 73t15 99q0 55 -15 98t-40.5 73t-59.5 45.5t-73 15.5q-38 0 -72 -15.5t-59.5 -45.5t-40.5 -73t-15 -98q0 -56 15 -99t40.5 -73t59.5 -45.5t72 -15.5zM755 204q-21 0 -40.5 10t-34 29.5t-23.5 49.5t-9 71q0 40 9 70t23.5 49.5t34 29.5t40.5 10t40.5 -10t34.5 -29.5
t24 -49.5t9 -70q0 -41 -9 -71t-24 -49.5t-34.5 -29.5t-40.5 -10z" />
    <glyph glyph-name="uni2E18" unicode="&#x2e18;" horiz-adv-x="477" 
d="M222 -187q-42 0 -77 12t-60.5 33.5t-39.5 52t-14 67.5q0 48 13.5 79.5t35 53.5t47.5 40t51 40t46 53t32 80l2 11h91l-59 -426q54 35 74 125l2 11h90l-4 -19q-18 -100 -78 -156.5t-152 -56.5zM235 135q-21 -17 -41.5 -31.5t-36 -31t-25 -37.5t-9.5 -52q0 -30 16.5 -51
t42.5 -32zM317 403q-26 0 -39.5 13.5t-13.5 35.5q0 29 17 47t43 18t39.5 -13t13.5 -36q0 -29 -17 -47t-43 -18z" />
    <glyph glyph-name="commaaccent" unicode="&#xf6c3;" horiz-adv-x="182" 
d="M1 -262q13 10 24 21q10 10 19.5 23.5t14.5 30.5q-21 2 -35 18.5t-14 36.5q0 24 16.5 41t40.5 17q26 0 42 -17.5t16 -40.5q0 -21 -9 -43.5t-24 -42.5t-35 -38t-43 -30z" />
    <glyph glyph-name="zero.osf" unicode="&#xf730;" horiz-adv-x="613" 
d="M329 -6q-51 0 -94.5 18.5t-74.5 50.5t-48.5 75t-17.5 93q0 61 23 113t62 90.5t90 60.5t106 22q51 0 94.5 -18t74.5 -50t48.5 -75t17.5 -93q0 -61 -23 -113.5t-62 -91t-90 -60.5t-106 -22zM335 74q34 0 67 15t59 42t41.5 65t15.5 85q0 34 -11 63t-31 49.5t-47 32t-60 11.5
q-35 0 -67.5 -15t-58.5 -42t-41.5 -65t-15.5 -84q0 -35 11 -63.5t31 -49.5t47.5 -32.5t59.5 -11.5z" />
    <glyph glyph-name="one.osf" unicode="&#xf731;" horiz-adv-x="329" 
d="M227 386l-115 -68l-27 68l198 125h57l-90 -511h-91z" />
    <glyph glyph-name="two.osf" unicode="&#xf732;" horiz-adv-x="523" 
d="M67 57l260 162q22 12 40.5 25t32 29t21.5 35t8 44q0 37 -26.5 61t-74.5 24q-50 0 -80.5 -29.5t-46.5 -72.5h-94q10 37 30.5 70t49.5 58t65 39.5t77 14.5q43 0 78 -13.5t60 -36t39 -53t14 -63.5q0 -31 -9 -55t-24 -42.5t-34 -33t-38 -27.5l-167 -113h231l-13 -80h-409z
" />
    <glyph glyph-name="three.osf" unicode="&#xf733;" horiz-adv-x="534" 
d="M248 -187q-53 0 -93.5 16.5t-69.5 43.5t-46 62t-21 71h93q1 -22 12.5 -42.5t30.5 -36.5t44 -25.5t55 -9.5q33 0 61.5 11.5t49.5 32t33 50t12 65.5q0 55 -34.5 90t-101.5 35q-11 0 -20.5 -2t-17.5 -4q-9 -3 -17 -5l-37 45l236 222h-278l14 79h404l-11 -57l-217 -201
q39 -5 70.5 -22t54 -43t34.5 -59.5t12 -71.5q0 -52 -19 -96.5t-53 -77.5t-80 -51.5t-100 -18.5z" />
    <glyph glyph-name="four.osf" unicode="&#xf734;" horiz-adv-x="540" 
d="M346 0h-323l12 68l390 443h102l-76 -431h80l-14 -80h-80l-31 -182h-91zM360 80l57 318l-278 -318h221z" />
    <glyph glyph-name="five.osf" unicode="&#xf735;" 
d="M267 -187q-49 0 -89.5 15t-69 40.5t-44.5 59.5t-16 72h89q5 -50 42.5 -79t93.5 -29q32 0 61.5 12t52.5 34.5t37 55t14 74.5q0 63 -37.5 97t-98.5 34q-32 0 -58 -13.5t-44 -29.5q-21 -18 -38 -42h-79l115 397h363l-15 -85h-284l-52 -176q14 8 32 14q15 5 36 9.5t47 4.5
q47 0 84.5 -17.5t64 -47t40.5 -67t14 -76.5q0 -57 -21 -104.5t-57 -81t-83.5 -52.5t-99.5 -19z" />
    <glyph glyph-name="six.osf" unicode="&#xf736;" 
d="M301 -6q-56 0 -98.5 20.5t-71 52.5t-42.5 71.5t-14 77.5q0 41 14.5 78.5t32.5 66t33 45.5t17 19l257 291h105l-210 -235q4 0 8 1q4 0 8.5 0.5t10.5 0.5q48 0 87.5 -18t68 -48.5t44 -70.5t15.5 -84q0 -57 -22 -106t-58.5 -85t-84.5 -56.5t-100 -20.5zM306 74
q31 0 61.5 13.5t54.5 37.5t38.5 57.5t14.5 73.5q0 30 -10.5 55.5t-29 45t-44.5 30.5t-56 11q-32 0 -62 -13.5t-54 -37.5t-38.5 -57.5t-14.5 -73.5q0 -30 10.5 -56t29 -45t44.5 -30t56 -11z" />
    <glyph glyph-name="seven.osf" unicode="&#xf737;" horiz-adv-x="500" 
d="M434 426h-325l15 80h432l-12 -63l-396 -625h-100z" />
    <glyph glyph-name="eight.osf" unicode="&#xf738;" 
d="M303 -6q-42 0 -83 12.5t-73.5 37.5t-52 62t-19.5 86q0 59 24.5 97.5t54.5 61.5q35 26 80 41q-21 11 -37 29q-14 15 -25.5 39t-11.5 59q0 39 17.5 75.5t47.5 64.5t71 45t88 17q44 0 80.5 -15t62.5 -40t40.5 -57.5t14.5 -66.5q0 -48 -19 -79.5t-42 -49.5q-27 -21 -61 -32
q26 -14 46 -37q17 -20 32 -50.5t15 -73.5q0 -45 -19 -86t-52.5 -72t-79 -49.5t-99.5 -18.5zM309 73q34 0 62 11t48.5 30.5t31.5 46t11 57.5q0 54 -37 88.5t-105 34.5q-34 0 -62 -11t-48.5 -30.5t-31.5 -46.5t-11 -58q0 -53 37 -87.5t105 -34.5zM364 420q27 0 50 9.5t40 26
t27 38t10 44.5q0 43 -30.5 73.5t-81.5 30.5q-27 0 -50 -9.5t-40 -26t-27 -38t-10 -44.5q0 -43 30.5 -73.5t81.5 -30.5z" />
    <glyph glyph-name="nine.osf" unicode="&#xf739;" 
d="M323 28q-4 -1 -8 -1q-4 -1 -9.5 -1h-10.5q-48 0 -87 18t-67.5 48.5t-44 70.5t-15.5 84q0 57 22 106t58.5 85t84 56.5t99.5 20.5q56 0 98.5 -20.5t71 -52.5t42.5 -71.5t14 -77.5q0 -41 -14.5 -78.5t-32.5 -66t-33 -46t-16 -18.5l-234 -266h-105zM311 111q31 0 61.5 13.5
t54.5 37.5t39 57.5t15 73.5q0 30 -10.5 56t-29.5 45t-44.5 30t-55.5 11q-32 0 -62 -13.5t-54 -37.5t-38.5 -57.5t-14.5 -73.5q0 -30 10.5 -55.5t29 -45t44 -30.5t55.5 -11z" />
    <glyph glyph-name="s_t" unicode="&#xfb06;" horiz-adv-x="812" 
d="M257 -6q-43 0 -76.5 13t-56.5 35t-35 50.5t-12 60.5h84q0 -35 26.5 -57t73.5 -22q42 0 67 22.5t25 54.5q0 23 -17 36.5t-42.5 23.5t-55 19.5t-55 24t-42.5 37.5t-17 61q0 33 13 62.5t36 52t56 36t73 13.5q26 0 49 -6v17q0 52 17.5 95.5t48.5 75.5t74 50t93 18
q31 0 61 -10t53.5 -29.5t38 -49t14.5 -69.5q0 -19 -4 -35l-10 -63h114l-14 -74h-115l-44 -267q-7 -40 11.5 -68.5t63.5 -28.5q13 0 17 1t6 2l-14 -74q-4 -2 -9 -4t-12 -3t-16 -1q-30 0 -55 11t-42.5 31t-27 46.5t-9.5 58.5q0 19 3 37l44 259h-90l13 74h40q30 0 52.5 18.5
t22.5 62.5q0 23 -8.5 42t-22.5 32t-32 20t-37 7q-63 0 -101 -43.5t-39 -115.5q-1 -29 4 -48.5t11.5 -37t12 -36.5t6.5 -48h-86q0 30 -20.5 51.5t-65.5 21.5q-40 0 -64 -22.5t-24 -49.5q0 -23 17 -36.5t42 -23.5t55 -19.5t55 -24.5t42 -38.5t17 -60.5q0 -36 -13 -67
t-37 -53.5t-57.5 -35t-73.5 -12.5z" />
    <glyph glyph-name="c_t" horiz-adv-x="892" 
d="M294 -6q-46 0 -85 17t-67.5 47.5t-44.5 72.5t-16 91q0 65 22.5 119.5t59.5 93.5t85 60.5t98 21.5q20 0 38 -3t35 -8v22q0 52 19.5 95.5t52.5 75.5t77.5 50t94.5 18q31 0 61 -10t53.5 -29.5t38 -49t14.5 -69.5q0 -17 -3 -35l-10 -63h113l-13 -79h-115l-44 -262
q-7 -40 11 -68.5t64 -28.5h9t7 1q4 1 6 2l-13 -74l-10 -4t-12 -3t-16 -1q-30 0 -54.5 11t-42.5 31t-27.5 46.5t-9.5 58.5q0 9 1 18.5t3 18.5l44 254h-91l14 79h39q30 0 52.5 18.5t22.5 62.5q0 23 -8.5 42t-22 32t-32 20t-37.5 7q-31 0 -58 -11.5t-47.5 -32t-32.5 -50
t-13 -65.5q0 -41 6.5 -64.5t15.5 -43t18.5 -40.5t14.5 -57h-89q-3 15 -12.5 34t-25.5 35.5t-38.5 27.5t-51.5 11q-31 0 -62.5 -15t-56.5 -42t-41 -65.5t-16 -85.5q0 -35 10.5 -63.5t29 -48.5t43 -31.5t52.5 -11.5q48 0 89.5 30.5t62.5 77.5h87q-13 -35 -35 -68.5t-53.5 -60
t-71 -43t-86.5 -16.5z" />
    <glyph glyph-name="f_b" horiz-adv-x="903" 
d="M646 -6q-40 0 -69 11t-48 25q-22 16 -37 36l-40 -66h-63l107 625q-12 6 -26 11q-12 5 -29 8.5t-38 3.5q-32 0 -54.5 -8.5t-38.5 -23.5t-25.5 -36t-14.5 -46l-4 -23h113l-13 -79h-114l-76 -432h-85l76 432h-62l13 79h63l4 23q8 41 28 76t50 61t69 41t84 15q20 0 37.5 -3
t30.5 -6q15 -4 27 -8h85l-43 -256q16 17 38 31q19 12 45 22t60 10q46 0 86 -17t68.5 -47t45 -72t16.5 -92q0 -66 -22.5 -120t-60 -93t-85.5 -60.5t-98 -21.5zM649 74q31 0 63 15t57 43t41 66t16 85q0 34 -11 62.5t-29.5 49t-43.5 31.5t-52 11q-32 0 -63.5 -15t-57 -42.5
t-41.5 -66t-16 -84.5q0 -35 11 -63.5t29.5 -48.5t43.5 -31.5t53 -11.5z" />
    <glyph glyph-name="f_f_b" horiz-adv-x="1193" 
d="M936 -6q-41 0 -69.5 11t-47.5 25q-22 16 -37 36l-40 -66h-64l108 625q-12 6 -26 11q-12 5 -29 8.5t-38 3.5q-32 0 -54.5 -8.5t-38.5 -23.5t-25.5 -36t-14.5 -46l-4 -23h113l-14 -79h-113l-76 -432h-85l76 432h-205l-76 -432h-85l76 432h-62l13 79h63l5 31q7 37 23 66
t38 49.5t48.5 31t54.5 10.5q32 0 46 -8.5t14 -7.5l-11 -74q-5 2 -11 4q-5 2 -12.5 3t-15.5 1q-34 0 -58 -21.5t-32 -61.5l-4 -23h204l5 23q8 41 28 76t50 61t68.5 41t83.5 15q20 0 38 -3t31 -6q15 -4 27 -8h85l-43 -256q16 17 38 31q18 12 44.5 22t60.5 10q46 0 86 -17
t68.5 -47t45 -72t16.5 -92q0 -66 -22.5 -120t-60 -93t-85.5 -60.5t-98 -21.5zM938 74q31 0 63 15t57.5 43t41.5 66t16 85q0 34 -11 62.5t-30 49t-43.5 31.5t-52.5 11q-32 0 -63.5 -15t-56.5 -42.5t-41 -66t-16 -84.5q0 -35 11 -63.5t29.5 -48.5t43 -31.5t52.5 -11.5z" />
    <glyph glyph-name="f_f_h" horiz-adv-x="1176" 
d="M166 432h-63l14 79h62l6 31q7 37 23 66t38 49.5t48.5 31t54.5 10.5q32 0 46 -8.5t14 -7.5l-11 -74q-5 2 -11 4q-5 2 -12.5 3t-15.5 1q-34 0 -58 -21.5t-32 -61.5l-4 -23h204l5 23q8 41 28 76t50 61t68.5 41t83.5 15q20 0 38 -3t31 -6q15 -4 27 -8h85l-42 -250
q16 16 37 28q18 11 43 20t57 9q50 0 84.5 -18t55.5 -46t30.5 -63t9.5 -69q0 -25 -4 -44l-48 -277h-86l50 285q7 31 1 59t-22 48.5t-39.5 32.5t-51.5 12q-55 0 -95 -35t-50 -95l-54 -307h-85l109 625q-12 6 -26 11q-12 5 -29.5 8.5t-37.5 3.5q-32 0 -54.5 -8.5t-38.5 -23.5
t-25.5 -36t-14.5 -46l-5 -23h114l-14 -79h-113l-76 -432h-86l77 432h-205l-76 -432h-85z" />
    <glyph glyph-name="f_f_k" horiz-adv-x="1074" 
d="M167 432h-62l13 79h63l5 31q7 37 23 66t38 49.5t48.5 31t54.5 10.5q32 0 46 -8.5t14 -7.5l-11 -74q-5 2 -11 4q-5 2 -12.5 3t-15.5 1q-34 0 -58 -21.5t-32 -61.5l-4 -23h204l5 23q8 41 28 76t50 61t68.5 41t83.5 15q20 0 38 -3t31 -6q15 -4 27 -8h85l-78 -443l231 244
h102l-236 -244l174 -267h-96l-175 267l-47 -267h-85l110 625q-12 6 -26 11q-12 5 -29 8.5t-38 3.5q-32 0 -54.5 -8.5t-38.5 -23.5t-25.5 -36t-14.5 -46l-4 -23h113l-14 -79h-113l-76 -432h-85l76 432h-205l-76 -432h-85z" />
    <glyph glyph-name="f_h" horiz-adv-x="886" 
d="M167 432h-62l13 79h63l4 23q8 41 28 76t50 61t69 41t84 15q20 0 37.5 -3t30.5 -6q15 -4 27 -8h85l-42 -250q16 16 37 28q18 11 43.5 20t57.5 9q50 0 84 -18t55 -46t30.5 -63t9.5 -69q0 -23 -3 -44l-49 -277h-85l50 285q7 31 0.5 59t-22.5 48.5t-39.5 32.5t-51.5 12
q-27 0 -51 -9t-43 -26t-32.5 -41t-18.5 -54l-53 -307h-86l109 625q-12 6 -26 11q-12 5 -29 8.5t-38 3.5q-32 0 -54.5 -8.5t-38.5 -23.5t-25.5 -36t-14.5 -46l-4 -23h113l-13 -79h-114l-76 -432h-85z" />
    <glyph glyph-name="f_k" horiz-adv-x="784" 
d="M167 432h-62l13 79h63l4 23q8 41 28 76t50 61t69 41t84 15q20 0 37.5 -3t30.5 -6q15 -4 27 -8h85l-78 -443l232 244h101l-235 -244l174 -267h-97l-175 267l-47 -267h-85l110 625q-12 6 -26 11q-12 5 -29 8.5t-38 3.5q-32 0 -54.5 -8.5t-38.5 -23.5t-25.5 -36t-14.5 -46
l-4 -23h113l-13 -79h-114l-76 -432h-85z" />
    <glyph glyph-name="f_t" horiz-adv-x="642" 
d="M554 -6q-30 0 -54.5 11t-42.5 31t-27.5 46.5t-9.5 58.5q0 9 1 18.5t3 18.5l44 254h-216l-76 -432h-85l76 432h-62l13 79h64l9 54q6 36 22 64.5t38 49t49 31.5t54 11q16 0 27 -2.5t19 -4.5q9 -3 15 -6l-12 -74q-5 2 -11 4q-5 2 -12 3t-15 1q-35 0 -59 -22.5t-31 -62.5
l-8 -46h164q29 0 48.5 16.5t24.5 46.5l13 74h75l-25 -137h113l-13 -79h-115l-44 -262q-7 -40 11.5 -68.5t63.5 -28.5h9t7 1q4 1 6 2l-13 -74l-10 -4t-12 -3t-16 -1z" />
    <glyph glyph-name="r_f" horiz-adv-x="596" 
d="M164 511h62l14 -57q16 16 38 28q19 11 47 20t66 9h69l9 54q6 36 22 64.5t38.5 49t49 31.5t54.5 11q32 0 46 -8.5t14 -7.5l-11 -73q-5 2 -11 4q-5 2 -12.5 3t-15.5 1q-34 0 -58.5 -21.5t-31.5 -61.5l-8 -46h113l-14 -79h-113l-77 -432h-85l76 432h-74q-68 0 -109 -39
t-52 -103l-51 -290h-85z" />
    <glyph glyph-name="r_t" horiz-adv-x="619" 
d="M532 -6q-30 0 -55 11t-42.5 31t-27 46.5t-9.5 58.5q0 19 3 37l44 254h-74q-72 0 -111 -39t-50 -103l-51 -290h-85l90 511h62l14 -57q14 16 35 28q18 11 46.5 20t69.5 9h17q30 0 49.5 16.5t24.5 46.5l12 74h75l-25 -137h114l-14 -79h-115l-44 -262q-7 -40 11.5 -68.5
t63.5 -28.5q13 0 17 1t6 2l-14 -74q-4 -2 -9 -4t-12 -3t-16 -1z" />
    <glyph glyph-name="I.alt" horiz-adv-x="398" 
d="M53 80h114l99 556h-114l14 80h318l-14 -80h-113l-99 -556h113l-13 -80h-318z" />
    <glyph glyph-name="a.alt" horiz-adv-x="591" 
d="M299 -6q-47 0 -86.5 17t-68 47.5t-45 72.5t-16.5 92q0 66 22.5 120t60 92.5t85.5 60t98 21.5q40 0 69.5 -11.5t48 -25t27.5 -24.5l9 -11l40 66h64l-89 -511h-62l-14 57q-17 -18 -38 -32q-19 -12 -45 -21.5t-60 -9.5zM306 74q31 0 63 15t57 43t41 66t16 85q0 34 -11 62.5
t-30 49t-43.5 31.5t-52.5 11q-32 0 -63.5 -15t-56.5 -42.5t-41 -66t-16 -84.5q0 -35 11 -63.5t29.5 -48.5t43.5 -31.5t53 -11.5z" />
    <glyph glyph-name="l.alt" horiz-adv-x="290" 
d="M242 -6q-30 0 -55 11.5t-43 31.5t-27.5 46.5t-9.5 57.5q0 17 3 34l96 541h85l-97 -548q-7 -39 11.5 -66.5t63.5 -27.5q13 0 18 1l8 2l-14 -75q-4 -2 -10 -4q-5 -2 -12.5 -3t-16.5 -1z" />
    <glyph glyph-name="y.alt" horiz-adv-x="579" 
d="M270 -193q-42 0 -78.5 11t-64 31.5t-45.5 48.5t-23 62h90q11 -34 41 -54t83 -20q58 0 97.5 33t49.5 86l14 67q-17 -18 -38 -31q-18 -11 -44 -20.5t-58 -9.5q-50 0 -84 18t-55 46t-30.5 63t-9.5 69q0 23 3 44l46 260h85l-47 -268q-2 -8 -2 -14.5v-13.5q0 -27 8.5 -50
t24 -39.5t36.5 -25.5t46 -9q27 0 51.5 10t44 28t32.5 43t18 55l49 284h86l-90 -513q-8 -42 -28.5 -77t-51.5 -60.5t-70.5 -39.5t-85.5 -14z" />
    <glyph glyph-name="Igrave.alt" horiz-adv-x="398" 
d="M53 80h114l99 556h-114l14 80h318l-14 -80h-113l-99 -556h113l-13 -80h-318zM206 904h85l68 -137h-57z" />
    <glyph glyph-name="Iacute.alt" horiz-adv-x="398" 
d="M53 80h114l99 556h-114l14 80h318l-14 -80h-113l-99 -556h113l-13 -80h-318zM396 904h86l-121 -137h-57z" />
    <glyph glyph-name="Icircumflex.alt" horiz-adv-x="398" 
d="M53 80h114l99 556h-114l14 80h318l-14 -80h-113l-99 -556h113l-13 -80h-318zM312 904h80l78 -136h-79l-44 79l-70 -79h-91z" />
    <glyph glyph-name="Idieresis.alt" horiz-adv-x="398" 
d="M53 80h114l99 556h-114l14 80h318l-14 -80h-113l-99 -556h113l-13 -80h-318zM256 802q-22 0 -35 13t-13 33q0 23 16.5 39.5t39.5 16.5q21 0 34 -13t13 -34q0 -23 -16.5 -39t-38.5 -16zM425 802q-21 0 -34.5 13t-13.5 33q0 23 16.5 39.5t39.5 16.5q21 0 34.5 -13t13.5 -34
q0 -23 -16.5 -39t-39.5 -16z" />
    <glyph glyph-name="agrave.alt" horiz-adv-x="591" 
d="M299 -6q-47 0 -86.5 17t-68 47.5t-45 72.5t-16.5 92q0 66 22.5 120t60 92.5t85.5 60t98 21.5q40 0 69.5 -11.5t48 -25t27.5 -24.5l9 -11l40 66h64l-89 -511h-62l-14 57q-17 -18 -38 -32q-19 -12 -45 -21.5t-60 -9.5zM306 74q31 0 63 15t57 43t41 66t16 85q0 34 -11 62.5
t-30 49t-43.5 31.5t-52.5 11q-32 0 -63.5 -15t-56.5 -42.5t-41 -66t-16 -84.5q0 -35 11 -63.5t29.5 -48.5t43.5 -31.5t53 -11.5zM255 727h85l68 -137h-57z" />
    <glyph glyph-name="aacute.alt" horiz-adv-x="591" 
d="M299 -6q-47 0 -86.5 17t-68 47.5t-45 72.5t-16.5 92q0 66 22.5 120t60 92.5t85.5 60t98 21.5q40 0 69.5 -11.5t48 -25t27.5 -24.5l9 -11l40 66h64l-89 -511h-62l-14 57q-17 -18 -38 -32q-19 -12 -45 -21.5t-60 -9.5zM306 74q31 0 63 15t57 43t41 66t16 85q0 34 -11 62.5
t-30 49t-43.5 31.5t-52.5 11q-32 0 -63.5 -15t-56.5 -42.5t-41 -66t-16 -84.5q0 -35 11 -63.5t29.5 -48.5t43.5 -31.5t53 -11.5zM435 727h86l-121 -137h-57z" />
    <glyph glyph-name="acircumflex.alt" horiz-adv-x="591" 
d="M299 -6q-47 0 -86.5 17t-68 47.5t-45 72.5t-16.5 92q0 66 22.5 120t60 92.5t85.5 60t98 21.5q40 0 69.5 -11.5t48 -25t27.5 -24.5l9 -11l40 66h64l-89 -511h-62l-14 57q-17 -18 -38 -32q-19 -12 -45 -21.5t-60 -9.5zM306 74q31 0 63 15t57 43t41 66t16 85q0 34 -11 62.5
t-30 49t-43.5 31.5t-52.5 11q-32 0 -63.5 -15t-56.5 -42.5t-41 -66t-16 -84.5q0 -35 11 -63.5t29.5 -48.5t43.5 -31.5t53 -11.5zM355 727h80l78 -136h-79l-44 79l-70 -79h-91z" />
    <glyph glyph-name="atilde.alt" horiz-adv-x="591" 
d="M299 -6q-47 0 -86.5 17t-68 47.5t-45 72.5t-16.5 92q0 66 22.5 120t60 92.5t85.5 60t98 21.5q40 0 69.5 -11.5t48 -25t27.5 -24.5l9 -11l40 66h64l-89 -511h-62l-14 57q-17 -18 -38 -32q-19 -12 -45 -21.5t-60 -9.5zM306 74q31 0 63 15t57 43t41 66t16 85q0 34 -11 62.5
t-30 49t-43.5 31.5t-52.5 11q-32 0 -63.5 -15t-56.5 -42.5t-41 -66t-16 -84.5q0 -35 11 -63.5t29.5 -48.5t43.5 -31.5t53 -11.5zM444 579q-26 0 -42 11.5t-27.5 25t-22 25t-25.5 11.5q-18 0 -35 -17.5t-22 -49.5h-51q10 64 41.5 97.5t69.5 33.5q25 0 41 -11.5t27.5 -25.5
t22.5 -25.5t26 -11.5q18 0 35 18t22 50h51q-11 -64 -42 -97.5t-69 -33.5z" />
    <glyph glyph-name="adieresis.alt" horiz-adv-x="591" 
d="M299 -6q-47 0 -86.5 17t-68 47.5t-45 72.5t-16.5 92q0 66 22.5 120t60 92.5t85.5 60t98 21.5q40 0 69.5 -11.5t48 -25t27.5 -24.5l9 -11l40 66h64l-89 -511h-62l-14 57q-17 -18 -38 -32q-19 -12 -45 -21.5t-60 -9.5zM306 74q31 0 63 15t57 43t41 66t16 85q0 34 -11 62.5
t-30 49t-43.5 31.5t-52.5 11q-32 0 -63.5 -15t-56.5 -42.5t-41 -66t-16 -84.5q0 -35 11 -63.5t29.5 -48.5t43.5 -31.5t53 -11.5zM289 602q-22 0 -35 13t-13 33q0 23 16.5 39.5t39.5 16.5q21 0 34 -13t13 -34q0 -23 -16.5 -39t-38.5 -16zM458 602q-21 0 -34.5 13t-13.5 33
q0 23 16.5 39.5t39.5 16.5q21 0 34.5 -13t13.5 -34q0 -23 -16.5 -39t-39.5 -16z" />
    <glyph glyph-name="aring.alt" horiz-adv-x="591" 
d="M299 -6q-47 0 -86.5 17t-68 47.5t-45 72.5t-16.5 92q0 66 22.5 120t60 92.5t85.5 60t98 21.5q40 0 69.5 -11.5t48 -25t27.5 -24.5l9 -11l40 66h64l-89 -511h-62l-14 57q-17 -18 -38 -32q-19 -12 -45 -21.5t-60 -9.5zM306 74q31 0 63 15t57 43t41 66t16 85q0 34 -11 62.5
t-30 49t-43.5 31.5t-52.5 11q-32 0 -63.5 -15t-56.5 -42.5t-41 -66t-16 -84.5q0 -35 11 -63.5t29.5 -48.5t43.5 -31.5t53 -11.5zM377 579q-37 0 -60 23.5t-23 58.5q0 21 8 39.5t21.5 32t31 21t37.5 7.5q37 0 60 -23.5t23 -58.5q0 -21 -8 -39.5t-21.5 -32t-31.5 -21t-37 -7.5
zM383 630q16 0 29 12.5t13 31.5q0 15 -11 25.5t-28 10.5q-16 0 -29 -13t-13 -32q0 -14 11 -24.5t28 -10.5z" />
    <glyph glyph-name="yacute.alt" horiz-adv-x="579" 
d="M270 -193q-42 0 -78.5 11t-64 31.5t-45.5 48.5t-23 62h90q11 -34 41 -54t83 -20q58 0 97.5 33t49.5 86l14 67q-17 -18 -38 -31q-18 -11 -44 -20.5t-58 -9.5q-50 0 -84 18t-55 46t-30.5 63t-9.5 69q0 23 3 44l46 260h85l-47 -268q-2 -8 -2 -14.5v-13.5q0 -27 8.5 -50
t24 -39.5t36.5 -25.5t46 -9q27 0 51.5 10t44 28t32.5 43t18 55l49 284h86l-90 -513q-8 -42 -28.5 -77t-51.5 -60.5t-70.5 -39.5t-85.5 -14zM440 727h86l-121 -137h-57z" />
    <glyph glyph-name="ydieresis.alt" horiz-adv-x="579" 
d="M270 -193q-42 0 -78.5 11t-64 31.5t-45.5 48.5t-23 62h90q11 -34 41 -54t83 -20q58 0 97.5 33t49.5 86l14 67q-17 -18 -38 -31q-18 -11 -44 -20.5t-58 -9.5q-50 0 -84 18t-55 46t-30.5 63t-9.5 69q0 23 3 44l46 260h85l-47 -268q-2 -8 -2 -14.5v-13.5q0 -27 8.5 -50
t24 -39.5t36.5 -25.5t46 -9q27 0 51.5 10t44 28t32.5 43t18 55l49 284h86l-90 -513q-8 -42 -28.5 -77t-51.5 -60.5t-70.5 -39.5t-85.5 -14zM300 602q-22 0 -35 13t-13 33q0 23 16.5 39.5t39.5 16.5q21 0 34 -13t13 -34q0 -23 -16.5 -39t-38.5 -16zM469 602q-21 0 -34.5 13
t-13.5 33q0 23 16.5 39.5t39.5 16.5q21 0 34.5 -13t13.5 -34q0 -23 -16.5 -39t-39.5 -16z" />
    <glyph glyph-name="amacron.alt" horiz-adv-x="591" 
d="M299 -6q-47 0 -86.5 17t-68 47.5t-45 72.5t-16.5 92q0 66 22.5 120t60 92.5t85.5 60t98 21.5q40 0 69.5 -11.5t48 -25t27.5 -24.5l9 -11l40 66h64l-89 -511h-62l-14 57q-17 -18 -38 -32q-19 -12 -45 -21.5t-60 -9.5zM306 74q31 0 63 15t57 43t41 66t16 85q0 34 -11 62.5
t-30 49t-43.5 31.5t-52.5 11q-32 0 -63.5 -15t-56.5 -42.5t-41 -66t-16 -84.5q0 -35 11 -63.5t29.5 -48.5t43.5 -31.5t53 -11.5zM255 676h273l-12 -69h-273z" />
    <glyph glyph-name="abreve.alt" horiz-adv-x="591" 
d="M299 -6q-47 0 -86.5 17t-68 47.5t-45 72.5t-16.5 92q0 66 22.5 120t60 92.5t85.5 60t98 21.5q40 0 69.5 -11.5t48 -25t27.5 -24.5l9 -11l40 66h64l-89 -511h-62l-14 57q-17 -18 -38 -32q-19 -12 -45 -21.5t-60 -9.5zM306 74q31 0 63 15t57 43t41 66t16 85q0 34 -11 62.5
t-30 49t-43.5 31.5t-52.5 11q-32 0 -63.5 -15t-56.5 -42.5t-41 -66t-16 -84.5q0 -35 11 -63.5t29.5 -48.5t43.5 -31.5t53 -11.5zM378 591q-30 0 -53 10.5t-39.5 28t-25.5 40t-10 46.5h65q0 -32 19 -50t48 -18q27 0 48 20t30 48h68q-9 -26 -23.5 -48.5t-34 -39.5t-42.5 -27
t-50 -10z" />
    <glyph glyph-name="aogonek.alt" horiz-adv-x="591" 
d="M501 -197q-53 0 -81 24.5t-28 62.5q0 23 10 42.5t22 34.5q14 18 32 33l-14 57q-17 -18 -38 -32q-19 -12 -45 -21.5t-60 -9.5q-47 0 -86.5 17t-68 47.5t-45 72.5t-16.5 92q0 66 22.5 120t60 92.5t85.5 60t98 21.5q40 0 69.5 -11.5t48 -25t27.5 -24.5l9 -11l40 66h64
l-89 -511h-8q-17 -15 -30 -32q-11 -14 -20.5 -32.5t-9.5 -38.5q0 -25 17 -36.5t43 -11.5h11t9 1q4 0 8 1l-7 -45q-5 -1 -9 -2q-5 -1 -10 -1h-11zM306 74q31 0 63 15t57 43t41 66t16 85q0 34 -11 62.5t-30 49t-43.5 31.5t-52.5 11q-32 0 -63.5 -15t-56.5 -42.5t-41 -66
t-16 -84.5q0 -35 11 -63.5t29.5 -48.5t43.5 -31.5t53 -11.5z" />
    <glyph glyph-name="uni0128.alt" horiz-adv-x="398" 
d="M53 80h114l99 556h-114l14 80h318l-14 -80h-113l-99 -556h113l-13 -80h-318zM400 767q-26 0 -42 11.5t-27.5 25t-22 25t-25.5 11.5q-18 0 -35 -17.5t-22 -49.5h-51q10 64 41.5 97.5t69.5 33.5q25 0 41 -11.5t27.5 -25.5t22.5 -25.5t26 -11.5q18 0 35 18t22 50h51
q-11 -64 -42 -97.5t-69 -33.5z" />
    <glyph glyph-name="Imacron.alt" horiz-adv-x="398" 
d="M53 80h114l99 556h-114l14 80h318l-14 -80h-113l-99 -556h113l-13 -80h-318zM206 881h273l-12 -69h-273z" />
    <glyph glyph-name="Ibreve.alt" horiz-adv-x="398" 
d="M53 80h114l99 556h-114l14 80h318l-14 -80h-113l-99 -556h113l-13 -80h-318zM345 779q-30 0 -53 10.5t-39.5 28t-25.5 40t-10 46.5h65q0 -32 19 -50t48 -18q27 0 48 20t30 48h68q-9 -26 -23.5 -48.5t-34 -39.5t-42.5 -27t-50 -10z" />
    <glyph glyph-name="Iogonek.alt" horiz-adv-x="398" 
d="M349 -193q-54 0 -81.5 22.5t-27.5 60.5q0 23 9.5 42.5t21.5 34.5q14 18 32 33h-263l13 80h114l99 556h-114l14 80h318l-14 -80h-113l-99 -556h113l-13 -80q-17 -15 -30 -32q-11 -14 -20.5 -32.5t-9.5 -38.5q0 -25 17 -35t43 -10h11t9 1l8 2l-8 -46q-5 -1 -9 -1
q-4 -1 -9 -1h-11z" />
    <glyph glyph-name="Idotaccent.alt" horiz-adv-x="398" 
d="M53 80h114l99 556h-114l14 80h318l-14 -80h-113l-99 -556h113l-13 -80h-318zM337 796q-23 0 -36.5 14t-13.5 34q0 26 17 43t41 17q23 0 36.5 -14t13.5 -34q0 -26 -17 -43t-41 -17z" />
    <glyph glyph-name="lacute.alt" horiz-adv-x="290" 
d="M242 -6q-30 0 -55 11.5t-43 31.5t-27.5 46.5t-9.5 57.5q0 17 3 34l96 541h85l-97 -548q-7 -39 11.5 -66.5t63.5 -27.5q13 0 18 1l8 2l-14 -75q-4 -2 -10 -4q-5 -2 -12.5 -3t-16.5 -1zM322 904h86l-121 -137h-57z" />
    <glyph glyph-name="lcommaaccent.alt" horiz-adv-x="290" 
d="M242 -6q-30 0 -55 11.5t-43 31.5t-27.5 46.5t-9.5 57.5q0 17 3 34l96 541h85l-97 -548q-7 -39 11.5 -66.5t63.5 -27.5q13 0 18 1l8 2l-14 -75q-4 -2 -10 -4q-5 -2 -12.5 -3t-16.5 -1zM98 -262q13 10 24 21q10 10 19.5 23.5t14.5 30.5q-21 2 -35 18.5t-14 36.5
q0 24 16.5 41t40.5 17q26 0 42 -17.5t16 -40.5q0 -21 -9 -43.5t-24 -42.5t-35 -38t-43 -30z" />
    <glyph glyph-name="lcaron.alt" horiz-adv-x="301" 
d="M393 716h80l-92 -137h-52zM242 -6q-30 0 -55 11.5t-43 31.5t-27.5 46.5t-9.5 57.5q0 17 3 34l96 541h85l-97 -548q-7 -39 11.5 -66.5t63.5 -27.5q13 0 18 1l8 2l-14 -75q-4 -2 -10 -4q-5 -2 -12.5 -3t-16.5 -1z" />
    <glyph glyph-name="ldot.alt" horiz-adv-x="398" 
d="M242 -6q-30 0 -55 11.5t-43 31.5t-27.5 46.5t-9.5 57.5q0 17 3 34l96 541h85l-97 -548q-7 -39 11.5 -66.5t63.5 -27.5q13 0 18 1l8 2l-14 -75q-4 -2 -10 -4q-5 -2 -12.5 -3t-16.5 -1zM379 301q-23 0 -36.5 14t-13.5 34q0 26 17 43t41 17q23 0 36.5 -14t13.5 -34
q0 -26 -17 -43t-41 -17z" />
    <glyph glyph-name="lslash.alt" horiz-adv-x="307" 
d="M259 -6q-30 0 -55 11.5t-43 31.5t-27.5 46.5t-9.5 57.5q0 17 3 34l21 119l-95 -55l15 85l94 55l61 337h85l-50 -282l102 60l-16 -85l-101 -59l-32 -182q-7 -39 11.5 -66.5t63.5 -27.5q13 0 18 1l8 2l-14 -75q-4 -2 -10 -4q-5 -2 -12.5 -3t-16.5 -1z" />
    <glyph glyph-name="ycircumflex.alt" horiz-adv-x="579" 
d="M270 -193q-42 0 -78.5 11t-64 31.5t-45.5 48.5t-23 62h90q11 -34 41 -54t83 -20q58 0 97.5 33t49.5 86l14 67q-17 -18 -38 -31q-18 -11 -44 -20.5t-58 -9.5q-50 0 -84 18t-55 46t-30.5 63t-9.5 69q0 23 3 44l46 260h85l-47 -268q-2 -8 -2 -14.5v-13.5q0 -27 8.5 -50
t24 -39.5t36.5 -25.5t46 -9q27 0 51.5 10t44 28t32.5 43t18 55l49 284h86l-90 -513q-8 -42 -28.5 -77t-51.5 -60.5t-70.5 -39.5t-85.5 -14zM361 727h80l78 -136h-79l-44 79l-70 -79h-91z" />
    <glyph glyph-name="aringacute.alt" horiz-adv-x="591" 
d="M456 886h86l-121 -137h-57zM371 545q-37 0 -60 23.5t-23 58.5q0 21 8 39.5t21.5 32t31 21t37.5 7.5q37 0 60 -23.5t23 -58.5q0 -21 -8 -39.5t-21.5 -32t-31.5 -21t-37 -7.5zM377 596q16 0 29 12.5t13 31.5q0 15 -11 25.5t-28 10.5q-16 0 -29 -13t-13 -32q0 -14 11 -24.5
t28 -10.5zM299 -6q-47 0 -86.5 17t-68 47.5t-45 72.5t-16.5 92q0 66 22.5 120t60 92.5t85.5 60t98 21.5q40 0 69.5 -11.5t48 -25t27.5 -24.5l9 -11l40 66h64l-89 -511h-62l-14 57q-17 -18 -38 -32q-19 -12 -45 -21.5t-60 -9.5zM306 74q31 0 63 15t57 43t41 66t16 85
q0 34 -11 62.5t-30 49t-43.5 31.5t-52.5 11q-32 0 -63.5 -15t-56.5 -42.5t-41 -66t-16 -84.5q0 -35 11 -63.5t29.5 -48.5t43.5 -31.5t53 -11.5z" />
    <glyph glyph-name="uni0233.alt" horiz-adv-x="579" 
d="M270 -193q-42 0 -78.5 11t-64 31.5t-45.5 48.5t-23 62h90q11 -34 41 -54t83 -20q58 0 97.5 33t49.5 86l14 67q-17 -18 -38 -31q-18 -11 -44 -20.5t-58 -9.5q-50 0 -84 18t-55 46t-30.5 63t-9.5 69q0 23 3 44l46 260h85l-47 -268q-2 -8 -2 -14.5v-13.5q0 -27 8.5 -50
t24 -39.5t36.5 -25.5t46 -9q27 0 51.5 10t44 28t32.5 43t18 55l49 284h86l-90 -513q-8 -42 -28.5 -77t-51.5 -60.5t-70.5 -39.5t-85.5 -14zM266 676h273l-12 -69h-273z" />
    <glyph glyph-name="parenleft.case" horiz-adv-x="301" 
d="M197 -137q-25 45 -43 101q-16 48 -29 113.5t-13 144.5q0 66 10.5 126.5t28 115t40 102t46.5 86.5q55 92 126 166l48 -47q-62 -74 -110 -160q-21 -37 -40.5 -80.5t-35 -92t-25 -101t-9.5 -107.5q0 -69 10.5 -129t23.5 -105q15 -53 34 -98l-62 -35v0z" />
    <glyph glyph-name="parenright.case" horiz-adv-x="301" 
d="M10 -90q62 73 110 160q21 37 40.5 80.5t35.5 92t25.5 101t9.5 107.5q0 69 -10.5 129.5t-23.5 105.5q-15 53 -34 98l62 34q24 -46 42 -101q16 -48 29.5 -113.5t13.5 -144.5q0 -66 -11 -126.5t-28.5 -115t-40 -102t-46.5 -86.5q-55 -92 -125 -166z" />
    <glyph glyph-name="hyphen.case" horiz-adv-x="392" 
d="M112 409h312l-14 -79h-312z" />
    <glyph glyph-name="at.case" horiz-adv-x="841" 
d="M443 -40q-75 0 -137.5 28t-107.5 75.5t-70.5 110.5t-25.5 133q0 86 34.5 161.5t92 131.5t133 88.5t156.5 32.5q76 0 140.5 -25.5t111 -69t73 -101.5t26.5 -122q0 -63 -16 -111t-42.5 -80t-60 -48.5t-67.5 -16.5q-30 0 -50 9.5t-32 21.5t-17.5 22l-5.5 10q-15 -18 -34 -32
q-17 -12 -42 -21.5t-57 -9.5q-33 0 -61 13t-48.5 35.5t-32.5 53.5t-12 68q0 48 17 88t44 68.5t61.5 44.5t69.5 16q32 0 54.5 -9t36.5 -20q17 -12 28 -28l26 51h53l-39 -218q-7 -42 4 -71t47 -29q15 0 33 9.5t33 31.5t25 58t10 88q0 49 -21 96t-58.5 84t-88.5 59.5t-111 22.5
q-64 0 -125 -27t-108.5 -74.5t-76.5 -111t-29 -135.5q0 -59 21 -111.5t57.5 -91.5t86.5 -62t109 -23q29 0 55.5 5.5t46.5 13.5q23 8 43 19l24 -60q-25 -12 -54 -21q-25 -8 -56.5 -14t-65.5 -6zM462 216q25 0 48 9.5t40.5 28.5t28 45.5t10.5 61.5q0 48 -28.5 76.5t-75.5 28.5
q-25 0 -48 -10t-40 -28.5t-27.5 -46t-10.5 -61.5q0 -48 28.5 -76t74.5 -28z" />
    </font>
</defs>
</svg>
